<?xml version="1.0" encoding="utf-8" ?>
<svg baseProfile="full" height="300mm" version="1.1" viewBox="0,0,200,300" width="200mm" xmlns="http://www.w3.org/2000/svg" xmlns:ev="http://www.w3.org/2001/xml-events" xmlns:xlink="http://www.w3.org/1999/xlink"><defs /><rect fill="#222222" height="300" width="200" x="0" y="0" /><text fill="#FFFFFF" style="font-size:12px; font-family:Arial; font-weight:bold;" x="10" y="20">Over 10km Runs</text><text fill="#FFFFFF" style="font-size:4px; font-family:Arial" x="10" y="280">ATHLETE</text><text fill="#FFFFFF" style="font-size:9px; font-family:Arial" x="10" y="290">Sinnelf</text><text fill="#FFFFFF" style="font-size:4px; font-family:Arial" x="120" y="280">STATISTICS</text><text fill="#FFFFFF" style="font-size:3px; font-family:Arial" x="120" y="285">Number: 21</text><text fill="#FFFFFF" style="font-size:3px; font-family:Arial" x="120" y="290">Weekly: 1.8</text><text fill="#FFFFFF" style="font-size:3px; font-family:Arial" x="141" y="285">Total: 235.7 km</text><text fill="#FFFFFF" style="font-size:3px; font-family:Arial" x="141" y="290">Avg: 11.2 km</text><text fill="#FFFFFF" style="font-size:3px; font-family:Arial" x="167" y="285">Min: 10.1 km</text><text fill="#FFFFFF" style="font-size:3px; font-family:Arial" x="167" y="290">Max: 15.1 km</text><polyline fill="none" points="38.2093161016237,67.43565204002152 38.42800689939759,67.62804395056446 38.7728654651728,67.79478313728396 38.86538849500357,67.85891347774304 38.86538849500357,67.89739165112405 38.798099018778885,67.96152188850101 38.671931250806665,68.0 38.32707268506056,67.87173953812453 38.07473714914522,67.84608741482589 37.612121999962255,67.70500055238153 37.47754304748378,67.62804395056446 37.13268448173767,67.35869511348938 36.888760130357696,67.20478098205422 36.14016470714705,66.57629442714097 35.83736206407775,66.2428092525879 34.84484228945803,65.28082302626353 33.650454086164245,64.30599552818603 32.57382246630732,63.369634045506245 32.16167442427832,62.98482397447515 31.96821718008141,62.85655343530016 31.74111519777216,62.67697424739163 31.572891507152235,62.51022169192947 31.51401321546291,62.40760451820097 31.505602030927548,62.35629586950017 31.522424399998272,62.30498717957016 31.59812506075832,62.16388806948089 31.564480322645977,62.18954247632428 31.354200709378347,62.061270339007024 31.08504280442139,61.804725291043724 30.605605286196806,61.40707842899428 30.269157904956955,61.08639367131036 29.411217082873918,60.38088153318313 29.09159207070479,60.060191619857505 28.376641385635594,59.43163471585285 28.040194004424848,59.17507909869164 27.5523453016649,58.700448488445545 27.148608444200363,58.39257809735136 26.786927509412635,58.05905016459292 26.500947235355852,57.828145190196665 25.95422024090658,57.34067638995475 25.441137984540546,56.827547315042466 25.12151297237142,56.570981230644975 25.096279418823542,56.51966788999562 25.087868234259076,56.46835450809522 25.214036002231296,56.134816520228924 25.567305752483662,55.37793539029735 25.701884704991244,55.14702071635111 25.861697211075807,54.76216106990978 26.248611699440517,54.030921348312404 26.341134729300393,53.800001800955215 26.63552618783433,53.26118627473625 26.82057224752498,52.85065710638446 27.249542658566497,52.04242008929941 27.48505582541111,51.5164190722935 27.804680837580236,50.91343696359036 27.897203867411008,50.70816515873594 28.048605188931106,50.413085782587586 28.4186973082833,49.63047735148575 28.578509814367862,49.361052556290815 28.76355587405851,48.9889878739632 28.86449008839554,48.71956037068958 29.242993392283097,48.01391151916323 29.36074997569085,47.718819685873314 29.8485986784508,46.7437239246683 30.462615149182966,45.42218878581116 30.605605286196806,45.165576848197816 30.899996744730743,44.56253473326433 31.21962175689987,43.985148645107984 31.328967155801365,43.754192747117486 31.505602030927548,43.317940437184006 31.816815858561313,42.753374197342055 32.11120731709525,42.12464682488644 32.24578626960283,41.90651547280868 32.79251326408121,40.73885849852741 33.011204061855096,40.341080364723894 33.08690472264425,40.14860618406601 33.381296181178186,39.59684364862187 33.7682106696011,38.775606854345824 34.09624686627649,38.198168405215256 35.02147716464242,36.20917375104182 35.223345593345584,35.901194842339464 35.366335730359424,35.54188423679443 35.517737051908625,35.31089777913803 35.6102600817394,35.11840842573656 36.33362195134396,33.56563974042729 36.60277985633002,33.06515252524332 36.745769993343856,32.834157101962774 36.88034894585144,32.51332873783031 37.031750267371535,32.2566648851207 37.15791803531465,32.0 37.13268448173767,32.128332571588544 37.0401614519069,32.3336641493479 37.031750267371535,32.3978301318748 36.9308160530054,32.692992820451764 36.678480517090065,33.167816889403184 36.22427655244246,34.143120110893506 35.96352983202087,34.579435147006734 35.83736206407775,34.87458774448896 35.39998046847177,35.70870726951398 35.3074574386701,35.91402732652932 35.21493440881022,36.18350889874637 35.080355456331745,36.42732457874445 34.60091793810716,37.42824234500222 34.55886201543035,37.556564000089566 34.36540477123344,37.87736700903406 33.75138830055948,39.083571890700114 33.507463949150406,39.64817059736379 33.24671722872881,40.05878470103562 33.08690472264425,40.48222772825466 32.94391458563041,40.79018452873788 32.85139155579964,41.021151153861865 32.71681260332116,41.25211694302925 32.649523127038265,41.43175642333881 32.321486930391984,42.047659373994975 31.900927703856723,42.95867158972396 31.614947429829044,43.52323601331955 31.530835584533634,43.72853092910009 31.36261189391371,44.02364121348728 31.118687542533735,44.536873240289424 30.925230298336828,44.80631840208662 30.72336186960456,45.26822174710469 30.597194101661444,45.48634160901929 30.479437518195482,45.794274262600084 30.328036196675384,46.0893749947536 30.260746720450697,46.25617045713443 30.042055922647705,46.66674204582159 29.73084209501394,47.35957561241594 29.537384850817034,47.693159461974574 29.369161160226213,48.065231698761636 29.158881546958582,48.46296169104971 28.982246671803296,48.873519083255815 28.84766771935392,49.11728628530909 28.755144689494045,49.39954188237243 28.62897692155093,49.61764762513121 28.54486507625552,49.822922937404655 28.35981901656487,50.1180050421608 28.05701637349557,50.733824170449225 27.779447284003254,51.23417283701565 27.653279516031034,51.413784222073446 27.28318739667884,52.260516800630285 26.99720712265116,52.74802440168787 26.736460402229568,53.363818154244655 26.282256437581964,54.30032643096274 25.701884704991244,55.403592524726264 25.449549169075908,56.03218909641146 25.272914293949725,56.36572762056676 25.146746525977505,56.68643609624269 24.97852283535758,56.943001716572326 24.79347677572514,57.32784821332825 24.59160834699287,57.610067502933816 24.36450636468362,58.25147033852045 23.96076950718998,58.98266170911302 23.68320041766856,59.58556759118801 23.43927606631769,60.060191619857505 23.128062238713028,60.714397333973466 22.825259595614625,61.18901296907279 22.59815761327627,61.7277615755811 22.421522738150088,62.07409756433117 22.186009571276372,62.58718446394778 22.0934865414456,62.753936818335205 21.942085219925502,63.11309425593572 21.471058886207175,64.11359360499773 21.13461150499643,64.71645102605544 21.16825624310877,64.63949082122781 21.243956903897924,64.3444758432488 21.36171348730568,64.02380584238199 21.471058886207175,63.79292244430326 21.773861529305577,63.22853728881091 22.051430618827,62.56153021695718 22.38787800000864,61.907343433940696 22.530868137051584,61.59948851029549 22.614979982346995,61.458387840724754 22.867315518233227,60.98377420856923 23.01030565527617,60.76570730250023 23.119651054148562,60.50915704742147 23.22899645305006,60.20129538020774 23.422453697246965,59.84212155843488 24.061703721556114,58.4952017260257 24.24674978121766,58.174502338548336 24.717776114935987,57.13542525502271 24.995345204428304,56.63512284841272 25.079457049723715,56.50683954839769 25.12151297237142,56.46835450809522 25.16356889504823,56.46835450809522 25.76076299668057,56.91734520093087 26.09721037792042,57.238050904968986 26.374779467412736,57.456129863312526 26.70281566408812,57.80248903035681 27.030851860763505,58.03339409756518 27.417766349186422,58.41823401999136 27.7037466232141,58.649136859716236 28.21682887955103,59.136595667187066 28.469164415466366,59.34184036714214 28.77196705856477,59.63687846713583 29.27663813039544,60.03453635714686 29.764486833155388,60.49632950760861 29.890654601127608,60.58612223221644 30.235513166844612,60.86832711579336 30.538315809943015,61.18901296907279 30.95046385191381,61.5738338662959 31.169154649716802,61.76624344490119 31.413079001096776,61.94582519502728 31.556069138110615,61.99713417369276 31.648592167941388,62.08692478710145 31.690648090589093,62.176715274214075 31.68223690605373,62.22802406728806 31.46354610825074,62.471740271157614 30.84952963757678,62.95916988726094 30.529904625407653,63.30549919476471 30.193457244196907,63.62617280412451 29.62149669614155,64.11359360499773 29.167292731493944,64.54970379834049 29.125236808817135,64.61383739899975 29.125236808817135,64.66514423318586 29.19252628510003,64.83189115930509 29.268226945830975,65.11407727281767 29.36074997569085,65.84519003673267 29.411217082873918,66.4223784092319 29.470095374592347,66.65325229693917 29.486917743633967,66.80716775820474 29.512151297240052,67.12782377715848 29.537384850817034,67.28173809413784 29.56261840442312,67.80760921055116 29.579440773493843,67.88456559592669 29.613085511606187,67.9486958461639 29.671963803324616,67.9486958461639 29.78972038673237,67.89739165112405 29.97476644642302,67.76913098304794 30.52149344087229,67.47413046853399 30.984108590026153,67.17912859070202 31.892516519350465,66.67890489955607 32.136440870701335,66.51216279810978 32.489710620982805,66.33259389403611 33.01961524641956,65.97345457053598 33.33082907402422,65.80671062635156 34.399049509403994,65.21669009569814 34.60091793810716,65.126903884684 34.67661859886721,65.10125065836473 34.77755281323334,65.13973049401102 35.16446730165626,65.4347417967183 35.44203639114858,65.69127225603006 35.77007258782396,66.03758674081473 36.56072393368231,66.78151520706524 37.06539500548388,67.19195478766414 37.36819764858228,67.3843474326386 37.6457667381037,67.58956561482773 38.08314833365148,67.76913098304794 38.377539792243624,67.80760921055116 38.671931250806665,67.96152188850101 38.7728654651728,67.97434792826607 38.82333257232676,67.93586980127293 38.840154941397486,67.91021770373845 38.840154941397486,67.87173953812453 38.80651020328514,67.83326134931485 38.53735229829908,67.70500055238153" stroke="#4dd2ff" stroke-linecap="round" stroke-linejoin="round" stroke-width="0.5"><title>2022-12-07 10.4km</title></polyline><polyline fill="none" points="84.77321785030654,67.41104948651628 85.45331173521117,67.88477098002477 85.36095330637181,68.0 84.70604808389908,67.80795151759958 83.31227543088607,66.88611074519213 78.35010893730214,62.62242368960142 78.17378830048256,62.40475032970062 78.28293917092378,62.148663071937335 71.84303781631752,56.42484427390809 83.79925623736926,32.0 83.59774693811778,32.8198634998771 79.28208944626385,41.65834674726648 68.06473845575238,64.38939168124853 67.87162537733093,64.69668546068715 67.84643671492813,64.51743093612458 71.33086834746064,57.244393494813266 71.83464159554569,56.52728850301719 78.29133539169561,62.08464109668057 78.14020341730793,62.443163329615345 75.81445025533321,64.54303875619007 76.28463862021454,67.94878712794525 81.27199377617217,65.13201577810833 84.24425593981869,67.56468927570677 85.42812307280838,67.96159034983066 85.4868966184149,67.8591645028464 84.69765186309814,67.41104948651628" stroke="#4dd2ff" stroke-linecap="round" stroke-linejoin="round" stroke-width="0.5"><title>2022-11-10 10.4km</title></polyline><polyline fill="none" points="131.50996390293585,67.50049499512534 132.20709830179112,67.89753775398276 132.1063077862782,68.0 130.98081369657302,67.67980493438881 129.5781456893019,66.65516991613913 125.00897565347259,62.60770056788533 124.83259225136135,62.364331877892255 124.94178197649308,62.12096225877394 124.19425231986679,61.64702928105544 118.45759214626742,56.497584375065344 118.91114946600283,55.267804647854064 130.4432642805914,32.0 129.71253304326092,33.90940746664637 119.70907438031281,53.97394827807511 114.45956836489495,64.73393486341956 114.97192015204928,63.286566213020706 118.47439056550502,56.497584375065344 125.00057644385379,62.14658015714667 122.50601118532359,64.55461663724782 122.9511692954402,67.94876889757143 127.9738966509758,65.10537815571661 130.96401527733542,67.57734217372854 132.1399046248116,67.9231533309212 131.45956864519394,67.53891859601936 131.3251812912058,67.16748948402164" stroke="#4dd2ff" stroke-linecap="round" stroke-linejoin="round" stroke-width="0.5"><title>2022-11-08 10.4km</title></polyline><polyline fill="none" points="178.03670323544065,67.32094282599064 178.83491212967783,67.83343947571848 178.70047694750247,68.0 177.6502020866319,67.71812808864706 176.85199319236563,67.15438052795434 171.68464087683242,62.631407200329704 171.5081947002036,62.400765402559045 171.62582548463251,62.13168225069967 169.8697659172467,60.82469078881695 165.1393279438489,56.493488375435845 165.40819830822875,55.63490147564153 177.13766795452102,32.0 176.91080858456553,32.79480826416693 166.8617787156836,53.007810045874066 161.16508787029306,64.69433284577462 177.06204816451645,32.16665416687465 176.72596020903438,33.115292663598666 173.69276641082251,39.14009949407773 165.2485565294046,56.46785908314996 171.66783647908596,62.14449575985782 169.121970216278,64.6430808431578 169.61769995064242,67.92312596593547 174.65901928284438,65.1043473836362 177.60819109217846,67.59000408065913 178.80130333415582,67.94875065423912 177.95268124656286,67.35938021758557" stroke="#4dd2ff" stroke-linecap="round" stroke-linejoin="round" stroke-width="0.5"><title>2022-11-04 15.1km</title></polyline><polyline fill="none" points="38.15403021001839,107.34726507130472 38.859062158182496,107.8976106495902 38.691197408596054,108.0 38.078491072694305,107.84641591268519 36.60967451403849,106.92490361202726 31.548552314721746,102.4707395468904 31.61569821453304,102.1123449912302 28.946648696495686,99.94913503264979 25.144512118888088,96.46736471810436 37.16362818755442,72.0 30.961025691241957,84.93264082741007 21.140937841846608,104.68506118947334 24.741636719962116,97.04340603498713 25.152905356371775,96.5057676346405 31.65766440195148,102.13794466919353 29.139693158474984,104.58266651042868 29.59292798230308,107.93600667531064 34.6708366565872,105.0818390160166 37.60007653644425,107.59044161084603 38.766736545891035,107.8976106495902 38.078491072694305,107.44965530637637" stroke="#4dd2ff" stroke-linecap="round" stroke-linejoin="round" stroke-width="0.5"><title>2022-11-01 10.4km</title></polyline><polyline fill="none" points="84.8216201083269,107.40936809679988 85.54575639741961,107.8844420137284 85.3352516622108,108.0 84.28272798622493,107.70468473076107 83.37334753014147,107.08837020758801 78.37175502179889,102.6712755023982 78.14440990777803,102.40161739034738 78.27913293827442,102.13195814042774 75.34890702430857,99.76918080546966 71.75348614706309,96.4560089155566 83.77751662171795,72.0 83.43228885601275,73.04059863782459 78.89380676505971,82.071255144514 77.36133229281404,85.34664009771586 67.78757693589432,104.75145697557673 68.2254267850949,103.44172098064519 71.77032652590424,96.4688509987318 78.29597331711557,102.11911719539057 75.769916494668,104.58453133162038 76.26670766976895,107.94864092077114 81.29356074635871,105.09814730435755 84.2743077968189,107.60196605633246 85.44471412451821,107.93580114452197 84.69531726720743,107.48640735029039" stroke="#4dd2ff" stroke-linecap="round" stroke-linejoin="round" stroke-width="0.5"><title>2022-10-28 10.4km</title></polyline><polyline fill="none" points="131.7457212265872,107.89742821587788 130.84604555985425,107.69228415303587 129.82024713605642,106.89734468033203 124.97713326651137,102.61475843118023 124.90986779608647,102.16596778486928 118.43556626906502,96.56223023431812 130.46767728874693,72.0 129.56800162204308,74.20649814632634 117.93107524098014,97.66506416385528 114.61825082323048,104.6022219237675 114.52576080142171,104.7560874833689 114.54257716902066,104.37142288864925 114.94616999148275,103.33281689989235 118.0235652627889,97.06235495981673 118.43556626906502,96.6135252583772 119.722018390632,97.45988720164678 124.9855414502963,102.14032250973833 122.47990267749992,104.65351048485172 122.95916915417183,107.96153560025778 127.95363033216563,105.15357179525745 130.8628619274532,107.56406877883637 132.00637492441456,108.0 132.14090586526436,107.88460673125155 131.812986696983,107.7435702305811" stroke="#4dd2ff" stroke-linecap="round" stroke-linejoin="round" stroke-width="0.5"><title>2022-10-23 10.2km</title></polyline><polyline fill="none" points="178.42619490687503,107.9100573902906 177.53301824672963,107.74302077945322 176.26908901068964,106.72794276258355 171.65153420175193,102.65461955150386 171.5251412781363,102.46186912154735 171.63468181193457,102.19201754360984 170.8089147110586,101.66516118071013 165.12123314890778,96.57627627018155 177.13698708612355,72.0 176.2859414005361,74.15980040503564 167.47214152794913,91.84684841219496 161.15249534780742,104.80053509691061 162.12150776208728,102.35906865473589 164.70834959851345,97.0774723089853 165.12123314890778,96.57627627018155 166.12395034285146,97.28309006024938 171.63468181193457,102.19201754360984 171.4998626934248,102.50041925402547 169.14895431441255,104.68488878957578 169.57869025465334,108.0 174.65968578349566,105.16032227106189 177.5835754161817,107.65307780830335 178.84750465219258,107.94860423853243 178.11442569532664,107.62737979330996 177.88691843280685,107.13911554633523" stroke="#4dd2ff" stroke-linecap="round" stroke-linejoin="round" stroke-width="0.5"><title>2022-10-21 10.3km</title></polyline><polyline fill="none" points="38.12912742322078,147.3978175860102 38.851716527482495,147.8590642000563 38.83491212973604,148.0 37.692213081085356,147.73094047527047 36.50750303801033,146.85969231953277 31.74345626909053,142.66984741884517 31.533401296910597,142.41357885760954 31.62582548466162,142.14449575985782 29.617699950671522,140.5684148116161 25.13932794390712,136.5063030177298 25.937536838144297,134.55844783362045 37.137667954550125,112.03845869259021 36.33945906028384,114.06391704233101 35.373206188261975,115.83293560488164 28.483403100894066,129.99613303473961 21.14828347254661,144.7455848072168 21.391947240248555,143.87429586071084 25.021697159449104,136.64726391276417 37.14607015342335,112.0 36.80157999906805,113.08965397097563 25.265360927180154,136.45504443312893 31.65103208133951,142.11886873893673 31.47458590468159,142.46483265228744 29.155579011858208,144.61745482640254 29.617699950671522,147.93593831137332 34.675823680649046,145.1043473836362 37.599788893334335,147.59000408065913 38.81810773193138,147.94875065423912 38.03670323546976,147.37219267631735" stroke="#4dd2ff" stroke-linecap="round" stroke-linejoin="round" stroke-width="0.5"><title>2022-10-16 15.1km</title></polyline><polyline fill="none" points="84.78635097769438,147.51243506691026 85.49314215086633,148.0 84.65172408759827,147.8845244311924 83.22131337993778,146.94788154628623 78.33267443205114,142.66224434263495 78.15597663875087,142.43127369018475 78.2821893482469,142.1874704285401 73.92364378026105,138.56880731203637 71.76961353817023,136.54123975172115 72.4679905307421,134.74460709839695 83.7261642179219,112.0 82.96047378031653,114.04118454672061 70.1540908566094,139.83921240465133 67.8401911824476,144.74094261984283 68.11785914335633,143.6759389929066 68.2104151303356,143.54762410393232 68.2104151303356,143.81708507294024 71.35731868713629,137.0032228342934 71.74437099625356,136.6054042686519 73.10746825882234,137.5293661626929 78.30743189016357,142.1874704285401 75.76634933895548,144.62546115747682 76.25437181565212,147.9615081669217 81.29446601495147,145.11304813363677 84.22260087527684,147.61508062532448 85.3753436220286,147.9871693915411 85.46789960900787,147.91018568677828 85.24071673187427,147.76904865362667" stroke="#4dd2ff" stroke-linecap="round" stroke-linejoin="round" stroke-width="0.5"><title>2022-10-14 10.3km</title></polyline><polyline fill="none" points="131.458819378895,147.31948885019665 132.20821653748862,147.84592263847298 132.02297229605028,148.0 131.0041289680521,147.666165247123 129.92634429052123,146.87009072175715 124.92474977127858,142.47866268040525 124.98369112084038,142.10627624676272 122.76918041621684,140.3598833288197 118.49172247719252,136.44316682825956 118.89589173128479,135.21031457903882 130.45681643649004,112.0 127.82971628496307,117.67812225066154 114.45845012919744,144.64873355335658 114.93840111841564,143.338995452792 118.12965418709791,136.8412702861715 118.49172247719252,136.5073772311698 124.99211131365155,142.04207146986664 124.73950552984024,142.49150355321763 122.48289386124816,144.55885042399314 122.92916407927987,147.96148069444826 128.04022110483493,145.0981473037973 130.92834723292617,147.550606657147 132.03981268161442,147.87160222452803 132.1913761519245,147.78172362819896" stroke="#4dd2ff" stroke-linecap="round" stroke-linejoin="round" stroke-width="0.5"><title>2022-10-10 10.3km</title></polyline><polyline fill="none" points="178.2513703655859,147.4613043283207 178.84856434719404,148.0 178.0326796117588,147.83326134929666 176.62801207756274,146.9739090891453 171.62335828805226,142.61283870113766 171.48877936261124,142.4076045187103 171.6317694708705,142.15106086270316 169.6299079550663,140.61177727374888 165.10469158741762,136.49401120498078 177.14950541363214,112.0 176.3336206781969,114.02762445508779 171.480368179793,123.61305262101087 168.4523423575156,130.0153679439718 161.15143565280596,144.729277718121 161.23554748122115,144.19055444420155 161.99255393678322,142.57435734221144 164.60843179986114,137.32784821409587 165.15515868444345,136.59663788626494 171.64859183656517,142.16388806996838 169.11682580187335,144.61383739934536 169.57102967519313,147.96152188848282 174.62615056175855,145.1269038849532 177.578475738439,147.6023917293387 178.7980972501682,147.96152188848282 177.93174541770713,147.29456427053083" stroke="#4dd2ff" stroke-linecap="round" stroke-linejoin="round" stroke-width="0.5"><title>2022-10-08 10.4km</title></polyline><polyline fill="none" points="38.28923235251568,187.46130432793143 38.85278239575564,187.78195706130282 38.80231522771646,188.0 37.68362633587094,187.62804395030253 36.03503217952675,186.396725702587 35.10980076523265,185.39626213740848 31.602332585665863,182.4845674112039 31.652799753675936,182.08692478412195 30.651867587323068,181.3942510663801 25.142535074992338,176.40421271802552 37.103253903303994,152.0 36.36306877183961,153.86079702610732 34.697652226139326,157.08177258454816 32.56120877864305,161.6242267297239 26.311691134877037,174.0694078531742 21.14721760424436,184.66514423136687 21.82011317825527,182.92068873447352 24.595807421108475,177.22522270322588 25.10889029628015,176.4940111995311 25.672440339549212,176.7634058860276 31.64438855901244,182.04844310815315 29.12103015644243,184.5368770685891 29.600468252931023,187.9102177036766 34.630362668744056,185.04994417309354 37.57428080509999,187.52543500345564 38.77708164366777,187.8845655958212 38.79390403305297,187.75630490193726 37.96119576017372,187.2817380937231" stroke="#4dd2ff" stroke-linecap="round" stroke-linejoin="round" stroke-width="0.5"><title>2022-10-03 10.3km</title></polyline><polyline fill="none" points="85.05850661877776,187.56250977200398 85.4972956358688,187.96139804128325 84.83067385989125,187.8584593709602 83.5818128111714,187.16361901817436 81.71695948851993,185.38788164236757 78.49354786289041,182.7370516259325 78.23196210266906,182.41534148750725 78.3838506086031,182.13223522868793 77.34594581814599,181.43733274157057 71.86952135467436,176.48271682517225 72.46019887769944,174.8868628018863 83.86027507204562,152.0 83.53962155955378,153.01708156416498 82.27388401021017,155.43741321499328 79.69177940959344,160.8828248828613 72.99180864842492,174.2176218583736 67.82759944713325,184.7830902808164 83.76745431844029,152.19311799555362 83.40460955427261,153.26169370700882 82.45952551744995,154.96107858006144 71.93702735731495,176.49558645402794 78.39228885891498,182.15797221305547 75.84393725960399,184.64154254158348 76.29116452703602,187.987132683018 81.39630597599898,185.13052431429605 84.32437884015962,187.62684675770288 85.50573388618068,188.0 84.83911211020313,187.60111197118385" stroke="#4dd2ff" stroke-linecap="round" stroke-linejoin="round" stroke-width="0.5"><title>2022-09-30 15.0km</title></polyline><polyline fill="none" points="126.75734451567405,184.92667292270926 126.89741770041292,185.21146671102542 126.09588781002094,185.09280279945233 124.83522914742935,184.26214874259313 120.22059589490527,180.20364236149544 120.30619617443881,179.883222083914 119.38793863009778,179.25424389065302 114.25192185660126,174.6257077583541 125.34883082477609,152.0 124.99864786295802,153.04481963355647 114.36864951055031,174.6019707406158 120.19725036411546,179.7052100674082 120.2750688000524,180.15617280045626 123.13100539986044,182.5296041130823 125.08424814249156,184.38081432313265 125.83130512773641,184.91480648504148 127.46549228293588,185.44879381890132 130.74943028052803,187.20498477755245 132.41474481011392,187.79828073284443 132.41474481011392,188.0 132.3680537485343,187.79828073284443 130.2669559775677,187.02699482876415 127.77676602677093,185.6742536880156 125.86243250212283,185.0453371680851 123.18547830500756,182.69574073282274 125.78461406615679,184.87920715780274 126.93632691839593,185.1877339477869 126.24374283835641,184.84360780909628 126.11145149721415,184.59441176725886 126.19705177677679,184.28588187775313 126.26708836914622,184.38081432313265" stroke="#4dd2ff" stroke-linecap="round" stroke-linejoin="round" stroke-width="0.5"><title>2022-09-23 10.1km</title></polyline><polyline fill="none" points="178.11548374625272,187.33280494239807 178.8559322373476,187.8845244311742 178.72130523895612,188.0 178.03134187226533,187.83320188910875 176.56727326486725,186.89655825106456 171.74594388526748,182.66224434081596 171.535589200299,182.44410541322577 171.62814526166767,182.13614330554265 165.15763515193248,176.46424224324073 165.62041545886314,175.09110447020066 177.09736707096454,152.0 164.77899671898922,177.13155087212726 161.6320906317851,183.81708507150688 161.1524819500337,184.75377387939807 161.1440677626524,184.52281079208115 164.77058253157884,176.97755719219276 165.18287771413452,176.54123974864706 171.62814526166767,182.11047972956294 170.99708120676223,182.88038252321348 169.12913160421886,184.52281079208115 169.58349772373913,187.91018568673826 174.63201016309904,185.10021694404713 177.57697575268685,187.55092717050138 178.76337617594982,187.92301631064402 178.14914049583604,187.57658856008857 177.9640283730696,187.25582044869952" stroke="#4dd2ff" stroke-linecap="round" stroke-linejoin="round" stroke-width="0.5"><title>2022-09-19 10.4km</title></polyline><polyline fill="none" points="38.10129323528963,227.23070760001792 38.79076499998337,227.80767776948414 38.765540423220955,228.0 37.63043446914526,227.61535495928183 36.8232480128936,227.03838305091267 31.87082277619629,222.71733870494427 31.56812785510556,222.39677479490274 31.643801585392794,222.1018545752995 29.89489759685239,220.7298165015236 25.186309935437748,216.4339924898486 25.724434239644324,214.98488810929848 37.14275931849261,192.0 36.39443020801991,193.96276082102122 35.444304483477026,195.69455845104312 31.349514856527094,204.22457916113126 21.17560223102919,224.69197687714768 36.96618728118483,192.47466011438883 36.697125129110646,193.29568548700627 25.278800050233258,216.4083449107966 31.69425073885941,222.1274998658664 29.197017639904516,224.61504406640597 29.634243637003237,227.88460673125883 34.70438356525847,225.10228363481292 37.62202627689112,227.56406877866175 38.82439776897081,227.92307117735982 37.966762159223435,227.24352921600075" stroke="#4dd2ff" stroke-linecap="round" stroke-linejoin="round" stroke-width="0.5"><title>2022-09-17 15.0km</title></polyline><polyline fill="none" points="84.83295452836319,227.25502345804125 85.53207973981625,227.85871201261398 85.40573181002401,228.0 84.31071641854942,227.69173489765308 83.35047215220402,226.97244387797036 78.38078691405826,222.5923006460289 78.20389981236076,222.37392787973658 78.27970857024775,222.14270884342113 71.81911776063498,216.46473451102793 72.64459090188029,214.43492899861667 83.78847830879386,192.0 83.45155049604364,193.06667265641954 68.20556696882704,223.99243771623878 67.80125359352678,224.77598728037628 68.03710306246649,223.85114087105467 71.59169148703222,216.6445875868667 71.79384817468235,216.52896781048912 78.29655496086343,222.11701778779752 78.0354359060002,222.5537643297248 75.81171234179055,224.58331204854767 76.27498808436212,227.96146694351046 81.28678929907619,225.03288668614186 84.21806127007585,227.64035723608322 85.41415500536095,227.974311298276 85.48996376321884,227.85871201261398 84.71502979387878,227.49906845383885" stroke="#4dd2ff" stroke-linecap="round" stroke-linejoin="round" stroke-width="0.5"><title>2022-09-11 10.4km</title></polyline><polyline fill="none" points="131.33073525418877,227.24460596351128 132.15356505813543,227.85916450286823 132.01922549828305,228.0 130.87733923978521,227.6415090313567 129.79422653868096,226.79648662531326 124.92441749499994,222.51998925953012 124.97479482993367,222.12305428910622 123.27036166464677,220.84260204665406 118.49291106837336,216.48887193566406 119.04706175261526,214.964996110004 130.45752811533748,192.0 129.68507564632455,193.98558874391165 128.7866798400064,195.6508735139505 125.97394530617748,201.5430700757679 123.84130479392479,205.74412957644745 114.51310160852154,224.74790094624404 114.74819583824137,223.85162400088302 118.4677224009065,216.54009401932126 119.14781642251182,216.9754800679766 124.99158727494068,222.13585868156224 122.49790919566294,224.59425436521997 122.9680976550444,227.92318067649103 127.96385003605974,225.0808006007719 130.91092412974103,227.5646892756704 132.12837639063946,227.87196774273252 131.24677302929922,227.28301604585067" stroke="#4dd2ff" stroke-linecap="round" stroke-linejoin="round" stroke-width="0.5"><title>2022-09-09 10.4km</title></polyline><polyline fill="none" points="178.23963126711897,227.3980319460279 178.81077798083425,227.76945971481837 178.68478973515448,228.0 177.6600853370037,227.66699709820023 176.88735743021243,227.12906565894082 171.69664170840406,222.5692739925471 171.53705659724073,222.35152297183595 171.6546456265205,222.08253538987992 169.97480235085823,220.78881735105097 165.17884979883092,216.4719642029595 165.98517457113485,214.4607488028596 177.12253548880108,192.0 176.34980758200982,193.94785132393372 174.72035960460198,197.15142466020916 171.02470439812168,204.78809390653623 161.18922201913665,224.65708425559933 161.75196951648104,223.15847890716032 164.7336913307954,217.0868454157935 165.16205136606004,216.51039445253264 171.6462464101205,222.0953443480721 169.18527601129608,224.5546166359818 169.6388336957025,227.89753775395002 174.66156508997665,225.002911255684 177.60129082237836,227.53891859581927 178.79397954806336,227.91034554373255 178.78558033169247,227.75665189672145 178.1052438050683,227.51330286449593 177.96245712664677,227.21872121405613" stroke="#4dd2ff" stroke-linecap="round" stroke-linejoin="round" stroke-width="0.5"><title>2022-09-07 10.4km</title></polyline><polyline fill="none" points="38.02158114104532,267.14003686551223 38.86330004359479,267.8459776030868 38.65287031797925,268.0 37.558635744673666,267.66628433729056 36.67483089704183,266.98601239514755 31.54034559163847,262.49346862053426 31.557179969677236,262.10837873771015 25.101195987313986,256.48580204807877 25.345294469036162,255.60000853792735 37.062021592166275,232.0 36.70008246411453,233.15580743175815 30.20201253661071,246.40757095869048 26.826719737495296,253.01958351338544 21.27137498083175,264.50873447616686 21.136699956434313,264.72694416164813 21.17878590154578,264.2520162448018 24.72242248119437,256.8837632490395 25.09277879828005,256.51147703909373 26.1280930484063,257.2175352476843 31.599265914817806,262.0955423683117 29.090943585295463,264.59858561339206 29.604392115812516,267.9358240464171 34.5957852077845,265.0606751800078 37.550218555668835,267.52509641674624 38.72020783016342,267.9486592423091 38.78754534237669,267.8203071674943 38.13942178743309,267.6149433113824 37.97107800692902,267.3710728747719" stroke="#4dd2ff" stroke-linecap="round" stroke-linejoin="round" stroke-width="0.5"><title>2022-09-02 10.4km</title></polyline></svg>