<?xml version="1.0" encoding="utf-8" ?>
<svg baseProfile="full" height="300mm" version="1.1" viewBox="0,0,200,300" width="200mm" xmlns="http://www.w3.org/2000/svg" xmlns:ev="http://www.w3.org/2001/xml-events" xmlns:xlink="http://www.w3.org/1999/xlink"><defs /><rect fill="#222222" height="300" width="200" x="0" y="0" /><text fill="#FFFFFF" style="font-size:12px; font-family:Arial; font-weight:bold;" x="10" y="20">Over 10km Runs</text><text fill="#FFFFFF" style="font-size:4px; font-family:Arial" x="10" y="280">ATHLETE</text><text fill="#FFFFFF" style="font-size:9px; font-family:Arial" x="10" y="290">Sinnelf</text><text fill="#FFFFFF" style="font-size:4px; font-family:Arial" x="120" y="280">STATISTICS</text><text fill="#FFFFFF" style="font-size:3px; font-family:Arial" x="120" y="285">Number: 20</text><text fill="#FFFFFF" style="font-size:3px; font-family:Arial" x="120" y="290">Weekly: 1.8</text><text fill="#FFFFFF" style="font-size:3px; font-family:Arial" x="141" y="285">Total: 225.3 km</text><text fill="#FFFFFF" style="font-size:3px; font-family:Arial" x="141" y="290">Avg: 11.3 km</text><text fill="#FFFFFF" style="font-size:3px; font-family:Arial" x="167" y="285">Min: 10.1 km</text><text fill="#FFFFFF" style="font-size:3px; font-family:Arial" x="167" y="290">Max: 15.1 km</text><polyline fill="none" points="41.61987008160213,72.08743067233081 42.384975702123484,72.6203673525306 42.281072469690116,72.75 41.544304094364634,72.53394545730043 39.976309859746834,71.4968745883416 34.39387255447218,66.7002266508025 34.19551183807198,66.45534412091729 34.31830656729289,66.16724595593041 27.0734175433754,59.72794980814797 40.52416326702223,32.25 40.297465305397054,33.17234643736447 35.44235062703956,43.11564009067661 22.82283076274325,68.68806564140323 22.605578549497295,69.03377114327304 22.57724130427232,68.83210980314107 26.49722689090413,60.64994268166265 27.063971794967074,59.84319956589388 34.327752315672114,66.09522123376519 34.15772884446778,66.49855874581772 31.541256537253503,68.8609186007161 32.070218447741354,72.69238551893795 37.680992998182774,69.5235177503746 41.02478793231421,72.2602754351683 42.35663845692761,72.70678914356176 42.42275869572768,72.59156006569901 41.53485834598541,72.08743067233081" stroke="#4dd2ff" stroke-linecap="round" stroke-linejoin="round" stroke-width="0.5"><title>2022-11-10 10.4km</title></polyline><polyline fill="none" points="86.69870939076645,72.18805686951964 87.48298558947863,72.63472997323333 87.36959625952295,72.75 86.10341540860827,72.3897805511915 84.52541390041006,71.2370661556597 79.38509761012392,66.683663138876 79.18666628273786,66.40987336263424 79.3095047234965,66.13608254112478 78.46853385982104,65.60290794118919 72.0147911645181,59.80978242195124 72.5250431492168,58.42628022883946 85.49867231564713,32.25 84.67659967363579,34.39808339997762 73.42270867782645,56.970691812839505 67.51701441049227,69.07567672134974 68.09341017101542,67.44738698965375 72.03368938615313,59.80978242195124 79.37564849929186,66.16490267679546 76.56926258344902,68.87394371690607 77.07006545731565,72.69236500977422 82.72063373232959,69.49355042518437 86.08451718700235,72.27450994544779 87.40739270288032,72.66354749728998 86.64201472580316,72.23128342052587 86.49082895257743,71.81342566953026" stroke="#4dd2ff" stroke-linecap="round" stroke-linejoin="round" stroke-width="0.5"><title>2022-11-08 10.4km</title></polyline><polyline fill="none" points="131.54129113984527,71.98606067924266 132.43927614588756,72.56261941018602 132.28803656593664,72.75 131.10647734743543,72.43289409972931 130.20849234142224,71.79867809395364 124.39522098642192,66.71033310037456 124.19671903774724,66.45086107787938 124.32905367019703,66.14814253203804 122.35348665690981,64.6777771374218 117.03174393682275,59.80517442236669 117.3342230967537,58.83926416009854 130.52987644882523,32.25 130.27465965764713,33.14415929718962 118.96950105513679,55.88378630160878 112.56072385408334,69.03112445149964 130.4448041850992,32.43748593773853 130.06670523516368,33.5047042465485 126.65436221216805,40.28261193083745 117.15462609555107,59.77634146854689 124.37631603894988,66.16255772984368 121.51221649331274,68.9734659485548 122.06991244445089,72.66351671168013 127.74139669319266,69.4923908065939 131.05921497868258,72.28875459074334 132.40146625091438,72.6923444860222 131.44676640236867,72.02930274478786" stroke="#4dd2ff" stroke-linecap="round" stroke-linejoin="round" stroke-width="0.5"><title>2022-11-04 15.1km</title></polyline><polyline fill="none" points="176.6732839862525,72.01567320521644 177.46644492793712,72.63481198078807 177.27759708467056,72.75 176.58830245677382,72.57721790177311 174.9358838282933,71.54051656353113 169.2421213540656,66.52958199025306 169.31766049133148,66.12638811513534 166.31497978355037,63.692776911731926 162.03757613376365,59.77578530786559 175.55908171102055,32.25 168.58115390266175,46.79922093083951 157.53355507206288,69.02069383815615 161.58434130993555,60.42383178936507 162.04701852591825,59.8189885889733 169.36487245219178,66.15518775284363 166.53215480328072,68.90549982423545 167.0420439800946,72.67800750972674 172.7546912386606,69.46706889302004 176.05008610349614,72.28924681220451 177.36257861412014,72.63481198078807 176.58830245677382,72.13086221967387" stroke="#4dd2ff" stroke-linecap="round" stroke-linejoin="round" stroke-width="0.5"><title>2022-11-01 10.4km</title></polyline><polyline fill="none" points="41.67432262186776,120.8355391089026 42.48897594711161,121.36999726544309 42.252158119983505,121.5 41.06806898448849,121.16777032210666 40.04501597143826,120.4744164835356 34.41822439953103,115.50518494019707 34.16246114624664,115.20181956413944 34.31402455558418,114.89845290797894 31.01752040235442,112.2403284061511 26.972671915456885,108.51301003000117 40.499706199450884,81.0 40.11132496301434,82.17067346755357 35.00553261072491,92.3301620375787 33.28149882942671,96.01497010992898 22.511024052888388,117.84538909752519 23.003605133242672,116.3719361032272 26.991617341642268,108.52745737357327 34.332969981769565,114.88400684481167 31.491156056523323,117.65759774807157 32.050046128511894,121.44222103586799 37.705255839653546,118.23541571740134 41.058596271439455,121.05221181337402 42.37530339008663,121.42777628758995 41.53223192563746,120.92220826907578" stroke="#4dd2ff" stroke-linecap="round" stroke-linejoin="round" stroke-width="0.5"><title>2022-10-28 10.4km</title></polyline><polyline fill="none" points="86.96393637993606,121.38460674286034 85.95180125485058,121.15381967216308 84.79777802809258,120.25951276536944 79.34927492483985,115.44160323507822 79.27360127060092,114.9367137579793 71.99001205270179,108.63250901360516 85.52613694986212,81.0 84.51400182483485,83.48231041461622 71.42245964612812,109.87319718433355 67.69553217614884,117.67749966423798 67.59148090161034,117.85059841879047 67.6103993151628,117.41785074973086 68.06444124045083,116.2494190123798 71.52651092063752,109.19514932978927 71.99001205270179,108.69021591567434 73.43727068949374,109.64237310185126 79.35873413161607,114.90786282345289 76.53989051218377,117.73519929545728 77.07906529845786,121.456727550285 82.6978341237118,118.29776826966554 85.97071966840304,121.00957737618955 87.25717178999912,121.5 87.40851909841876,121.37018257265663 87.03961003411678,121.21151650940374" stroke="#4dd2ff" stroke-linecap="round" stroke-linejoin="round" stroke-width="0.5"><title>2022-10-23 10.2km</title></polyline><polyline fill="none" points="131.97946927024168,121.39881456407966 130.97464552757447,121.21089837688487 129.55272513703676,120.06893560790559 124.3579759769782,115.48644699544093 124.21578393792151,115.26960276174214 124.3390170384373,114.96601973656288 123.41002904996276,114.3733063282998 117.01138729252852,108.64831080395379 130.52911047189264,81.0 129.57168407560675,83.42977545566464 119.65615921895369,103.3277044637216 112.54655726629426,117.90060198402716 113.63669623233727,115.15395223657833 116.5468932983058,109.21215634761029 117.01138729252852,108.64831080395379 118.13944413571153,109.44347631778146 124.3390170384373,114.96601973656288 124.18734553008107,115.31297166078002 121.54257360371412,117.77049988827639 122.02602653647773,121.5 127.7421465064399,118.30536255494735 131.03152234319714,121.109712534344 132.45344273370574,121.44217976834989 131.6287289072352,121.08080226747552 131.37278323690407,120.53150498962714" stroke="#4dd2ff" stroke-linecap="round" stroke-linejoin="round" stroke-width="0.5"><title>2022-10-21 10.3km</title></polyline><polyline fill="none" points="176.64526835113065,120.8225447842633 177.4581810934178,121.34144722506244 177.43927614594577,121.5 176.1537397162174,121.19730803467974 174.82094091776526,120.21715385947391 169.46138830270502,115.50357834620081 169.22507645902806,115.21527621481073 169.32905367025523,114.91255772984368 167.0699124445091,113.13946666306947 162.03174393688096,108.56959089494921 162.92972894292325,106.37825381282892 175.52987644888344,81.04326602916262 174.63189144281205,83.3219066726233 173.54485696181655,85.31205255549503 165.7938284885313,101.2456496640807 157.5418189066113,117.83878290811845 157.81594064529054,116.85858284330243 161.89940930437297,108.72817190186106 175.5393289226049,81.0 175.15177749894792,82.22586071734622 162.1735310430813,108.51192498727323 169.35741109150695,114.88372733130745 169.15890914277406,115.27293673382519 166.55002638834412,117.69463667970558 167.0699124445091,121.42793060029362 172.7603016407229,118.2423908065939 176.0497625049902,121.03875459074334 177.42037119844463,121.4423444860222 176.54129113990348,120.79371676086157" stroke="#4dd2ff" stroke-linecap="round" stroke-linejoin="round" stroke-width="0.5"><title>2022-10-16 15.1km</title></polyline><polyline fill="none" points="41.63464484989527,169.7014894502754 42.42978491974645,170.25 41.483189598540775,170.1200899850919 39.873977552430006,169.0663667395711 34.374258736061165,164.24502488546204 34.17547371858382,163.98518290145876 34.317463016777765,163.71090423210626 29.414099252782762,159.63990822603955 26.990815230441513,157.35889472068448 27.776489347073948,155.3376829856934 40.441934745176695,129.75 39.58053300285246,132.04633261506024 25.173352213663748,161.0691139552291 22.570215080253547,166.58356044732136 22.882591536268592,165.38543136701628 22.98671702161664,165.2410771169234 22.98671702161664,165.5442207070555 26.52698352301377,157.87862568857963 26.96241737078526,157.43107980223067 28.49590179117513,158.47053693302587 34.34586087643402,163.71090423210626 31.48714300629217,166.4536438021605 32.03616829260136,170.20669668778282 37.7062742668204,167.00217915033863 41.00042598467553,169.81696570348868 42.297261574771255,170.23556556548283 42.401387060119305,170.14895889762556 42.145806323358556,169.99017973533046" stroke="#4dd2ff" stroke-linecap="round" stroke-linejoin="round" stroke-width="0.5"><title>2022-10-14 10.3km</title></polyline><polyline fill="none" points="86.64117180125322,169.48442495647032 87.4842436046747,170.07666296827665 87.2758438330493,170.25 86.12964508906589,169.87443590301336 84.9171373268473,168.97885206197316 79.29034349269932,164.038495515455 79.35665251093451,163.6195607776026 76.86532796823303,161.65486874491762 72.05318778683431,157.248562681787 72.5078781977063,155.86160390141958 85.5139184910513,129.75 82.55843082058709,136.13788753199333 67.5157563953544,166.47982524752297 68.05570125821396,165.00636988438782 71.64586096050334,157.69642907194066 72.05318778683431,157.32079938506286 79.36612522785435,163.5473304035986 79.08194372107391,164.052941497368 76.54325559388963,166.37870672699137 77.04530958921532,170.20666578125383 82.79524874291383,166.98541571677197 86.04439063702011,169.74443248928583 87.29478926683078,170.10555250259495 87.46529817092232,170.0044390817202" stroke="#4dd2ff" stroke-linecap="round" stroke-linejoin="round" stroke-width="0.5"><title>2022-10-10 10.3km</title></polyline><polyline fill="none" points="131.78279166127322,169.6439673693567 132.45463489057147,170.25 131.53676456320682,170.06241901795147 129.9565135872108,169.09564772528392 124.32627807403333,164.1894435387767 124.17487678289763,163.95855508354362 124.3357406547002,163.66994347053696 122.08364644943504,161.93824943296204 116.99277803581208,157.3057626055961 130.54319359030342,129.75 129.62532326293876,132.0310775119724 124.16541420223075,142.8146841986345 120.7588851522014,150.01728893696418 112.54536510939943,166.5704374328816 112.63999091633013,165.96437374972083 113.49162317885202,164.14615200998378 116.4344857748365,158.24382924085148 117.04955351995886,157.42121762204624 124.35466581612127,163.68437407870806 121.5064290270675,166.4405670742599 122.01740838456317,170.20671212453817 127.70441938194563,167.01776687056918 131.02578520571114,169.8026906955056 132.39785940639558,170.20671212453817 131.42321359488415,169.45638480434354" stroke="#4dd2ff" stroke-linecap="round" stroke-linejoin="round" stroke-width="0.5"><title>2022-10-08 10.4km</title></polyline><polyline fill="none" points="176.82538639658014,169.64396736892377 177.45938019521418,170.00470169396795 177.40260463114828,170.25 176.14407962784753,169.83154944409034 174.28941120195668,168.44631641541127 173.248525860894,167.32079490458636 169.30262415885227,164.04513833760575 169.35939972285996,163.59779038213674 168.2333510357421,162.81853244967715 162.0353519593482,157.20473930778098 175.49116064119153,129.75 174.65845236831228,131.84339665437074 172.78485875439947,135.46699415761395 170.38135987595888,140.57725507094074 163.35065252671484,154.57808383482188 157.54061980475672,166.49828726028863 158.2976273255481,164.53577482628316 161.42028334873612,158.12837554112775 161.99750158330426,157.30576259947338 162.6314953819674,157.60883162178288 169.34993712886353,163.55449849667275 166.5111589259759,166.3539867021609 167.0505267845292,170.14899491663527 172.7091580023407,166.93118719473205 176.0210659057193,169.71611437888714 177.37421684912988,170.12013629529974 177.39314203715185,169.9758430146794 176.45634523016633,169.44195535543986" stroke="#4dd2ff" stroke-linecap="round" stroke-linejoin="round" stroke-width="0.5"><title>2022-10-03 10.3km</title></polyline><polyline fill="none" points="41.9408199461177,218.5078234935063 42.43445759033784,218.9565727964473 41.68450809238129,218.84076679233476 40.27953941258602,218.05907139544797 38.1815794245922,216.06136684766534 34.55524134574807,213.07918307917498 34.26095736550633,212.71725917344884 34.43183193469304,212.39876463227483 33.2641890454106,211.61699933427008 27.10321152402321,206.0430564283197 27.76772373743006,204.24772065212164 40.59280945605133,178.5 40.232074254512554,179.6442167596906 38.808119511493715,182.3670898668679 35.90325183578534,188.49317799321943 28.365784729481675,203.4948245906744 22.556049378035823,215.38097656592072 40.48838610824896,178.7172577450001 40.080185748578515,179.9194054203872 39.016966207156656,181.83121340257276 27.17915577700478,206.05753476078462 34.44132496629027,212.4277187396874 31.574429417058127,215.22173535928232 32.07756009293371,218.98552426839888 37.820844223024324,215.77183985358351 41.11492619517958,218.58020260241756 42.44395062196418,219.0 41.69400112397852,218.55125096758275" stroke="#4dd2ff" stroke-linecap="round" stroke-linejoin="round" stroke-width="0.5"><title>2022-09-30 15.0km</title></polyline><polyline fill="none" points="81.35201258011512,215.54250703805155 81.50959491296089,215.86290004990587 80.60787378624082,215.72940314938387 79.18963279086165,214.79491733541727 73.99817038173205,210.2290976566801 74.09447069623275,209.8686248444028 73.06143095885636,209.16102437698282 67.28341208866914,203.95392122814883 79.76743467783672,178.5 79.37347884580959,179.67542208775194 67.41473069935455,203.92721708319004 73.97190665960079,209.66836132583558 74.05945240004803,210.17569440051375 77.2723810748139,212.84580462721715 79.46977916031028,214.9284161135256 80.31021826868528,215.5291572956703 82.14867881828104,216.1298930462617 85.84310906557948,218.10560787474606 87.71658791135997,218.7730658244509 87.71658791135997,219.0 87.66406046706834,218.7730658244509 85.30032547476003,217.9053691823574 82.4988617800991,216.38353539901436 80.34523656486999,215.676004314093 77.33366309312987,213.03270832442286 80.25769082442275,215.48910805253036 81.55336778316996,215.83620069126118 80.77421069314005,215.44905878523423 80.62538293434773,215.16871323816667 80.72168324884842,214.82161711247318 80.80047441527131,214.9284161135256" stroke="#4dd2ff" stroke-linecap="round" stroke-linejoin="round" stroke-width="0.5"><title>2022-09-23 10.1km</title></polyline><polyline fill="none" points="131.6299192145525,218.24940556019646 132.46292376701604,218.87008998507008 132.3114683938329,219.0 131.53525960631669,218.81235212524552 129.8881824229611,217.75862803244308 124.46418687092955,212.9950248834175 124.22753785032546,212.74961858987808 124.33166341937613,212.40316121873184 117.05233954591677,206.02227252364537 117.5729673911992,204.47749252897484 130.48453795482055,178.5 116.62637130887015,206.7729947311418 113.08610196076916,214.29422070544388 112.54654219379881,215.34799561432374 112.53707623298396,215.0881621410881 116.6169053480262,206.59975184121504 117.08073742839042,206.1088947172284 124.33166341937613,212.37428969575558 123.62171635762206,213.2404303386138 121.52027305474621,215.0881621410881 122.0314349392138,218.89895889757827 127.71101143347914,215.7377440620512 131.0240977217909,218.49479306681314 132.35879819793627,218.91339334947043 131.667783057841,218.52366213009736 131.45953191968147,218.16279800478515" stroke="#4dd2ff" stroke-linecap="round" stroke-linejoin="round" stroke-width="0.5"><title>2022-09-19 10.4km</title></polyline><polyline fill="none" points="176.61395488970447,218.1345460500197 177.38961062495946,218.7836374906692 177.36123297610902,219.0 176.08423877778114,218.5672743291907 175.17615401447983,217.91818093227994 169.6046756232099,213.05700604306548 169.26414383697556,212.69637164426604 169.34927678355598,212.3645863972124 167.3817597964662,210.82104356421405 162.08459867737838,205.98824155108014 162.68998851958895,204.35799912295988 175.53560423330055,178.5 174.6937339840224,180.7081059236516 173.62484254391165,182.6563782574267 169.0182042135857,192.25265155627494 157.57255250989692,215.27847398679296 175.33696069131838,179.03399262868697 175.03426577025675,179.95764617288296 162.18865005651605,205.95938802464661 169.40603208122775,212.39343734909926 166.59664484488894,215.19192457470854 167.08852409163956,218.87018257266755 172.7924315109267,215.74006908916635 176.07477956148796,218.50957737599674 177.42744749010308,218.91345507452934 176.46260742913,218.14897036800176" stroke="#4dd2ff" stroke-linecap="round" stroke-linejoin="round" stroke-width="0.5"><title>2022-09-17 15.0km</title></polyline><polyline fill="none" points="41.68707384436857,266.9119013902964 42.47358970728237,267.5910510141912 42.331448286247905,267.75 41.099555970868096,267.40320175985835 40.01928117120406,266.5939993627144 34.428385278297355,261.6663382267834 34.22938728888403,261.42066886470275 34.31467214151053,261.16054744884605 27.046507480699802,254.77282632490824 27.975164764589863,252.4892951234433 40.51203809736762,227.25 40.13299430801999,228.45000673847244 22.981262839923147,263.2414924307668 22.526410292717628,264.1229856904247 22.79174094524933,263.0825334799374 26.790652922878508,254.97516103522503 27.018079196481267,254.84508878680208 34.33362433096045,261.13164501127176 34.03986539421021,261.62298487094085 31.538176384492544,263.90622605461976 32.059361594874645,267.7066503114511 37.6976379614498,264.41199752191096 40.995318928791676,267.3454018905941 42.34092438101652,267.7211002105614 42.426209233584814,267.5910510141912 41.55440851810272,267.18645201057006" stroke="#4dd2ff" stroke-linecap="round" stroke-linejoin="round" stroke-width="0.5"><title>2022-09-11 10.4km</title></polyline><polyline fill="none" points="86.49707716098055,266.90018170894837 87.4227606903878,267.5915600657245 87.27162868558662,267.75 85.98700664477656,267.3466976602758 84.76850485603791,266.39604745347606 79.28996968187857,261.5849879169655 79.34664418370812,261.13843607524177 77.4291568727349,259.6979273024808 72.05452495193458,254.79998092762253 72.67794447171036,253.08562062375495 85.51471912977286,227.25 84.64571010210784,229.4837873368997 83.63501482002903,231.35723270319068 80.47068846944603,237.9859538352357 78.07146789316903,242.7121457735011 67.57723930958309,264.0913885645241 67.84172031801427,263.0830770009925 72.02618770103436,254.85760577173278 72.79129347534035,255.3474150764705 79.36553568430827,261.1528410167557 76.56014784512809,263.91853616087246 77.08910986196133,267.66357826105013 82.70933129056357,264.4659006758666 86.02478964597685,267.2602754351283 87.39442343948758,267.6059637105718 86.40261965797981,266.94339305158064" stroke="#4dd2ff" stroke-linecap="round" stroke-linejoin="round" stroke-width="0.5"><title>2022-09-09 10.4km</title></polyline><polyline fill="none" points="131.76958517552703,267.07278593928277 132.41212522843853,267.49064217917476 132.27038845204515,267.75 131.11759600412915,267.37537173547753 130.2482771089999,266.7701988663066 124.40872192193638,261.64043324161685 124.22918867188855,261.39546334332044 124.36147632982465,261.0928523136172 122.4716526447155,259.6374195199314 117.07620602368843,254.78095972833034 117.98332139253034,252.5183424032184 130.5128524249012,227.25 129.64353352977196,229.44133273942862 127.8104045552027,233.0453527427344 123.6527924478869,241.6366056448569 112.58787477153237,263.98921978755243 113.22096570604481,262.30328877055945 116.5754027471412,255.47270109277088 117.0573077868321,254.8241937590974 124.35202721139649,261.1072623915825 121.58343551270082,263.8739437154836 122.09368790767621,267.63472997319695 127.74426072620554,264.3782751626459 131.0514521751611,267.2312834202967 132.3932269915822,267.64913873669866 132.38377787315403,267.47623338381527 131.6183992807055,267.2024657225593 131.4577642674558,266.87106136581497" stroke="#4dd2ff" stroke-linecap="round" stroke-linejoin="round" stroke-width="0.5"><title>2022-09-07 10.4km</title></polyline><polyline fill="none" points="176.52427878367598,266.7825414737017 177.47121254901867,267.57672480347173 177.23447910769028,267.75 176.00346521273605,267.3745698794519 175.00918475916842,266.60926394454145 169.2328887905751,261.5551521981033 169.25182746586506,261.1219260799262 161.98884548569913,254.79652730408634 162.26345627766568,253.80000960516918 175.44477429118706,227.25 175.03759277213248,228.55028336073156 167.7272641036543,243.4585173285268 163.93005970466766,250.89703145256135 157.68029685341753,263.8223262856882 157.52878745098133,264.0678121818528 157.57613413920626,263.53351827540246 161.56272529132548,255.2442336551685 161.97937614805414,254.82541166898227 163.14410467943526,255.61972715364755 169.2991741541482,261.1074851643534 166.4773115334392,263.92340881506607 167.05494113027817,267.6778020522179 172.6702583587612,264.4432595775106 175.99399587512016,267.2157334688418 177.31023380890838,267.6922416476009 177.38598851015558,267.54784556343293 176.65684951085132,267.3168112253079 176.46746275777696,267.0424569841198" stroke="#4dd2ff" stroke-linecap="round" stroke-linejoin="round" stroke-width="0.5"><title>2022-09-02 10.4km</title></polyline></svg>