<?xml version="1.0" encoding="utf-8" ?>
<svg baseProfile="full" height="300mm" version="1.1" viewBox="0,0,200,300" width="200mm" xmlns="http://www.w3.org/2000/svg" xmlns:ev="http://www.w3.org/2001/xml-events" xmlns:xlink="http://www.w3.org/1999/xlink"><defs /><rect fill="#222222" height="300" width="200" x="0" y="0" /><text fill="#FFFFFF" style="font-size:12px; font-family:Arial; font-weight:bold;" x="10" y="20">Over 10km Runs</text><text fill="#FFFFFF" style="font-size:4px; font-family:Arial" x="10" y="280">ATHLETE</text><text fill="#FFFFFF" style="font-size:9px; font-family:Arial" x="10" y="290">Sinnelf</text><text fill="#FFFFFF" style="font-size:4px; font-family:Arial" x="120" y="280">STATISTICS</text><text fill="#FFFFFF" style="font-size:3px; font-family:Arial" x="120" y="285">Number: 22</text><text fill="#FFFFFF" style="font-size:3px; font-family:Arial" x="120" y="290">Weekly: 1.8</text><text fill="#FFFFFF" style="font-size:3px; font-family:Arial" x="141" y="285">Total: 246.0 km</text><text fill="#FFFFFF" style="font-size:3px; font-family:Arial" x="141" y="290">Avg: 11.2 km</text><text fill="#FFFFFF" style="font-size:3px; font-family:Arial" x="167" y="285">Min: 10.1 km</text><text fill="#FFFFFF" style="font-size:3px; font-family:Arial" x="167" y="290">Max: 15.1 km</text><polyline fill="none" points="38.16435139474925,67.44867472168698 38.63520997160231,67.69228415293401 38.86223107113619,67.85896375429002 38.81178193789674,67.9487141285208 38.76974099356448,67.9871785359719 38.67725091596367,68.0 38.33251517219469,67.85896375429002 38.071861317177536,67.84614226193298 37.63463549583685,67.70510567620659 37.50010447387467,67.62817649803037 37.32353250758024,67.46149629387583 36.97038857493317,67.23070760013434 36.45748905374785,66.82041452803605 36.230467954213964,66.61526700276227 36.037079610163346,66.42294059880442 35.57462922218838,66.02546419375722 35.21307710069232,65.65362918627943 34.9103823012847,65.35872401903544 34.61609569078428,65.11510567894584 34.15364530280931,64.69197687773703 33.80050137019134,64.43553381449965 33.54825570405228,64.19191194980158 31.748903285420965,62.704516180350765 31.513473997008987,62.38395220592065 31.53029037473607,62.29419400448751 31.589147696853615,62.178790417077835 31.589147696853615,62.14032250825039 31.353718408441637,62.05056396411237 31.261228330840822,61.935159936121636 31.093064553424483,61.81975569940914 30.201796532957815,61.05038878727282 29.78138708937331,60.71699357773832 29.28530394588597,60.22972052260957 28.612648836162407,59.639858687627566 27.93999372640974,59.01152160449419 27.662523493607296,58.78070234650295 27.16644035014906,58.33188473233895 26.460152484913124,57.75482887513499 26.241539574228227,57.562475763017574 25.99770209696726,57.306004044774454 25.69500729755964,57.062354957539355 25.123250454256777,56.51093516666515 25.098025887651602,56.48528761857597 25.098025887651602,56.44681627704995 25.350271553819766,55.76715208559108 25.50161895347992,55.43372926914162 26.031334852450527,54.42062617506599 26.107008552295156,54.228263010842056 26.24994776310632,53.97177788975387 26.434927918278845,53.54857518580684 26.67876539559802,53.07407184625845 26.729214528837474,52.92017811340338 27.082358461426338,52.31742408559512 27.679339871334378,51.09907408834624 27.855911837687017,50.79127672355389 28.04089199283044,50.36805292230929 28.175423014792614,50.12437733891784 28.478117814200232,49.47029617105363 28.637873402738478,49.17531619550209 28.856486313423375,48.700780329454574 29.125548357347725,48.22624093380364 29.31052851252025,47.73887247494349 29.680488822894404,47.03346416405839 29.848652600310743,46.66151845955392 30.075673699873732,46.238267261542205 30.201796532957815,46.02022766970185 30.33632755491999,45.71240580080121 30.403593065886525,45.50719039640899 30.65583873205469,44.981322909516166 30.882859831588576,44.59653907526081 31.025799042428844,44.2758841071809 31.21077919760137,43.91674862949003 31.45461667489144,43.42934724740189 31.580739507975522,43.10868641256093 31.992740762681933,42.39040029358512 32.21976186227403,41.90298724970489 32.354292884177994,41.646452572891576 32.48882390614017,41.32578277617722 32.6738040613418,40.94097689236878 32.95968248299323,40.41507176391315 33.035356182808755,40.171358161063836 33.22874452688848,39.77371817860694 33.691194914863445,38.92712157261485 33.85935869230889,38.55512860185627 34.00229790312005,38.2985804615455 34.13682892508223,37.99072133119989 34.22931900268304,37.823963681999885 34.42270734673366,37.41348145731172 34.532013802061556,37.2338946534328 34.5908711241791,37.07996270484 34.95242324567516,36.36160869988453 35.154219778603874,35.92546125003355 35.843691266083624,34.61700100770031 35.98663047692389,34.27063939202344 36.35659078726894,33.488111780367035 36.709734719916014,32.8082029466932 36.85267393072718,32.56446027930724 37.10491959689534,32.0 37.004021330416435,32.423345677791076 36.90312306396663,32.71840312497807 36.701326531067025,33.116087089940265 36.58361188683193,33.38548449624068 36.46589724262594,33.5907388993146 36.27250889854622,34.05255889134787 36.037079610163346,34.47589094685827 35.96140591028961,34.578516476591176 35.59144559991546,35.32254662954438 35.48213914458756,35.50213881456875 35.28034261165885,35.91263333873576 35.19626072293613,36.156363212623546 35.0196887566417,36.52837017200727 34.89356592352851,36.82340863171703 34.66654482399463,37.24672229903081 34.54883017978864,37.528929849970154 34.35544183573802,37.926583825417765 34.24613538038102,38.195960916513286 33.96025695875869,38.709056990792305 33.86776688115788,38.83733036449121 33.699603103712434,39.14518540908466 33.40531649321201,39.79937244582834 33.26237728240085,40.04308746978859 33.04376437171595,40.53051472448351 32.917641538602766,40.85118851882726 32.15249635127839,42.28778733069339 31.950699818349676,42.74954436399639 31.648005018942058,43.3395623761171 31.328493841807358,44.04501153216188 31.13510549775674,44.416972491704655 31.093064553424483,44.532408210587164 30.639022354298504,45.391756441342295 30.580165032180957,45.54566833500576 30.462450387974968,45.78936140728547 30.412001254735515,45.956098236169055 30.201796532957815,46.31522223366483 30.075673699873732,46.58456390516221 30.000000000029104,46.77695011717515 29.86546897806693,47.04628983931252 29.772978900495218,47.20019774145476 29.646856067411136,47.5080124317974 29.520733234327054,47.73887247494349 29.403018590121064,47.918429708723124 29.335753079125425,48.072335506902164 29.10032379074255,48.495574537460925 28.94897639102419,48.816208297368576 28.78922080245684,49.20096668227416 28.427668680960778,49.90635102806118 28.12497388155316,50.534777785200276 28.066116559464717,50.6117275750039 27.889544593170285,50.97082536684684 27.746605382330017,51.34274594907765 27.586849793762667,51.650540653445205 27.511176093888935,51.76596328474625 27.28415499435505,52.26612560748981 26.96464381722035,52.84323110777041 26.762847284291638,53.3177361641101 26.56105075139203,53.65117003848718 26.2751723297406,54.2667356900929 26.18268225211068,54.446274553112744 25.87998745276127,55.15160090972131 25.737048241891898,55.38243329659599 25.17369958749623,56.5750539918663 24.845780221483437,57.20341506879413 24.74488195500453,57.357298470902606 24.442187155626016,58.03694572405584 23.996553145407233,58.92175865894387 23.685450157150626,59.58856609644499 23.45842905761674,59.99890567138209 23.16414244705811,60.704170650293236 22.878264025435783,61.14014873835549 22.726916625746526,61.486364509768464 22.407405448582722,62.10185457624175 22.171976160170743,62.66604858845312 21.272299950855086,64.47400033970553 21.154585306649096,64.65351048397133 21.13776892889291,64.57657762682356 21.179809873283375,64.38424507817035 21.263891762006097,64.16626748890849 21.390014595061075,63.88417773862966 21.64226026122924,63.384106480116316 21.81883222752367,62.986611145672214 22.104710649204208,62.42241996787561 22.256058048893465,62.07620927532844 22.541936470544897,61.61459209655368 22.7521411923517,61.1016802033555 23.19777520254138,60.178428405597515 23.517286379705183,59.5629197854214 23.618184646154987,59.31927931630344 23.752715668117162,59.10128442376299 23.920879445562605,58.67811574161169 24.18153330057976,58.229297405781836 24.30765613366384,57.88306396109692 24.484228099987376,57.60094643184493 24.568309988710098,57.357298470902606 24.81214746600017,56.83152864827207 25.02235218777787,56.523758936869854 25.064393132168334,56.48528761857597 25.114842265378684,56.49811139390658 25.560476275597466,56.780233799454436 25.82113013061462,56.98541294720053 26.24994776310632,57.39576926341033 26.426519729429856,57.524005071009015 26.922602872888092,57.960004888955154 27.628890738124028,58.639645722225396 27.805462704447564,58.76787902991782 27.973626481893007,58.947405227700074 28.31836222563288,59.22951680369806 28.452893247595057,59.38339531941892 28.965792768780375,59.78091310076343 29.209630246070446,60.03737487122271 29.747754333890043,60.46053453886634 30.109306455386104,60.83239980896906 30.412001254735515,61.05038878727282 30.647430543176597,61.294022646448866 30.807186131743947,61.409427834008966 30.941717153706122,61.550478335353546 31.40416754168109,61.94798261622782 31.463024863769533,61.98645064100492 31.53869856361416,61.98645064100492 31.656413207849255,62.178790417077835 31.656413207849255,62.21725830275318 31.53029037473607,62.371129613457015 31.244411953084636,62.65322605261463 31.00898266470176,62.85838631603474 30.596981409937143,63.255882449208 30.201796532957815,63.589264393587655 29.899101733550197,63.897000027052854 29.621631500776857,64.10215629151935 29.18440567946527,64.5252890038646 29.10032379074255,64.64068834753925 29.10873197959154,64.69197687773703 29.159181112830993,64.78173170639275 29.26848756815889,65.14074975854237 29.34416126803262,65.56387558400456 29.39461040124297,66.12803898690618 29.39461040124297,66.46140592599477 29.436651345604332,66.5768017683331 29.478692289965693,66.8075928270373 29.537549612054136,67.62817649803037 29.571182367566507,67.83332076703664 29.58799874529359,67.91024969788486 29.638447878533043,67.9743570694045 29.67208063401631,67.9871785359719 29.730937956133857,67.96153560026869 30.008408188907197,67.73074871498466 30.521307710092515,67.44867472168698 30.84081888725632,67.21788598156854 31.093064553424483,67.11531294024462 31.420983919408172,66.89734468000461 32.00955714043812,66.60244526051974 32.463599339534994,66.26907905825647 32.69062043906888,66.14086082444555 32.89241697199759,66.05110790747858 33.304418226733105,65.78184839913956 33.70801129259053,65.55105363053008 33.85095050340169,65.4612998839475 34.04433884748141,65.37154601115253 34.65813663514564,65.1279277200556 34.74221852386836,65.14074975854237 34.9103823012847,65.25614798922106 35.246709856175585,65.55105363053008 35.87732402156689,66.17932632163502 36.73495928655029,66.96145306914696 37.05447046365589,67.21788598156854 37.390798018546775,67.44867472168698 37.53373722935794,67.58971187415955 37.63463549583685,67.64099803415957 37.99618761736201,67.78203476160706 38.349331549950875,67.83332076703664 38.534311705152504,67.93589265420087 38.66043453820748,67.9871785359719 38.77814918241347,67.9871785359719 38.820190126803936,67.9487141285208 38.81178193789674,67.91024969788486 38.78655737132067,67.88460673124064 38.626801782724215,67.8204992695537 38.534311705152504,67.75639174343087" stroke="#4dd2ff" stroke-linecap="round" stroke-linejoin="round" stroke-width="0.5"><title>2022-12-09 10.3km</title></polyline><polyline fill="none" points="84.87598276828066,67.43565204002152 85.09467356605455,67.62804395056446 85.43953213182976,67.79478313728396 85.53205516166054,67.85891347774304 85.53205516166054,67.89739165112405 85.46476568543585,67.96152188850101 85.33859791746363,68.0 84.99373935171752,67.87173953812453 84.74140381580219,67.84608741482589 84.27878866661922,67.70500055238153 84.14420971414074,67.62804395056446 83.79935114839463,67.35869511348938 83.55542679701466,67.20478098205422 82.80683137380402,66.57629442714097 82.50402873073472,66.2428092525879 81.511508956115,65.28082302626353 80.31712075282121,64.30599552818603 79.24048913296429,63.369634045506245 78.82834109093528,62.98482397447515 78.63488384673838,62.85655343530016 78.40778186442913,62.67697424739163 78.2395581738092,62.51022169192947 78.18067988211988,62.40760451820097 78.17226869758451,62.35629586950017 78.18909106665524,62.30498717957016 78.26479172741529,62.16388806948089 78.23114698930294,62.18954247632428 78.02086737603531,62.061270339007024 77.75170947107836,61.804725291043724 77.27227195285377,61.40707842899428 76.93582457161392,61.08639367131036 76.07788374953088,60.38088153318313 75.75825873736176,60.060191619857505 75.04330805229256,59.43163471585285 74.70686067108181,59.17507909869164 74.21901196832187,58.700448488445545 73.81527511085733,58.39257809735136 73.4535941760696,58.05905016459292 73.16761390201282,57.828145190196665 72.62088690756354,57.34067638995475 72.10780465119751,56.827547315042466 71.78817963902839,56.570981230644975 71.76294608548051,56.51966788999562 71.75453490091604,56.46835450809522 71.88070266888826,56.134816520228924 72.23397241914063,55.37793539029735 72.36855137164821,55.14702071635111 72.52836387773277,54.76216106990978 72.91527836609748,54.030921348312404 73.00780139595736,53.800001800955215 73.3021928544913,53.26118627473625 73.48723891418194,52.85065710638446 73.91620932522346,52.04242008929941 74.15172249206807,51.5164190722935 74.4713475042372,50.91343696359036 74.56387053406797,50.70816515873594 74.71527185558807,50.413085782587586 75.08536397494026,49.63047735148575 75.24517648102483,49.361052556290815 75.43022254071548,48.9889878739632 75.5311567550525,48.71956037068958 75.90966005894006,48.01391151916323 76.02741664234782,47.718819685873314 76.51526534510776,46.7437239246683 77.12928181583993,45.42218878581116 77.27227195285377,45.165576848197816 77.56666341138771,44.56253473326433 77.88628842355683,43.985148645107984 77.99563382245833,43.754192747117486 78.17226869758451,43.317940437184006 78.48348252521828,42.753374197342055 78.77787398375222,42.12464682488644 78.9124529362598,41.90651547280868 79.45917993073817,40.73885849852741 79.67787072851206,40.341080364723894 79.75357138930121,40.14860618406601 80.04796284783515,39.59684364862187 80.43487733625807,38.775606854345824 80.76291353293345,38.198168405215256 81.68814383129939,36.20917375104182 81.89001226000255,35.901194842339464 82.03300239701639,35.54188423679443 82.18440371856559,35.31089777913803 82.27692674839636,35.11840842573656 83.00028861800092,33.56563974042729 83.26944652298698,33.06515252524332 83.41243666000082,32.834157101962774 83.5470156125084,32.51332873783031 83.6984169340285,32.2566648851207 83.82458470197162,32.0 83.79935114839463,32.128332571588544 83.70682811856386,32.3336641493479 83.6984169340285,32.3978301318748 83.59748271966237,32.692992820451764 83.34514718374703,33.167816889403184 82.89094321909943,34.143120110893506 82.63019649867783,34.579435147006734 82.50402873073472,34.87458774448896 82.06664713512873,35.70870726951398 81.97412410532706,35.91402732652932 81.88160107546719,36.18350889874637 81.74702212298871,36.42732457874445 81.26758460476412,37.42824234500222 81.22552868208732,37.556564000089566 81.03207143789041,37.87736700903406 80.41805496721645,39.083571890700114 80.17413061580737,39.64817059736379 79.91338389538578,40.05878470103562 79.75357138930121,40.48222772825466 79.61058125228737,40.79018452873788 79.5180582224566,41.021151153861865 79.38347926997812,41.25211694302925 79.31618979369523,41.43175642333881 78.98815359704895,42.047659373994975 78.56759437051369,42.95867158972396 78.28161409648601,43.52323601331955 78.1975022511906,43.72853092910009 78.02927856057067,44.02364121348728 77.7853542091907,44.536873240289424 77.5918969649938,44.80631840208662 77.39002853626153,45.26822174710469 77.26386076831841,45.48634160901929 77.14610418485245,45.794274262600084 76.99470286333235,46.0893749947536 76.92741338710766,46.25617045713443 76.70872258930467,46.66674204582159 76.3975087616709,47.35957561241594 76.204051517474,47.693159461974574 76.03582782688318,48.065231698761636 75.82554821361555,48.46296169104971 75.64891333846026,48.873519083255815 75.51433438601089,49.11728628530909 75.42181135615101,49.39954188237243 75.2956435882079,49.61764762513121 75.21153174291248,49.822922937404655 75.02648568322184,50.1180050421608 74.72368304015254,50.733824170449225 74.44611395066022,51.23417283701565 74.319946182688,51.413784222073446 73.9498540633358,52.260516800630285 73.66387378930813,52.74802440168787 73.40312706888653,53.363818154244655 72.94892310423893,54.30032643096274 72.36855137164821,55.403592524726264 72.11621583573287,56.03218909641146 71.93958096060669,56.36572762056676 71.81341319263447,56.68643609624269 71.64518950201455,56.943001716572326 71.4601434423821,57.32784821332825 71.25827501364984,57.610067502933816 71.03117303134059,58.25147033852045 70.62743617384695,58.98266170911302 70.34986708432552,59.58556759118801 70.10594273297465,60.060191619857505 69.79472890537,60.714397333973466 69.49192626227159,61.18901296907279 69.26482427993324,61.7277615755811 69.08818940480705,62.07409756433117 68.85267623793334,62.58718446394778 68.76015320810257,62.753936818335205 68.60875188658247,63.11309425593572 68.13772555286414,64.11359360499773 67.8012781716534,64.71645102605544 67.83492290976574,64.63949082122781 67.91062357055489,64.3444758432488 68.02838015396264,64.02380584238199 68.13772555286414,63.79292244430326 68.44052819596254,63.22853728881091 68.71809728548396,62.56153021695718 69.0545446666656,61.907343433940696 69.19753480370855,61.59948851029549 69.28164664900396,61.458387840724754 69.53398218489019,60.98377420856923 69.67697232193314,60.76570730250023 69.78631772080553,60.50915704742147 69.89566311970702,60.20129538020774 70.08912036390393,59.84212155843488 70.72837038821308,58.4952017260257 70.91341644787462,58.174502338548336 71.38444278159295,57.13542525502271 71.66201187108527,56.63512284841272 71.74612371638068,56.50683954839769 71.78817963902839,56.46835450809522 71.8302355617052,56.46835450809522 72.42742966333753,56.91734520093087 72.76387704457738,57.238050904968986 73.0414461340697,57.456129863312526 73.36948233074509,57.80248903035681 73.69751852742047,58.03339409756518 74.08443301584339,58.41823401999136 74.37041328987107,58.649136859716236 74.883495546208,59.136595667187066 75.13583108212333,59.34184036714214 75.43863372522173,59.63687846713583 75.9433047970524,60.03453635714686 76.43115349981235,60.49632950760861 76.55732126778457,60.58612223221644 76.90217983350158,60.86832711579336 77.20498247659998,61.18901296907279 77.61713051857078,61.5738338662959 77.83582131637377,61.76624344490119 78.07974566775374,61.94582519502728 78.22273580476758,61.99713417369276 78.31525883459835,62.08692478710145 78.35731475724606,62.176715274214075 78.3489035727107,62.22802406728806 78.1302127749077,62.471740271157614 77.51619630423374,62.95916988726094 77.19657129206462,63.30549919476471 76.86012391085387,63.62617280412451 76.28816336279851,64.11359360499773 75.83395939815091,64.54970379834049 75.7919034754741,64.61383739899975 75.7919034754741,64.66514423318586 75.859192951757,64.83189115930509 75.93489361248794,65.11407727281767 76.02741664234782,65.84519003673267 76.07788374953088,66.4223784092319 76.13676204124931,66.65325229693917 76.15358441029093,66.80716775820474 76.17881796389702,67.12782377715848 76.204051517474,67.28173809413784 76.22928507108008,67.80760921055116 76.24610744015081,67.88456559592669 76.27975217826315,67.9486958461639 76.33863046998158,67.9486958461639 76.45638705338934,67.89739165112405 76.64143311307998,67.76913098304794 77.18816010752926,67.47413046853399 77.65077525668312,67.17912859070202 78.55918318600743,66.67890489955607 78.8031075373583,66.51216279810978 79.15637728763977,66.33259389403611 79.68628191307653,65.97345457053598 79.99749574068119,65.80671062635156 81.06571617606096,65.21669009569814 81.26758460476412,65.126903884684 81.34328526552417,65.10125065836473 81.44421947989031,65.13973049401102 81.83113396831322,65.4347417967183 82.10870305780554,65.69127225603006 82.43673925448093,66.03758674081473 83.22739060033928,66.78151520706524 83.73206167214084,67.19195478766414 84.03486431523925,67.3843474326386 84.31243340476067,67.58956561482773 84.74981500030844,67.76913098304794 85.04420645890059,67.80760921055116 85.33859791746363,67.96152188850101 85.43953213182976,67.97434792826607 85.48999923898373,67.93586980127293 85.50682160805445,67.91021770373845 85.50682160805445,67.87173953812453 85.47317686994211,67.83326134931485 85.20401896495605,67.70500055238153" stroke="#4dd2ff" stroke-linecap="round" stroke-linejoin="round" stroke-width="0.5"><title>2022-12-07 10.4km</title></polyline><polyline fill="none" points="131.4398845169635,67.41104948651628 132.11997840186814,67.88477098002477 132.02761997302878,68.0 131.37271475055604,67.80795151759958 129.97894209754304,66.88611074519213 125.0167756039591,62.62242368960142 124.84045496713952,62.40475032970062 124.94960583758075,62.148663071937335 118.50970448297448,56.42484427390809 130.46592290402623,32.0 130.26441360477475,32.8198634998771 125.94875611292082,41.65834674726648 114.73140512240934,64.38939168124853 114.5382920439879,64.69668546068715 114.5131033815851,64.51743093612458 117.9975350141176,57.244393494813266 118.50130826220266,56.52728850301719 124.95800205835258,62.08464109668057 124.8068700839649,62.443163329615345 122.48111692199018,64.54303875619007 122.9513052868715,67.94878712794525 127.93866044282913,65.13201577810833 130.91092260647565,67.56468927570677 132.09478973946534,67.96159034983066 132.15356328507187,67.8591645028464 131.3643185297551,67.41104948651628" stroke="#4dd2ff" stroke-linecap="round" stroke-linejoin="round" stroke-width="0.5"><title>2022-11-10 10.4km</title></polyline><polyline fill="none" points="178.17663056959282,67.50049499512534 178.87376496844809,67.89753775398276 178.77297445293516,68.0 177.64748036323,67.67980493438881 176.24481235595886,66.65516991613913 171.67564232012955,62.60770056788533 171.4992589180183,62.364331877892255 171.60844864315004,62.12096225877394 170.86091898652376,61.64702928105544 165.12425881292438,56.497584375065344 165.5778161326598,55.267804647854064 177.10993094724836,32.0 176.37919970991788,33.90940746664637 166.37574104696978,53.97394827807511 161.12623503155191,64.73393486341956 161.63858681870624,63.286566213020706 165.14105723216198,56.497584375065344 171.66724311051075,62.14658015714667 169.17267785198055,64.55461663724782 169.61783596209716,67.94876889757143 174.64056331763277,65.10537815571661 177.63068194399239,67.57734217372854 178.80657129146857,67.9231533309212 178.1262353118509,67.53891859601936 177.99184795786277,67.16748948402164" stroke="#4dd2ff" stroke-linecap="round" stroke-linejoin="round" stroke-width="0.5"><title>2022-11-08 10.4km</title></polyline><polyline fill="none" points="38.036703235440655,107.32094282599064 38.83491212967783,107.83343947571848 38.700476947502466,108.0 37.65020208663191,107.71812808864706 36.851993192365626,107.15438052795434 31.684640876832418,102.6314072003297 31.508194700203603,102.40076540255905 31.625825484632514,102.13168225069967 29.869765917246696,100.82469078881695 25.13932794384891,96.49348837543585 25.408198308228748,95.63490147564153 37.13766795452102,72.0 36.91080858456553,72.79480826416693 26.861778715683613,93.00781004587407 21.165087870293064,104.69433284577462 37.062048164516455,72.16665416687465 36.72596020903438,73.11529266359867 33.692766410822514,79.14009949407773 25.248556529404595,96.46785908314996 31.667836479085963,102.14449575985782 29.121970216277987,104.6430808431578 29.617699950642418,107.92312596593547 34.65901928284438,105.1043473836362 37.60819109217846,107.59000408065913 38.80130333415582,107.94875065423912 37.95268124656286,107.35938021758557" stroke="#4dd2ff" stroke-linecap="round" stroke-linejoin="round" stroke-width="0.5"><title>2022-11-04 15.1km</title></polyline><polyline fill="none" points="84.82069687667536,107.34726507130472 85.52572882483946,107.8976106495902 85.35786407525302,108.0 84.74515773935127,107.84641591268519 83.27634118069545,106.92490361202726 78.21521898137871,102.4707395468904 78.28236488119,102.1123449912302 75.61331536315265,99.94913503264979 71.81117878554505,96.46736471810436 83.83029485421139,72.0 77.62769235789892,84.93264082741007 67.80760450850357,104.68506118947334 71.40830338661908,97.04340603498713 71.81957202302874,96.5057676346405 78.32433106860844,102.13794466919353 75.80635982513195,104.58266651042868 76.25959464896005,107.93600667531064 81.33750332324416,105.0818390160166 84.26674320310121,107.59044161084603 85.433403212548,107.8976106495902 84.74515773935127,107.44965530637637" stroke="#4dd2ff" stroke-linecap="round" stroke-linejoin="round" stroke-width="0.5"><title>2022-11-01 10.4km</title></polyline><polyline fill="none" points="131.48828677501297,107.40936809679988 132.21242306410568,107.8844420137284 132.00191832889686,108.0 130.949394652911,107.70468473076107 130.04001419682754,107.08837020758801 125.03842168848496,102.6712755023982 124.8110765744641,102.40161739034738 124.94579960496048,102.13195814042774 122.01557369099464,99.76918080546966 118.42015281374916,96.4560089155566 130.44418328840402,72.0 130.09895552269882,73.04059863782459 125.56047343174578,82.071255144514 124.02799895950011,85.34664009771586 114.45424360258039,104.75145697557673 114.89209345178097,103.44172098064519 118.43699319259031,96.4688509987318 124.96263998380164,102.11911719539057 122.43658316135406,104.58453133162038 122.93337433645502,107.94864092077114 127.96022741304478,105.09814730435755 130.94097446350497,107.60196605633246 132.11138079120428,107.93580114452197 131.3619839338935,107.48640735029039" stroke="#4dd2ff" stroke-linecap="round" stroke-linejoin="round" stroke-width="0.5"><title>2022-10-28 10.4km</title></polyline><polyline fill="none" points="178.41238789324416,107.89742821587788 177.5127122265112,107.69228415303587 176.4869138027134,106.89734468033203 171.64379993316834,102.61475843118023 171.57653446274344,102.16596778486928 165.102232935722,96.56223023431812 177.1343439554039,72.0 176.23466828870005,74.20649814632634 164.5977419076371,97.66506416385528 161.28491748988745,104.6022219237675 161.19242746807868,104.7560874833689 161.20924383567763,104.37142288864925 161.6128366581397,103.33281689989235 164.69023192944587,97.06235495981673 165.102232935722,96.6135252583772 166.38868505728897,97.45988720164678 171.65220811695326,102.14032250973833 169.1465693441569,104.65351048485172 169.6258358208288,107.96153560025778 174.6202969988226,105.15357179525745 177.52952859411016,107.56406877883637 178.67304159107152,108.0 178.80757253192132,107.88460673125155 178.47965336363995,107.7435702305811" stroke="#4dd2ff" stroke-linecap="round" stroke-linejoin="round" stroke-width="0.5"><title>2022-10-23 10.2km</title></polyline><polyline fill="none" points="38.426194906875025,147.9100573902906 37.533018246729625,147.74302077945322 36.26908901068964,146.72794276258355 31.65153420175193,142.65461955150386 31.52514127813629,142.46186912154735 31.63468181193457,142.19201754360984 30.808914711058605,141.66516118071013 25.121233148907777,136.57627627018155 37.136987086123554,112.0 36.2859414005361,114.15980040503564 27.472141527949134,131.84684841219496 21.152495347807417,144.8005350969106 22.121507762087276,142.3590686547359 24.70834959851345,137.0774723089853 25.121233148907777,136.57627627018155 26.123950342851458,137.28309006024938 31.63468181193457,142.19201754360984 31.499862693424802,142.50041925402547 29.14895431441255,144.68488878957578 29.57869025465334,148.0 34.65968578349566,145.1603222710619 37.5835754161817,147.65307780830335 38.84750465219258,147.94860423853243 38.114425695326645,147.62737979330996 37.88691843280685,147.13911554633523" stroke="#4dd2ff" stroke-linecap="round" stroke-linejoin="round" stroke-width="0.5"><title>2022-10-21 10.3km</title></polyline><polyline fill="none" points="84.79579408987775,147.3978175860102 85.51838319413946,147.8590642000563 85.501578796393,148.0 84.35887974774232,147.73094047527047 83.17416970466729,146.85969231953277 78.4101229357475,142.66984741884517 78.20006796356756,142.41357885760954 78.29249215131858,142.14449575985782 76.28436661732849,140.5684148116161 71.80599461056408,136.5063030177298 72.60420350480126,134.55844783362045 83.80433462120709,112.03845869259021 83.00612572694081,114.06391704233101 82.03987285491894,115.83293560488164 75.15006976755103,129.99613303473961 67.81495013920357,144.7455848072168 68.05861390690552,143.87429586071084 71.68836382610607,136.64726391276417 83.81273682008032,112.0 83.46824666572502,113.08965397097563 71.93202759383712,136.45504443312893 78.31769874799647,142.11886873893673 78.14125257133855,142.46483265228744 75.82224567851517,144.61745482640254 76.28436661732849,147.93593831137332 81.34249034730601,145.1043473836362 84.2664555599913,147.59000408065913 85.48477439858834,147.94875065423912 84.70336990212672,147.37219267631735" stroke="#4dd2ff" stroke-linecap="round" stroke-linejoin="round" stroke-width="0.5"><title>2022-10-16 15.1km</title></polyline><polyline fill="none" points="131.45301764435135,147.51243506691026 132.1598088175233,148.0 131.31839075425523,147.8845244311924 129.88798004659475,146.94788154628623 124.9993410987081,142.66224434263495 124.82264330540784,142.43127369018475 124.94885601490387,142.1874704285401 120.59031044691801,138.56880731203637 118.4362802048272,136.54123975172115 119.13465719739906,134.74460709839695 130.39283088457887,112.0 129.6271404469735,114.04118454672061 116.82075752326637,139.83921240465133 114.50685784910456,144.74094261984283 114.78452581001329,143.6759389929066 114.87708179699257,143.54762410393232 114.87708179699257,143.81708507294024 118.02398535379325,137.0032228342934 118.41103766291053,136.6054042686519 119.7741349254793,137.5293661626929 124.97409855682054,142.1874704285401 122.43301600561244,144.62546115747682 122.92103848230909,147.9615081669217 127.96113268160843,145.11304813363677 130.8892675419338,147.61508062532448 132.04201028868556,147.9871693915411 132.13456627566484,147.91018568677828 131.90738339853124,147.76904865362667" stroke="#4dd2ff" stroke-linecap="round" stroke-linejoin="round" stroke-width="0.5"><title>2022-10-14 10.3km</title></polyline><polyline fill="none" points="178.12548604555195,147.31948885019665 178.8748832041456,147.84592263847298 178.68963896270725,148.0 177.67079563470907,147.666165247123 176.5930109571782,146.87009072175715 171.59141643793555,142.47866268040525 171.65035778749734,142.10627624676272 169.4358470828738,140.3598833288197 165.1583891438495,136.44316682825956 165.56255839794176,135.21031457903882 177.123483103147,112.0 174.49638295162003,117.67812225066154 161.1251167958544,144.64873355335658 161.6050677850726,143.338995452792 164.79632085375488,136.8412702861715 165.1583891438495,136.5073772311698 171.6587779803085,142.04207146986664 171.4061721964972,142.49150355321763 169.14956052790512,144.55885042399314 169.59583074593684,147.96148069444826 174.7068877714919,145.0981473037973 177.59501389958314,147.550606657147 178.7064793482714,147.87160222452803 178.85804281858145,147.78172362819896" stroke="#4dd2ff" stroke-linecap="round" stroke-linejoin="round" stroke-width="0.5"><title>2022-10-10 10.3km</title></polyline><polyline fill="none" points="38.2513703655859,187.4613043283207 38.84856434719404,188.0 38.032679611758795,187.83326134929666 36.628012077562744,186.9739090891453 31.62335828805226,182.61283870113766 31.48877936261124,182.4076045187103 31.631769470870495,182.15106086270316 29.6299079550663,180.61177727374888 25.10469158741762,176.49401120498078 37.14950541363214,152.0 36.333620678196894,154.0276244550878 31.480368179793004,163.61305262101087 28.45234235751559,170.0153679439718 21.151435652805958,184.729277718121 21.235547481221147,184.19055444420155 21.992553936783224,182.57435734221144 24.608431799861137,177.32784821409587 25.15515868444345,176.59663788626494 31.648591836565174,182.16388806996838 29.116825801873347,184.61383739934536 29.57102967519313,187.96152188848282 34.62615056175855,185.1269038849532 37.57847573843901,187.6023917293387 38.79809725016821,187.96152188848282 37.931745417707134,187.29456427053083" stroke="#4dd2ff" stroke-linecap="round" stroke-linejoin="round" stroke-width="0.5"><title>2022-10-08 10.4km</title></polyline><polyline fill="none" points="84.95589901917265,187.46130432793143 85.5194490624126,187.78195706130282 85.46898189437343,188.0 84.3502930025279,187.62804395030253 82.70169884618372,186.396725702587 81.77646743188961,185.39626213740848 78.26899925232283,182.4845674112039 78.3194664203329,182.08692478412195 77.31853425398003,181.3942510663801 71.8092017416493,176.40421271802552 83.76992056996096,152.0 83.02973543849657,153.86079702610732 81.36431889279629,157.08177258454816 79.22787544530001,161.6242267297239 72.978357801534,174.0694078531742 67.81388427090133,184.66514423136687 68.48677984491223,182.92068873447352 71.26247408776544,177.22522270322588 71.77555696293712,176.4940111995311 72.33910700620618,176.7634058860276 78.3110552256694,182.04844310815315 75.7876968230994,184.5368770685891 76.26713491958799,187.9102177036766 81.29702933540102,185.04994417309354 84.24094747175695,187.52543500345564 85.44374831032474,187.8845655958212 85.46057069970993,187.75630490193726 84.62786242683069,187.2817380937231" stroke="#4dd2ff" stroke-linecap="round" stroke-linejoin="round" stroke-width="0.5"><title>2022-10-03 10.3km</title></polyline><polyline fill="none" points="131.72517328546382,187.56250977200398 132.16396230255486,187.96139804128325 131.49734052657732,187.8584593709602 130.24847947785747,187.16361901817436 128.383626155206,185.38788164236757 125.16021452957648,182.7370516259325 124.89862876935513,182.41534148750725 125.05051727528917,182.13223522868793 124.01261248483206,181.43733274157057 118.53618802136043,176.48271682517225 119.12686554438551,174.8868628018863 130.5269417387317,152.0 130.20628822623985,153.01708156416498 128.94055067689624,155.43741321499328 126.3584460762795,160.8828248828613 119.65847531511099,174.2176218583736 114.49426611381932,184.7830902808164 130.43412098512636,152.19311799555362 130.07127622095868,153.26169370700882 129.12619218413602,154.96107858006144 118.60369402400102,176.49558645402794 125.05895552560105,182.15797221305547 122.51060392629006,184.64154254158348 122.95783119372209,187.987132683018 128.06297264268505,185.13052431429605 130.9910455068457,187.62684675770288 132.17240055286675,188.0 131.5057787768892,187.60111197118385" stroke="#4dd2ff" stroke-linecap="round" stroke-linejoin="round" stroke-width="0.5"><title>2022-09-30 15.0km</title></polyline><polyline fill="none" points="173.42401118233101,184.92667292270926 173.56408436706988,185.21146671102542 172.7625544766779,185.09280279945233 171.5018958140863,184.26214874259313 166.88726256156224,180.20364236149544 166.97286284109578,179.883222083914 166.05460529675474,179.25424389065302 160.91858852325822,174.6257077583541 172.01549749143305,152.0 171.665314529615,153.04481963355647 161.03531617720728,174.6019707406158 166.86391703077243,179.7052100674082 166.94173546670936,180.15617280045626 169.7976720665174,182.5296041130823 171.75091480914853,184.38081432313265 172.49797179439338,184.91480648504148 174.13215894959285,185.44879381890132 177.416096947185,187.20498477755245 179.08141147677088,187.79828073284443 179.08141147677088,188.0 179.03472041519126,187.79828073284443 176.93362264422467,187.02699482876415 174.4434326934279,185.6742536880156 172.5290991687798,185.0453371680851 169.85214497166453,182.69574073282274 172.45128073281376,184.87920715780274 173.6029935850529,185.1877339477869 172.91040950501338,184.84360780909628 172.7781181638711,184.59441176725886 172.86371844343375,184.28588187775313 172.9337550358032,184.38081432313265" stroke="#4dd2ff" stroke-linecap="round" stroke-linejoin="round" stroke-width="0.5"><title>2022-09-23 10.1km</title></polyline><polyline fill="none" points="38.11548374625272,227.33280494239807 38.85593223734759,227.8845244311742 38.72130523895612,228.0 38.03134187226533,227.83320188910875 36.567273264867254,226.89655825106456 31.74594388526748,222.66224434081596 31.535589200299,222.44410541322577 31.62814526166767,222.13614330554265 25.15763515193248,216.46424224324073 25.620415458863135,215.09110447020066 37.09736707096454,192.0 24.77899671898922,217.13155087212726 21.632090631785104,223.81708507150688 21.15248195003369,224.75377387939807 21.144067762652412,224.52281079208115 24.77058253157884,216.97755719219276 25.18287771413452,216.54123974864706 31.62814526166767,222.11047972956294 30.997081206762232,222.88038252321348 29.129131604218856,224.52281079208115 29.58349772373913,227.91018568673826 34.63201016309904,225.10021694404713 37.57697575268685,227.55092717050138 38.763376175949816,227.92301631064402 38.149140495836036,227.57658856008857 37.964028373069596,227.25582044869952" stroke="#4dd2ff" stroke-linecap="round" stroke-linejoin="round" stroke-width="0.5"><title>2022-09-19 10.4km</title></polyline><polyline fill="none" points="84.7679599019466,227.23070760001792 85.45743166664033,227.80767776948414 85.43220708987792,228.0 84.29710113580222,227.61535495928183 83.48991467955057,227.03838305091267 78.53748944285326,222.71733870494427 78.23479452176252,222.39677479490274 78.31046825204976,222.1018545752995 76.56156426350935,220.7298165015236 71.85297660209471,216.4339924898486 72.39110090630129,214.98488810929848 83.80942598514957,192.0 83.06109687467688,193.96276082102122 82.11097115013399,195.69455845104312 78.01618152318406,204.22457916113126 67.84226889768615,224.69197687714768 83.6328539478418,192.47466011438883 83.36379179576761,193.29568548700627 71.94546671689022,216.4083449107966 78.36091740551637,222.1274998658664 75.86368430656148,224.61504406640597 76.3009103036602,227.88460673125883 81.37105023191543,225.10228363481292 84.28869294354809,227.56406877866175 85.49106443562778,227.92307117735982 84.6334288258804,227.24352921600075" stroke="#4dd2ff" stroke-linecap="round" stroke-linejoin="round" stroke-width="0.5"><title>2022-09-17 15.0km</title></polyline><polyline fill="none" points="131.49962119502015,227.25502345804125 132.19874640647322,227.85871201261398 132.07239847668097,228.0 130.97738308520638,227.69173489765308 130.01713881886099,226.97244387797036 125.04745358071523,222.5923006460289 124.87056647901773,222.37392787973658 124.94637523690471,222.14270884342113 118.48578442729195,216.46473451102793 119.31125756853726,214.43492899861667 130.45514497545082,192.0 130.1182171627006,193.06667265641954 114.87223363548401,223.99243771623878 114.46792026018375,224.77598728037628 114.70376972912345,223.85114087105467 118.25835815368919,216.6445875868667 118.46051484133932,216.52896781048912 124.9632216275204,222.11701778779752 124.70210257265717,222.5537643297248 122.47837900844752,224.58331204854767 122.94165475101909,227.96146694351046 127.95345596573316,225.03288668614186 130.88472793673282,227.64035723608322 132.08082167201792,227.974311298276 132.1566304298758,227.85871201261398 131.38169646053575,227.49906845383885" stroke="#4dd2ff" stroke-linecap="round" stroke-linejoin="round" stroke-width="0.5"><title>2022-09-11 10.4km</title></polyline><polyline fill="none" points="177.99740192087484,227.24460596351128 178.8202317248215,227.85916450286823 178.68589216496912,228.0 177.54400590647128,227.6415090313567 176.46089320536703,226.79648662531326 171.591084161686,222.51998925953012 171.64146149661974,222.12305428910622 169.93702833133284,220.84260204665406 165.15957773505943,216.48887193566406 165.71372841930133,214.964996110004 177.12419478202355,192.0 176.35174231301062,193.98558874391165 175.45334650669247,195.6508735139505 172.64061197286355,201.5430700757679 170.50797146061086,205.74412957644745 161.1797682752076,224.74790094624404 161.41486250492744,223.85162400088302 165.13438906759256,216.54009401932126 165.8144830891979,216.9754800679766 171.65825394162675,222.13585868156224 169.164575862349,224.59425436521997 169.63476432173047,227.92318067649103 174.6305167027458,225.0808006007719 177.5775907964271,227.5646892756704 178.79504305732553,227.87196774273252 177.9134396959853,227.28301604585067" stroke="#4dd2ff" stroke-linecap="round" stroke-linejoin="round" stroke-width="0.5"><title>2022-09-09 10.4km</title></polyline><polyline fill="none" points="38.239631267118966,267.3980319460279 38.810777980834246,267.76945971481837 38.68478973515448,268.0 37.66008533700369,267.6669970982002 36.88735743021243,267.1290656589408 31.69664170840406,262.5692739925471 31.537056597240735,262.35152297183595 31.654645626520505,262.0825353898799 29.974802350858226,260.78881735105097 25.178849798830925,256.4719642029595 25.98517457113485,254.4607488028596 37.12253548880108,232.0 36.34980758200982,233.94785132393372 34.72035960460198,237.15142466020916 31.024704398121685,244.78809390653623 21.18922201913665,264.65708425559933 21.75196951648104,263.1584789071603 24.73369133079541,257.0868454157935 25.16205136606004,256.51039445253264 31.64624641012051,262.0953443480721 29.185276011296082,264.5546166359818 29.638833695702488,267.89753775395 34.66156508997665,265.002911255684 37.60129082237836,267.53891859581927 38.79397954806336,267.91034554373255 38.78558033169247,267.75665189672145 38.10524380506831,267.5133028644959 37.96245712664677,267.21872121405613" stroke="#4dd2ff" stroke-linecap="round" stroke-linejoin="round" stroke-width="0.5"><title>2022-09-07 10.4km</title></polyline><polyline fill="none" points="84.68824780770228,267.14003686551223 85.52996671025176,267.8459776030868 85.31953698463622,268.0 84.22530241133063,267.66628433729056 83.3414975636988,266.98601239514755 78.20701225829544,262.49346862053426 78.2238466363342,262.10837873771015 71.76786265397095,256.48580204807877 72.01196113569313,255.60000853792735 83.72868825882324,232.0 83.3667491307715,233.15580743175815 76.86867920326767,246.40757095869048 73.49338640415226,253.01958351338544 67.93804164748872,264.50873447616686 67.80336662309128,264.72694416164813 67.84545256820275,264.2520162448018 71.38908914785134,256.8837632490395 71.75944546493702,256.51147703909373 72.79475971506326,257.2175352476843 78.26593258147477,262.0955423683117 75.75761025195243,264.59858561339206 76.27105878246948,267.9358240464171 81.26245187444147,265.0606751800078 84.2168852223258,267.52509641674624 85.38687449682038,267.9486592423091 85.45421200903365,267.8203071674943 84.80608845409006,267.6149433113824 84.63774467358598,267.3710728747719" stroke="#4dd2ff" stroke-linecap="round" stroke-linejoin="round" stroke-width="0.5"><title>2022-09-02 10.4km</title></polyline></svg>