<?xml version="1.0" encoding="utf-8" ?>
<svg baseProfile="full" height="300mm" version="1.1" viewBox="0,0,200,300" width="200mm" xmlns="http://www.w3.org/2000/svg" xmlns:ev="http://www.w3.org/2001/xml-events" xmlns:xlink="http://www.w3.org/1999/xlink"><defs /><rect fill="#222222" height="300" width="200" x="0" y="0" /><text fill="#FFFFFF" style="font-size:12px; font-family:Arial; font-weight:bold;" x="10" y="20">Over 10km Runs</text><text fill="#FFFFFF" style="font-size:4px; font-family:Arial" x="10" y="280">ATHLETE</text><text fill="#FFFFFF" style="font-size:9px; font-family:Arial" x="10" y="290">Sinnelf</text><text fill="#FFFFFF" style="font-size:4px; font-family:Arial" x="120" y="280">STATISTICS</text><text fill="#FFFFFF" style="font-size:3px; font-family:Arial" x="120" y="285">Number: 24</text><text fill="#FFFFFF" style="font-size:3px; font-family:Arial" x="120" y="290">Weekly: 1.8</text><text fill="#FFFFFF" style="font-size:3px; font-family:Arial" x="141" y="285">Total: 266.7 km</text><text fill="#FFFFFF" style="font-size:3px; font-family:Arial" x="141" y="290">Avg: 11.1 km</text><text fill="#FFFFFF" style="font-size:3px; font-family:Arial" x="167" y="285">Min: 10.1 km</text><text fill="#FFFFFF" style="font-size:3px; font-family:Arial" x="167" y="290">Max: 15.1 km</text><polyline fill="none" points="36.86000078154029,66.49826578974898 36.4812277322344,66.1388711707441 35.791019064665306,65.4329115680448 35.53850369848078,65.22754003688897 34.63786555905244,64.44455501695847 33.989742785837734,63.93111700693771 33.22377950837836,63.225133004591044 32.642994166119024,62.80153885794789 32.44098187319469,62.608995135444275 32.34839290558011,62.454959739487094 32.37364444221021,62.35226926924224 32.45781623094808,62.24957863384043 32.3988959788403,62.15972419247191 32.222135222458746,62.095542371247575 31.81811063658097,61.81314159167232 31.607681164721726,61.620594889820495 31.46458912390517,61.453720612036705 29.553889519738732,59.8234643498763 28.93943546200171,59.20729366785599 28.156637826788938,58.5782799655899 27.096073288761545,57.5898173468122 26.877226638083812,57.43576984668471 26.33011001133127,56.97362511713436 26.187017970485613,56.80673869858583 25.985005677532172,56.63985184399644 25.942919783177786,56.562826994810166 25.942919783177786,56.52431453539248 26.06076028739335,56.13918866399399 26.338527190237073,55.5486578176351 26.456367694452638,55.31757904368715 26.658379987376975,55.00947271135374 26.85197510148282,54.52163464549449 27.02031867892947,54.226362427103595 27.22233097188291,53.81554663508723 27.281251223990694,53.66149003186729 27.39909172820626,53.48175685844399 27.542183769051917,53.10945081880345 27.752613240882056,52.72430435613933 27.84520220849663,52.4803770618455 27.988294249313185,52.262125535209634 28.156637826788938,51.91548922469883 28.240809615526814,51.82562024447907 28.392318835220067,51.46614305918047 28.53541087609483,51.196533842448844 28.60274830707931,50.97827792862881 28.712171632418176,50.695827991843544 29.040441608434776,50.10524681489551 29.141447754926048,49.80995417857048 29.26770543801831,49.5916935263449 29.41921465776977,49.39910997853076 29.68014720280189,48.75716062497668 29.88215949575533,48.43618352853446 30.3451043337991,47.473242560139624 30.39560740700108,47.31917065786547 30.462944838014664,47.21645584983344 30.6733743098157,46.77991607279546 30.74912891970598,46.66436092645381 30.942724033782724,46.29201514378656 31.15315350558376,45.80411048739188 31.26257683095173,45.49595825761571 31.372000156290596,45.27768286188075 31.439337587275077,45.18780454092848 31.750773205567384,44.6356920800099 32.29788983234903,43.505772629123385 32.58407391401124,42.992166269883455 32.66824570274912,42.7482018022165 32.93759542671614,42.24742971190062 33.072270288656,41.95210074093848 33.13960771964048,41.759494154466665 33.28269976048614,41.52836548398409 33.400540264701704,41.23303318768012 33.501546411192976,41.117468004260445 33.535215126670664,41.040424432500004 33.63622127313283,40.78361185532776 33.82139920836198,40.44975396097652 33.96449124920764,40.06453114480246 34.174920721008675,39.73066949112035 34.806209136528196,38.47225218490712 34.98296989285154,38.08701743957863 35.16814782805159,37.753145447139104 35.24390243788366,37.573367497421714 35.311239868897246,37.45779569109072 35.39541165763512,37.188127329445706 35.67317856044974,36.70015311371026 35.86677367449738,36.25069987914321 36.12770621958771,35.814085136404174 36.20346082941978,35.621460036185454 36.36338722801884,35.28757515261168 36.40547312237322,35.159157424877776 36.53173080549459,34.96653034900737 36.67482284634025,34.65832581899667 36.80949770830921,34.41432951110255 36.876835139264585,34.26022609940628 37.05359589558793,33.92633409831251 37.129350505478214,33.73370330350008 37.23035665196949,33.55391403739486 37.44078612377052,33.09159645725231 37.61754688009387,32.796225139773014 37.81114199417061,32.4494831541233 37.987902750552166,32.0 37.928982498444384,32.321059718637116 37.870062246278394,32.4494831541233 37.81114199417061,32.52653709144215 37.76063892096863,32.654960113646666 37.743804563215235,32.732013802979054 37.196687936462695,33.97770221213068 36.95258974915487,34.388645634975546 36.8431664237869,34.61980014815708 36.506479268864496,35.171999209254864 36.46439337451011,35.300416911166394 36.34655287026544,35.53156812388261 36.22029518717318,35.87829337405856 35.892025211127475,36.52037219946942 35.71526445480413,36.93129925964604 35.479583446373,37.40643037662812 35.42066319426522,37.56052619594266 35.09239321819041,38.13838220656908 35.02505578723503,38.27963510273912 34.92404964074376,38.44656994081015 34.696785811160225,39.037258940919855 34.52844223371358,39.30691949400716 34.427436087222304,39.55089710849279 34.0907489322708,40.16725745630538 33.95607407033094,40.44975396097652 33.88873663934646,40.5524796528116 33.58571819993085,41.207352053890645 33.535215126670664,41.297235976970114 33.37528872807161,41.669610882003326 32.82817210134817,42.7353615412685 32.567239556257846,43.274650278624904 32.53357084078016,43.403051687710104 32.32314136895002,43.8010944152993 32.0622088239179,44.23765455421744 31.978037035180023,44.50729314918863 31.885448067536345,44.648531958879175 31.80969345770427,44.892489167188614 31.74235602671979,45.02088732355696 31.64134988025762,45.29052261166726 31.50667501828866,45.508797963528195 31.422503229550784,45.67571390568628 31.363582977443002,45.82978977277526 31.245742473227438,45.99670487598996 31.085816074628383,46.34337331184361 30.92588967602933,46.61300301652227 30.74912891970598,47.10090149338794 30.64812277321471,47.21645584983344 30.530282268999144,47.43472461942292 30.420858943631174,47.691510452132206 30.370355870429194,47.832742220045475 30.134674861939857,48.24359649633698 29.983165642246604,48.62876997998319 29.68014720280189,49.14233101140417 29.553889519738732,49.41194889976032 29.24245390141732,49.98969768506504 28.92260110421921,50.7086666524192 28.86368085211143,50.862730378186825 28.653251380310394,51.20937240236526 28.518576518341433,51.543174054946576 28.32498140426469,51.94116605296222 28.223975257802522,52.10806518503523 28.038797322573373,52.42902382853572 27.727361704281066,53.07093627705399 27.55060094795772,53.340537581614626 27.50851505357423,53.43040443024074 27.40750890711206,53.55878542325081 27.323337118374184,53.854060727830074 27.239165329636307,54.046630843236926 27.15499354089843,54.21352447361278 27.003484321176074,54.611499832324625 26.902478174713906,54.81690549891209 26.734134597267257,55.11217498729093 26.64996280852938,55.330416775334015 26.49845358877792,55.612846217583865 26.363778726838063,55.97230006522295 26.17018361276132,56.30607682669506 25.900833888794295,56.92227549632298 25.69882159586996,57.243209949061566 25.50522648176411,57.602654621696274 25.328465725440765,58.03912043346281 25.244293936731992,58.193166478460626 25.02544728599605,58.5782799655899 24.949692676134873,58.73232471033407 24.781349098688224,58.989065125959314 24.604588342364877,59.489705968251656 24.41099322825903,59.8234643498763 24.208980935334694,60.22140475644119 24.08272325224243,60.567995993773366 23.939631211396772,60.76054586860482 23.779704812797718,61.081461036785186 23.60294405647437,61.37670156754757 23.148416397336405,62.41645083247931 23.072661787475226,62.63466766527563 22.559213876229478,63.66156039956695 22.483459266339196,63.854100949487474 22.289864152262453,64.21350842313768 22.197275184676982,64.41888321446095 22.1299377536634,64.6242573455238 22.045765964925522,64.73978000403804 22.02893160720123,64.72694416341255 22.012097249447834,64.63709320678026 22.104686217062408,64.21350842313768 22.205692363524577,63.918281003763695 22.668637201568345,63.05826291849371 23.06424460859853,62.2239059492058 23.417766121245222,61.59492195238272 23.459852015628712,61.49223009946945 23.54402380436659,61.1841535501153 23.771287633950124,60.86323889782216 23.821790707152104,60.696362641498126 23.91437967476668,60.50381257319168 24.1753122198279,60.02885325639363 24.511999374750303,59.25864145171727 24.579336805734783,59.04041308521846 24.66350859447266,58.86069504712577 24.8739380663028,58.47558326273429 24.949692676134873,58.37288639473627 25.092784717009636,58.11614350238233 25.18537368462421,57.949260068948206 25.42105469305534,57.32023397777448 25.78299338457873,56.66552677308937 25.841913636686513,56.60133943099936 25.917668246576795,56.57566447613863 25.96817131980788,56.58850195485866 26.052343108545756,56.614176904597116 26.422698978945846,56.80673869858583 26.767803312744945,57.08916161300294 27.28966840286739,57.53846822136984 27.45801198031404,57.731027228888706 27.744196062005358,57.93642286371687 28.32498140426469,58.50125745393598 28.813177778880345,58.899206097885326 29.427631836617365,59.476869072615955 30.488196374644758,60.375445538546046 30.92588967602933,60.799055773935834 31.127901968953665,60.96593176200258 31.3551657985372,61.19699010264958 31.658184237981914,61.453720612036705 31.792859099950874,61.60775842237126 32.02012292953441,61.80030516294937 32.163214970350964,61.890160109920544 32.230552401335444,61.95434213750195 32.35681008445681,62.01852410064021 32.474650588672375,62.185396902910725 32.49148494642577,62.26241497231604 32.48306776751997,62.28808764144924 32.41573033656459,62.36510558704322 32.33155854782672,62.49346862330276 31.515092197136255,63.212296859608614 31.16157068448956,63.55887186902328 30.664957130968105,63.95678900543135 30.454527659137966,64.18783652783168 30.02525153660099,64.58574974623843 29.97474846339901,64.67560077509188 29.97474846339901,64.7141083202223 30.033668715506792,64.84246663625163 30.109423325338867,65.11201826040997 30.151509219722357,65.3944044562777 30.21042947183014,65.61261111623025 30.227263829583535,66.17737783381381 30.252515366184525,66.38274631128661 30.260932545061223,66.51110127447828 30.31143561832141,66.7036332356729 30.3451043337991,66.88332920919856 30.353521512675798,67.10153078326039 30.404024585906882,67.53793169543496 30.404024585906882,67.85881281711409 30.41244176478358,67.94865924233818 30.446110480261268,68.0 30.50503073236905,68.0 30.942724033782724,67.78180149489344 31.67501859573531,67.31973161200585 32.00328857175191,67.15287222178813 32.60090827179374,66.78064585764514 32.77766902811709,66.74213955826781 32.92917824781034,66.65229143608303 33.13119054076378,66.49826578974898 33.45104333796189,66.28006215507776 33.846650744992075,66.07469334744383 34.33484711960773,65.75380326373852 34.61261402242235,65.61261111623025 34.91563246186706,65.4329115680448 35.344908584374934,65.21470429425244 35.43749755198951,65.18903280127051 35.58058959283517,65.18903280127051 35.892025211127475,65.3944044562777 36.228712366049876,65.68962505353193 36.75057745620143,66.20304892957938 37.58387816461618,66.96034161456919" stroke="#4dd2ff" stroke-linecap="round" stroke-linejoin="round" stroke-width="0.5"><title>2023-02-05 10.3km</title></polyline><polyline fill="none" points="83.55226727039553,66.4368764244573 83.17416839650832,66.07812134511187 82.87168929737527,65.75780260440297 82.50199262064416,65.38623084931533 82.25832890192396,65.20685060640244 81.88023002800765,64.87371453075684 81.5777509288746,64.65589384795749 81.14923887178884,64.25868951089797 79.779680728534,63.07987497498834 79.21673351625213,62.65703401575229 79.06549396668561,62.49045953463428 79.02348298070137,62.413578858115216 79.02348298070137,62.33669808889317 79.11590714988415,62.182936272361985 79.09910275545553,62.14449576034531 79.06549396668561,62.106055225081946 78.88064562834916,62.02917408508438 78.58656872640131,61.824157258575724 78.40172038806486,61.657580601637164 78.26728523286874,61.50381714748073 78.04042590851896,61.28598495267215 77.44386990746716,60.81187701500312 77.20020618871786,60.59404245630503 76.91453148401342,60.36339328883332 75.83064804543392,59.37671798721931 75.23409204438212,58.86415336298887 74.77197119852644,58.41565593672931 74.25943716941401,57.992784045291046 73.83932730954257,57.60835261931061 72.75544387099217,56.66007852489565 72.6714218989946,56.57037619122639 72.66301970180939,56.5191176581975 72.70503068779362,56.262824374796764 72.74704167377786,56.10904791023495 72.84786804014584,55.80149386847552 73.00750978692668,55.44267894472068 73.26797790004639,55.00697239395595 73.35199987204396,54.81474796908151 73.62927237956319,54.276516496302065 73.83932730954257,53.776726060255896 74.14180640864652,53.251301121017605 74.46108990217908,52.50800966514362 74.77197119852644,51.95694316443405 75.39373379116296,50.70100636459392 75.5701799323142,50.380610363001324 75.87265903144726,49.726997526944615 76.14152934175218,49.252803628074616 76.30957328571822,48.868319499280915 76.57004139889614,48.41975175160769 76.6540633708646,48.20187484969574 76.78009632881731,47.97118084782778 76.97334686436807,47.47134097997696 77.34304354109918,46.76643194184362 77.64552264023223,46.09996531935758 77.80516438695486,45.81799657402735 77.93119734496577,45.548843426335225 78.04042590851896,45.36940736326869 78.19166545808548,45.04898456592491 78.53615554320277,44.38249998849642 78.84703683952102,43.67755679525726 79.07389616389992,43.28022174212674 79.40158185458858,42.613718672400864 79.62003898175317,42.254829517769394 79.87210489768768,41.703674381948076 79.95612686968525,41.562680442282726 80.19138839122024,40.97306604298501 80.41824771554093,40.51162488291084 80.54428067355184,40.17835974553964 80.76273780065821,39.793820883605804 80.9727927306376,39.35800736917736 81.18284766055876,39.011918043997866 81.38450039335294,38.58891742815467 81.51893554849084,38.28127885358481 81.65337070365786,38.050548948369396 81.77100146442535,37.781363003367005 82.00626298598945,37.35835422173113 82.1827091271407,36.909705476755335 82.39276405709097,36.55078420724021 82.9052980861743,35.525283729613875 83.22458157970686,34.94843246068558 83.43463650962804,34.49976675349899 83.66149583397782,33.961363736223575 83.79593098914484,33.70497974866157 84.00598591912421,33.243485972314375 84.32526941262768,32.64097518010385 84.40929138462525,32.43586382372814 84.65295510337455,32.0 84.63615070894593,32.14101509264947 84.58573752574739,32.358946894924884 84.21604084904538,33.333221134944324 83.96397493311088,33.8075334674395 83.80433318633004,34.14083191396276 83.52706067883992,34.60231919356738 83.24138597407728,35.26890603235006 83.06493983292603,35.5637402952525 82.68684095903882,36.25595450966648 82.15750253555598,37.47372053148865 81.95584980279091,37.845454998128844 81.73739267565543,38.345370345741685 81.54414214007556,38.67864506609112 81.38450039335294,39.12728136117221 81.14083667460363,39.53746035360018 80.95598833620897,39.934818735691806 80.8719663642405,40.05018038264825 80.81315098385676,40.152723893614166 80.63670484270551,40.537260590579535 80.55268287073704,40.793617099880066 80.08215982763795,41.76776243326094 79.76287633410539,42.357369482379 79.67045216495171,42.54963147154194 79.43519064338761,42.934153710313694 79.24194010783685,43.40839461048381 79.0570917695004,43.780094471454504 78.98147199468804,43.972352169803344 78.67059069836978,44.53630474021338 78.4521335712052,44.98489981315288 78.31769841606729,45.35659048231173 78.12444788051653,45.638561268508056 78.03202371130465,45.882080489271175 77.93959954215097,46.07433184861293 77.82196878138348,46.36911614023484 77.56150066823466,46.868964649966074 77.45227210468147,47.04839649238784 77.18340179431834,47.65077112700601 77.07417323073605,47.81738438280081 76.73808534286218,48.52228180078964 76.38519306053058,49.18872310096049 76.21714911656454,49.58602133081149 76.03230077819899,49.893605356763146 75.91467001743149,50.12429240238998 75.87265903144726,50.26526740823101 75.39373379116296,51.1623737782902 75.24249424156733,51.48276585123676 75.06604810041608,51.79034072653667 74.9568195368629,52.059467525192304 74.88119976207963,52.16199172108463 74.81398218448157,52.32859318782721 74.67954702931456,52.57208685609294 74.42748111338005,53.09751739282001 74.27624156381353,53.341008124491054 74.08299102826277,53.725465281211655 73.99056685907999,53.87924749472222 73.89814268992632,54.07147474010708 73.69648995716125,54.58407789426565 73.5200438159809,54.942897650034865 73.47803283002577,55.07104707344115 73.16715153370751,55.673345913241064 73.08312956170994,55.89119728390506 72.78905265976209,56.49348837618891 72.71343288500793,56.698522343584045 72.64621530740988,56.80103907999728 72.4445625746448,56.94199932344782 72.38574719426106,57.05733019993204 72.3185296166921,57.249547863804764 72.21770325032412,57.44176494820567 72.14208347551175,57.723682290506986 72.01605051755905,58.056855724265915 71.88161536239204,58.30032751719773 71.76398460162454,58.56942683829402 71.54552747445996,58.99229490537982 71.16742860057275,59.889278491096775 70.99938465660671,60.17118501197183 70.89855829020962,60.40183487466493 70.68010116307414,60.79906323801697 70.5120572191081,61.080965736542566 70.32720888077165,61.47818986906714 70.25999130317359,61.67039420610308 69.84828364048735,62.400765403028345 69.74745727409027,62.69547421880998 69.65503310490749,62.900488243794825 69.45338037217152,63.2592612014887 69.3021408225759,63.6308453509846 69.05007490667049,64.0024273351737 68.96605293470202,64.22025025017501 68.84842217390542,64.43807242112962 68.71398701876751,64.75839779141461 68.6971826243389,64.73277182097445 68.68037822993938,64.68151984930228 68.7055848215241,64.45088546685292 68.76440020190785,64.27150259263362 69.15930347022368,63.400207168288034 69.31894521700451,63.13112823407573 69.46178256935673,62.75954117240326 69.59621772452374,62.50327297165859 69.75585947130457,62.23419025243493 69.9070990208711,61.913852201272675 70.10034955642186,61.580698920894065 70.36081766954158,61.01689709633138 70.55406820512144,60.68373912943207 70.67169896585983,60.33776555208533 71.04979783980525,59.5561146322907 71.20103738934267,59.2870194754214 71.39428792492254,58.80008249527236 71.49511429126142,58.620683723067486 71.75558240443934,58.23625608290968 71.84800657359301,58.056855724265915 72.03285491192946,57.51865161973183 72.35213840549113,56.865111956591136 72.51178015221376,56.60882006398606 72.53698674382758,56.58319081803347 72.62100871579605,56.557561561839975 73.10833615332376,56.762595323125424 73.62087018237798,57.17266086780728 73.84772950672777,57.36487818401656 74.15020860586083,57.69805349267699 74.41907891619485,57.90308358655966 74.78877559289685,58.274698951230675 75.22568984719692,58.620683723067486 75.5701799323142,58.941038319306244 75.77183266505017,59.09480795381751 76.03230077819899,59.36390392185058 76.27596449694829,59.543300602930685 76.5280304128828,59.786766719957086 76.72968314561876,59.92772036279348 77.08257542795036,60.24806839222947 77.30103255511494,60.47871797685002 77.69593582343077,60.79906323801697 78.36811159923673,61.40130797202073 78.55295993760228,61.60632615811119 78.75461267033825,61.79853010890656 78.90585221990477,61.90103864577759 78.97306979750283,61.96510639761618 79.06549396668561,61.99073348033926 79.1747225302388,62.067614666688314 79.20833131903782,62.13168225116169 79.20833131903782,62.23419025243493 78.98147199468804,62.50327297165859 78.42692697962048,62.990181672495964 77.91439295053715,63.51552636393899 77.63712044301792,63.72053775234235 77.3766523298691,63.976801060944126 77.2506193719164,64.06649297564582 77.07417323073605,64.25868951089797 76.7632919344178,64.54057671470218 76.67926996242022,64.64308084346703 76.68767215966363,64.71995883192358 76.73808534286218,64.84808860669364 76.83050951201585,65.15559901574306 76.87252049800009,65.46310794181045 76.8893248923996,65.80905371105837 76.93973807559814,66.15499760346574 76.94814027278335,66.4368764244573 77.02376004756661,66.80844205738686 77.04056444196613,67.07750547452451 77.10778201956418,67.60281649306853 77.11618421674939,67.87187655837624 77.14979300551931,67.9871876674406 77.17499959713314,68.0 77.2590215691016,67.96156299453287 77.64552264023223,67.71812808863979 77.77155559818493,67.60281649306853 78.01521931693424,67.4875046889756 79.06549396668561,66.88531743527346 79.33436427701963,66.75719175397171 80.35943233515718,66.1293721943075 80.69552022308926,65.97561952317119 80.92237954743905,65.80905371105837 82.09028495798702,65.15559901574306 82.16590473274118,65.12997320495924 82.3087420850934,65.15559901574306 82.86328710019006,65.60404903729432 83.23298377689207,65.93718129742774 83.33381014326005,66.06530862639556 83.47664749564137,66.21906108130497 83.8715507639572,66.5393775049597 84.1152144826483,66.79562948540479" stroke="#4dd2ff" stroke-linecap="round" stroke-linejoin="round" stroke-width="0.5"><title>2023-02-04 10.3km</title></polyline><polyline fill="none" points="131.49768472806318,67.44867472168698 131.96854330491624,67.69228415293401 132.19556440445012,67.85896375429002 132.14511527121067,67.9487141285208 132.1030743268784,67.9871785359719 132.0105842492776,68.0 131.66584850550862,67.85896375429002 131.40519465049147,67.84614226193298 130.96796882915078,67.70510567620659 130.8334378071886,67.62817649803037 130.65686584089417,67.46149629387583 130.3037219082471,67.23070760013434 129.79082238706178,66.82041452803605 129.5638012875279,66.61526700276227 129.37041294347728,66.42294059880442 128.9079625555023,66.02546419375722 128.54641043400625,65.65362918627943 128.24371563459863,65.35872401903544 127.94942902409821,65.11510567894584 127.48697863612324,64.69197687773703 127.13383470350527,64.43553381449965 126.88158903736621,64.19191194980158 125.0822366187349,62.704516180350765 124.84680733032292,62.38395220592065 124.86362370805,62.29419400448751 124.92248103016755,62.178790417077835 124.92248103016755,62.14032250825039 124.68705174175557,62.05056396411237 124.59456166415475,61.935159936121636 124.42639788673841,61.81975569940914 123.53512986627175,61.05038878727282 123.11472042268724,60.71699357773832 122.6186372791999,60.22972052260957 121.94598216947634,59.639858687627566 121.27332705972367,59.01152160449419 120.99585682692123,58.78070234650295 120.49977368346299,58.33188473233895 119.79348581822705,57.75482887513499 119.57487290754216,57.562475763017574 119.33103543028119,57.306004044774454 119.02834063087357,57.062354957539355 118.45658378757071,56.51093516666515 118.43135922096553,56.48528761857597 118.43135922096553,56.44681627704995 118.6836048871337,55.76715208559108 118.83495228679385,55.43372926914162 119.36466818576446,54.42062617506599 119.44034188560909,54.228263010842056 119.58328109642025,53.97177788975387 119.76826125159278,53.54857518580684 120.01209872891195,53.07407184625845 120.0625478621514,52.92017811340338 120.41569179474027,52.31742408559512 121.01267320464831,51.09907408834624 121.18924517100095,50.79127672355389 121.37422532614437,50.36805292230929 121.50875634810654,50.12437733891784 121.81145114751416,49.47029617105363 121.97120673605241,49.17531619550209 122.1898196467373,48.700780329454574 122.45888169066166,48.22624093380364 122.64386184583418,47.73887247494349 123.01382215620833,47.03346416405839 123.18198593362467,46.66151845955392 123.40900703318766,46.238267261542205 123.53512986627175,46.02022766970185 123.66966088823392,45.71240580080121 123.73692639920046,45.50719039640899 123.98917206536862,44.981322909516166 124.2161931649025,44.59653907526081 124.35913237574277,44.2758841071809 124.5441125309153,43.91674862949003 124.78795000820537,43.42934724740189 124.91407284128945,43.10868641256093 125.32607409599586,42.39040029358512 125.55309519558796,41.90298724970489 125.68762621749192,41.646452572891576 125.8221572394541,41.32578277617722 126.00713739465573,40.94097689236878 126.29301581630716,40.41507176391315 126.36868951612269,40.171358161063836 126.56207786020241,39.77371817860694 127.02452824817738,38.92712157261485 127.19269202562282,38.55512860185627 127.33563123643398,38.2985804615455 127.47016225839616,37.99072133119989 127.56265233599697,37.823963681999885 127.75604068004759,37.41348145731172 127.86534713537549,37.2338946534328 127.92420445749303,37.07996270484 128.2857565789891,36.36160869988453 128.4875531119178,35.92546125003355 129.17702459939755,34.61700100770031 129.31996381023782,34.27063939202344 129.68992412058287,33.488111780367035 130.04306805322994,32.8082029466932 130.1860072640411,32.56446027930724 130.43825293020927,32.0 130.33735466373037,32.423345677791076 130.23645639728056,32.71840312497807 130.03465986438096,33.116087089940265 129.91694522014586,33.38548449624068 129.79923057593987,33.5907388993146 129.60584223186015,34.05255889134787 129.37041294347728,34.47589094685827 129.29473924360354,34.578516476591176 128.9247789332294,35.32254662954438 128.8154724779015,35.50213881456875 128.61367594497278,35.91263333873576 128.52959405625006,36.156363212623546 128.35302208995563,36.52837017200727 128.22689925684244,36.82340863171703 127.99987815730856,37.24672229903081 127.88216351310257,37.528929849970154 127.68877516905195,37.926583825417765 127.57946871369495,38.195960916513286 127.29359029207262,38.709056990792305 127.20110021447181,38.83733036449121 127.03293643702636,39.14518540908466 126.73864982652594,39.79937244582834 126.59571061571478,40.04308746978859 126.37709770502988,40.53051472448351 126.2509748719167,40.85118851882726 125.48582968459232,42.28778733069339 125.2840331516636,42.74954436399639 124.98133835225599,43.3395623761171 124.66182717512129,44.04501153216188 124.46843883107067,44.416972491704655 124.42639788673841,44.532408210587164 123.97235568761243,45.391756441342295 123.91349836549489,45.54566833500576 123.7957837212889,45.78936140728547 123.74533458804945,45.956098236169055 123.53512986627175,46.31522223366483 123.40900703318766,46.58456390516221 123.33333333334303,46.77695011717515 123.19880231138086,47.04628983931252 123.10631223380915,47.20019774145476 122.98018940072507,47.5080124317974 122.85406656764098,47.73887247494349 122.736351923435,47.918429708723124 122.66908641243936,48.072335506902164 122.43365712405648,48.495574537460925 122.28230972433812,48.816208297368576 122.12255413577077,49.20096668227416 121.76100201427471,49.90635102806118 121.45830721486709,50.534777785200276 121.39944989277865,50.6117275750039 121.22287792648422,50.97082536684684 121.07993871564395,51.34274594907765 120.9201831270766,51.650540653445205 120.84450942720287,51.76596328474625 120.61748832766898,52.26612560748981 120.29797715053428,52.84323110777041 120.09618061760557,53.3177361641101 119.89438408470596,53.65117003848718 119.60850566305453,54.2667356900929 119.51601558542461,54.446274553112744 119.2133207860752,55.15160090972131 119.07038157520583,55.38243329659599 118.50703292081016,56.5750539918663 118.17911355479737,57.20341506879413 118.07821528831846,57.357298470902606 117.77552048893995,58.03694572405584 117.32988647872116,58.92175865894387 117.01878349046456,59.58856609644499 116.79176239093067,59.99890567138209 116.49747578037204,60.704170650293236 116.21159735874971,61.14014873835549 116.06024995906046,61.486364509768464 115.74073878189665,62.10185457624175 115.50530949348467,62.66604858845312 114.60563328416902,64.47400033970553 114.48791863996303,64.65351048397133 114.47110226220684,64.57657762682356 114.5131432065973,64.38424507817035 114.59722509532003,64.16626748890849 114.723347928375,63.88417773862966 114.97559359454317,63.384106480116316 115.1521655608376,62.986611145672214 115.43804398251814,62.42241996787561 115.5893913822074,62.07620927532844 115.87526980385883,61.61459209655368 116.08547452566563,61.1016802033555 116.53110853585531,60.178428405597515 116.85061971301911,59.5629197854214 116.95151797946892,59.31927931630344 117.08604900143109,59.10128442376299 117.25421277887654,58.67811574161169 117.51486663389369,58.229297405781836 117.64098946697777,57.88306396109692 117.81756143330131,57.60094643184493 117.90164332202403,57.357298470902606 118.1454807993141,56.83152864827207 118.3556855210918,56.523758936869854 118.39772646548226,56.48528761857597 118.44817559869261,56.49811139390658 118.8938096089114,56.780233799454436 119.15446346392855,56.98541294720053 119.58328109642025,57.39576926341033 119.75985306274379,57.524005071009015 120.25593620620202,57.960004888955154 120.96222407143796,58.639645722225396 121.1387960377615,58.76787902991782 121.30695981520694,58.947405227700074 121.65169555894681,59.22951680369806 121.78622658090899,59.38339531941892 122.2991261020943,59.78091310076343 122.54296357938438,60.03737487122271 123.08108766720397,60.46053453886634 123.44263978870003,60.83239980896906 123.74533458804945,61.05038878727282 123.98076387649053,61.294022646448866 124.14051946505788,61.409427834008966 124.27505048702005,61.550478335353546 124.73750087499502,61.94798261622782 124.79635819708346,61.98645064100492 124.87203189692809,61.98645064100492 124.98974654116319,62.178790417077835 124.98974654116319,62.21725830275318 124.86362370805,62.371129613457015 124.57774528639857,62.65322605261463 124.34231599801569,62.85838631603474 123.93031474325107,63.255882449208 123.53512986627175,63.589264393587655 123.23243506686413,63.897000027052854 122.95496483409079,64.10215629151935 122.5177390127792,64.5252890038646 122.43365712405648,64.64068834753925 122.44206531290547,64.69197687773703 122.49251444614492,64.78173170639275 122.60182090147282,65.14074975854237 122.67749460134655,65.56387558400456 122.7279437345569,66.12803898690618 122.7279437345569,66.46140592599477 122.76998467891826,66.5768017683331 122.81202562327962,66.8075928270373 122.87088294536807,67.62817649803037 122.90451570088044,67.83332076703664 122.92133207860752,67.91024969788486 122.97178121184697,67.9743570694045 123.00541396733024,67.9871785359719 123.06427128944779,67.96153560026869 123.34174152222113,67.73074871498466 123.85464104340645,67.44867472168698 124.17415222057025,67.21788598156854 124.42639788673841,67.11531294024462 124.7543172527221,66.89734468000461 125.34289047375205,66.60244526051974 125.79693267284892,66.26907905825647 126.02395377238281,66.14086082444555 126.22575030531152,66.05110790747858 126.63775156004704,65.78184839913956 127.04134462590446,65.55105363053008 127.18428383671562,65.4612998839475 127.37767218079534,65.37154601115253 127.99146996845957,65.1279277200556 128.0755518571823,65.14074975854237 128.24371563459863,65.25614798922106 128.58004318948952,65.55105363053008 129.21065735488082,66.17932632163502 130.06829261986422,66.96145306914696 130.38780379696982,67.21788598156854 130.7241313518607,67.44867472168698 130.86707056267187,67.58971187415955 130.96796882915078,67.64099803415957 131.32952095067594,67.78203476160706 131.6826648832648,67.83332076703664 131.86764503846643,67.93589265420087 131.9937678715214,67.9871785359719 132.1114825157274,67.9871785359719 132.15352346011787,67.9487141285208 132.14511527121067,67.91024969788486 132.1198907046346,67.88460673124064 131.96013511603815,67.8204992695537 131.86764503846643,67.75639174343087" stroke="#4dd2ff" stroke-linecap="round" stroke-linejoin="round" stroke-width="0.5"><title>2022-12-09 10.3km</title></polyline><polyline fill="none" points="178.2093161016237,67.43565204002152 178.4280068993976,67.62804395056446 178.7728654651728,67.79478313728396 178.86538849500357,67.85891347774304 178.86538849500357,67.89739165112405 178.79809901877888,67.96152188850101 178.67193125080667,68.0 178.32707268506056,67.87173953812453 178.07473714914522,67.84608741482589 177.61212199996226,67.70500055238153 177.47754304748378,67.62804395056446 177.13268448173767,67.35869511348938 176.8887601303577,67.20478098205422 176.14016470714705,66.57629442714097 175.83736206407775,66.2428092525879 174.84484228945803,65.28082302626353 173.65045408616425,64.30599552818603 172.57382246630732,63.369634045506245 172.16167442427832,62.98482397447515 171.9682171800814,62.85655343530016 171.74111519777216,62.67697424739163 171.57289150715224,62.51022169192947 171.5140132154629,62.40760451820097 171.50560203092755,62.35629586950017 171.52242439999827,62.30498717957016 171.59812506075832,62.16388806948089 171.56448032264598,62.18954247632428 171.35420070937835,62.061270339007024 171.0850428044214,61.804725291043724 170.6056052861968,61.40707842899428 170.26915790495696,61.08639367131036 169.41121708287392,60.38088153318313 169.0915920707048,60.060191619857505 168.3766413856356,59.43163471585285 168.04019400442485,59.17507909869164 167.5523453016649,58.700448488445545 167.14860844420036,58.39257809735136 166.78692750941264,58.05905016459292 166.50094723535585,57.828145190196665 165.95422024090658,57.34067638995475 165.44113798454055,56.827547315042466 165.12151297237142,56.570981230644975 165.09627941882354,56.51966788999562 165.08786823425908,56.46835450809522 165.2140360022313,56.134816520228924 165.56730575248366,55.37793539029735 165.70188470499124,55.14702071635111 165.8616972110758,54.76216106990978 166.24861169944052,54.030921348312404 166.3411347293004,53.800001800955215 166.63552618783433,53.26118627473625 166.82057224752498,52.85065710638446 167.2495426585665,52.04242008929941 167.4850558254111,51.5164190722935 167.80468083758024,50.91343696359036 167.897203867411,50.70816515873594 168.0486051889311,50.413085782587586 168.4186973082833,49.63047735148575 168.57850981436786,49.361052556290815 168.7635558740585,48.9889878739632 168.86449008839554,48.71956037068958 169.2429933922831,48.01391151916323 169.36074997569085,47.718819685873314 169.8485986784508,46.7437239246683 170.46261514918297,45.42218878581116 170.6056052861968,45.165576848197816 170.89999674473074,44.56253473326433 171.21962175689987,43.985148645107984 171.32896715580137,43.754192747117486 171.50560203092755,43.317940437184006 171.8168158585613,42.753374197342055 172.11120731709525,42.12464682488644 172.24578626960283,41.90651547280868 172.7925132640812,40.73885849852741 173.0112040618551,40.341080364723894 173.08690472264425,40.14860618406601 173.3812961811782,39.59684364862187 173.7682106696011,38.775606854345824 174.0962468662765,38.198168405215256 175.02147716464242,36.20917375104182 175.22334559334558,35.901194842339464 175.36633573035942,35.54188423679443 175.51773705190863,35.31089777913803 175.6102600817394,35.11840842573656 176.33362195134396,33.56563974042729 176.60277985633002,33.06515252524332 176.74576999334386,32.834157101962774 176.88034894585144,32.51332873783031 177.03175026737154,32.2566648851207 177.15791803531465,32.0 177.13268448173767,32.128332571588544 177.0401614519069,32.3336641493479 177.03175026737154,32.3978301318748 176.9308160530054,32.692992820451764 176.67848051709007,33.167816889403184 176.22427655244246,34.143120110893506 175.96352983202087,34.579435147006734 175.83736206407775,34.87458774448896 175.39998046847177,35.70870726951398 175.3074574386701,35.91402732652932 175.21493440881022,36.18350889874637 175.08035545633174,36.42732457874445 174.60091793810716,37.42824234500222 174.55886201543035,37.556564000089566 174.36540477123344,37.87736700903406 173.75138830055948,39.083571890700114 173.5074639491504,39.64817059736379 173.2467172287288,40.05878470103562 173.08690472264425,40.48222772825466 172.9439145856304,40.79018452873788 172.85139155579964,41.021151153861865 172.71681260332116,41.25211694302925 172.64952312703826,41.43175642333881 172.32148693039198,42.047659373994975 171.90092770385672,42.95867158972396 171.61494742982904,43.52323601331955 171.53083558453363,43.72853092910009 171.3626118939137,44.02364121348728 171.11868754253373,44.536873240289424 170.92523029833683,44.80631840208662 170.72336186960456,45.26822174710469 170.59719410166144,45.48634160901929 170.47943751819548,45.794274262600084 170.32803619667538,46.0893749947536 170.2607467204507,46.25617045713443 170.0420559226477,46.66674204582159 169.73084209501394,47.35957561241594 169.53738485081703,47.693159461974574 169.3691611602262,48.065231698761636 169.15888154695858,48.46296169104971 168.9822466718033,48.873519083255815 168.84766771935392,49.11728628530909 168.75514468949405,49.39954188237243 168.62897692155093,49.61764762513121 168.54486507625552,49.822922937404655 168.35981901656487,50.1180050421608 168.05701637349557,50.733824170449225 167.77944728400325,51.23417283701565 167.65327951603103,51.413784222073446 167.28318739667884,52.260516800630285 166.99720712265116,52.74802440168787 166.73646040222957,53.363818154244655 166.28225643758196,54.30032643096274 165.70188470499124,55.403592524726264 165.4495491690759,56.03218909641146 165.27291429394973,56.36572762056676 165.1467465259775,56.68643609624269 164.97852283535758,56.943001716572326 164.79347677572514,57.32784821332825 164.59160834699287,57.610067502933816 164.36450636468362,58.25147033852045 163.96076950718998,58.98266170911302 163.68320041766856,59.58556759118801 163.4392760663177,60.060191619857505 163.12806223871303,60.714397333973466 162.82525959561463,61.18901296907279 162.59815761327627,61.7277615755811 162.4215227381501,62.07409756433117 162.18600957127637,62.58718446394778 162.0934865414456,62.753936818335205 161.9420852199255,63.11309425593572 161.47105888620717,64.11359360499773 161.13461150499643,64.71645102605544 161.16825624310877,64.63949082122781 161.24395690389792,64.3444758432488 161.36171348730568,64.02380584238199 161.47105888620717,63.79292244430326 161.77386152930558,63.22853728881091 162.051430618827,62.56153021695718 162.38787800000864,61.907343433940696 162.53086813705158,61.59948851029549 162.614979982347,61.458387840724754 162.86731551823323,60.98377420856923 163.01030565527617,60.76570730250023 163.11965105414856,60.50915704742147 163.22899645305006,60.20129538020774 163.42245369724697,59.84212155843488 164.0617037215561,58.4952017260257 164.24674978121766,58.174502338548336 164.717776114936,57.13542525502271 164.9953452044283,56.63512284841272 165.07945704972371,56.50683954839769 165.12151297237142,56.46835450809522 165.16356889504823,56.46835450809522 165.76076299668057,56.91734520093087 166.09721037792042,57.238050904968986 166.37477946741274,57.456129863312526 166.70281566408812,57.80248903035681 167.0308518607635,58.03339409756518 167.41776634918642,58.41823401999136 167.7037466232141,58.649136859716236 168.21682887955103,59.136595667187066 168.46916441546637,59.34184036714214 168.77196705856477,59.63687846713583 169.27663813039544,60.03453635714686 169.7644868331554,60.49632950760861 169.8906546011276,60.58612223221644 170.2355131668446,60.86832711579336 170.53831580994301,61.18901296907279 170.9504638519138,61.5738338662959 171.1691546497168,61.76624344490119 171.41307900109678,61.94582519502728 171.55606913811062,61.99713417369276 171.6485921679414,62.08692478710145 171.6906480905891,62.176715274214075 171.68223690605373,62.22802406728806 171.46354610825074,62.471740271157614 170.84952963757678,62.95916988726094 170.52990462540765,63.30549919476471 170.1934572441969,63.62617280412451 169.62149669614155,64.11359360499773 169.16729273149394,64.54970379834049 169.12523680881714,64.61383739899975 169.12523680881714,64.66514423318586 169.19252628510003,64.83189115930509 169.26822694583097,65.11407727281767 169.36074997569085,65.84519003673267 169.41121708287392,66.4223784092319 169.47009537459235,66.65325229693917 169.48691774363397,66.80716775820474 169.51215129724005,67.12782377715848 169.53738485081703,67.28173809413784 169.56261840442312,67.80760921055116 169.57944077349384,67.88456559592669 169.6130855116062,67.9486958461639 169.67196380332462,67.9486958461639 169.78972038673237,67.89739165112405 169.97476644642302,67.76913098304794 170.5214934408723,67.47413046853399 170.98410859002615,67.17912859070202 171.89251651935047,66.67890489955607 172.13644087070134,66.51216279810978 172.4897106209828,66.33259389403611 173.01961524641956,65.97345457053598 173.33082907402422,65.80671062635156 174.399049509404,65.21669009569814 174.60091793810716,65.126903884684 174.6766185988672,65.10125065836473 174.77755281323334,65.13973049401102 175.16446730165626,65.4347417967183 175.44203639114858,65.69127225603006 175.77007258782396,66.03758674081473 176.5607239336823,66.78151520706524 177.06539500548388,67.19195478766414 177.36819764858228,67.3843474326386 177.6457667381037,67.58956561482773 178.08314833365148,67.76913098304794 178.37753979224362,67.80760921055116 178.67193125080667,67.96152188850101 178.7728654651728,67.97434792826607 178.82333257232676,67.93586980127293 178.8401549413975,67.91021770373845 178.8401549413975,67.87173953812453 178.80651020328514,67.83326134931485 178.53735229829908,67.70500055238153" stroke="#4dd2ff" stroke-linecap="round" stroke-linejoin="round" stroke-width="0.5"><title>2022-12-07 10.4km</title></polyline><polyline fill="none" points="38.10655118362047,107.41104948651628 38.786645068525104,107.88477098002477 38.69428663968574,108.0 38.03938141721301,107.80795151759958 36.645608764200006,106.88611074519213 31.68344227061607,102.62242368960142 31.507121633796487,102.40475032970062 31.616272504237713,102.14866307193734 25.17637114963145,96.42484427390809 37.132589570683194,72.0 36.93108027143171,72.8198634998771 32.615422779577784,81.65834674726648 21.398071789066307,104.38939168124853 21.20495871064486,104.69668546068715 21.179770048242062,104.51743093612458 24.664201680774568,97.24439349481327 25.16797492885962,96.52728850301719 31.624668725009542,102.08464109668057 31.47353675062186,102.44316332961534 29.147783588647144,104.54303875619007 29.617971953528468,107.94878712794525 34.6053271094861,105.13201577810833 37.57758927313262,107.56468927570677 38.761456406122306,107.96159034983066 38.820229951728834,107.8591645028464 38.030985196412075,107.41104948651628" stroke="#4dd2ff" stroke-linecap="round" stroke-linejoin="round" stroke-width="0.5"><title>2022-11-10 10.4km</title></polyline><polyline fill="none" points="84.84329723627889,107.50049499512534 85.54043163513415,107.89753775398276 85.43964111962123,108.0 84.31414702991606,107.67980493438881 82.91147902264493,106.65516991613913 78.34230898681562,102.60770056788533 78.16592558470438,102.36433187789225 78.27511530983611,102.12096225877394 77.52758565320983,101.64702928105544 71.79092547961045,96.49758437506534 72.24448279934586,95.26780464785406 83.77659761393443,72.0 83.04586637660395,73.90940746664637 73.04240771365585,93.97394827807511 67.79290169823798,104.73393486341956 68.30525348539231,103.2865662130207 71.80772389884805,96.49758437506534 78.33390977719682,102.14658015714667 75.83934451866662,104.55461663724782 76.28450262878323,107.94876889757143 81.30722998431884,105.10537815571661 84.29734861067845,107.57734217372854 85.47323795815464,107.9231533309212 84.79290197853697,107.53891859601936 84.65851462454884,107.16748948402164" stroke="#4dd2ff" stroke-linecap="round" stroke-linejoin="round" stroke-width="0.5"><title>2022-11-08 10.4km</title></polyline><polyline fill="none" points="131.3700365687837,107.32094282599064 132.16824546302087,107.83343947571848 132.0338102808455,108.0 130.98353541997494,107.71812808864706 130.18532652570866,107.15438052795434 125.01797421017545,102.6314072003297 124.84152803354664,102.40076540255905 124.95915881797555,102.13168225069967 123.20309925058973,100.82469078881695 118.47266127719195,96.49348837543585 118.74153164157178,95.63490147564153 130.47100128786406,72.0 130.24414191790856,72.79480826416693 120.19511204902665,93.00781004587407 114.4984212036361,104.69433284577462 130.3953814978595,72.16665416687465 130.05929354237742,73.11529266359867 127.02609974416555,79.14009949407773 118.58188986274763,96.46785908314996 125.001169812429,102.14449575985782 122.45530354962102,104.6430808431578 122.95103328398545,107.92312596593547 127.99235261618742,105.1043473836362 130.9415244255215,107.59000408065913 132.13463666749885,107.94875065423912 131.2860145799059,107.35938021758557" stroke="#4dd2ff" stroke-linecap="round" stroke-linejoin="round" stroke-width="0.5"><title>2022-11-04 15.1km</title></polyline><polyline fill="none" points="178.1540302100184,107.34726507130472 178.8590621581825,107.8976106495902 178.69119740859605,108.0 178.0784910726943,107.84641591268519 176.6096745140385,106.92490361202726 171.54855231472175,102.4707395468904 171.61569821453304,102.1123449912302 168.94664869649569,99.94913503264979 165.1445121188881,96.46736471810436 177.16362818755442,72.0 170.96102569124196,84.93264082741007 161.1409378418466,104.68506118947334 164.74163671996212,97.04340603498713 165.15290535637178,96.5057676346405 171.65766440195148,102.13794466919353 169.13969315847498,104.58266651042868 169.59292798230308,107.93600667531064 174.6708366565872,105.0818390160166 177.60007653644425,107.59044161084603 178.76673654589104,107.8976106495902 178.0784910726943,107.44965530637637" stroke="#4dd2ff" stroke-linecap="round" stroke-linejoin="round" stroke-width="0.5"><title>2022-11-01 10.4km</title></polyline><polyline fill="none" points="38.15495344166993,147.40936809679988 38.879089730762644,147.8844420137284 38.66858499555383,148.0 37.61606131956796,147.70468473076107 36.70668086348451,147.088370207588 31.705088355141925,142.6712755023982 31.47774324112106,142.40161739034738 31.61246627161745,142.13195814042774 28.682240357651608,139.76918080546966 25.08681948040612,136.4560089155566 37.110849955060985,112.0 36.76562218935578,113.04059863782459 32.22714009840274,122.071255144514 30.694665626157075,125.34664009771586 21.120910269237356,144.75145697557673 21.55876011843793,143.4417209806452 25.103659859247273,136.4688509987318 31.629306650458602,142.11911719539057 29.10324982801103,144.58453133162038 29.600041003111983,147.94864092077114 34.62689407970174,145.09814730435755 37.60764113016194,147.60196605633246 38.77804745786125,147.93580114452197 38.02865060055046,147.4864073502904" stroke="#4dd2ff" stroke-linecap="round" stroke-linejoin="round" stroke-width="0.5"><title>2022-10-28 10.4km</title></polyline><polyline fill="none" points="85.07905455993023,147.89742821587788 84.17937889319728,147.69228415303587 83.15358046939946,146.89734468033203 78.31046659985441,142.61475843118023 78.24320112942951,142.16596778486928 71.76889960240806,136.56223023431812 83.80101062208996,112.0 82.90133495538612,114.20649814632634 71.26440857432317,137.66506416385528 67.95158415657352,144.6022219237675 67.85909413476475,144.7560874833689 67.8759105023637,144.37142288864925 68.27950332482578,143.33281689989235 71.35689859613194,137.06235495981673 71.76889960240806,136.6135252583772 73.05535172397504,137.45988720164678 78.31887478363933,142.14032250973833 75.81323601084296,144.65351048485172 76.29250248751487,147.96153560025778 81.28696366550867,145.15357179525745 84.19619526079623,147.56406877883637 85.3397082577576,148.0 85.47423919860739,147.88460673125155 85.14632003032602,147.7435702305811" stroke="#4dd2ff" stroke-linecap="round" stroke-linejoin="round" stroke-width="0.5"><title>2022-10-23 10.2km</title></polyline><polyline fill="none" points="131.75952824021806,147.9100573902906 130.86635158007266,147.74302077945322 129.60242234403268,146.72794276258355 124.98486753509496,142.65461955150386 124.85847461147932,142.46186912154735 124.9680151452776,142.19201754360984 124.14224804440164,141.66516118071013 118.45456648225081,136.57627627018155 130.4703204194666,112.0 129.61927473387914,114.15980040503564 120.80547486129217,131.84684841219496 114.48582868115045,144.8005350969106 115.45484109543031,142.3590686547359 118.04168293185649,137.0774723089853 118.45456648225081,136.57627627018155 119.45728367619449,137.28309006024938 124.9680151452776,142.19201754360984 124.83319602676784,142.50041925402547 122.48228764775558,144.68488878957578 122.91202358799637,148.0 127.9930191168387,145.1603222710619 130.91690874952474,147.65307780830335 132.18083798553562,147.94860423853243 131.44775902866968,147.62737979330996 131.2202517661499,147.13911554633523" stroke="#4dd2ff" stroke-linecap="round" stroke-linejoin="round" stroke-width="0.5"><title>2022-10-21 10.3km</title></polyline><polyline fill="none" points="178.12912742322078,147.3978175860102 178.8517165274825,147.8590642000563 178.83491212973604,148.0 177.69221308108536,147.73094047527047 176.50750303801033,146.85969231953277 171.74345626909053,142.66984741884517 171.5334012969106,142.41357885760954 171.62582548466162,142.14449575985782 169.61769995067152,140.5684148116161 165.13932794390712,136.5063030177298 165.9375368381443,134.55844783362045 177.13766795455012,112.03845869259021 176.33945906028384,114.06391704233101 175.37320618826197,115.83293560488164 168.48340310089407,129.99613303473961 161.1482834725466,144.7455848072168 161.39194724024856,143.87429586071084 165.0216971594491,136.64726391276417 177.14607015342335,112.0 176.80157999906805,113.08965397097563 165.26536092718015,136.45504443312893 171.6510320813395,142.11886873893673 171.4745859046816,142.46483265228744 169.1555790118582,144.61745482640254 169.61769995067152,147.93593831137332 174.67582368064905,145.1043473836362 177.59978889333433,147.59000408065913 178.81810773193138,147.94875065423912 178.03670323546976,147.37219267631735" stroke="#4dd2ff" stroke-linecap="round" stroke-linejoin="round" stroke-width="0.5"><title>2022-10-16 15.1km</title></polyline><polyline fill="none" points="38.11968431103742,187.51243506691026 38.82647548420937,188.0 37.9850574209413,187.8845244311924 36.55464671328082,186.94788154628623 31.66600776539417,182.66224434263495 31.489309972093906,182.43127369018475 31.615522681589937,182.1874704285401 27.25697711360408,178.56880731203637 25.102946871513268,176.54123975172115 25.801323864085134,174.74460709839695 37.05949755126494,152.0 36.29380711365957,154.04118454672061 23.487424189952435,179.83921240465133 21.173524515790632,184.74094261984283 21.45119247669936,183.6759389929066 21.54374846367864,183.54762410393232 21.54374846367864,183.81708507294024 24.69065202047932,177.0032228342934 25.0777043295966,176.6054042686519 26.44080159216537,177.5293661626929 31.640765223506605,182.1874704285401 29.099682672298513,184.62546115747682 29.587705148995155,187.9615081669217 34.6277993482945,185.11304813363677 37.555934208619874,187.61508062532448 38.70867695537163,187.9871693915411 38.80123294235091,187.91018568677828 38.57405006521731,187.76904865362667" stroke="#4dd2ff" stroke-linecap="round" stroke-linejoin="round" stroke-width="0.5"><title>2022-10-14 10.3km</title></polyline><polyline fill="none" points="84.79215271223802,187.31948885019665 85.54154987083166,187.84592263847298 85.35630562939332,188.0 84.33746230139514,187.666165247123 83.25967762386426,186.87009072175715 78.25808310462162,182.47866268040525 78.31702445418341,182.10627624676272 76.10251374955988,180.3598833288197 71.82505581053556,176.44316682825956 72.22922506462783,175.21031457903882 83.79014976983308,152.0 81.1630496183061,157.67812225066154 67.79178346254048,184.64873355335658 68.27173445175868,183.338995452792 71.46298752044095,176.8412702861715 71.82505581053556,176.5073772311698 78.32544464699458,182.04207146986664 78.07283886318328,182.49150355321763 75.81622719459119,184.55885042399314 76.2624974126229,187.96148069444826 81.37355443817796,185.0981473037973 84.2616805662692,187.550606657147 85.37314601495746,187.87160222452803 85.52470948526752,187.78172362819896" stroke="#4dd2ff" stroke-linecap="round" stroke-linejoin="round" stroke-width="0.5"><title>2022-10-10 10.3km</title></polyline><polyline fill="none" points="131.58470369892893,187.4613043283207 132.18189768053708,188.0 131.36601294510183,187.83326134929666 129.96134541090578,186.9739090891453 124.9566916213953,182.61283870113766 124.82211269595427,182.4076045187103 124.96510280421353,182.15106086270316 122.96324128840934,180.61177727374888 118.43802492076065,176.49401120498078 130.48283874697518,152.0 129.66695401153993,154.0276244550878 124.81370151313604,163.61305262101087 121.78567569085862,170.0153679439718 114.48476898614899,184.729277718121 114.56888081456418,184.19055444420155 115.32588727012626,182.57435734221144 117.94176513320417,177.32784821409587 118.48849201778648,176.59663788626494 124.98192516990821,182.16388806996838 122.45015913521638,184.61383739934536 122.90436300853617,187.96152188848282 127.95948389510158,185.1269038849532 130.91180907178205,187.6023917293387 132.13143058351125,187.96152188848282 131.26507875105017,187.29456427053083" stroke="#4dd2ff" stroke-linecap="round" stroke-linejoin="round" stroke-width="0.5"><title>2022-10-08 10.4km</title></polyline><polyline fill="none" points="178.28923235251568,187.46130432793143 178.85278239575564,187.78195706130282 178.80231522771646,188.0 177.68362633587094,187.62804395030253 176.03503217952675,186.396725702587 175.10980076523265,185.39626213740848 171.60233258566586,182.4845674112039 171.65279975367594,182.08692478412195 170.65186758732307,181.3942510663801 165.14253507499234,176.40421271802552 177.103253903304,152.0 176.3630687718396,153.86079702610732 174.69765222613933,157.08177258454816 172.56120877864305,161.6242267297239 166.31169113487704,174.0694078531742 161.14721760424436,184.66514423136687 161.82011317825527,182.92068873447352 164.59580742110847,177.22522270322588 165.10889029628015,176.4940111995311 165.6724403395492,176.7634058860276 171.64438855901244,182.04844310815315 169.12103015644243,184.5368770685891 169.60046825293102,187.9102177036766 174.63036266874406,185.04994417309354 177.5742808051,187.52543500345564 178.77708164366777,187.8845655958212 178.79390403305297,187.75630490193726 177.96119576017372,187.2817380937231" stroke="#4dd2ff" stroke-linecap="round" stroke-linejoin="round" stroke-width="0.5"><title>2022-10-03 10.3km</title></polyline><polyline fill="none" points="38.39183995212079,227.56250977200398 38.83062896921183,227.96139804128325 38.16400719323428,227.8584593709602 36.91514614451444,227.16361901817436 35.05029282186297,225.38788164236757 31.826881196233444,222.7370516259325 31.565295436012093,222.41534148750725 31.717183941946132,222.13223522868793 30.679279151489027,221.43733274157057 25.202854688017396,216.48271682517225 25.793532211042475,214.8868628018863 37.19360840538866,192.0 36.872954892896814,193.01708156416498 35.6072173435532,195.43741321499328 33.02511274293647,200.8828248828613 26.325141981767956,214.2176218583736 21.160932780476287,224.7830902808164 37.10078765178332,192.19311799555362 36.737942887615645,193.26169370700882 35.79285885079298,194.96107858006144 25.27036069065798,216.49558645402794 31.725622192258015,222.15797221305547 29.177270592947025,224.64154254158348 29.62449786037905,227.987132683018 34.72963930934202,225.13052431429605 37.65771217350266,227.62684675770288 38.83906721952371,228.0 38.17244544354617,227.60111197118385" stroke="#4dd2ff" stroke-linecap="round" stroke-linejoin="round" stroke-width="0.5"><title>2022-09-30 15.0km</title></polyline><polyline fill="none" points="80.09067784898798,224.92667292270926 80.23075103372685,225.21146671102542 79.42922114333487,225.09280279945233 78.16856248074328,224.26214874259313 73.5539292282192,220.20364236149544 73.63952950775274,219.883222083914 72.72127196341171,219.25424389065302 67.58525518991519,214.6257077583541 78.68216415809002,192.0 78.33198119627195,193.04481963355647 67.70198284386424,214.6019707406158 73.53058369742939,219.7052100674082 73.60840213336633,220.15617280045626 76.46433873317437,222.5296041130823 78.41758147580549,224.38081432313265 79.16463846105034,224.91480648504148 80.79882561624981,225.44879381890132 84.08276361384196,227.20498477755245 85.74807814342785,227.79828073284443 85.74807814342785,228.0 85.70138708184822,227.79828073284443 83.60028931088164,227.02699482876415 81.11009936008486,225.6742536880156 79.19576583543676,225.0453371680851 76.5188116383215,222.69574073282274 79.11794739947072,224.87920715780274 80.26966025170987,225.1877339477869 79.57707617167034,224.84360780909628 79.44478483052808,224.59441176725886 79.53038511009072,224.28588187775313 79.60042170246015,224.38081432313265" stroke="#4dd2ff" stroke-linecap="round" stroke-linejoin="round" stroke-width="0.5"><title>2022-09-23 10.1km</title></polyline><polyline fill="none" points="131.44881707959576,227.33280494239807 132.18926557069062,227.8845244311742 132.05463857229915,228.0 131.36467520560836,227.83320188910875 129.9006065982103,226.89655825106456 125.07927721861051,222.66224434081596 124.86892253364203,222.44410541322577 124.9614785950107,222.13614330554265 118.49096848527552,216.46424224324073 118.95374879220617,215.09110447020066 130.43070040430757,192.0 118.11233005233225,217.13155087212726 114.96542396512814,223.81708507150688 114.48581528337672,224.75377387939807 114.47740109599545,224.52281079208115 118.10391586492187,216.97755719219276 118.51621104747755,216.54123974864706 124.9614785950107,222.11047972956294 124.33041454010527,222.88038252321348 122.46246493756189,224.52281079208115 122.91683105708216,227.91018568673826 127.96534349644207,225.10021694404713 130.91030908602988,227.55092717050138 132.09670950929285,227.92301631064402 131.48247382917907,227.57658856008857 131.29736170641263,227.25582044869952" stroke="#4dd2ff" stroke-linecap="round" stroke-linejoin="round" stroke-width="0.5"><title>2022-09-19 10.4km</title></polyline><polyline fill="none" points="178.10129323528963,227.23070760001792 178.79076499998337,227.80767776948414 178.76554042322095,228.0 177.63043446914526,227.61535495928183 176.8232480128936,227.03838305091267 171.8708227761963,222.71733870494427 171.56812785510556,222.39677479490274 171.6438015853928,222.1018545752995 169.8948975968524,220.7298165015236 165.18630993543775,216.4339924898486 165.72443423964432,214.98488810929848 177.1427593184926,192.0 176.3944302080199,193.96276082102122 175.44430448347703,195.69455845104312 171.3495148565271,204.22457916113126 161.1756022310292,224.69197687714768 176.96618728118483,192.47466011438883 176.69712512911065,193.29568548700627 165.27880005023326,216.4083449107966 171.6942507388594,222.1274998658664 169.19701763990452,224.61504406640597 169.63424363700324,227.88460673125883 174.70438356525847,225.10228363481292 177.62202627689112,227.56406877866175 178.8243977689708,227.92307117735982 177.96676215922344,227.24352921600075" stroke="#4dd2ff" stroke-linecap="round" stroke-linejoin="round" stroke-width="0.5"><title>2022-09-17 15.0km</title></polyline><polyline fill="none" points="38.16628786170622,267.25502345804125 38.86541307315929,267.858712012614 38.73906514336704,268.0 37.64404975189245,267.6917348976531 36.683805485547055,266.97244387797036 31.714120247401297,262.5923006460289 31.537233145703794,262.3739278797366 31.613041903590783,262.14270884342113 25.152451093978016,256.4647345110279 25.977924235223327,254.43492899861667 37.12181164213689,232.0 36.78488382938667,233.06667265641954 21.538900302170077,263.9924377162388 21.134586926869815,264.7759872803763 21.37043639580952,263.85114087105467 24.925024820375256,256.6445875868667 25.127181508025387,256.5289678104891 31.629888294206467,262.1170177877975 31.368769239343237,262.5537643297248 29.145045675133588,264.58331204854767 29.608321417705156,267.96146694351046 34.620122632419225,265.03288668614186 37.551394603418885,267.6403572360832 38.74748833870399,267.974311298276 38.82329709656187,267.858712012614 38.04836312722182,267.49906845383885" stroke="#4dd2ff" stroke-linecap="round" stroke-linejoin="round" stroke-width="0.5"><title>2022-09-11 10.4km</title></polyline><polyline fill="none" points="84.6640685875318,267.2446059635113 85.48689839147846,267.8591645028682 85.35255883162608,268.0 84.21067257312825,267.6415090313567 83.127559872024,266.79648662531326 78.25775082834298,262.5199892595301 78.3081281632767,262.1230542891062 76.6036949979898,260.84260204665406 71.8262444017164,256.48887193566406 72.3803950859583,254.964996110004 83.79086144868052,232.0 83.01840897966758,233.98558874391165 82.12001317334943,235.6508735139505 79.30727863952052,241.5430700757679 77.17463812726783,245.74412957644745 67.84643494186457,264.74790094624404 68.0815291715844,263.851624000883 71.80105573424953,256.54009401932126 72.48114975585486,256.9754800679766 78.32492060828372,262.13585868156224 75.83124252900598,264.59425436521997 76.30143098838744,267.92318067649103 81.29718336940277,265.0808006007719 84.24425746308407,267.5646892756704 85.4617097239825,267.8719677427325 84.58010636264225,267.2830160458507" stroke="#4dd2ff" stroke-linecap="round" stroke-linejoin="round" stroke-width="0.5"><title>2022-09-09 10.4km</title></polyline><polyline fill="none" points="131.572964600462,267.3980319460279 132.14411131417728,267.76945971481837 132.01812306849752,268.0 130.99341867034673,267.6669970982002 130.22069076355547,267.1290656589408 125.0299750417471,262.5692739925471 124.87038993058377,262.35152297183595 124.98797895986354,262.0825353898799 123.30813568420126,260.78881735105097 118.51218313217396,256.4719642029595 119.31850790447788,254.4607488028596 130.4558688221441,232.0 129.68314091535285,233.94785132393372 128.05369293794502,237.15142466020916 124.35803773146472,244.78809390653623 114.52255535247969,264.65708425559933 115.08530284982407,263.1584789071603 118.06702466413844,257.0868454157935 118.49538469940308,256.51039445253264 124.97957974346355,262.0953443480721 122.51860934463912,264.5546166359818 122.97216702904552,267.89753775395 127.99489842331968,265.002911255684 130.9346241557214,267.53891859581927 132.1273128814064,267.91034554373255 132.1189136650355,267.75665189672145 131.43857713841135,267.5133028644959 131.2957904599898,267.21872121405613" stroke="#4dd2ff" stroke-linecap="round" stroke-linejoin="round" stroke-width="0.5"><title>2022-09-07 10.4km</title></polyline><polyline fill="none" points="178.02158114104532,267.14003686551223 178.8633000435948,267.8459776030868 178.65287031797925,268.0 177.55863574467367,267.66628433729056 176.67483089704183,266.98601239514755 171.54034559163847,262.49346862053426 171.55717996967724,262.10837873771015 165.101195987314,256.48580204807877 165.34529446903616,255.60000853792735 177.06202159216627,232.0 176.70008246411453,233.15580743175815 170.2020125366107,246.40757095869048 166.8267197374953,253.01958351338544 161.27137498083175,264.50873447616686 161.1366999564343,264.72694416164813 161.17878590154578,264.2520162448018 164.72242248119437,256.8837632490395 165.09277879828005,256.51147703909373 166.1280930484063,257.2175352476843 171.5992659148178,262.0955423683117 169.09094358529546,264.59858561339206 169.60439211581252,267.9358240464171 174.5957852077845,265.0606751800078 177.55021855566883,267.52509641674624 178.72020783016342,267.9486592423091 178.7875453423767,267.8203071674943 178.1394217874331,267.6149433113824 177.97107800692902,267.3710728747719" stroke="#4dd2ff" stroke-linecap="round" stroke-linejoin="round" stroke-width="0.5"><title>2022-09-02 10.4km</title></polyline></svg>