<?xml version="1.0" encoding="utf-8" ?>
<svg baseProfile="full" height="300mm" version="1.1" viewBox="0,0,200,300" width="200mm" xmlns="http://www.w3.org/2000/svg" xmlns:ev="http://www.w3.org/2001/xml-events" xmlns:xlink="http://www.w3.org/1999/xlink"><defs /><rect fill="#222222" height="300" width="200" x="0" y="0" /><text fill="#FFFFFF" style="font-size:12px; font-family:Arial; font-weight:bold;" x="10" y="20">Over 10km Runs</text><text fill="#FFFFFF" style="font-size:4px; font-family:Arial" x="10" y="280">ATHLETE</text><text fill="#FFFFFF" style="font-size:9px; font-family:Arial" x="10" y="290">Sinnelf</text><text fill="#FFFFFF" style="font-size:4px; font-family:Arial" x="120" y="280">STATISTICS</text><text fill="#FFFFFF" style="font-size:3px; font-family:Arial" x="120" y="285">Number: 25</text><text fill="#FFFFFF" style="font-size:3px; font-family:Arial" x="120" y="290">Weekly: 1.8</text><text fill="#FFFFFF" style="font-size:3px; font-family:Arial" x="141" y="285">Total: 277.0 km</text><text fill="#FFFFFF" style="font-size:3px; font-family:Arial" x="141" y="290">Avg: 11.1 km</text><text fill="#FFFFFF" style="font-size:3px; font-family:Arial" x="167" y="285">Min: 10.1 km</text><text fill="#FFFFFF" style="font-size:3px; font-family:Arial" x="167" y="290">Max: 15.1 km</text><polyline fill="none" points="34.057142742414726,62.65481204540265 33.15726760341204,61.766886712059204 32.91528437274974,61.60544426637716 32.5069376710162,61.236431256507785 31.690244267549133,60.57912095513893 31.463384988805046,60.34848397741371 31.289459541760152,60.21010134586686 31.07016223896062,60.06018645178847 30.903798767918488,59.898739204814774 30.608881705527892,59.66809949266462 30.200535003794357,59.31060610699569 30.10979129228508,59.20681728756972 30.102229316340527,59.13762463699095 30.14003919615061,59.06843190298969 30.245906859548995,58.987706941217766 30.261030811467208,58.941578340673004 29.99636165294214,58.82625667701723 29.59557692715316,58.537951504018565 28.97549489859375,57.94980445986221 28.491528437298257,57.54617064753984 28.294917062361492,57.407781258309114 27.93194221635349,57.050273791475774 27.65971108188387,56.83115521091895 26.83545570244314,56.04693448798207 26.389299120928627,55.67788573348298 26.215373673912836,55.51642615707533 25.54235781362513,54.96284701762488 25.33818446274381,54.76678645841821 25.156697039754363,54.54765915835742 24.680292554403422,54.19013387243467 24.392937467986485,53.92487173693007 24.370251540123718,53.87873906648019 24.370251540123718,53.8441395392656 24.44587129971478,53.57887580437091 24.612234770756913,53.15214461433061 24.793722193775466,52.783077242147556 25.035705424437765,52.3563401340507 25.23987877528998,51.929599852290266 25.413804222334875,51.502856396953575 25.549919789569685,51.27218293752594 25.6860353568336,50.97230605394725 25.761655116424663,50.82236702446971 25.890208707685815,50.49942009174265 26.15487786621088,50.06113206153168 26.40442307284684,49.55363647567356 26.64640630350914,49.173011840659456 26.850579654390458,48.65397417845088 27.198430548451142,47.91577919387055 27.470661682920763,47.38519568253105 27.773140721255913,46.86614184771315 27.894132336601615,46.589311215881025 28.015123951918213,46.35861800240673 28.128553591290256,46.08178492192383 28.27979311044328,45.8856940151054 28.431032629596302,45.620393486253306 28.688139812176814,44.95136931416346 28.967932922620093,44.34001281834571 29.111610465828562,44.06316999822229 29.277973936928902,43.79786104211962 29.54264309545397,43.198027575544984 29.686320638662437,42.955785359496076 29.769502374198055,42.71354212067308 29.890493989514653,42.52897515693985 30.003923628886696,42.29826561738082 30.170287099987036,41.90605727102593 30.548385897884145,41.1908469135451 30.661815537227085,40.92552467500718 30.782807152572786,40.71788032810582 31.38020325326943,39.50660665967371 31.501194868586026,39.195132154334715 31.728054147330113,38.82597499527765 31.826359834783943,38.58371431878186 31.98516132988152,38.26069849212945 32.091028993338114,38.01843542860661 32.27251641632756,37.70695284376416 32.49181371909799,37.24549405392827 32.61280533441459,37.014763267154194 32.741358925704844,36.830177969590295 32.83210263721412,36.553298909711884 32.93040832466795,36.34563873782827 33.32363107448327,35.54960111566834 33.92858915112447,34.39590379793299 34.03445681455196,34.10747584329147 34.336935852858005,33.56522736276747 34.480613396066474,33.18449664349828 34.616728963301284,32.953749523268925 34.86627416993724,32.43456510927717 35.14606728038052,31.973063907731557 35.19900111207971,31.85768802725579 35.20656308802427,31.811537610083178 35.19900111207971,31.799999999999272 35.176315184216946,31.823075217842415 35.16875320827239,31.92691358341108 35.04776159292669,32.30765264898582 34.86627416993724,32.75761374135618 34.53354722779477,33.403705548025755 34.42011758839362,33.66906257495066 34.102514598169364,34.22284719915115 33.87565531942528,34.684330302457965 33.45218466577353,35.56113797167927 33.338755026401486,35.82648501967196 33.21776341108489,36.08029409104711 32.998466108285356,36.48407893593321 32.8699125169951,36.80710476563763 32.5069376710162,37.568515596562065 32.17421072887373,38.19148057836719 32.060781089472584,38.36452520617968 31.93222749818233,38.67600422090982 31.743178099248325,39.033626189535426 31.43313708496862,39.714255390441394 31.319707445596578,39.9219033697118 31.077724214963382,40.31412528003784 30.986980503454106,40.5102352296708 30.93404667172581,40.694808687618206 30.76012122471002,41.04088232077993 30.69962541703717,41.21391835452596 30.472766138293082,41.60613143235969 30.35933649892104,41.89452169084689 30.15516314803972,42.263659106436535 29.75437842225074,43.1634216073071 29.519957167562097,43.56715660480404 29.429213456081925,43.76325543564235 29.232602081174264,44.120845695899334 29.005742802430177,44.63992436612898 28.87718921113992,44.882159471791965 28.75619759579422,45.1820681857389 28.52177634110558,45.57425413862438 28.302479038306046,46.08178492192383 28.189049398963107,46.28940985749068 28.128553591290256,46.439360732623754 28.068057783617405,46.5547072929985 27.969752096163575,46.670053621455736 27.90169431254617,46.889211006746336 27.735330841474934,47.281385291174956 27.47822365889442,47.75429777500176 27.357232043577824,48.031122786236665 27.266488332068548,48.16953479101721 26.994257197569823,48.73471367875027 26.88082755819778,48.91926068130124 26.73715001498931,49.27681880972159 26.396861096902285,49.88812270693961 26.32124133731122,50.06113206153168 26.230497625801945,50.211073080190545 25.996076371113304,50.70702904285645 25.814588948123856,51.01844106112185 25.648225477023516,51.34138507273019 25.186944943590788,52.37940708586393 24.967647640791256,52.80614402247738 24.597110818867804,53.6134754914965 24.476119203522103,53.809539991219935 24.400499443960143,54.005603821002296 24.203888069023378,54.409262537727045 23.9240949585801,54.870583308475034 23.70479765580967,55.44722905668095 23.53087220879388,55.758615351347544 23.046905747469282,56.77349228754247 22.857856348506175,57.14253399611698 22.797360540833324,57.234794052466896 22.608311141870217,57.66149488357405 22.44950964677264,57.92673974706122 22.31339407953783,58.12278951035114 21.889923425856978,59.11456040158737 21.54963450776995,59.7372915036176 21.322775229025865,60.244697035068384 20.959800383017864,60.982733435834234 20.91442852729233,61.10958248636598 20.8161228398385,61.24796294897533 20.800998887891183,61.24796294897533 20.79343691194663,61.17877275935825 20.838808767701266,60.93660643887415 20.937114455125993,60.67137548671235 21.201783613680163,60.16397372786378 21.345461156888632,59.97946288507592 21.617692291358253,59.29907402520257 22.10165875268285,58.39956450654063 22.237774319946766,58.05359555272662 22.41169976699166,57.75375410558263 22.562939286144683,57.39624879415351 22.978847963822773,56.55437265011642 23.114963531057583,56.30065412993645 23.288888978102477,55.90854148316794 23.42500454536639,55.666352921671205 23.538434184738435,55.44722905668095 23.901409030717332,54.616857343524316 24.264383876725333,53.94793805826703 24.332441660313634,53.890272237560566 24.370251540123718,53.890272237560566 24.80128416972002,54.14400141520673 25.33818446274381,54.54765915835742 26.290993433474796,55.45876191258867 26.548100616055308,55.666352921671205 26.722026063100202,55.793213724227826 27.258926356123993,56.30065412993645 27.56140539443004,56.55437265011642 27.833636528928764,56.83115521091895 28.37809879789711,57.29245651235033 28.55958622088656,57.46544354436628 28.990618850511964,57.83448080315429 29.308221840765327,58.13432182849647 29.519957167562097,58.29577403937583 29.890493989514653,58.641741533174354 30.07954338847776,58.76859575827257 30.162725124013377,58.78012794666938 30.245906859548995,58.96464264555834 30.25346883549355,59.02230336732464 30.094667340395972,59.24141358155248 28.423470653651748,60.74056628804465 28.06049580767285,61.08651904347789 27.992438024055446,61.17877275935825 27.992438024055446,61.25949463913639 28.090743711509276,61.60544426637716 28.18148742298945,62.05517566402341 28.23442125468864,62.72400045544782 28.2419832306623,62.89697111570422 28.310041014279705,63.16219178220126 28.302479038306046,63.415879968495574 28.347850894060684,63.72722302810871 28.355412870034343,64.08468890255244 28.40078472578898,64.18846890066561 28.431032629596302,64.20000000000073 28.468842509406386,64.18846890066561 28.627644004533067,64.0731577800725 28.87718921113992,63.95784642775834 29.187230225419626,63.761816597150755 29.414089504163712,63.634973408738006 29.618262855015928,63.49659870168398 29.83756015781546,63.39281745244807 29.950989797187503,63.31209857329304 30.495452066184953,62.989221921343415 30.69206344106351,62.862377025368914 31.387765229213983,62.48184065529131 31.81879785883939,62.19355384660594 32.143962825037306,62.032112601180415 32.33301222397131,61.89373402932324 32.77916880551493,61.68616554599066 32.937970300612506,61.64003911436521 33.02115203614812,61.64003911436521 33.074085867847316,61.67463394155493 33.33119305042783,61.87067090158598 34.11007657411392,62.63174922350663 34.69234872289235,63.15066047440632" stroke="#4dd2ff" stroke-linecap="round" stroke-linejoin="round" stroke-width="0.5"><title>2023-02-11 10.3km</title></polyline><polyline fill="none" points="70.17400070338044,62.84843921077845 69.83310495901969,62.524984053674416 69.21191715818713,61.889620411242504 68.9846533286036,61.704786033202254 68.17407900313265,61.0000995152659 67.59076850724523,60.538005306247214 66.90140155752306,59.90261970413485 66.37869474949548,59.52138497215492 66.19688368585776,59.34809562190276 66.11355361502501,59.20946376554275 66.13627999796881,59.11704234232093 66.21203460782999,59.02462077046221 66.15900638094172,58.94375177322945 65.99992170021869,58.88598813412682 65.63629957291414,58.63182743250945 65.44691304824664,58.458535400841356 65.31813021149719,58.308348550835944 63.59850056775031,56.841117914889765 63.04549191577826,56.28656430107367 62.340974044112954,55.72045196903491 61.38646595989121,54.83083561213425 61.18950397428125,54.69219286202133 60.697099010198144,54.27626260542456 60.56831617341959,54.126064828731614 60.386505109781865,53.975866659602616 60.34862780486583,53.906544295332424 60.34862780486583,53.87188308185796 60.45468425867148,53.52526979759932 60.704674471198814,52.99379203587523 60.81073092497536,52.78582113932134 60.99254198864219,52.508525440222 61.166777591308346,52.06947118094831 61.3182868110307,51.80372618439651 61.50009787469753,51.433991971582145 61.553126101585804,51.29534102868274 61.65918255539145,51.133581172602135 61.787965392140904,50.798505736929656 61.9773519168084,50.45187392053049 62.060681987641146,50.23233935566532 62.1894648243906,50.0359129816934 62.340974044112954,49.72394030223222 62.41672865394503,49.64305822003371 62.55308695169515,49.31952875326897 62.681869788473705,49.0768804582076 62.74247347636265,48.880450135769934 62.84095446916763,48.62624519266319 63.13639744758257,48.09472213340996 63.227302979445085,47.828958760717796 63.3409348942223,47.632524173714046 63.47729319197242,47.4591989806795 63.71213248252752,46.88144456248119 63.89394354616525,46.592565175684285 64.31059390041628,45.72591830413148 64.35604666630388,45.58725359208256 64.41665035419283,45.494810264852276 64.60603687883122,45.101924465518096 64.67421602772083,44.99792483381316 64.84845163038699,44.66281362940936 65.03783815502538,44.223699438654876 65.13631914783036,43.9463624318596 65.23480014066445,43.749914575695584 65.29540382852429,43.66902408683745 65.5756958849961,43.17212287201255 66.0681008491083,42.155195366212865 66.32566652260721,41.6929496429002 66.40142113246839,41.47338162199958 66.64383588402416,41.02268674071456 66.76504325977294,40.75689066684572 66.82564694769098,40.58354473902364 66.95442978444044,40.37552893559041 67.06048623821698,40.109729868916475 67.1513917700795,40.00572120383731 67.18169361399487,39.93638198925328 67.27259914582828,39.70525066979826 67.43925928752287,39.40477856487996 67.56804212427232,39.05807803032803 67.75742864891072,38.757602542013046 68.325588222855,37.62502696641968 68.48467290354893,37.27831569562477 68.65133304524352,36.97783090242956 68.71951219410403,36.81603074768282 68.78011588199297,36.71201612198638 68.85587049185415,36.46931459650659 69.10586070438148,36.03013780234323 69.28009630704764,35.625629891233984 69.51493559763185,35.23267662276703 69.58311474646325,35.05931403256909 69.72704850521404,34.758817637353786 69.76492581013008,34.64324168239182 69.8785577249364,34.46987731410991 70.00734056168585,34.19249323710028 70.12854793746374,33.972896559997025 70.18915162532357,33.83420348947038 70.3482363060175,33.533700688483805 70.41641545490711,33.36033297315225 70.50732098674052,33.198522633658285 70.69670751137892,32.782436811528896 70.85579219207284,32.51660262580117 71.030027794739,32.20453483871461 71.18911247546203,31.80000000000291 71.13608424857375,32.088953746777406 71.08305602165638,32.20453483871461 71.030027794739,32.2738833823023 70.9845750288514,32.389464102285274 70.96942410687916,32.45881242268297 70.47701914282516,33.5799319909238 70.25733077421319,33.94978107148199 70.15884978140821,34.15782013334319 69.8558313419635,34.65479928833156 69.81795403704746,34.77037522005412 69.71189758324181,34.97841131149835 69.59826566846459,35.290464036657795 69.30282268999144,35.86833497952466 69.14373800929752,36.23816933368289 68.93162510171533,36.665787338970404 68.87859687482705,36.804473576350574 68.5831538963539,37.324543985916534 68.52255020849407,37.45167159246921 68.43164467666065,37.60191294673132 68.22710723005002,38.13353304683187 68.07559801032767,38.37622754460972 67.98469247846515,38.59580739764715 67.68167403904954,39.15053171067848 67.56046666330076,39.40477856487996 67.49986297538271,39.497231687531894 67.22714637994068,40.08661684850449 67.18169361399487,40.16751237927383 67.03775985527318,40.502649793805176 66.54535489121918,41.46182538714493 66.31051560063497,41.94718525076678 66.2802137566905,42.06274651894273 66.0908272320521,42.42098497377083 65.855987941497,42.813889098801155 65.78023333163583,43.05656383427413 65.69690326077398,43.18367876299453 65.62872411194257,43.40324025047448 65.56812042402453,43.51879859120527 65.47721489222022,43.76147035050235 65.35600751644233,43.9579181671761 65.28025290658115,44.10814251512056 65.22722467969288,44.24681079549919 65.12116822588723,44.397034388395696 64.97723446713644,44.70903598066434 64.83330070841475,44.951702714872226 64.67421602772083,45.390811344052054 64.58331049588742,45.494810264852276 64.47725404208177,45.691252157484996 64.37877304924768,45.922359406922624 64.33332028336008,46.049467998047476 64.12120737574878,46.41923684670837 63.984849078027764,46.765892981988145 63.71213248252752,47.22809791026884 63.59850056775031,47.470754009787925 63.3182085112785,47.99072791656363 63.03034099380602,48.63779998718019 62.977312766888645,48.77645734037287 62.787926242279354,49.088435162131645 62.66671886650147,49.38885664945337 62.49248326380621,49.74704944766927 62.4015777320019,49.89725866653316 62.234917590307305,50.186121445683966 61.9546255338355,50.76384264935041 61.795540853141574,51.00648382345389 61.75766354819643,51.08736398721885 61.66675801639212,51.20290688092791 61.591003406530945,51.46865465505107 61.515248796669766,51.64196775891833 61.43949418680859,51.792172026256594 61.30313588905847,52.15034984909653 61.21223035722505,52.33521494902743 61.0607211375318,52.600957488564745 60.98496652767062,52.79737509780534 60.8486082298914,53.05156159582839 60.727400854142616,53.375070058704296 60.55316525147646,53.675469144029194 60.31075049992069,54.23004794669396 60.12893943625386,54.518888954156864 59.9547038335877,54.842389159530285 59.79561915289378,55.23520839012053 59.7198645430326,55.37384983061929 59.522902557393536,55.72045196903491 59.45472340853303,55.85909223930503 59.30321418881067,56.09015861336593 59.14412950811675,56.54073537142904 58.969893905421486,56.841117914889765 58.78808284178376,57.19926428080362 58.674450927006546,57.51119639440003 58.545668090257095,57.68449128174689 58.401734331506304,57.97331493310776 58.24264965081238,58.23903141079791 57.83357475759112,59.1748057492332 57.76539560870151,59.37120089875316 57.30329248859198,60.29540435961462 57.235113339702366,60.46869085454455 57.06087773703621,60.79215758082864 56.97754766620346,60.976994893018855 56.91694397828542,61.16183161097433 56.84118936842424,61.26580200363969 56.82603844648111,61.25424974707494 56.81088752450887,61.17338388610733 56.89421759537072,60.79215758082864 56.98512312717503,60.52645290338842 57.40177348139696,59.75243662664798 57.757820147729944,59.00151535428813 58.07598950911779,58.435429757148086 58.11386681406293,58.34300708952287 58.18962142392411,58.06573819510595 58.39415887053474,57.77691500804576 58.43961163642234,57.62672637735159 58.52294170728419,57.453431315876514 58.75778099783929,57.02596793075645 59.060799437284004,56.33277730654663 59.12140312514384,56.13637177670171 59.19715773500502,55.974625542417925 59.38654425967252,55.6280249364645 59.45472340853303,55.53559775526446 59.58350624531158,55.30452915214846 59.66683631614433,55.15433406205557 59.87894922372652,54.58821058000103 60.20469404611504,53.998974095782614 60.257722273032414,53.94120548790306 60.32590142189292,53.91809802852731 60.37135418780963,53.9296517593757 60.44710879767081,53.952759214142134 60.78042908105999,54.126064828731614 61.09102298144717,54.38024545170629 61.56070156255737,54.78462139923431 61.712210782279726,54.95792450600493 61.96977645577863,55.142780577349185 62.49248326380621,55.65113170854602 62.93186000097194,56.00928548810043 63.48486865294399,56.52918216535909 64.43937673716573,57.33790098469399 64.83330070841475,57.71915019654625 65.01511177205248,57.86933858580596 65.21964921866311,58.077291092387895 65.49236581416335,58.308348550835944 65.61357318994123,58.446982580138865 65.81811063655186,58.62027464665516 65.94689347333042,58.701144098929944 66.00749716119026,58.75890792375867 66.12112907599658,58.816671690579824 66.22718552980223,58.96685721262111 66.24233645177446,59.03617347508771 66.2347609907738,59.0592788773065 66.17415730288485,59.128595028341806 66.09840269302367,59.24412176097758 65.3635829774139,59.89106717365212 65.04541361602605,60.202984682124224 64.59846141785965,60.56111010489258 64.40907489322126,60.7690528750536 64.0227263829438,61.12717477161641 63.977273617027095,61.20804069758378 63.977273617027095,61.2426974882037 64.03030184394447,61.35821997262974 64.09848099277588,61.60081643437297 64.13635829772102,61.85496401065393 64.1893865246384,62.05135000461087 64.20453744661063,62.55964005043643 64.22726382955443,62.74447168016195 64.2348392905551,62.859991147033725 64.28029205647181,63.03326991210997 64.31059390041628,63.19499628828271 64.31816936138785,63.39137770493835 64.36362212730455,63.78413852589438 64.36362212730455,64.0729315354074 64.37119758827612,64.15379331810982 64.40149943222059,64.20000000000073 64.45452765910886,64.20000000000073 64.84845163038699,64.00362134540774 65.50751673616469,63.587758450808906 65.80295971457963,63.437584999614046 66.34081744457944,63.10258127188354 66.49990212527337,63.06792560244503 66.63626042302349,62.987062292479095 66.81807148666121,62.84843921077845 67.10593900416279,62.652055939572165 67.46198567046667,62.46722401270381 67.9013624076324,62.17842293736976 68.15135262018885,62.05135000461087 68.42406921565998,61.889620411242504 68.81041772593744,61.69323386482938 68.89374779677019,61.67012952114601 69.02253063351964,61.67012952114601 69.30282268999144,61.85496401065393 69.60584112943616,62.120662548182736 70.07551971057546,62.5827440366229 70.82549034812837,63.26430745311518" stroke="#4dd2ff" stroke-linecap="round" stroke-linejoin="round" stroke-width="0.5"><title>2023-02-05 10.3km</title></polyline><polyline fill="none" points="106.19704054336762,62.793188782012294 105.85675155688659,62.470309210599225 105.58452036764356,62.18202234396449 105.25179335862049,61.8476077643827 105.03249601175776,61.68616554576147 104.69220702521852,61.38634307768007 104.4199758360046,61.19030446316174 104.03431498463033,60.83282055980817 102.80171265569516,59.771887477490964 102.29506016464438,59.39133061418033 102.15894457002287,59.24141358117049 102.12113468264579,59.172220972304785 102.12113468264579,59.103028280002036 102.20431643491611,58.96464264512906 102.189192479942,58.93004618431223 102.15894457002287,58.89544970257339 101.99258106554043,58.826256676573394 101.72791185378446,58.64174153271597 101.56154834927293,58.49182254147672 101.44055670962553,58.3534354327312 101.2363833177078,58.157386457405664 100.69948291676701,57.73068931350281 100.48018556987518,57.53463821067635 100.22307833563536,57.32705395995072 99.2475832409109,56.43904618849774 98.7106828399701,55.97773802668962 98.29477407867671,55.574090343056014 97.83349345249007,55.19350564076376 97.45539457860286,54.84751735737882 96.4798994839075,53.99407067240827 96.40427970912424,53.913338572103385 96.39671773166629,53.8672058923803 96.43452761901426,53.636541937317816 96.47233750642044,53.49814311921364 96.56308123614872,53.221344481629785 96.70675880825729,52.89841105024607 96.94118011006503,52.50627515455926 97.0167998848483,52.33327317217481 97.26634514163015,51.84886484667368 97.45539457860286,51.39905345423176 97.72762576778769,50.926171008915844 98.01498091200483,50.257208698629256 98.29477407867671,49.76124884798992 98.85436041207868,48.630905728135986 99.01316193910316,48.342549326698645 99.28539312831708,47.7542977742487 99.52737640761188,47.32752326526679 99.67861595717841,46.98148754935028 99.91303725901525,46.57777657644692 99.98865703379852,46.38168736472653 100.10208669595886,46.17406276304246 100.27601217795745,45.72420688197599 100.60873918700963,45.08978874766035 100.88097037622356,44.489968787420366 101.02464794830303,44.23619691662316 101.13807761049247,43.993959083702066 101.2363833177078,43.832466626940004 101.37249891230022,43.54408610933024 101.68253998889122,42.94424998964678 101.9623331555922,42.30980111573081 102.16650654753903,41.95219956791334 102.46142366915592,41.35234680516078 102.65803508358658,41.029346565992455 102.88489440793637,40.533306943751086 102.96051418271963,40.40641239805336 103.17224955209531,39.875759438687965 103.37642294401303,39.460462394617934 103.48985260620248,39.16052377098822 103.68646402063314,38.81443879524522 103.87551345757674,38.422206632261805 104.06456289452035,38.1107262395999 104.2460503540351,37.73002568533775 104.3670419936534,37.45315096822378 104.4880336333299,37.24549405353173 104.59390131800319,37.00322670302921 104.80563668740797,36.62251879955875 104.96443821446155,36.2187349290798 105.15348765140516,35.895705786515464 105.61476827759179,34.97275535665176 105.90212342175073,34.45358921461957 106.09117285869434,34.04979007814836 106.29534625061206,33.565227362600126 106.41633789025946,33.33448177379614 106.60538732723217,32.91913737508003 106.8927424713911,32.37687766209274 106.96836224617437,32.192277441357874 107.1876595930371,31.799999999999272 107.17253563809209,31.926913583385613 107.12716377319884,32.12305220543203 106.79443676417577,32.99989902145171 106.56757743982598,33.426780120695184 106.42389986771741,33.72674872256539 106.17435461096466,34.14208727421283 105.91724737669574,34.74201542911396 105.75844584964216,35.00736626572689 105.41815686316113,35.63035905870129 104.94175228200038,36.72634847833979 104.76026482254383,37.060909498315596 104.56365340811317,37.51083331116752 104.38972792608547,37.81078055948092 104.2460503540351,38.21455322505426 104.02675300714327,38.5837143182398 103.86038950263173,38.94133686212081 103.78476972784847,39.04516234438415 103.73183588549728,39.13745150425166 103.5730343584728,39.48353453152231 103.49741458368953,39.71425538989206 103.07394384487998,40.59098618993448 102.78658870072104,41.1216325341411 102.70340694847982,41.29466832438629 102.49167157907505,41.640738339283416 102.31774609707645,42.067555149435066 102.15138259256491,42.40208502430687 102.0833247952396,42.57511695282301 101.80353162856773,43.08267426619204 101.60692021410796,43.48640983183941 101.48592857448966,43.82093143408201 101.31200309249107,44.07470514165834 101.22882134019164,44.293872440346604 101.14563958795043,44.466898663751635 101.03977190324804,44.73220452620808 100.8053506014403,45.18206818496765 100.70704489422496,45.34355684314869 100.46506161490106,45.885694014305045 100.36675590768573,46.03564594452109 100.06427680858178,46.67005362070995 99.74667375450372,47.26985079086444 99.59543420493719,47.6274191977318 99.42907070039655,47.90424482108938 99.32320301569416,48.11186316215026 99.28539312831708,48.23874066740609 98.85436041207868,49.046136400462274 98.71824481742806,49.33448926611527 98.55944329040358,49.61130665388191 98.46113758318825,49.85352077267453 98.39307978589204,49.9457925489769 98.33258396605379,50.095733869042306 98.21159232640639,50.31487817048401 97.9847330020566,50.78776565353837 97.84861740746419,51.0069073120394 97.6746919254656,51.35291875309122 97.59151017319527,51.49132274524891 97.50832842095406,51.66432726609855 97.3268409614684,52.12567010484054 97.16803943441482,52.44860788503138 97.13022954703774,52.56394236609776 96.85043638033676,53.10601132191732 96.7748166055535,53.30207755551601 96.51014739379752,53.844139538567106 96.44208959653042,54.02867010922273 96.38159377669217,54.12093517199537 96.20010631720652,54.24779939110158 96.14717247485532,54.351597179938835 96.08667665504618,54.52459307742538 95.9959329252888,54.69758845338583 95.92787512799259,54.95131406145447 95.81444546583225,55.25117015183787 95.69345382618485,55.470294765476865 95.58758614148246,55.71248415446462 95.3909747270518,56.093065414843295 95.05068574054167,56.90035064198673 94.89944619097514,57.15406651077501 94.80870246121776,57.361651387200254 94.6120910467871,57.719156914216 94.46085149722057,57.972869162887946 94.29448799270904,58.330370882158604 94.23399217287078,58.503354785494594 93.86345527644153,59.16068886272478 93.77271154671325,59.42592679692825 93.68952979444293,59.61043941941534 93.50804233498638,59.933335081339465 93.37192674036487,60.26776081588832 93.14506741604418,60.60218460165561 93.06944764126092,60.798225225156784 92.96357995652943,60.99426517901884 92.84258831691113,61.28255801227351 92.82746436193702,61.259494638878095 92.8123404069629,61.21336786437314 92.83502633939497,61.005796920166176 92.88796018174617,60.8443523333699 93.24337312323041,60.06018645145741 93.38705069530988,59.8180154106667 93.51560431244434,59.48358705516148 93.63659595209174,59.252945674496004 93.78027352420031,59.01077122719289 93.91638911879272,58.72246698114759 94.09031460079132,58.422629028806114 94.32473590262816,57.91520738669715 94.49866138462676,57.61536521649032 94.60452906930004,57.303988996878616 94.94481805583928,56.600503169061994 95.08093365043169,56.35831752787999 95.25485913245939,55.92007424574331 95.34560286215856,55.75861535076183 95.58002416402451,55.41263047462053 95.66320591626572,55.25117015183787 95.82956942077726,54.7667864577561 96.1169245649653,54.17860076093348 96.26060213701567,53.947938057586725 96.28328806947684,53.92487173623158 96.358907844231,53.90180540565416 96.79750253801467,54.08633579081288 97.2587831641722,54.45539478102364 97.46295655608992,54.628390365614905 97.73518774530385,54.92824814340929 97.97717102459865,55.1127752279026 98.30989803362172,55.44722905610615 98.70312086251215,55.75861535076183 99.01316193910316,56.04693448737453 99.1946493985597,56.18532715843685 99.42907070039655,56.427513529662974 99.64836804725928,56.58897054263798 99.87522737160907,56.80809004796174 100.05671483109472,56.93494832651413 100.37431788517279,57.22326155300834 100.57092929963255,57.43084617916611 100.9263422411168,57.719156914216 101.5313004393247,58.26117717481975 101.69766394386534,58.44569354230043 101.87915140335099,58.61867709801663 102.0152669979434,58.710934781200194 102.07576281778165,58.7685957578542 102.15894457002287,58.79166013230497 102.2572502772382,58.860853200021666 102.28749818715733,58.91851402604516 102.28749818715733,59.01077122719289 102.0833247952396,59.252945674496004 101.58423428167589,59.69116350524564 101.12295365551836,60.163973727543635 100.8734083987365,60.34848397710812 100.63898709689965,60.579120954847895 100.52555743473931,60.659843678080506 100.36675590768573,60.83282055980817 100.08696274098475,61.08651904323051 100.01134296620148,61.178772759121784 100.01890494371764,61.24796294873158 100.06427680858178,61.36327974602318 100.1474585608521,61.64003911416876 100.18526844822918,61.91679714763086 100.20039240317419,62.228148339952895 100.24576426806743,62.53949784312135 100.25332624552539,62.793188782012294 100.3213840428507,63.12759785164599 100.3365079977666,63.36975492707279 100.39700381763396,63.842534843759495 100.40456579509191,64.08468890253789 100.43481370501104,64.18846890069472 100.4574996374431,64.20000000000073 100.53311941222637,64.16540669507958 100.88097037622356,63.94631527977617 100.9944000383839,63.842534843759495 101.21369738527574,63.73875422007768 102.15894457002287,63.19678569174721 102.40092784934677,63.0814725785749 103.32348910166183,62.516434974877484 103.62596820079489,62.37805757085516 103.83014159271261,62.228148339952895 104.88125646219123,61.64003911416876 104.94931425948744,61.61697588446259 105.0778678766219,61.64003911416876 105.57695839018561,62.04364413356234 105.90968539920868,62.34346316768642 106.00042912896606,62.45877776375346 106.12898274610052,62.59715497317666 106.48439568758477,62.88543975446373 106.7036930344184,63.11606653686613" stroke="#4dd2ff" stroke-linecap="round" stroke-linejoin="round" stroke-width="0.5"><title>2023-02-04 10.3km</title></polyline><polyline fill="none" points="143.3479162552685,63.70380724951974 143.77168897443335,63.92305573764315 143.97600796402548,64.07306737886393 143.9306037441129,64.15384271567382 143.89276689419057,64.1884606823769 143.80952582435566,64.20000000000073 143.49926365495776,64.07306737886393 143.2646751854336,64.0615280357415 142.87117194625898,63.93459510858884 142.75009402647265,63.865358848230244 142.59117925682222,63.715346664492245 142.27334971743403,63.50763684012054 141.81174014837597,63.138373075234995 141.60742115878384,62.95374030248786 141.43337164912373,62.780646538925794 141.01716629997827,62.42291777438368 140.6917693906289,62.088266267655854 140.41934407115332,61.82285161713298 140.15448612169712,61.60359511105344 139.73828077252256,61.22277918996406 139.42045123316348,60.99198043305296 139.1934301336296,60.77272075482688 137.57401295687305,59.43406456231969 137.36212659729063,59.145556985331496 137.3772613372421,59.064774604041304 137.43023292714497,58.960911375372234 137.43023292714497,58.92629025743008 137.21834656759165,58.845507567701134 137.13510549775674,58.7416439425142 136.98375809806748,58.63778012946932 136.1816168796504,57.94534990854663 135.80324838039814,57.64529421996849 135.35677355129155,57.20674847035116 134.75138395253452,56.67587281886517 134.1459943537484,56.11036944404623 133.89627114424366,55.90263211185447 133.44979631513706,55.49869625911015 132.8141372363898,54.979345987623674 132.61738561678794,54.80622818671691 132.39793188724434,54.575403640297736 132.12550656779786,54.356119461786875 131.61092540883692,53.859841650002636 131.58822329886607,53.836758856719825 131.58822329886607,53.80213464934786 131.81524439839995,53.19043687703379 131.95145705813775,52.890356342231826 132.42820136717637,51.978563557564485 132.49630769705982,51.805436709761125 132.62495298677823,51.574600100782845 132.79143512644805,51.193717667229066 133.01088885602076,50.76666466163442 133.05629307593335,50.628160302065226 133.37412261526333,50.08568167703925 133.91140588419512,48.98916667951198 134.07032065390376,48.71214905119996 134.23680279354448,48.331247630081634 134.3578807133017,48.111939605030784 134.6303060327773,47.523266553951544 134.77408606244717,47.25778457595516 134.97083768207813,46.830702296512754 135.21299352159258,46.40361684042364 135.3794756612624,45.96498522744878 135.71243994057295,45.330117747653276 135.8637873402622,44.99536661360253 136.06810632985434,44.61444053539162 136.1816168796504,44.41820490273676 136.30269479940762,44.14116522072436 136.36323375927168,43.956471356770635 136.59025485883467,43.48319061856819 136.7945738484268,43.13688516773618 136.9232191381452,42.84829569646536 137.08970127784414,42.525073766544665 137.30915500738774,42.08641252266534 137.4226655571547,41.797817771304835 137.79346668641665,41.15136026422988 137.9977856760379,40.71268852473804 138.11886359576602,40.48180731560569 138.23994151552324,40.19320449856241 138.40642365519307,39.84687920313445 138.6637142346881,39.373564587524015 138.73182056451333,39.154222344961454 138.90587007417344,38.79634636074843 139.322075423348,38.034409415355185 139.47342282306636,37.69961574167246 139.60206811278476,37.46872241539313 139.7231460325711,37.191649198080995 139.8063871023769,37.04156731380135 139.980436612037,36.67213331158564 140.0788124218525,36.510505188089155 140.13178401172627,36.37196643435891 140.45718092110474,35.72544782990008 140.63879780072602,35.33291512503274 141.25932213946362,34.1553009069321 141.38796742921113,33.843575452821824 141.72093170852168,33.139300602335425 142.03876124790986,32.527382652024244 142.16740653765737,32.30801425137906 142.39442763719126,31.80000000000291 142.30361919736606,32.18101111001306 142.21281075756997,32.446562812485354 142.03119387794868,32.80447838094915 141.9252506981138,33.04693604661952 141.81930751833715,33.231665009385324 141.64525800867705,33.647303002217086 141.43337164912373,34.02830185217317 141.36526531924028,34.12066482893351 141.03230103992973,34.79029196659394 140.93392523011426,34.95192493311333 140.75230835049297,35.32137000486546 140.67663465061923,35.54072689136592 140.5177198809688,35.87553315480909 140.40420933117275,36.141067768548965 140.1998903415806,36.52205006913209 140.09394716180395,36.77603686497605 139.91989765214385,37.133925442878535 139.82152184232837,37.37636482486414 139.56423126286245,37.838151291714894 139.48099019302754,37.95359732804354 139.32964279333828,38.23066686817765 139.06478484388208,38.8194352012506 138.93613955413457,39.03877872281009 138.73938793453272,39.47746325203843 138.62587738473667,39.76606966694453 137.93724671611562,41.05900859762551 137.75562983649434,41.47458992759857 137.48320451704785,42.00560613851121 137.1956444576208,42.64051037894751 137.0215949479607,42.975275242537464 136.98375809806748,43.07916738953281 136.5751201188541,43.852580797210976 136.52214852895122,43.99110150150591 136.41620534917456,44.21042526655947 136.37080112926196,44.36048841255615 136.1816168796504,44.68370001030053 136.06810632985434,44.92610751464963 136.0000000000291,45.099255105458724 135.87892208027188,45.34166085538527 135.79568101043697,45.48017796731074 135.68217046064092,45.757211188618385 135.56865991087398,45.96498522744878 135.46271673109732,46.12658673785336 135.40217777120415,46.265101956214494 135.19029141165083,46.64601708371629 135.05407875188394,46.93458746763645 134.91029872221407,47.28087001404856 134.5849018128647,47.915715925257246 134.3124764933891,48.48130000668243 134.25950490351534,48.550554817506054 134.1005901338358,48.8737428301647 133.97194484408828,49.208471354173525 133.8281648143602,49.4854865881025 133.76005848450586,49.58936695627199 133.55573949491372,50.039513046744105 133.26817943548667,50.55890799699773 133.08656255586538,50.98596254770382 132.9049456762441,51.286053034640645 132.64765509674908,51.84006212108579 132.56441402688506,52.00164709780438 132.29198870746768,52.636440818754636 132.16334341769107,52.84418996693785 131.65632962874952,53.91754859268258 131.36120219933218,54.48307356191799 131.27039375947788,54.6215686238138 130.9979684400605,55.23325115165062 130.5968978308665,56.02958279305312 130.31690514142974,56.62970948680231 130.1125861518376,56.99901510424752 129.8477282023523,57.63375358526537 129.59043762285728,58.0261338645214 129.4542249631486,58.33772805879198 129.16666490372154,58.891669118620484 128.95477854413912,59.39944372960963 128.14506995576085,61.02660030573679 128.0391267759842,61.18815943557638 128.02399203600362,61.11891986414412 128.06182888592593,60.94582057035586 128.13750258579967,60.74964074002128 128.2510131355375,60.49575996477142 128.4780342351005,60.04569583210832 128.63694900478004,59.6879500311079 128.89423958427506,59.180177971091325 129.03045224398375,58.868588347795594 129.28774282347877,58.453132886901585 129.47692707311944,57.99151218302359 129.87799768228433,57.1605855650414 130.16555774171138,56.6066278068829 130.25636618153658,56.38735138467746 130.3774441012938,56.191155981388874 130.52879150098306,55.81030416745489 130.76337997050723,55.406367665204016 130.87689052030328,55.094757564991596 131.03580528998282,54.84085178866371 131.11147898982745,54.6215686238138 131.33093271940015,54.14837578344668 131.52011696898262,53.87138304318796 131.55795381893404,53.836758856719825 131.60335803881753,53.84830025451811 132.00442864801153,54.10221041951445 132.2390171175357,54.2868716524863 132.62495298677823,54.65619233707184 132.78386775645777,54.77160456390993 133.23034258559346,55.16400440006328 133.86600166431163,55.775681150007586 134.02491643399117,55.891091126930405 134.17626383368042,56.052664704933704 134.48652600304922,56.306565123330074 134.60760392280645,56.44505578748067 135.0692134918936,56.80282179069036 135.2886672214372,57.033637384101894 135.77297890046611,57.41448108498298 136.09837580981548,57.74915982807579 136.37080112926196,57.94534990854663 136.58268748884439,58.16462038180907 136.72646751854336,58.26848505061207 136.84754543830059,58.395430501823284 137.26375078750425,58.7531843546094 137.31672237737803,58.787805576906976 137.38482870723237,58.787805576906976 137.49077188703814,58.960911375372234 137.49077188703814,58.99553247247968 137.3772613372421,59.13401665211495 137.11997075777617,59.38790344735753 136.90808439819375,59.57254768443454 136.5372832689318,59.93029420428866 136.1816168796504,60.2303379542318 135.9091915602039,60.507300024350116 135.65946835069917,60.691940662367415 135.26596511149546,61.072760103481414 135.19029141165083,61.17661951278933 135.197858781612,61.22277918996406 135.2432630015246,61.303558535757475 135.3416388113401,61.6266747826885 135.40974514122354,62.00748802560702 135.45514936110703,62.515235088219924 135.45514936110703,62.81526533340002 135.49298621102935,62.91912159150161 135.53082306095166,63.1268335443383 135.58379465082544,63.865358848230244 135.61406413081568,64.04998869033807 135.62919887076714,64.11922472809965 135.67460309067974,64.17692136246842 135.70487257061177,64.1884606823769 135.75784416048555,64.16538204024619 136.00756736999028,63.95767384348801 136.46917693907744,63.70380724951974 136.7567369985045,63.496097383413144 136.98375809806748,63.40378164622234 137.2788855274557,63.20761021200815 137.80860142639722,62.94220073447286 138.2172394055524,62.64217115243446 138.42155839514453,62.52677474200391 138.60317527479492,62.44599711673072 138.97397640405688,62.203663559230336 139.33721016329946,61.99594826748216 139.46585545304697,61.91516989555748 139.63990496270708,61.83439141004055 140.19232297161943,61.61513494805331 140.26799667146406,61.6266747826885 140.41934407115332,61.73053319030441 140.72203887056094,61.99594826748216 141.28959161939565,62.561393689473334 142.0614633578807,63.26530776223444 142.34902341727866,63.496097383413144 142.65171821668628,63.70380724951974 142.78036350640468,63.83074068674614 142.87117194625898,63.8768982307447 143.19656885560835,64.00383128544854 143.51439839493833,64.04998869033807 143.68088053463725,64.14230338878406 143.7943910843751,64.1884606823769 143.90033426415175,64.1884606823769 143.93817111410317,64.15384271567382 143.9306037441129,64.11922472809965 143.90790163417114,64.09614605812021 143.76412160444306,64.03844934260269 143.68088053463725,63.98075256908851" stroke="#4dd2ff" stroke-linecap="round" stroke-linejoin="round" stroke-width="0.5"><title>2022-12-09 10.3km</title></polyline><polyline fill="none" points="179.38838449149625,63.69208683602119 179.5852062094782,63.865239555510925 179.89557891865843,64.01530482355884 179.9788496455003,64.07302212997092 179.9788496455003,64.10765248601456 179.9182891169039,64.16536969965455 179.80473812573473,64.20000000000073 179.4943654165545,64.08456558431499 179.26726343424525,64.06147867334585 178.85090979997767,63.93450049714738 178.72978874275577,63.865239555510925 178.41941603357554,63.62282560214226 178.19988411734812,63.48430288385134 177.526148236444,62.91866498443051 177.2536258576729,62.61852832732984 176.36035806054133,61.752740723637544 175.28540867756237,60.87539597537034 174.31644021967077,60.032670640957804 173.94550698186504,59.68634157703127 173.77139546209946,59.570898091773415 173.56700367800659,59.40927682265465 173.41560235645738,59.25919952273762 173.3626118939137,59.16684406638524 173.355041827861,59.12066628255343 173.37018196002464,59.07448846161424 173.43831255470286,58.94749926253644 173.40803229040466,58.970588228694396 173.21878063844633,58.85514330511069 172.97653852397343,58.62425276194335 172.5450447575713,58.266370586097764 172.2422421144729,57.97775430418187 171.47009537462145,57.342793379866634 171.1824328636576,57.05417245787248 170.53897724708077,56.48847124426902 170.23617460398236,56.25757118882393 169.7971107715275,55.8304036396039 169.4337475997745,55.55332028762132 169.10823475848883,55.253145148137264 168.85085251182318,55.04533067117882 168.35879821682465,54.60660875096073 167.89702418609522,54.14479258354186 167.60936167516047,53.91388310758339 167.5866514769441,53.86770110099678 167.57908141083317,53.82151905728824 167.69263240203145,53.521334868208214 168.0105751772644,52.840141851269436 168.1316962344863,52.63231864471891 168.27552748998278,52.28594496291771 168.62375052951393,51.6278292134848 168.7070212563849,51.42000162085969 168.97197356907418,50.93506764726408 169.13851502278703,50.565591395748925 169.5245883927273,49.83817808037202 169.7365502428729,49.36477716506488 170.02421275383676,48.82209326723387 170.10748348067864,48.6373486428638 170.2437446700642,48.37177720433101 170.5768275774608,47.66742961634009 170.72065883292817,47.424947300663916 170.88720028664102,47.090089086570515 170.97804107956472,46.84760433362317 171.31869405307225,46.21252036725127 171.4246749781305,45.946937717289984 171.86373881061445,45.069351532205474 172.41635363426758,43.87996990722968 172.5450447575713,43.649019163382036 172.80999707026058,43.10628125993753 173.09765958122443,42.586633780600096 173.19607044022996,42.378773472406465 173.355041827861,41.986146393468516 173.6351342727139,41.47803677761112 173.9000865854032,40.912182142397796 174.0212076426542,40.715863925532176 174.51326193768182,39.66497264867576 174.71008365569287,39.30697232825696 174.7782142504002,39.13374556566123 175.04316656308947,38.63715928376041 175.39138960264972,37.898046168913424 175.6866221796663,37.37835156469737 176.51932944817236,35.588256375940546 176.70101103401976,35.31107535810952 176.82970215735259,34.98769581311717 176.96596334673814,34.77980800122896 177.04923407358,34.60656758316691 177.70025975623867,33.20907576638638 177.94250187071157,32.75863727272372 178.0711929940153,32.55074139176941 178.1923140512663,32.26199586404982 178.32857524065184,32.03099839661081 178.44212623179192,31.799999999999272 178.41941603357554,31.915499314432964 178.33614530673367,32.1002977344142 178.32857524065184,32.158047118689865 178.23773444769904,32.42369353841059 178.0106324653898,32.85103520046687 177.60184889720404,33.72880809980779 177.36717684884206,34.12149163230788 177.2536258576729,34.387128970043705 176.85998242165078,35.13783654256622 176.7767116948089,35.32262459387857 176.69344096793793,35.56515800887428 176.57231991071603,35.78459212087182 176.1408261443139,36.68541811050454 176.10297581390478,36.8009076000817 175.9288642941392,37.08963030813538 175.37624947051518,38.175214701634104 175.15671755425865,38.683353537631774 174.92204550586757,39.05290623093606 174.7782142504002,39.43400495543392 174.64952312706737,39.71116607586737 174.5662524002255,39.919036038478225 174.4451313429745,40.1269052487296 174.384570814349,40.288580781005294 174.08933823736152,40.84289343659839 173.71083493347396,41.66280443075448 173.4534526868665,42.170912411991594 173.37775202607736,42.355677836192626 173.22635070452816,42.6212770921411 173.00681878830073,43.08318591626448 172.83270726850606,43.32568656187868 172.65102568265866,43.741399572394585 172.53747469151858,43.93770744811991 172.43149376640213,44.21484683634117 172.29523257701658,44.48043749528006 172.23467204842018,44.630553411421715 172.03785033040913,45.0000678412398 171.7577578855271,45.62361805117689 171.58364636576152,45.92384351577857 171.43224504421232,46.25870852888693 171.2429933922831,46.61666552194583 171.08402200465207,46.986167174931325 170.96290094743017,47.20555765678 170.8796302205592,47.45958769413846 170.76607922941912,47.655882862618455 170.69037856862997,47.84063064366637 170.52383711491711,48.10620453794763 170.251314736146,48.66044175340721 170.0015025555913,49.11075555331627 169.8879515644221,49.272405799867556 169.5548686570255,50.03446512056689 169.29748641041806,50.47322196152163 169.06281436202698,51.02743633882346 168.65403079384123,51.8702937878661 168.1316962344863,52.86323327225546 167.90459425217705,53.42897018677468 167.74562286454602,53.72915485851263 167.63207187337684,54.01779248662206 167.48067055182764,54.24870154491873 167.3141290981439,54.59506339200016 167.1324475122965,54.84906075264371 166.92805572820362,55.426323304669495 166.5646925564797,56.08439553820426 166.314880375925,56.62701083207139 166.09534845969756,57.05417245787248 165.81525601484464,57.64295760057939 165.54273363604443,58.07011167216842 165.33834185195155,58.55498541802808 165.17937046434963,58.86668780790205 164.96740861417493,59.32846601755591 164.88413788733305,59.478543136501685 164.7478766979475,59.80178483034615 164.3239529975981,60.70223424449796 164.0211503544997,61.24480592345208 164.0514306187979,61.17554173910685 164.11956121350522,60.91002825892792 164.22554213859257,60.62142525814488 164.3239529975981,60.413630199876934 164.5964753763983,59.90568355992946 164.84628755695303,59.305377195265464 165.14909020002233,58.71660909055208 165.27778132335516,58.4395396592663 165.3534819841443,58.31254905665628 165.58058396642446,57.88539678771485 165.70927508975728,57.68913657225494 165.8076859487337,57.458241342679685 165.90609680773923,57.18116584219024 166.0802083275339,56.857909402595396 166.65553334943252,55.645681553425675 166.82207480311627,55.35705210469314 167.24599850343657,54.42188272952262 167.4958106839913,53.97161056357436 167.57151134478045,53.85615559355938 167.60936167516047,53.82151905728824 167.6472120055405,53.82151905728824 168.18468669702997,54.22561068084178 168.48748934012838,54.51424581447645 168.7373015206831,54.71051687698491 169.03253409767058,55.02224012732404 169.32776667471626,55.23005468781048 169.6759897142765,55.57641061799586 169.93337196088396,55.784223173748614 170.3951459916134,56.22293610046836 170.62224797392264,56.407656330429745 170.89477035272284,56.673190620425885 171.34897431737045,57.03108272143436 171.7880381498253,57.44669655684993 171.90158914102358,57.527510008996614 172.2119618501747,57.78149440421839 172.4844842289749,58.07011167216842 172.85541746675153,58.41645047966813 173.05223918476258,58.589619100410346 173.2717711010191,58.751242675527465 173.40046222432284,58.79742075632748 173.4837329511647,58.87823230839422 173.52158328154474,58.95904374679594 173.5140132154629,59.0052216605618 173.31719149745186,59.22456624404367 172.76457667382783,59.66325289853921 172.47691416286398,59.9749492752926 172.17411151976557,60.263555523713876 171.65934702652157,60.70223424449796 171.25056345836492,61.09473341850753 171.2127131279558,61.15245365910232 171.2127131279558,61.19862980986727 171.2732736565813,61.34870204337494 171.34140425125952,61.602669545540266 171.4246749781305,62.26067103306195 171.47009537462145,62.78014056831307 171.52308583713602,62.987927067246346 171.53822596927057,63.126450982384995 171.56093616751605,63.415041399446636 171.58364636576152,63.553564284728054 171.6063565639779,64.02684828949714 171.62149669614155,64.09610903633802 171.65177696046885,64.15382626155042 171.70476742298342,64.15382626155042 171.81074834807077,64.10765248601456 171.97728980178363,63.992217884744605 172.46934409681126,63.726717421683134 172.88569773104973,63.461215731633274 173.70326486742124,63.011014409603376 173.92279678364866,62.860946518303535 174.24073955891072,62.69933450463577 174.7176537217747,62.376109113483835 174.99774616662762,62.226039563720406 175.9591445584665,61.69502108613233 176.1408261443139,61.61421349621742 176.20895673899213,61.59112559253117 176.29979753191583,61.625757444613555 176.64802057150519,61.89126761704756 176.8978327520599,62.12214503042924 177.19306532904739,62.43382806673617 177.90465154030244,63.10336368636126 178.35885550495004,63.472759308901004 178.63137788375025,63.64591268937875 178.88119006430497,63.83060905334787 179.27483350029797,63.992217884744605 179.53978581304546,64.02684828949714 179.80473812573473,64.16536969965455 179.89557891865843,64.17691313544128 179.94099931509118,64.14228282114709 179.95613944728393,64.11919593336643 179.95613944728393,64.08456558431499 179.92585918295663,64.04993521438519 179.68361706848373,63.93450049714738" stroke="#4dd2ff" stroke-linecap="round" stroke-linejoin="round" stroke-width="0.5"><title>2022-12-07 10.4km</title></polyline><polyline fill="none" points="35.29589606530499,114.66994453786538 35.907980561692966,115.09629388202666 35.824857975763734,115.20000000000073 35.23544327550917,115.02715636584253 33.98104788782075,114.197499670674 29.51509804360103,110.36018132064419 29.356409470463404,110.16427529673456 29.454645253834315,109.93379676474433 23.658734034688678,104.78235984652201 34.41933061362943,82.79999999999927 34.237972244329285,83.53787714989448 30.35388050164329,91.49251207254201 20.2582646101946,111.95045251312331 20.084462839586195,112.2270169146177 20.061793043423677,112.06568784251431 23.197781512717484,105.51995414533303 23.651177435996942,104.87455965271874 29.462201852555154,109.87617698701433 29.326183075580047,110.19884699665636 27.23300522979116,112.08873488057361 27.656174758187262,115.15390841515182 32.1447943985695,112.61881420030113 34.81983034586301,114.80822034813536 35.88531076553045,115.16543131485014 35.93820695657632,115.07324805256212 35.22788667678833,114.66994453786538" stroke="#4dd2ff" stroke-linecap="round" stroke-linejoin="round" stroke-width="0.5"><title>2022-11-10 10.4km</title></polyline><polyline fill="none" points="71.35896751264227,114.7504454956179 71.98638847161783,115.10778397858667 71.89567700764746,115.20000000000073 70.88273232692154,114.91182444095466 69.62033112035715,113.98965292453067 65.50807808811078,110.34693051110298 65.34933302621357,110.12789869010885 65.4476037788263,109.90886603290346 64.77482708788011,109.48232635295426 59.611832931637764,104.84782593756245 60.02003451940254,103.74102418307302 70.39893785252934,82.80000000000291 69.7412797389261,84.51846671998283 60.73816694229026,102.5765534502716 56.013611528411275,112.26054137708343 56.47472813681816,110.95790959172518 59.626951508951606,104.84782593756245 65.50051879946841,109.9319221414371 63.255410066776676,112.09915497352631 63.65605236586998,115.1538920078201 68.17650698588113,112.59484034014895 70.8676137496077,114.81960795635678 71.92591416233336,115.13083799783271 71.31361178067164,114.78502673642288 71.19266316207359,114.45074053562348" stroke="#4dd2ff" stroke-linecap="round" stroke-linejoin="round" stroke-width="0.5"><title>2022-11-08 10.4km</title></polyline><polyline fill="none" points="107.2330329118704,114.5888485433934 107.95142091671005,115.05009552814954 107.83042925273185,115.20000000000073 106.8851818779367,114.94631527978345 106.16679387312615,114.43894247516073 101.5161767891259,110.36826648029819 101.35737523017451,110.16068886230642 101.4632429361518,109.91851402563043 99.88278932552203,108.74222170993744 95.6253951494582,104.84413953789408 95.8673784773855,104.07141132807737 106.42390115905437,82.79999999999927 106.21972772610025,83.5153274377517 97.17560084411525,101.70702904128848 92.04857908326085,112.22489956119898 106.35584334805026,82.94998875019155 106.0533641881193,83.80376339723807 103.32348976974026,89.22608954467069 95.72370087643503,104.82107317483678 101.50105283115408,109.93004618387567 99.20977319465601,112.17877275884166 99.65592995556653,115.13081336934556 104.19311735455994,112.59391264527585 106.84737198293442,114.83100367259249 107.92117300073733,115.15387558881775 107.15741312189493,114.62344219582883" stroke="#4dd2ff" stroke-linecap="round" stroke-linejoin="round" stroke-width="0.5"><title>2022-11-04 15.1km</title></polyline><polyline fill="none" points="143.33862718901946,114.61253856417534 143.97315594236716,115.10784958463046 143.8220776677772,115.20000000000073 143.27064196544234,115.06177432141703 141.94870706263464,114.23241325082563 137.3936970832583,110.22366559220245 137.45412839308847,109.90111049210827 135.05198382685194,107.95422152938772 131.63006090701674,104.82062824629247 142.44726536882808,82.79999999999927 136.86492312213522,94.43937674467088 128.02684405766195,112.21655507052492 131.26747304797755,105.33906543148987 131.6376148207346,104.85519087117791 137.49189796176506,109.92415020227418 135.22572384265368,112.12439985938909 135.63363518408732,115.14240600778066 140.20375299092848,112.57365511441822 142.84006888282602,114.83139744976143 143.89006289132521,115.10784958463046 143.27064196544234,114.7046897757391" stroke="#4dd2ff" stroke-linecap="round" stroke-linejoin="round" stroke-width="0.5"><title>2022-11-01 10.4km</title></polyline><polyline fill="none" points="179.33945809750003,114.66843128712208 179.99118075767183,115.09599781235738 179.80172649599263,115.20000000000073 178.8544551875966,114.93421625768678 178.03601277712733,114.3795331868314 173.534579519619,110.40414795215838 173.32996891700896,110.16145565131592 173.4512196444557,109.91876232638606 170.81401632187772,107.79226272492451 167.57813753237133,104.81040802400094 178.3997649595549,82.80000000000291 178.08905997039983,83.73653877404286 174.00442608856247,91.8641296300666 172.62519906353555,94.81197608794537 164.00881924229907,112.27631127801942 164.40288410658832,111.09754888258249 167.59329387330217,104.82196589886007 173.46637598538655,109.90720547585443 171.19292484520702,112.12607819846016 171.64003690279787,115.15377682869439 176.16420467171702,112.58833257392325 178.84687701714574,114.84176945070067 179.90024271205766,115.14222103007342 179.22578554050415,114.73776661526063" stroke="#4dd2ff" stroke-linecap="round" stroke-linejoin="round" stroke-width="0.5"><title>2022-10-28 10.4km</title></polyline><polyline fill="none" points="35.57114910395467,166.10768539429046 34.76144100388046,165.9230557377341 33.83822242246242,165.2076102122992 29.47941993988934,161.35328258806476 29.418881016492378,160.94937100638344 23.59200964216143,155.90600721088776 34.42090955990716,133.8000000000029 33.61120145986206,135.7858483316959 23.137967716902494,156.89855774747048 20.156425740919076,163.1419997313933 20.07318472128827,163.280478735036 20.088319452130236,162.9342805997876 20.451552992366487,161.99953520990675 23.2212087365333,156.35611946383506 23.59200964216143,155.95217273254093 24.749816551600816,156.71389848148465 29.486987305281218,160.92629025876522 27.231912409770302,163.18815943636946 27.66325223876629,166.16538204023163 32.15826729897526,163.6382146157339 34.77657573472243,165.80766190095528 35.80573743200512,166.20000000000073 35.92681527874083,166.0961460581275 35.63168802729342,165.96921320752517" stroke="#4dd2ff" stroke-linecap="round" stroke-linejoin="round" stroke-width="0.5"><title>2022-10-23 10.2km</title></polyline><polyline fill="none" points="71.5835754162108,166.11905165126154 70.77971642208286,165.9687187015079 69.64218010962941,165.05514848632083 65.48638078160002,161.38915759635347 65.37262715032557,161.21568220938934 65.47121363074984,160.97281578924958 64.72802323996439,160.4986450626384 59.60910983404028,155.91864864316085 70.42328837752575,133.79999999999927 69.65734726047958,135.74382036453244 61.724927375180414,151.66216357097437 56.037245813029585,163.32048158721955 56.90935698588146,161.12316178926267 59.237514638662105,156.36972507808605 59.60910983404028,155.91864864316085 60.511555308592506,156.55478105422299 65.47121363074984,160.97281578924958 65.34987642409396,161.25037732862256 63.234058882982936,163.21639991061966 63.62082122921129,166.20000000000073 68.19371720514027,163.64429004395424 70.82521787457517,165.88777002747156 71.96275418697041,166.153743814677 71.30298312581726,165.8646418139797 71.09822658952908,165.42520399170098" stroke="#4dd2ff" stroke-linecap="round" stroke-linejoin="round" stroke-width="0.5"><title>2022-10-21 10.3km</title></polyline><polyline fill="none" points="107.31621468090452,165.65803582741137 107.96654487474007,166.07315778005068 107.95142091676826,166.20000000000073 106.92299177296809,165.9578464277438 105.85675273422385,165.17372308758058 101.5691106421582,161.40286267696138 101.38006116723409,161.17222097185004 101.46324293621001,160.93004618387567 99.65592995559564,159.51157333045558 95.62539514951641,155.85567271595937 96.34378315432696,154.10260305026168 106.42390115911257,133.83461282333155 105.70551315424382,135.6575253380979 104.83588556945324,137.24964204439675 98.63506279082503,149.99651973126674 92.03345512528904,163.2710263264962 92.25275251621497,162.48686627464122 95.51952744351001,155.98253752148958 106.43146313808393,133.79999999999927 106.12142199918162,134.78068857387916 95.73882483446505,155.8095399898193 101.48592887318227,160.90698186504596 101.32712731420179,161.21834938705797 99.24002111068694,163.15570934376592 99.65592995559564,166.1423444802349 104.20824131258996,163.59391264527585 106.83981000399217,165.8310036725925 107.93629695873824,166.15387558881775 107.2330329119286,165.6349734086907" stroke="#4dd2ff" stroke-linecap="round" stroke-linejoin="round" stroke-width="0.5"><title>2022-10-16 15.1km</title></polyline><polyline fill="none" points="143.30771587995696,165.76119156022105 143.94382793581462,166.20000000000073 143.18655167883844,166.09607198807498 141.89918204196147,165.2530933916605 137.49940698887804,161.39601990837036 137.34037897488452,161.18814632116846 137.45397041345132,160.96872338568573 133.53127940223203,157.71192658083237 131.59265218436485,155.88711577654976 132.2211914776708,154.2701463885569 142.35354779617046,133.8000000000029 141.66442640230525,135.6370660920511 130.13868177097174,158.85529116418547 128.05617206421448,163.26684835786 128.30607322903234,162.30834509361375 128.38937361733406,162.19286169354018 128.38937361733406,162.43537656564877 131.22158681842848,156.30290055086516 131.5699338966515,155.94486384178526 132.7967214329692,156.77642954642215 137.47668870116468,160.96872338568573 135.18971440507448,163.1629150417284 135.62893463412183,166.1653573502299 140.16501941348542,163.60174332027236 142.80034078776953,165.85357256279167 143.83780925982865,166.18845245238845 143.92110964813037,166.11916711810045 143.71664505871013,165.99214378826582" stroke="#4dd2ff" stroke-linecap="round" stroke-linejoin="round" stroke-width="0.5"><title>2022-10-14 10.3km</title></polyline><polyline fill="none" points="179.31293744099094,165.5875399651777 179.98739488370484,166.06133037462496 179.82067506643943,166.20000000000073 178.9037160712469,165.89954872241287 177.93370986144873,165.18308164957853 173.43227479414782,161.23079641236473 173.48532200872432,160.895648622085 171.4922623745806,159.32389499593774 167.64255022947327,155.79885014543106 168.00630255814758,154.68928312113712 178.41113479281194,133.79999999999927 176.04674465645803,138.91031002559612 164.01260511626606,163.18386019801983 164.44456100655952,162.00509590751244 167.31668876839103,156.15714325755107 167.64255022947327,155.85663950805247 173.4929001822602,160.8378643228789 173.2655549768533,161.2423531978966 171.23460447508842,163.1029653815931 171.6362476713548,166.1653326250016 176.23619899433106,163.58833257341757 178.83551250959863,165.79554599143012 179.83583141345298,166.08444200207668 179.9722385367204,166.0035512653776" stroke="#4dd2ff" stroke-linecap="round" stroke-linejoin="round" stroke-width="0.5"><title>2022-10-10 10.3km</title></polyline><polyline fill="none" points="35.4262333290244,216.71517389548535 35.963707912451355,217.20000000000073 35.22941165056545,217.04993521436336 33.96521086979192,216.27651818022787 29.46102245923248,212.35155483102062 29.339901426341385,212.16684406683635 29.468592523771804,211.93595477643248 27.66691715954221,210.5505995463718 23.594222428655485,206.84461008448125 34.434554872248555,184.79999999999927 33.70025861033355,186.62486200957937 29.332331361772958,195.25174735890687 26.60710812176694,201.0138311495757 20.03629208751954,214.25634994630673 20.111992733058287,213.7714989997803 20.79329854308162,212.31692160798775 23.147588619875023,207.5950633926841 23.639642815978732,206.93697409763627 29.483732652908657,211.94749926296936 27.205143221653998,214.1524536594079 27.613926707650535,217.16536969963272 32.16353550556232,214.61421349645752 34.820628164568916,216.84215255640447 35.91828752512811,217.16536969963272 35.13857087591896,216.56510784347483" stroke="#4dd2ff" stroke-linecap="round" stroke-linejoin="round" stroke-width="0.5"><title>2022-10-08 10.4km</title></polyline><polyline fill="none" points="71.46030911724665,216.71517389513974 71.96750415617134,217.00376135517217 71.92208370490698,217.20000000000073 70.91526370227803,216.86523955527082 69.43152896154788,215.75705313232902 68.59882068869774,214.85663592366836 65.442099327076,212.23611067008096 65.48751977828215,211.87823230570575 64.58668082859367,211.25482595974245 59.62828156747855,206.76379144622115 70.39292851294158,184.79999999999927 69.72676189464983,186.47471732349368 68.22788700350793,189.37359532609116 66.30508790074964,193.46180405675113 60.68052202137187,204.6624670678575 56.03249584379955,214.19862980823018 56.63810186041519,212.62861986102507 59.13622667896561,207.5027004329022 59.59800126665505,206.84461007957725 60.105196305550635,207.0870652974263 65.47994970309082,211.8435987973353 63.208927140774904,214.08318936172873 63.64042142761173,217.11919593330822 68.16732640186092,214.54494975578564 70.81685272455798,216.77289150310753 71.8993734793039,217.09610903623616 71.91451362971566,216.98067441174135 71.16507618414471,216.5535642843497" stroke="#4dd2ff" stroke-linecap="round" stroke-linejoin="round" stroke-width="0.5"><title>2022-10-03 10.3km</title></polyline><polyline fill="none" points="107.55265595691162,216.8062587948043 107.94756607228192,217.1652582371571 107.3476064739225,217.07261343386563 106.22363153009792,216.44725711636056 104.54526353970869,214.849093478133 101.64419307661592,212.4633464633407 101.40876589241088,212.1738073387569 101.54546554776607,211.9190117058206 100.61135123635177,211.29359946741533 95.68256921923603,206.83444514265648 96.21417898996151,205.3981765216995 106.4742475648527,184.79999999999927 106.18565940362168,185.71537340775103 105.04649560921825,187.89367189349286 102.72260146864573,192.79454239457482 96.6926277836028,204.79585967254025 92.04483950242866,214.30478125273657 106.39070888661081,184.97380619600153 106.06414859887445,185.93552433630975 105.21357296573115,187.46497072205602 95.74332462160964,206.8460278086277 101.5530599730555,211.94217499175284 99.25954353366978,214.17738828742586 99.66204807435861,217.18841941471692 104.25667537841946,214.61747188286972 106.89194095614948,216.8641620819326 107.95516049757134,217.20000000000073 107.35520089921192,216.84100077406765" stroke="#4dd2ff" stroke-linecap="round" stroke-linejoin="round" stroke-width="0.5"><title>2022-09-30 15.0km</title></polyline><polyline fill="none" points="139.08161006408045,214.4340056304427 139.20767593034543,214.6903200399247 138.48629902896937,214.58352251951146 137.35170623267186,213.83593386833672 133.19853630536818,210.183278125347 133.27557655697456,209.89489987552588 132.44914476704434,209.32881950158844 127.82672967092367,205.1631369825227 137.8139477422519,184.8000000000029 137.49878307661857,185.74033767020228 127.93178455944872,205.14177366655713 133.17752532765735,209.73468906067137 133.24756192002678,210.14055552041464 135.81790485983947,212.27664370177808 137.57582332822494,213.94273289082412 138.2481746149424,214.42332583653842 139.7189430545841,214.90391443701446 142.67448725242866,216.48448629979976 144.17327032907633,217.01845265956217 144.17327032907633,217.20000000000073 144.13124837362557,217.01845265956217 142.24026037976728,216.32429534589028 139.99908942406182,215.1068283192144 138.27618925189017,214.5408034512766 135.86693047449808,212.4261666595412 138.20615265952074,214.3912864420272 139.24269422653015,214.66896055301186 138.6193685544713,214.35924702819102 138.50030634747236,214.13497059053407 138.57734659904963,213.85729368998363 138.64037953218212,213.94273289082412" stroke="#4dd2ff" stroke-linecap="round" stroke-linejoin="round" stroke-width="0.5"><title>2022-09-23 10.1km</title></polyline><polyline fill="none" points="179.30393537163036,216.59952444816008 179.97033901361283,217.0960719880568 179.8491747150547,217.20000000000073 179.22820768502424,217.04988170020079 177.91054593835725,216.2069024259581 173.57134949674946,212.3960199067369 173.38203028024873,212.19969487190247 173.46533073548926,211.92252897498838 167.6418716367334,206.81781801891702 168.05837391296518,205.58199402318132 178.38763036386808,184.79999999999927 167.30109704707866,207.41839578491636 164.4688815686095,213.43537656435728 164.0372337550216,214.27839649145972 164.02966098638717,214.0705297128734 167.29352427838603,207.2798014729742 167.66458994269487,206.8871157737849 173.46533073548926,211.89943175660665 172.89737308607437,212.59234427089177 171.21621844379115,214.0705297128734 171.6251479513594,217.11916711806407 176.16880914676585,214.59019524964242 178.8192781774269,216.7958344534527 179.8870385583432,217.1307146795807 179.33422644625534,216.8189297040808 179.16762553574517,216.5302384038332" stroke="#4dd2ff" stroke-linecap="round" stroke-linejoin="round" stroke-width="0.5"><title>2022-09-19 10.4km</title></polyline><polyline fill="none" points="35.29116391175194,267.5076368400187 35.91168849996757,268.026909992539 35.88898638088722,268.2000000000007 34.86739102221327,267.8538194633584 34.14092321158387,267.33454474582686 29.68374049855629,263.44560483445457 29.41131506956299,263.15709731541574 29.47942142683314,262.89166911777284 27.905407837155508,261.65683485137197 23.667678941885242,257.7905932408685 24.151990815647878,256.4863992983701 34.42848338664044,235.8000000000029 33.75498718718882,237.56648473892346 32.8998740351235,239.12510260594354 29.214563370856922,246.80212124502214 20.058042007905897,265.22277918943655 34.269568553048884,236.22719410295394 34.02741261618212,236.9661169383071 23.75092004518956,257.76751041971875 29.524825664964737,262.91474987928086 27.27731587589369,265.1535396597683 27.670819273305824,268.09614605813476 32.23394520871807,265.592055271336 34.85982364919619,267.80766190079885 35.941957992065,268.13076405962784 35.170085943304,267.51917629440504" stroke="#4dd2ff" stroke-linecap="round" stroke-linejoin="round" stroke-width="0.5"><title>2022-09-17 15.0km</title></polyline><polyline fill="none" points="71.34965907549486,267.52952111223567 71.97887176583754,268.0728408113537 71.8651586289925,268.2000000000007 70.87964477669448,267.92256140788595 70.0154249369516,267.2751994901737 65.54270822263788,263.333070581426 65.38350983112468,263.1365350917622 65.45173771321424,262.928437959079 59.63720598455984,257.81826105992513 60.38013181168935,255.99143609875318 70.4096304778941,235.79999999999927 70.10639544643345,236.76000539077722 56.38501027194434,264.5931939446127 56.02112823416246,265.298388552339 56.233392756199464,264.4660267839499 59.43252233832027,257.98012882817784 59.614463357196655,257.87607102944094 65.4668994647509,262.90531600901886 65.23189231537981,263.2983878967534 63.230541107594036,265.1249808436951 63.647489275899716,268.1653202491616 68.15811036914238,265.52959801752877 70.79625514303916,267.87632151247453 71.87273950481904,268.1768801684484 71.94096738687949,268.0728408113537 71.24352681447635,267.7491616084553" stroke="#4dd2ff" stroke-linecap="round" stroke-linejoin="round" stroke-width="0.5"><title>2022-09-11 10.4km</title></polyline><polyline fill="none" points="107.1976617288019,267.52014536715797 107.93820855231024,268.0732480525803 107.81730294847512,268.2000000000007 106.78960531583289,267.8773581282185 105.81480388483033,267.1168379627816 101.43197574550868,263.26799033357383 101.47731534697232,262.91074886019123 99.94332549819956,261.7583418419854 95.64361996154184,257.83998474209875 96.14235557737993,256.4684964990047 106.41177530380082,235.79999999999927 105.71656808169791,237.58702986951903 104.90801185602322,239.0857861625518 102.37655077557429,244.3887630681893 100.45717431453522,248.16971661880234 92.06179144768976,265.27311085162 92.27337625442306,264.466461600794 95.62095016081003,257.88608461738477 96.2330347802781,258.2779320611771 101.4924285474699,262.92227281340456 99.24811827609665,265.13482892869797 99.67128788956325,268.1308626088394 104.16746503245668,265.5727205406911 106.81983171676984,267.8082203481026 107.91553875160753,268.0847709684567 107.12209572640131,267.55471444126306" stroke="#4dd2ff" stroke-linecap="round" stroke-linejoin="round" stroke-width="0.5"><title>2022-09-09 10.4km</title></polyline><polyline fill="none" points="143.41566814039834,267.65822875142476 143.92970018275082,267.99251374333835 143.81631076164194,268.2000000000007 142.89407680329168,267.90029738837984 142.19862168718828,267.4161590930453 137.5269775375491,263.3123465932913 137.38335093751084,263.1163706746556 137.48918106386554,262.87428185089084 135.97732211576658,261.70993561594514 131.66096481896238,257.8247677826621 132.38665711402427,256.0146739225711 142.4102819399268,235.79999999999927 141.71482682379428,237.55306619153998 140.24832364413305,240.4362821941868 136.92223395832116,247.3092845158826 128.07029981722008,265.19137583003976 128.57677256481838,263.84263101644683 131.26032219768967,258.3781608742138 131.64584622945404,257.85935500727646 137.48162176911137,262.8858099132667 135.26674841015483,265.099154972384 135.6749503261235,268.10778397855756 140.19540858097025,265.50262013011525 142.84116174012888,267.78502673623734 143.91458159327158,268.1193109893575 143.9070222985174,267.98098670705076 143.2947194245644,267.76197257804597 143.16621141397627,267.49684909265125" stroke="#4dd2ff" stroke-linecap="round" stroke-linejoin="round" stroke-width="0.5"><title>2022-09-07 10.4km</title></polyline><polyline fill="none" points="179.21942302692332,267.4260331789592 179.97697003922076,268.06137984277666 179.7875832861464,268.2000000000007 178.80277217019466,267.89965590356223 178.00734780731727,267.2874111556339 173.38631103246007,263.2441217584819 173.4014619726804,262.89754086393805 167.59107638854766,257.8372218432705 167.8107650221209,257.04000768413607 178.355819432938,235.79999999999927 178.030074217706,236.84022668858233 172.1818112829351,248.76681386282144 169.1440477637516,254.71762516204763 164.14423748274567,265.057861028552 164.02302996077924,265.2542497454815 164.0609073113592,264.8268146203227 167.2501802330371,258.19538692413335 167.5835009184375,257.86032933518436 168.51528374355985,258.4957817229151 173.43933932331856,262.885988131482 171.1818492267339,265.1387270520536 171.64395290424,268.1422416417736 176.1362066869915,265.5546076620085 178.7951967000845,267.77258677507416 179.84818704711506,268.1537933180807 179.90879080814193,268.0382764507449 179.3254796086694,267.85344898024414 179.1739702062332,267.63396558729437" stroke="#4dd2ff" stroke-linecap="round" stroke-linejoin="round" stroke-width="0.5"><title>2022-09-02 10.4km</title></polyline></svg>