<?xml version="1.0" encoding="utf-8" ?>
<svg baseProfile="full" height="300mm" version="1.1" viewBox="0,0,200,300" width="200mm" xmlns="http://www.w3.org/2000/svg" xmlns:ev="http://www.w3.org/2001/xml-events" xmlns:xlink="http://www.w3.org/1999/xlink"><defs /><rect fill="#222222" height="300" width="200" x="0" y="0" /><text fill="#FFFFFF" style="font-size:12px; font-family:Arial; font-weight:bold;" x="10" y="20">Over 10km Runs</text><text fill="#FFFFFF" style="font-size:4px; font-family:Arial" x="10" y="280">ATHLETE</text><text fill="#FFFFFF" style="font-size:9px; font-family:Arial" x="10" y="290">Sinnelf</text><text fill="#FFFFFF" style="font-size:4px; font-family:Arial" x="120" y="280">STATISTICS</text><text fill="#FFFFFF" style="font-size:3px; font-family:Arial" x="120" y="285">Number: 23</text><text fill="#FFFFFF" style="font-size:3px; font-family:Arial" x="120" y="290">Weekly: 1.8</text><text fill="#FFFFFF" style="font-size:3px; font-family:Arial" x="141" y="285">Total: 256.3 km</text><text fill="#FFFFFF" style="font-size:3px; font-family:Arial" x="141" y="290">Avg: 11.1 km</text><text fill="#FFFFFF" style="font-size:3px; font-family:Arial" x="167" y="285">Min: 10.1 km</text><text fill="#FFFFFF" style="font-size:3px; font-family:Arial" x="167" y="290">Max: 15.1 km</text><polyline fill="none" points="36.88560060373857,66.4368764244573 36.507501729851356,66.07812134511187 36.205022630718304,65.75780260440297 35.835325953987194,65.38623084931533 35.591662235266995,65.20685060640244 35.21356336135068,64.87371453075684 34.91108426221763,64.65589384795749 34.48257220513187,64.25868951089797 33.11301406187704,63.07987497498834 32.55006684959517,62.65703401575229 32.39882730002864,62.49045953463428 32.35681631404441,62.413578858115216 32.35681631404441,62.33669808889317 32.449240483227186,62.182936272361985 32.43243608879857,62.14449576034531 32.39882730002864,62.106055225081946 32.21397896169219,62.02917408508438 31.919902059744345,61.824157258575724 31.735053721407894,61.657580601637164 31.60061856621178,61.50381714748073 31.37375924186199,61.28598495267215 30.777203240810195,60.81187701500312 30.53353952206089,60.59404245630503 30.247864817356458,60.36339328883332 29.163981378776953,59.37671798721931 28.567425377725158,58.86415336298887 28.10530453186948,58.41565593672931 27.59277050275705,57.992784045291046 27.172660642885603,57.60835261931061 26.0887772043352,56.66007852489565 26.00475523233763,56.57037619122639 25.996353035152424,56.5191176581975 26.03836402113666,56.262824374796764 26.080375007120892,56.10904791023495 26.181201373488875,55.80149386847552 26.34084312026971,55.44267894472068 26.601311233389424,55.00697239395595 26.685333205386996,54.81474796908151 26.962605712906225,54.276516496302065 27.172660642885603,53.776726060255896 27.47513974198955,53.251301121017605 27.794423235522117,52.50800966514362 28.10530453186948,51.95694316443405 28.727067124505993,50.70100636459392 28.90351326565724,50.380610363001324 29.20599236479029,49.726997526944615 29.47486267509521,49.252803628074616 29.64290661906125,48.868319499280915 29.903374732239172,48.41975175160769 29.98739670420764,48.20187484969574 30.113429662160343,47.97118084782778 30.306680197711103,47.47134097997696 30.676376874442212,46.76643194184362 30.978855973575264,46.09996531935758 31.13849772029789,45.81799657402735 31.2645306783088,45.548843426335225 31.37375924186199,45.36940736326869 31.524998791428516,45.04898456592491 31.8694888765458,44.38249998849642 32.18037017286406,43.67755679525726 32.40722949724295,43.28022174212674 32.73491518793162,42.613718672400864 32.9533723150962,42.254829517769394 33.20543823103071,41.703674381948076 33.289460203028284,41.562680442282726 33.52472172456328,40.97306604298501 33.75158104888396,40.51162488291084 33.87761400689487,40.17835974553964 34.09607113400125,39.793820883605804 34.30612606398063,39.35800736917736 34.5161809939018,39.011918043997866 34.71783372669597,38.58891742815467 34.85226888183388,38.28127885358481 34.98670403700089,38.050548948369396 35.10433479776839,37.781363003367005 35.339596319332486,37.35835422173113 35.51604246048373,36.909705476755335 35.726097390434006,36.55078420724021 36.23863141951733,35.525283729613875 36.5579149130499,34.94843246068558 36.76796984297107,34.49976675349899 36.99482916732086,33.961363736223575 37.12926432248787,33.70497974866157 37.33931925246725,33.243485972314375 37.65860274597071,32.64097518010385 37.74262471796828,32.43586382372814 37.98628843671759,32.0 37.96948404228897,32.14101509264947 37.919070859090425,32.358946894924884 37.54937418238842,33.333221134944324 37.29730826645391,33.8075334674395 37.137666519673076,34.14083191396276 36.86039401218295,34.60231919356738 36.57471930742031,35.26890603235006 36.398273166269064,35.5637402952525 36.02017429238185,36.25595450966648 35.49083586889901,37.47372053148865 35.28918313613394,37.845454998128844 35.07072600899846,38.345370345741685 34.8774754734186,38.67864506609112 34.71783372669597,39.12728136117221 34.47417000794667,39.53746035360018 34.28932166955201,39.934818735691806 34.20529969758354,40.05018038264825 34.14648431719979,40.152723893614166 33.97003817604855,40.537260590579535 33.88601620408008,40.793617099880066 33.415493160980986,41.76776243326094 33.09620966744842,42.357369482379 33.00378549829475,42.54963147154194 32.76852397673065,42.934153710313694 32.57527344117989,43.40839461048381 32.39042510284344,43.780094471454504 32.31480532803107,43.972352169803344 32.00392403171281,44.53630474021338 31.78546690454823,44.98489981315288 31.651031749410322,45.35659048231173 31.457781213859562,45.638561268508056 31.36535704464768,45.882080489271175 31.272932875494007,46.07433184861293 31.15530211472651,46.36911614023484 30.894834001577692,46.868964649966074 30.785605438024504,47.04839649238784 30.516735127661377,47.65077112700601 30.407506564079085,47.81738438280081 30.071418676205212,48.52228180078964 29.718526393873617,49.18872310096049 29.550482449907577,49.58602133081149 29.365634111542022,49.893605356763146 29.248003350774525,50.12429240238998 29.20599236479029,50.26526740823101 28.727067124505993,51.1623737782902 28.575827574910363,51.48276585123676 28.399381433759117,51.79034072653667 28.29015287020593,52.059467525192304 28.214533095422667,52.16199172108463 28.14731551782461,52.32859318782721 28.012880362657597,52.57208685609294 27.76081444672309,53.09751739282001 27.609574897156563,53.341008124491054 27.416324361605803,53.725465281211655 27.323900192423025,53.87924749472222 27.23147602326935,54.07147474010708 27.029823290504282,54.58407789426565 26.853377149323933,54.942897650034865 26.811366163368803,55.07104707344115 26.500484867050545,55.673345913241064 26.416462895052973,55.89119728390506 26.122385993105127,56.49348837618891 26.046766218350967,56.698522343584045 25.97954864075291,56.80103907999728 25.77789590798784,56.94199932344782 25.719080527604092,57.05733019993204 25.651862950035138,57.249547863804764 25.551036583667155,57.44176494820567 25.47541680885479,57.723682290506986 25.349383850902086,58.056855724265915 25.214948695735075,58.30032751719773 25.097317934967577,58.56942683829402 24.878860807802994,58.99229490537982 24.500761933915783,59.889278491096775 24.332717989949742,60.17118501197183 24.231891623552656,60.40183487466493 24.013434496417176,60.79906323801697 23.845390552451136,61.080965736542566 23.660542214114685,61.47818986906714 23.593324636516627,61.67039420610308 23.181616973830387,62.400765403028345 23.0807906074333,62.69547421880998 22.988366438250523,62.900488243794825 22.786713705514558,63.2592612014887 22.635474155918928,63.6308453509846 22.383408240013523,64.0024273351737 22.299386268045055,64.22025025017501 22.181755507248454,64.43807242112962 22.047320352110546,64.75839779141461 22.030515957681928,64.73277182097445 22.013711563282413,64.68151984930228 22.038918154867133,64.45088546685292 22.09773353525088,64.27150259263362 22.49263680356671,63.400207168288034 22.652278550347546,63.13112823407573 22.795115902699763,62.75954117240326 22.929551057866774,62.50327297165859 23.08919280464761,62.23419025243493 23.240432354214136,61.913852201272675 23.433682889764896,61.580698920894065 23.69415100288461,61.01689709633138 23.887401538464474,60.68373912943207 24.005032299202867,60.33776555208533 24.383131173148286,59.5561146322907 24.534370722685708,59.2870194754214 24.72762125826557,58.80008249527236 24.82844762460445,58.620683723067486 25.088915737782372,58.23625608290968 25.181339906936046,58.056855724265915 25.366188245272497,57.51865161973183 25.685471738834167,56.865111956591136 25.845113485556794,56.60882006398606 25.870320077170618,56.58319081803347 25.954342049139086,56.557561561839975 26.441669486666797,56.762595323125424 26.95420351572102,57.17266086780728 27.18106284007081,57.36487818401656 27.48354193920386,57.69805349267699 27.752412249537883,57.90308358655966 28.12210892623989,58.274698951230675 28.559023180539953,58.620683723067486 28.90351326565724,58.941038319306244 29.105165998393204,59.09480795381751 29.365634111542022,59.36390392185058 29.609297830291325,59.543300602930685 29.861363746225834,59.786766719957086 30.0630164789618,59.92772036279348 30.415908761293394,60.24806839222947 30.634365888457978,60.47871797685002 31.029269156773807,60.79906323801697 31.70144493257976,61.40130797202073 31.886293270945316,61.60632615811119 32.08794600368128,61.79853010890656 32.23918555324781,61.90103864577759 32.306403130845865,61.96510639761618 32.39882730002864,61.99073348033926 32.50805586358183,62.067614666688314 32.54166465238086,62.13168225116169 32.54166465238086,62.23419025243493 32.31480532803107,62.50327297165859 31.76026031296351,62.990181672495964 31.247726283880183,63.51552636393899 30.970453776360955,63.72053775234235 30.709985663212137,63.976801060944126 30.583952705259435,64.06649297564582 30.407506564079085,64.25868951089797 30.096625267760828,64.54057671470218 30.012603295763256,64.64308084346703 30.02100549300667,64.71995883192358 30.071418676205212,64.84808860669364 30.163842845358886,65.15559901574306 30.20585383134312,65.46310794181045 30.222658225742634,65.80905371105837 30.273071408941178,66.15499760346574 30.281473606126383,66.4368764244573 30.357093380909646,66.80844205738686 30.37389777530916,67.07750547452451 30.441115352907218,67.60281649306853 30.449517550092423,67.87187655837624 30.48312633886235,67.9871876674406 30.508332930476172,68.0 30.59235490244464,67.96156299453287 30.978855973575264,67.71812808863979 31.104888931527967,67.60281649306853 31.34855265027727,67.4875046889756 32.39882730002864,66.88531743527346 32.667697610362666,66.75719175397171 33.692765668500215,66.1293721943075 34.028853556432296,65.97561952317119 34.255712880782085,65.80905371105837 35.42361829133006,65.15559901574306 35.49923806608422,65.12997320495924 35.642075418436434,65.15559901574306 36.1966204335331,65.60404903729432 36.566317110235104,65.93718129742774 36.66714347660309,66.06530862639556 36.80998082898441,66.21906108130497 37.20488409730024,66.5393775049597 37.44854781599133,66.79562948540479" stroke="#4dd2ff" stroke-linecap="round" stroke-linejoin="round" stroke-width="0.5"><title>2023-02-04 10.3km</title></polyline><polyline fill="none" points="84.83101806140621,67.44867472168698 85.30187663825927,67.69228415293401 85.52889773779316,67.85896375429002 85.4784486045537,67.9487141285208 85.43640766022145,67.9871785359719 85.34391758262063,68.0 84.99918183885165,67.85896375429002 84.7385279838345,67.84614226193298 84.30130216249381,67.70510567620659 84.16677114053164,67.62817649803037 83.9901991742372,67.46149629387583 83.63705524159013,67.23070760013434 83.12415572040481,66.82041452803605 82.89713462087093,66.61526700276227 82.70374627682031,66.42294059880442 82.24129588884534,66.02546419375722 81.87974376734928,65.65362918627943 81.57704896794166,65.35872401903544 81.28276235744124,65.11510567894584 80.82031196946627,64.69197687773703 80.4671680368483,64.43553381449965 80.21492237070925,64.19191194980158 78.41556995207793,62.704516180350765 78.18014066366595,62.38395220592065 78.19695704139303,62.29419400448751 78.25581436351058,62.178790417077835 78.25581436351058,62.14032250825039 78.0203850750986,62.05056396411237 77.92789499749779,61.935159936121636 77.75973122008145,61.81975569940914 76.86846319961478,61.05038878727282 76.44805375603028,60.71699357773832 75.95197061254294,60.22972052260957 75.27931550281937,59.639858687627566 74.6066603930667,59.01152160449419 74.32919016026426,58.78070234650295 73.83310701680603,58.33188473233895 73.12681915157009,57.75482887513499 72.90820624088519,57.562475763017574 72.66436876362422,57.306004044774454 72.3616739642166,57.062354957539355 71.78991712091374,56.51093516666515 71.76469255430857,56.48528761857597 71.76469255430857,56.44681627704995 72.01693822047673,55.76715208559108 72.16828562013688,55.43372926914162 72.69800151910749,54.42062617506599 72.77367521895212,54.228263010842056 72.91661442976329,53.97177788975387 73.10159458493581,53.54857518580684 73.34543206225499,53.07407184625845 73.39588119549444,52.92017811340338 73.7490251280833,52.31742408559512 74.34600653799134,51.09907408834624 74.52257850434398,50.79127672355389 74.7075586594874,50.36805292230929 74.84208968144958,50.12437733891784 75.1447844808572,49.47029617105363 75.30454006939544,49.17531619550209 75.52315298008034,48.700780329454574 75.79221502400469,48.22624093380364 75.97719517917722,47.73887247494349 76.34715548955137,47.03346416405839 76.51531926696771,46.66151845955392 76.7423403665307,46.238267261542205 76.86846319961478,46.02022766970185 77.00299422157696,45.71240580080121 77.07025973254349,45.50719039640899 77.32250539871166,44.981322909516166 77.54952649824554,44.59653907526081 77.69246570908581,44.2758841071809 77.87744586425833,43.91674862949003 78.1212833415484,43.42934724740189 78.24740617463249,43.10868641256093 78.6594074293389,42.39040029358512 78.88642852893099,41.90298724970489 79.02095955083496,41.646452572891576 79.15549057279713,41.32578277617722 79.34047072799876,40.94097689236878 79.6263491496502,40.41507176391315 79.70202284946572,40.171358161063836 79.89541119354544,39.77371817860694 80.35786158152041,38.92712157261485 80.52602535896585,38.55512860185627 80.66896456977702,38.2985804615455 80.80349559173919,37.99072133119989 80.89598566934,37.823963681999885 81.08937401339062,37.41348145731172 81.19868046871852,37.2338946534328 81.25753779083607,37.07996270484 81.61908991233213,36.36160869988453 81.82088644526084,35.92546125003355 82.51035793274059,34.61700100770031 82.65329714358086,34.27063939202344 83.02325745392591,33.488111780367035 83.37640138657298,32.8082029466932 83.51934059738414,32.56446027930724 83.77158626355231,32.0 83.6706879970734,32.423345677791076 83.5697897306236,32.71840312497807 83.36799319772399,33.116087089940265 83.2502785534889,33.38548449624068 83.13256390928291,33.5907388993146 82.93917556520319,34.05255889134787 82.70374627682031,34.47589094685827 82.62807257694658,34.578516476591176 82.25811226657243,35.32254662954438 82.14880581124453,35.50213881456875 81.94700927831582,35.91263333873576 81.8629273895931,36.156363212623546 81.68635542329866,36.52837017200727 81.56023259018548,36.82340863171703 81.33321149065159,37.24672229903081 81.2154968464456,37.528929849970154 81.02210850239499,37.926583825417765 80.91280204703799,38.195960916513286 80.62692362541566,38.709056990792305 80.53443354781484,38.83733036449121 80.3662697703694,39.14518540908466 80.07198315986898,39.79937244582834 79.92904394905781,40.04308746978859 79.71043103837292,40.53051472448351 79.58430820525973,40.85118851882726 78.81916301793535,42.28778733069339 78.61736648500664,42.74954436399639 78.31467168559902,43.3395623761171 77.99516050846432,44.04501153216188 77.8017721644137,44.416972491704655 77.75973122008145,44.532408210587164 77.30568902095547,45.391756441342295 77.24683169883792,45.54566833500576 77.12911705463193,45.78936140728547 77.07866792139248,45.956098236169055 76.86846319961478,46.31522223366483 76.7423403665307,46.58456390516221 76.66666666668607,46.77695011717515 76.5321356447239,47.04628983931252 76.43964556715218,47.20019774145476 76.3135227340681,47.5080124317974 76.18739990098402,47.73887247494349 76.06968525677803,47.918429708723124 76.00241974578239,48.072335506902164 75.76699045739952,48.495574537460925 75.61564305768115,48.816208297368576 75.4558874691138,49.20096668227416 75.09433534761774,49.90635102806118 74.79164054821013,50.534777785200276 74.73278322612168,50.6117275750039 74.55621125982725,50.97082536684684 74.41327204898698,51.34274594907765 74.25351646041963,51.650540653445205 74.1778427605459,51.76596328474625 73.95082166101201,52.26612560748981 73.63131048387731,52.84323110777041 73.4295139509486,53.3177361641101 73.227717418049,53.65117003848718 72.94183899639756,54.2667356900929 72.84934891876765,54.446274553112744 72.54665411941824,55.15160090972131 72.40371490854886,55.38243329659599 71.8403662541532,56.5750539918663 71.5124468881404,57.20341506879413 71.4115486216615,57.357298470902606 71.10885382228298,58.03694572405584 70.6632198120642,58.92175865894387 70.35211682380759,59.58856609644499 70.1250957242737,59.99890567138209 69.83080911371508,60.704170650293236 69.54493069209275,61.14014873835549 69.39358329240349,61.486364509768464 69.07407211523969,62.10185457624175 68.83864282682771,62.66604858845312 67.93896661751205,64.47400033970553 67.82125197330606,64.65351048397133 67.80443559554988,64.57657762682356 67.84647653994034,64.38424507817035 67.93055842866306,64.16626748890849 68.05668126171804,63.88417773862966 68.3089269278862,63.384106480116316 68.48549889418064,62.986611145672214 68.77137731586117,62.42241996787561 68.92272471555043,62.07620927532844 69.20860313720186,61.61459209655368 69.41880785900867,61.1016802033555 69.86444186919834,60.178428405597515 70.18395304636215,59.5629197854214 70.28485131281195,59.31927931630344 70.41938233477413,59.10128442376299 70.58754611221957,58.67811574161169 70.84819996723672,58.229297405781836 70.9743228003208,57.88306396109692 71.15089476664434,57.60094643184493 71.23497665536706,57.357298470902606 71.47881413265713,56.83152864827207 71.68901885443483,56.523758936869854 71.7310597988253,56.48528761857597 71.78150893203565,56.49811139390658 72.22714294225443,56.780233799454436 72.48779679727159,56.98541294720053 72.91661442976329,57.39576926341033 73.09318639608682,57.524005071009015 73.58926953954506,57.960004888955154 74.295557404781,58.639645722225396 74.47212937110453,58.76787902991782 74.64029314854997,58.947405227700074 74.98502889228985,59.22951680369806 75.11955991425202,59.38339531941892 75.63245943543734,59.78091310076343 75.87629691272741,60.03737487122271 76.41442100054701,60.46053453886634 76.77597312204307,60.83239980896906 77.07866792139248,61.05038878727282 77.31409720983356,61.294022646448866 77.47385279840091,61.409427834008966 77.60838382036309,61.550478335353546 78.07083420833806,61.94798261622782 78.1296915304265,61.98645064100492 78.20536523027113,61.98645064100492 78.32307987450622,62.178790417077835 78.32307987450622,62.21725830275318 78.19695704139303,62.371129613457015 77.9110786197416,62.65322605261463 77.67564933135873,62.85838631603474 77.26364807659411,63.255882449208 76.86846319961478,63.589264393587655 76.56576840020716,63.897000027052854 76.28829816743382,64.10215629151935 75.85107234612224,64.5252890038646 75.76699045739952,64.64068834753925 75.7753986462485,64.69197687773703 75.82584777948796,64.78173170639275 75.93515423481585,65.14074975854237 76.01082793468959,65.56387558400456 76.06127706789994,66.12803898690618 76.06127706789994,66.46140592599477 76.1033180122613,66.5768017683331 76.14535895662266,66.8075928270373 76.2042162787111,67.62817649803037 76.23784903422347,67.83332076703664 76.25466541195055,67.91024969788486 76.30511454519001,67.9743570694045 76.33874730067328,67.9871785359719 76.39760462279082,67.96153560026869 76.67507485556416,67.73074871498466 77.18797437674948,67.44867472168698 77.50748555391328,67.21788598156854 77.75973122008145,67.11531294024462 78.08765058606514,66.89734468000461 78.67622380709508,66.60244526051974 79.13026600619196,66.26907905825647 79.35728710572585,66.14086082444555 79.55908363865456,66.05110790747858 79.97108489339007,65.78184839913956 80.37467795924749,65.55105363053008 80.51761717005866,65.4612998839475 80.71100551413838,65.37154601115253 81.3248033018026,65.1279277200556 81.40888519052533,65.14074975854237 81.57704896794166,65.25614798922106 81.91337652283255,65.55105363053008 82.54399068822386,66.17932632163502 83.40162595320726,66.96145306914696 83.72113713031285,67.21788598156854 84.05746468520374,67.44867472168698 84.2004038960149,67.58971187415955 84.30130216249381,67.64099803415957 84.66285428401898,67.78203476160706 85.01599821660784,67.83332076703664 85.20097837180947,67.93589265420087 85.32710120486445,67.9871785359719 85.44481584907044,67.9871785359719 85.4868567934609,67.9487141285208 85.4784486045537,67.91024969788486 85.45322403797763,67.88460673124064 85.29346844938118,67.8204992695537 85.20097837180947,67.75639174343087" stroke="#4dd2ff" stroke-linecap="round" stroke-linejoin="round" stroke-width="0.5"><title>2022-12-09 10.3km</title></polyline><polyline fill="none" points="131.54264943496673,67.43565204002152 131.76134023274062,67.62804395056446 132.10619879851583,67.79478313728396 132.1987218283466,67.85891347774304 132.1987218283466,67.89739165112405 132.13143235212192,67.96152188850101 132.0052645841497,68.0 131.6604060184036,67.87173953812453 131.40807048248826,67.84608741482589 130.9454553333053,67.70500055238153 130.8108763808268,67.62804395056446 130.4660178150807,67.35869511348938 130.22209346370073,67.20478098205422 129.47349804049009,66.57629442714097 129.1706953974208,66.2428092525879 128.17817562280106,65.28082302626353 126.98378741950728,64.30599552818603 125.90715579965035,63.369634045506245 125.49500775762135,62.98482397447515 125.30155051342444,62.85655343530016 125.0744485311152,62.67697424739163 124.90622484049527,62.51022169192947 124.84734654880594,62.40760451820097 124.83893536427058,62.35629586950017 124.8557577333413,62.30498717957016 124.93145839410136,62.16388806948089 124.89781365598901,62.18954247632428 124.68753404272138,62.061270339007024 124.41837613776443,61.804725291043724 123.93893861953984,61.40707842899428 123.60249123829999,61.08639367131036 122.74455041621695,60.38088153318313 122.42492540404783,60.060191619857505 121.70997471897863,59.43163471585285 121.37352733776788,59.17507909869164 120.88567863500793,58.700448488445545 120.4819417775434,58.39257809735136 120.12026084275567,58.05905016459292 119.83428056869889,57.828145190196665 119.28755357424961,57.34067638995475 118.77447131788358,56.827547315042466 118.45484630571445,56.570981230644975 118.42961275216658,56.51966788999562 118.42120156760211,56.46835450809522 118.54736933557433,56.134816520228924 118.9006390858267,55.37793539029735 119.03521803833428,55.14702071635111 119.19503054441884,54.76216106990978 119.58194503278355,54.030921348312404 119.67446806264343,53.800001800955215 119.96885952117736,53.26118627473625 120.15390558086801,52.85065710638446 120.58287599190953,52.04242008929941 120.81838915875414,51.5164190722935 121.13801417092327,50.91343696359036 121.23053720075404,50.70816515873594 121.38193852227414,50.413085782587586 121.75203064162633,49.63047735148575 121.9118431477109,49.361052556290815 122.09688920740155,48.9889878739632 122.19782342173858,48.71956037068958 122.57632672562613,48.01391151916323 122.69408330903389,47.718819685873314 123.18193201179383,46.7437239246683 123.795948482526,45.42218878581116 123.93893861953984,45.165576848197816 124.23333007807378,44.56253473326433 124.5529550902429,43.985148645107984 124.6623004891444,43.754192747117486 124.83893536427058,43.317940437184006 125.15014919190435,42.753374197342055 125.44454065043828,42.12464682488644 125.57911960294587,41.90651547280868 126.12584659742424,40.73885849852741 126.34453739519813,40.341080364723894 126.42023805598728,40.14860618406601 126.71462951452122,39.59684364862187 127.10154400294414,38.775606854345824 127.42958019961952,38.198168405215256 128.35481049798545,36.20917375104182 128.55667892668862,35.901194842339464 128.69966906370246,35.54188423679443 128.85107038525166,35.31089777913803 128.94359341508243,35.11840842573656 129.666955284687,33.56563974042729 129.93611318967305,33.06515252524332 130.0791033266869,32.834157101962774 130.21368227919447,32.51332873783031 130.36508360071457,32.2566648851207 130.4912513686577,32.0 130.4660178150807,32.128332571588544 130.37349478524993,32.3336641493479 130.36508360071457,32.3978301318748 130.26414938634844,32.692992820451764 130.0118138504331,33.167816889403184 129.5576098857855,34.143120110893506 129.2968631653639,34.579435147006734 129.1706953974208,34.87458774448896 128.7333138018148,35.70870726951398 128.64079077201313,35.91402732652932 128.54826774215326,36.18350889874637 128.41368878967478,36.42732457874445 127.9342512714502,37.42824234500222 127.89219534877338,37.556564000089566 127.69873810457648,37.87736700903406 127.08472163390252,39.083571890700114 126.84079728249344,39.64817059736379 126.58005056207185,40.05878470103562 126.42023805598728,40.48222772825466 126.27724791897344,40.79018452873788 126.18472488914267,41.021151153861865 126.0501459366642,41.25211694302925 125.9828564603813,41.43175642333881 125.65482026373502,42.047659373994975 125.23426103719976,42.95867158972396 124.94828076317208,43.52323601331955 124.86416891787667,43.72853092910009 124.69594522725674,44.02364121348728 124.45202087587677,44.536873240289424 124.25856363167986,44.80631840208662 124.0566952029476,45.26822174710469 123.93052743500448,45.48634160901929 123.81277085153852,45.794274262600084 123.66136953001842,46.0893749947536 123.59408005379373,46.25617045713443 123.37538925599074,46.66674204582159 123.06417542835698,47.35957561241594 122.87071818416007,47.693159461974574 122.70249449356925,48.065231698761636 122.49221488030162,48.46296169104971 122.31558000514633,48.873519083255815 122.18100105269696,49.11728628530909 122.08847802283708,49.39954188237243 121.96231025489396,49.61764762513121 121.87819840959855,49.822922937404655 121.6931523499079,50.1180050421608 121.3903497068386,50.733824170449225 121.11278061734629,51.23417283701565 120.98661284937407,51.413784222073446 120.61652073002188,52.260516800630285 120.3305404559942,52.74802440168787 120.0697937355726,53.363818154244655 119.615589770925,54.30032643096274 119.03521803833428,55.403592524726264 118.78288250241894,56.03218909641146 118.60624762729276,56.36572762056676 118.48007985932054,56.68643609624269 118.31185616870061,56.943001716572326 118.12681010906817,57.32784821332825 117.9249416803359,57.610067502933816 117.69783969802666,58.25147033852045 117.29410284053301,58.98266170911302 117.0165337510116,59.58556759118801 116.77260939966072,60.060191619857505 116.46139557205606,60.714397333973466 116.15859292895766,61.18901296907279 115.9314909466193,61.7277615755811 115.75485607149312,62.07409756433117 115.5193429046194,62.58718446394778 115.42681987478863,62.753936818335205 115.27541855326854,63.11309425593572 114.80439221955021,64.11359360499773 114.46794483833946,64.71645102605544 114.5015895764518,64.63949082122781 114.57729023724096,64.3444758432488 114.69504682064871,64.02380584238199 114.80439221955021,63.79292244430326 115.10719486264861,63.22853728881091 115.38476395217003,62.56153021695718 115.72121133335168,61.907343433940696 115.86420147039462,61.59948851029549 115.94831331569003,61.458387840724754 116.20064885157626,60.98377420856923 116.3436389886192,60.76570730250023 116.4529843874916,60.50915704742147 116.5623297863931,60.20129538020774 116.75578703059,59.84212155843488 117.39503705489915,58.4952017260257 117.5800831145607,58.174502338548336 118.05110944827902,57.13542525502271 118.32867853777134,56.63512284841272 118.41279038306675,56.50683954839769 118.45484630571445,56.46835450809522 118.49690222839126,56.46835450809522 119.0940963300236,56.91734520093087 119.43054371126345,57.238050904968986 119.70811280075577,57.456129863312526 120.03614899743116,57.80248903035681 120.36418519410654,58.03339409756518 120.75109968252946,58.41823401999136 121.03707995655714,58.649136859716236 121.55016221289407,59.136595667187066 121.8024977488094,59.34184036714214 122.1053003919078,59.63687846713583 122.60997146373847,60.03453635714686 123.09782016649842,60.49632950760861 123.22398793447064,60.58612223221644 123.56884650018765,60.86832711579336 123.87164914328605,61.18901296907279 124.28379718525684,61.5738338662959 124.50248798305984,61.76624344490119 124.74641233443981,61.94582519502728 124.88940247145365,61.99713417369276 124.98192550128442,62.08692478710145 125.02398142393213,62.176715274214075 125.01557023939677,62.22802406728806 124.79687944159377,62.471740271157614 124.18286297091981,62.95916988726094 123.86323795875069,63.30549919476471 123.52679057753994,63.62617280412451 122.95483002948458,64.11359360499773 122.50062606483698,64.54970379834049 122.45857014216017,64.61383739899975 122.45857014216017,64.66514423318586 122.52585961844306,64.83189115930509 122.60156027917401,65.11407727281767 122.69408330903389,65.84519003673267 122.74455041621695,66.4223784092319 122.80342870793538,66.65325229693917 122.820251076977,66.80716775820474 122.84548463058309,67.12782377715848 122.87071818416007,67.28173809413784 122.89595173776615,67.80760921055116 122.91277410683688,67.88456559592669 122.94641884494922,67.9486958461639 123.00529713666765,67.9486958461639 123.1230537200754,67.89739165112405 123.30809977976605,67.76913098304794 123.85482677421533,67.47413046853399 124.31744192336919,67.17912859070202 125.2258498526935,66.67890489955607 125.46977420404437,66.51216279810978 125.82304395432584,66.33259389403611 126.3529485797626,65.97345457053598 126.66416240736726,65.80671062635156 127.73238284274703,65.21669009569814 127.9342512714502,65.126903884684 128.00995193221024,65.10125065836473 128.11088614657638,65.13973049401102 128.4978006349993,65.4347417967183 128.7753697244916,65.69127225603006 129.103405921167,66.03758674081473 129.89405726702535,66.78151520706524 130.3987283388269,67.19195478766414 130.70153098192532,67.3843474326386 130.97910007144674,67.58956561482773 131.4164816669945,67.76913098304794 131.71087312558666,67.80760921055116 132.0052645841497,67.96152188850101 132.10619879851583,67.97434792826607 132.1566659056698,67.93586980127293 132.17348827474052,67.91021770373845 132.17348827474052,67.87173953812453 132.13984353662818,67.83326134931485 131.87068563164212,67.70500055238153" stroke="#4dd2ff" stroke-linecap="round" stroke-linejoin="round" stroke-width="0.5"><title>2022-12-07 10.4km</title></polyline><polyline fill="none" points="178.10655118362047,67.41104948651628 178.7866450685251,67.88477098002477 178.69428663968574,68.0 178.039381417213,67.80795151759958 176.6456087642,66.88611074519213 171.68344227061607,62.62242368960142 171.5071216337965,62.40475032970062 171.6162725042377,62.148663071937335 165.17637114963145,56.42484427390809 177.1325895706832,32.0 176.9310802714317,32.8198634998771 172.61542277957778,41.65834674726648 161.3980717890663,64.38939168124853 161.20495871064486,64.69668546068715 161.17977004824206,64.51743093612458 164.66420168077457,57.244393494813266 165.16797492885962,56.52728850301719 171.62466872500954,62.08464109668057 171.47353675062186,62.443163329615345 169.14778358864714,64.54303875619007 169.61797195352847,67.94878712794525 174.6053271094861,65.13201577810833 177.57758927313262,67.56468927570677 178.7614564061223,67.96159034983066 178.82022995172883,67.8591645028464 178.03098519641208,67.41104948651628" stroke="#4dd2ff" stroke-linecap="round" stroke-linejoin="round" stroke-width="0.5"><title>2022-11-10 10.4km</title></polyline><polyline fill="none" points="38.17663056959282,107.50049499512534 38.873764968448086,107.89753775398276 38.77297445293516,108.0 37.64748036322999,107.67980493438881 36.24481235595886,106.65516991613913 31.675642320129555,102.60770056788533 31.499258918018313,102.36433187789225 31.60844864315004,102.12096225877394 30.860918986523757,101.64702928105544 25.12425881292438,96.49758437506534 25.57781613265979,95.26780464785406 37.10993094724836,72.0 36.379199709917884,73.90940746664637 26.37574104696978,93.97394827807511 21.126235031551914,104.73393486341956 21.638586818706244,103.2865662130207 25.141057232161984,96.49758437506534 31.667243110510753,102.14658015714667 29.172677851980552,104.55461663724782 29.61783596209716,107.94876889757143 34.64056331763277,105.10537815571661 37.630681943992386,107.57734217372854 38.80657129146857,107.9231533309212 38.126235311850905,107.53891859601936 37.991847957862774,107.16748948402164" stroke="#4dd2ff" stroke-linecap="round" stroke-linejoin="round" stroke-width="0.5"><title>2022-11-08 10.4km</title></polyline><polyline fill="none" points="84.70336990212672,107.32094282599064 85.5015787963639,107.83343947571848 85.36714361418854,108.0 84.31686875331798,107.71812808864706 83.5186598590517,107.15438052795434 78.35130754351849,102.6314072003297 78.17486136688967,102.40076540255905 78.29249215131858,102.13168225069967 76.53643258393276,100.82469078881695 71.80599461053498,96.49348837543585 72.07486497491482,95.63490147564153 83.80433462120709,72.0 83.5774752512516,72.79480826416693 73.52844538236968,93.00781004587407 67.83175453697913,104.69433284577462 83.72871483120252,72.16665416687465 83.39262687572045,73.11529266359867 80.35943307750858,79.14009949407773 71.91522319609066,96.46785908314996 78.33450314577203,102.14449575985782 75.78863688296406,104.6430808431578 76.28436661732849,107.92312596593547 81.32568594953045,105.1043473836362 84.27485775886453,107.59000408065913 85.46797000084189,107.94875065423912 84.61934791324893,107.35938021758557" stroke="#4dd2ff" stroke-linecap="round" stroke-linejoin="round" stroke-width="0.5"><title>2022-11-04 15.1km</title></polyline><polyline fill="none" points="131.48736354333232,107.34726507130472 132.19239549149643,107.8976106495902 132.02453074190998,108.0 131.41182440600824,107.84641591268519 129.94300784735242,106.92490361202726 124.88188564803568,102.4707395468904 124.94903154784697,102.1123449912302 122.27998202980962,99.94913503264979 118.47784545220202,96.46736471810436 130.49696152086835,72.0 124.29435902455589,84.93264082741007 114.47427117516054,104.68506118947334 118.07497005327605,97.04340603498713 118.4862386896857,96.5057676346405 124.99099773526541,102.13794466919353 122.47302649178891,104.58266651042868 122.92626131561701,107.93600667531064 128.00416998990113,105.0818390160166 130.93340986975818,107.59044161084603 132.10006987920497,107.8976106495902 131.41182440600824,107.44965530637637" stroke="#4dd2ff" stroke-linecap="round" stroke-linejoin="round" stroke-width="0.5"><title>2022-11-01 10.4km</title></polyline><polyline fill="none" points="178.15495344166993,107.40936809679988 178.87908973076264,107.8844420137284 178.66858499555383,108.0 177.61606131956796,107.70468473076107 176.7066808634845,107.08837020758801 171.70508835514192,102.6712755023982 171.47774324112106,102.40161739034738 171.61246627161745,102.13195814042774 168.6822403576516,99.76918080546966 165.08681948040612,96.4560089155566 177.11084995506098,72.0 176.76562218935578,73.04059863782459 172.22714009840274,82.071255144514 170.69466562615708,85.34664009771586 161.12091026923736,104.75145697557673 161.55876011843793,103.44172098064519 165.10365985924727,96.4688509987318 171.6293066504586,102.11911719539057 169.10324982801103,104.58453133162038 169.60004100311198,107.94864092077114 174.62689407970174,105.09814730435755 177.60764113016194,107.60196605633246 178.77804745786125,107.93580114452197 178.02865060055046,107.48640735029039" stroke="#4dd2ff" stroke-linecap="round" stroke-linejoin="round" stroke-width="0.5"><title>2022-10-28 10.4km</title></polyline><polyline fill="none" points="38.41238789324416,147.89742821587788 37.51271222651121,147.69228415303587 36.48691380271339,146.89734468033203 31.64379993316834,142.61475843118023 31.57653446274344,142.16596778486928 25.102232935721986,136.56223023431812 37.13434395540389,112.0 36.23466828870005,114.20649814632634 24.5977419076371,137.66506416385528 21.284917489887448,144.6022219237675 21.192427468078677,144.7560874833689 21.209243835677626,144.37142288864925 21.612836658139713,143.33281689989235 24.690231929445872,137.06235495981673 25.102232935721986,136.6135252583772 26.388685057288967,137.45988720164678 31.65220811695326,142.14032250973833 29.146569344156887,144.65351048485172 29.625835820828797,147.96153560025778 34.620296998822596,145.15357179525745 37.52952859411016,147.56406877883637 38.673041591071524,148.0 38.80757253192132,147.88460673125155 38.479653363639954,147.7435702305811" stroke="#4dd2ff" stroke-linecap="round" stroke-linejoin="round" stroke-width="0.5"><title>2022-10-23 10.2km</title></polyline><polyline fill="none" points="85.09286157353199,147.9100573902906 84.19968491338659,147.74302077945322 82.9357556773466,146.72794276258355 78.3182008684089,142.65461955150386 78.19180794479325,142.46186912154735 78.30134847859154,142.19201754360984 77.47558137771557,141.66516118071013 71.78789981556474,136.57627627018155 83.80365375278052,112.0 82.95260806719307,114.15980040503564 74.1388081946061,131.84684841219496 67.81916201446438,144.8005350969106 68.78817442874424,142.3590686547359 71.37501626517042,137.0774723089853 71.78789981556474,136.57627627018155 72.79061700950842,137.28309006024938 78.30134847859154,142.19201754360984 78.16652936008177,142.50041925402547 75.81562098106951,144.68488878957578 76.2453569213103,148.0 81.32635245015263,145.1603222710619 84.25024208283867,147.65307780830335 85.51417131884955,147.94860423853243 84.78109236198361,147.62737979330996 84.55358509946382,147.13911554633523" stroke="#4dd2ff" stroke-linecap="round" stroke-linejoin="round" stroke-width="0.5"><title>2022-10-21 10.3km</title></polyline><polyline fill="none" points="131.4624607565347,147.3978175860102 132.18504986079643,147.8590642000563 132.16824546304997,148.0 131.0255464143993,147.73094047527047 129.84083637132426,146.85969231953277 125.07678960240446,142.66984741884517 124.86673463022453,142.41357885760954 124.95915881797555,142.14449575985782 122.95103328398545,140.5684148116161 118.47266127722105,136.5063030177298 119.27087017145823,134.55844783362045 130.47100128786406,112.03845869259021 129.67279239359777,114.06391704233101 128.7065395215759,115.83293560488164 121.816736434208,129.99613303473961 114.48161680586054,144.7455848072168 114.72528057356249,143.87429586071084 118.35503049276303,136.64726391276417 130.47940348673728,112.0 130.13491333238198,113.08965397097563 118.59869426049409,136.45504443312893 124.98436541465344,142.11886873893673 124.80791923799552,142.46483265228744 122.48891234517214,144.61745482640254 122.95103328398545,147.93593831137332 128.00915701396298,145.1043473836362 130.93312222664827,147.59000408065913 132.1514410652453,147.94875065423912 131.3700365687837,147.37219267631735" stroke="#4dd2ff" stroke-linecap="round" stroke-linejoin="round" stroke-width="0.5"><title>2022-10-16 15.1km</title></polyline><polyline fill="none" points="178.11968431103742,147.51243506691026 178.82647548420937,148.0 177.9850574209413,147.8845244311924 176.55464671328082,146.94788154628623 171.66600776539417,142.66224434263495 171.4893099720939,142.43127369018475 171.61552268158994,142.1874704285401 167.25697711360408,138.56880731203637 165.10294687151327,136.54123975172115 165.80132386408513,134.74460709839695 177.05949755126494,112.0 176.29380711365957,114.04118454672061 163.48742418995243,139.83921240465133 161.17352451579063,144.74094261984283 161.45119247669936,143.6759389929066 161.54374846367864,143.54762410393232 161.54374846367864,143.81708507294024 164.69065202047932,137.0032228342934 165.0777043295966,136.6054042686519 166.44080159216537,137.5293661626929 171.6407652235066,142.1874704285401 169.0996826722985,144.62546115747682 169.58770514899516,147.9615081669217 174.6277993482945,145.11304813363677 177.55593420861987,147.61508062532448 178.70867695537163,147.9871693915411 178.8012329423509,147.91018568677828 178.5740500652173,147.76904865362667" stroke="#4dd2ff" stroke-linecap="round" stroke-linejoin="round" stroke-width="0.5"><title>2022-10-14 10.3km</title></polyline><polyline fill="none" points="38.12548604555195,187.31948885019665 38.87488320414559,187.84592263847298 38.68963896270725,188.0 37.670795634709066,187.666165247123 36.593010957178194,186.87009072175715 31.59141643793555,182.47866268040525 31.65035778749734,182.10627624676272 29.435847082873806,180.3598833288197 25.15838914384949,176.44316682825956 25.562558397941757,175.21031457903882 37.12348310314701,152.0 34.496382951620035,157.67812225066154 21.12511679585441,184.64873355335658 21.605067785072606,183.338995452792 24.796320853754878,176.8412702861715 25.15838914384949,176.5073772311698 31.658777980308514,182.04207146986664 31.40617219649721,182.49150355321763 29.149560527905123,184.55885042399314 29.595830745936837,187.96148069444826 34.70688777149189,185.0981473037973 37.59501389958314,187.550606657147 38.70647934827139,187.87160222452803 38.85804281858145,187.78172362819896" stroke="#4dd2ff" stroke-linecap="round" stroke-linejoin="round" stroke-width="0.5"><title>2022-10-10 10.3km</title></polyline><polyline fill="none" points="84.91803703224286,187.4613043283207 85.51523101385101,188.0 84.69934627841576,187.83326134929666 83.29467874421971,186.9739090891453 78.29002495470922,182.61283870113766 78.1554460292682,182.4076045187103 78.29843613752746,182.15106086270316 76.29657462172327,180.61177727374888 71.77135825407458,176.49401120498078 83.8161720802891,152.0 83.00028734485386,154.0276244550878 78.14703484644997,163.61305262101087 75.11900902417256,170.0153679439718 67.81810231946292,184.729277718121 67.90221414787811,184.19055444420155 68.65922060344019,182.57435734221144 71.2750984665181,177.32784821409587 71.82182535110041,176.59663788626494 78.31525850322214,182.16388806996838 75.78349246853031,184.61383739934536 76.2376963418501,187.96152188848282 81.29281722841552,185.1269038849532 84.24514240509598,187.6023917293387 85.46476391682518,187.96152188848282 84.5984120843641,187.29456427053083" stroke="#4dd2ff" stroke-linecap="round" stroke-linejoin="round" stroke-width="0.5"><title>2022-10-08 10.4km</title></polyline><polyline fill="none" points="131.6225656858296,187.46130432793143 132.18611572906957,187.78195706130282 132.1356485610304,188.0 131.01695966918487,187.62804395030253 129.36836551284068,186.396725702587 128.44313409854658,185.39626213740848 124.9356659189798,182.4845674112039 124.98613308698987,182.08692478412195 123.985200920637,181.3942510663801 118.47586840830627,176.40421271802552 130.43658723661792,152.0 129.69640210515354,153.86079702610732 128.03098555945326,157.08177258454816 125.89454211195698,161.6242267297239 119.64502446819097,174.0694078531742 114.48055093755829,184.66514423136687 115.1534465115692,182.92068873447352 117.9291407544224,177.22522270322588 118.44222362959408,176.4940111995311 119.00577367286314,176.7634058860276 124.97772189232637,182.04844310815315 122.45436348975636,184.5368770685891 122.93380158624495,187.9102177036766 127.96369600205799,185.04994417309354 130.90761413841392,187.52543500345564 132.1104149769817,187.8845655958212 132.1272373663669,187.75630490193726 131.29452909348765,187.2817380937231" stroke="#4dd2ff" stroke-linecap="round" stroke-linejoin="round" stroke-width="0.5"><title>2022-10-03 10.3km</title></polyline><polyline fill="none" points="178.3918399521208,187.56250977200398 178.83062896921183,187.96139804128325 178.16400719323428,187.8584593709602 176.91514614451444,187.16361901817436 175.05029282186297,185.38788164236757 171.82688119623344,182.7370516259325 171.5652954360121,182.41534148750725 171.71718394194613,182.13223522868793 170.67927915148903,181.43733274157057 165.2028546880174,176.48271682517225 165.79353221104247,174.8868628018863 177.19360840538866,152.0 176.87295489289681,153.01708156416498 175.6072173435532,155.43741321499328 173.02511274293647,160.8828248828613 166.32514198176796,174.2176218583736 161.1609327804763,184.7830902808164 177.10078765178332,152.19311799555362 176.73794288761565,153.26169370700882 175.79285885079298,154.96107858006144 165.27036069065798,176.49558645402794 171.72562219225802,182.15797221305547 169.17727059294702,184.64154254158348 169.62449786037905,187.987132683018 174.72963930934202,185.13052431429605 177.65771217350266,187.62684675770288 178.8390672195237,188.0 178.17244544354617,187.60111197118385" stroke="#4dd2ff" stroke-linecap="round" stroke-linejoin="round" stroke-width="0.5"><title>2022-09-30 15.0km</title></polyline><polyline fill="none" points="33.424011182331014,224.92667292270926 33.56408436706988,225.21146671102542 32.762554476677906,225.09280279945233 31.50189581408631,224.26214874259313 26.88726256156224,220.20364236149544 26.972862841095775,219.883222083914 26.054605296754744,219.25424389065302 20.918588523258222,214.6257077583541 32.01549749143305,192.0 31.66531452961499,193.04481963355647 21.035316177207278,214.6019707406158 26.863917030772427,219.7052100674082 26.94173546670936,220.15617280045626 29.797672066517407,222.5296041130823 31.750914809148526,224.38081432313265 32.49797179439338,224.91480648504148 34.13215894959285,225.44879381890132 37.416096947185,227.20498477755245 39.08141147677088,227.79828073284443 39.08141147677088,228.0 39.03472041519126,227.79828073284443 36.93362264422467,227.02699482876415 34.443432693427894,225.6742536880156 32.529099168779794,225.0453371680851 29.85214497166453,222.69574073282274 32.45128073281376,224.87920715780274 33.6029935850529,225.1877339477869 32.91040950501338,224.84360780909628 32.77811816387111,224.59441176725886 32.863718443433754,224.28588187775313 32.93375503580319,224.38081432313265" stroke="#4dd2ff" stroke-linecap="round" stroke-linejoin="round" stroke-width="0.5"><title>2022-09-23 10.1km</title></polyline><polyline fill="none" points="84.78215041290969,227.33280494239807 85.52259890400455,227.8845244311742 85.38797190561309,228.0 84.6980085389223,227.83320188910875 83.23393993152422,226.89655825106456 78.41261055192444,222.66224434081596 78.20225586695597,222.44410541322577 78.29481192832463,222.13614330554265 71.82430181858945,216.46424224324073 72.2870821255201,215.09110447020066 83.7640337376215,192.0 71.44566338564618,217.13155087212726 68.29875729844207,223.81708507150688 67.81914861669065,224.75377387939807 67.81073442930938,224.52281079208115 71.4372491982358,216.97755719219276 71.84954438079149,216.54123974864706 78.29481192832463,222.11047972956294 77.6637478734192,222.88038252321348 75.79579827087582,224.52281079208115 76.2501643903961,227.91018568673826 81.298676829756,225.10021694404713 84.24364241934381,227.55092717050138 85.43004284260678,227.92301631064402 84.815807162493,227.57658856008857 84.63069503972656,227.25582044869952" stroke="#4dd2ff" stroke-linecap="round" stroke-linejoin="round" stroke-width="0.5"><title>2022-09-19 10.4km</title></polyline><polyline fill="none" points="131.43462656860356,227.23070760001792 132.1240983332973,227.80767776948414 132.09887375653489,228.0 130.9637678024592,227.61535495928183 130.15658134620753,227.03838305091267 125.20415610951022,222.71733870494427 124.90146118841949,222.39677479490274 124.97713491870672,222.1018545752995 123.22823093016632,220.7298165015236 118.51964326875168,216.4339924898486 119.05776757295826,214.98488810929848 130.47609265180654,192.0 129.72776354133384,193.96276082102122 128.77763781679096,195.69455845104312 124.68284818984102,204.22457916113126 114.50893556434312,224.69197687714768 130.29952061449876,192.47466011438883 130.03045846242458,193.29568548700627 118.61213338354719,216.4083449107966 125.02758407217334,222.1274998658664 122.53035097321845,224.61504406640597 122.96757697031717,227.88460673125883 128.0377168985724,225.10228363481292 130.95535961020505,227.56406877866175 132.15773110228474,227.92307117735982 131.30009549253737,227.24352921600075" stroke="#4dd2ff" stroke-linecap="round" stroke-linejoin="round" stroke-width="0.5"><title>2022-09-17 15.0km</title></polyline><polyline fill="none" points="178.16628786170622,227.25502345804125 178.8654130731593,227.85871201261398 178.73906514336704,228.0 177.64404975189245,227.69173489765308 176.68380548554705,226.97244387797036 171.7141202474013,222.5923006460289 171.5372331457038,222.37392787973658 171.61304190359078,222.14270884342113 165.15245109397802,216.46473451102793 165.97792423522333,214.43492899861667 177.1218116421369,192.0 176.78488382938667,193.06667265641954 161.53890030217008,223.99243771623878 161.13458692686982,224.77598728037628 161.37043639580952,223.85114087105467 164.92502482037526,216.6445875868667 165.1271815080254,216.52896781048912 171.62988829420647,222.11701778779752 171.36876923934324,222.5537643297248 169.1450456751336,224.58331204854767 169.60832141770516,227.96146694351046 174.62012263241922,225.03288668614186 177.55139460341888,227.64035723608322 178.747488338704,227.974311298276 178.82329709656187,227.85871201261398 178.04836312722182,227.49906845383885" stroke="#4dd2ff" stroke-linecap="round" stroke-linejoin="round" stroke-width="0.5"><title>2022-09-11 10.4km</title></polyline><polyline fill="none" points="37.997401920874836,267.2446059635113 38.8202317248215,267.8591645028682 38.68589216496912,268.0 37.544005906471284,267.6415090313567 36.46089320536703,266.79648662531326 31.591084161686013,262.5199892595301 31.64146149661974,262.1230542891062 29.93702833133284,260.84260204665406 25.15957773505943,256.48887193566406 25.713728419301333,254.964996110004 37.12419478202355,232.0 36.35174231301062,233.98558874391165 35.45334650669247,235.6508735139505 32.64061197286355,241.5430700757679 30.50797146061086,245.74412957644745 21.179768275207607,264.74790094624404 21.41486250492744,263.851624000883 25.134389067592565,256.54009401932126 25.814483089197893,256.9754800679766 31.658253941626754,262.13585868156224 29.16457586234901,264.59425436521997 29.634764321730472,267.92318067649103 34.63051670274581,265.0808006007719 37.5775907964271,267.5646892756704 38.79504305732553,267.8719677427325 37.91343969598529,267.2830160458507" stroke="#4dd2ff" stroke-linecap="round" stroke-linejoin="round" stroke-width="0.5"><title>2022-09-09 10.4km</title></polyline><polyline fill="none" points="84.90629793380504,267.3980319460279 85.47744464752031,267.76945971481837 85.35145640184055,268.0 84.32675200368976,267.6669970982002 83.5540240968985,267.1290656589408 78.36330837509013,262.5692739925471 78.2037232639268,262.35152297183595 78.32131229320657,262.0825353898799 76.6414690175443,260.78881735105097 71.845516465517,256.4719642029595 72.65184123782092,254.4607488028596 83.78920215548715,232.0 83.01647424869589,233.94785132393372 81.38702627128805,237.15142466020916 77.69137106480775,244.78809390653623 67.85588868582272,264.65708425559933 68.41863618316711,263.1584789071603 71.40035799748148,257.0868454157935 71.82871803274611,256.51039445253264 78.31291307680658,262.0953443480721 75.85194267798215,264.5546166359818 76.30550036238856,267.89753775395 81.32823175666272,265.002911255684 84.26795748906443,267.53891859581927 85.46064621474943,267.91034554373255 85.45224699837854,267.75665189672145 84.77191047175438,267.5133028644959 84.62912379333284,267.21872121405613" stroke="#4dd2ff" stroke-linecap="round" stroke-linejoin="round" stroke-width="0.5"><title>2022-09-07 10.4km</title></polyline><polyline fill="none" points="131.35491447435925,267.14003686551223 132.19663337690872,267.8459776030868 131.98620365129318,268.0 130.8919690779876,267.66628433729056 130.00816423035576,266.98601239514755 124.8736789249524,262.49346862053426 124.89051330299117,262.10837873771015 118.43452932062792,256.48580204807877 118.67862780235009,255.60000853792735 130.3953549254802,232.0 130.03341579742846,233.15580743175815 123.53534586992464,246.40757095869048 120.16005307080923,253.01958351338544 114.60470831414568,264.50873447616686 114.47003328974824,264.72694416164813 114.51211923485971,264.2520162448018 118.0557558145083,256.8837632490395 118.42611213159398,256.51147703909373 119.46142638172023,257.2175352476843 124.93259924813174,262.0955423683117 122.4242769186094,264.59858561339206 122.93772544912645,267.9358240464171 127.92911854109843,265.0606751800078 130.88355188898277,267.52509641674624 132.05354116347735,267.9486592423091 132.12087867569062,267.8203071674943 131.47275512074702,267.6149433113824 131.30441134024295,267.3710728747719" stroke="#4dd2ff" stroke-linecap="round" stroke-linejoin="round" stroke-width="0.5"><title>2022-09-02 10.4km</title></polyline></svg>