<?xml version="1.0" encoding="utf-8" ?>
<svg baseProfile="full" height="300mm" version="1.1" viewBox="0,0,200,300" width="200mm" xmlns="http://www.w3.org/2000/svg" xmlns:ev="http://www.w3.org/2001/xml-events" xmlns:xlink="http://www.w3.org/1999/xlink"><defs /><rect fill="#222222" height="300" width="200" x="0" y="0" /><text fill="#FFFFFF" style="font-size:12px; font-family:Arial; font-weight:bold;" x="10" y="20">Over 10km Runs</text><text fill="#FFFFFF" style="font-size:4px; font-family:Arial" x="10" y="280">ATHLETE</text><text fill="#FFFFFF" style="font-size:9px; font-family:Arial" x="10" y="290">Sinnelf</text><text fill="#FFFFFF" style="font-size:4px; font-family:Arial" x="120" y="280">STATISTICS</text><text fill="#FFFFFF" style="font-size:3px; font-family:Arial" x="120" y="285">Number: 26</text><text fill="#FFFFFF" style="font-size:3px; font-family:Arial" x="120" y="290">Weekly: 1.9</text><text fill="#FFFFFF" style="font-size:3px; font-family:Arial" x="141" y="285">Total: 287.4 km</text><text fill="#FFFFFF" style="font-size:3px; font-family:Arial" x="141" y="290">Avg: 11.1 km</text><text fill="#FFFFFF" style="font-size:3px; font-family:Arial" x="167" y="285">Min: 10.1 km</text><text fill="#FFFFFF" style="font-size:3px; font-family:Arial" x="167" y="290">Max: 15.1 km</text><polyline fill="none" points="34.152656549267704,62.82924728607759 33.64654483803315,62.32240605006882 33.40481984161306,62.10354140376876 33.11777140837512,61.792521784838755 32.89115422425675,61.63125168850456 32.70986047692713,61.46998113848895 32.407704231416574,61.239593851471 32.233964390237816,61.078322199671675 31.418142527370946,60.37563327894895 31.259510498464806,60.21435919661235 30.844045660895063,59.845731019056984 30.23973316984484,59.38494246368646 30.16419410848175,59.30430408569373 30.118870671634795,59.200626004432706 30.17930192075437,59.00478911717801 30.17930192075437,58.98174943939739 30.149086296209134,58.94718990540787 30.09620895324042,58.90111049425104 29.998008173453854,58.86655091164357 29.914915205939906,58.808951560917194 29.763837083155522,58.71679247941938 29.008446469408227,58.07167476028917 28.842260534351226,57.89887413847464 28.67607459932333,57.7721533514341 28.132193357421784,57.26526740198824 27.731836332095554,56.93118103017332 27.30881758837495,56.539491080180596 26.077530887938337,55.479610737562325 25.677173862612108,55.15703456960546 24.936891061108327,54.44275230923449 24.408117631450295,54.004962008337316 24.3703481007542,53.94735777244205 24.3703481007542,53.901274342082615 24.55919575423468,53.290665391916264 24.740489501535194,52.88742950035885 24.96710668565356,52.4841907720911 25.110630902287085,52.161597747093765 25.163508245255798,52.10399165873969 25.246601212769747,51.9542155580566 25.359909804799827,51.712268722465524 25.488326209160732,51.458799513740814 25.57897308282554,51.25141478193473 25.699835581035586,51.03250786216449 25.828251985367388,50.709906667070754 26.372133227268932,49.67296195686504 26.523211350053316,49.292744196220156 26.651627754385117,49.08535162731641 26.9688918121974,48.40555961280916 27.263494151557097,47.87554668602752 27.671405083005084,47.02290691114831 28.018884765333496,46.37765756912631 28.411687884508865,45.51347296410677 28.653412880928954,45.041046538197406 28.751613660686417,44.822115898452466 29.129308967589168,44.06161349406466 29.20484802898136,43.877247755168355 29.393695682432735,43.5085144981349 29.612758960400242,43.139778868793655 29.733621458610287,42.828656336292624 29.786498801579,42.678855996051425 29.93757692433428,42.44839316963407 30.171748014632612,41.90680187974431 30.368149574205745,41.58414931687366 30.670305819716305,40.996456052842404 30.85915347316768,40.558563036178384 31.395480808947468,39.48686338123662 31.508789401006652,39.24486391136816 31.77317611585022,38.73781408957075 31.871376895636786,38.484287496412435 32.15087142275297,38.02332718086109 32.317057357751764,37.5969355880261 32.483243292808766,37.320355561234464 32.626767509413185,36.98615291463648 32.845830787409795,36.5828022973983 32.92136984880199,36.38688811612883 33.13287922064774,35.97200881551544 33.20086437588907,35.79914155381266 33.63899093188229,34.94632209769043 33.910931552847615,34.46228378770684 34.12244092472247,34.001291120031965 34.16021045538946,33.86299259657244 34.23574951678165,33.70164389741694 34.439704982505646,33.27522014848 34.59833701138268,32.998619263376895 34.681429978925735,32.825743032157334 34.824954195530154,32.58371543240355 34.983586224436294,32.249485161726625 35.074233098072,32.1111824105501 35.21020340852556,31.80000000000291 35.14977215943509,31.94982877896473 35.08934091034462,32.29558600459495 34.84761591392453,32.860318320133956 34.75696904028882,33.02166938813025 34.63610654207878,33.27522014848 34.46992060705088,33.59791949376813 34.26596514132689,33.932141900018905 34.11488701857161,34.27788716561918 33.737191711668856,35.00394543373113 33.525682339823106,35.48797916870171 33.40481984161306,35.70694546770392 33.12532531449688,36.30621737623733 32.868492505833274,36.79024011223373 32.777845632168464,37.032249947260425 32.33971907617524,37.87351428000329 32.19619485954172,38.20771175202026 31.788283928093733,39.0259111295818 31.712744866730645,39.210292475159804 31.508789401006652,39.57905338665296 31.38792690282571,39.890193560182524 30.95735425298335,40.719892431596236 30.85159956701682,40.97340913536391 30.57210503992974,41.46891581848831 30.081101140967803,42.54057841141548 29.801606613880722,43.02454849813512 29.408803494705353,43.85420199610235 29.13686287374003,44.3381609905191 29.08398553080042,44.49947974720635 28.74405975456466,45.19084070461031 28.600535537931137,45.51347296410677 28.3134871047223,46.06655261234846 28.13974726354354,46.49288119868288 27.935791797819547,46.896162077970075 27.724282425973797,47.24182914468838 27.58831211546203,47.58749412669931 27.41457227434148,47.898590828212036 26.991553530591773,48.762739473084366 26.88579884468345,48.93556763868037 26.742274628049927,49.258178820164176 26.538319162325934,49.69600537645965 26.35702541502542,50.01861227794143 26.221055104513653,50.318174203541275 25.979330108122667,50.79055713606067 25.66961995649035,51.4818422153694 25.322140274132835,52.15007653407156 25.246601212769747,52.2883309377321 25.110630902287085,52.645486603803874 24.793366844474804,53.244581433584244 24.574303566478193,53.73998204400414 24.46099497441901,53.94735777244205 24.40056372532854,54.12017030644711 24.113515292090597,54.61556334968918 23.85668248339789,55.133993345312774 23.70560436064261,55.3989668657523 23.501648894918617,55.802185090247804 23.426109833526425,55.91738977629211 23.335462959861616,56.14779845381054 23.222154367831536,56.37820620522325 23.161723118741065,56.56253173958976 23.078630151198013,56.68925520061384 22.867120779352263,57.15006542473202 22.557410627690842,57.749113178258995 22.2703621944529,58.2559948494345 21.779358295490965,59.3734227023524 21.5149715806765,59.92636863543885 21.439432519313414,60.06460428535502 21.303462208801648,60.398672396531765 20.797350497567095,61.343268245203944 20.789796591445338,61.25111323780584 20.812458309868816,61.11288044895991 20.85022784053581,60.96312788487921 21.01641377559281,60.55994596032906 21.114614555379376,60.398672396531765 21.250584865832934,60.06460428535502 21.348785645648604,59.857250685494364 21.650941891159164,59.30430408569373 21.72648095252225,59.11998736720125 21.824681732337922,58.970229597045545 21.922882512124488,58.71679247941938 22.11173016554676,58.39423452734627 22.247700476029422,58.07167476028917 22.42899422335904,57.749113178258995 22.54985672153998,57.48415052092969 22.617841876781313,57.26526740198824 22.919998122291872,56.70077550138012 23.161723118741065,56.15931886339604 23.259923898498528,55.98651247680027 23.509202801040374,55.44504909210809 23.607403580856044,55.29528172101709 23.894452014093986,54.707729024928994 24.00776060615317,54.37362774715075 24.121069198212354,54.16625356082659 24.272147320967633,53.98192032092993 24.30991685166373,53.94735777244205 24.40056372532854,53.93583691833555 24.71027387698996,54.074087014952966 25.37501761710155,54.604042629882315 25.571419176703785,54.79989455199029 26.153069949301425,55.29528172101709 26.802705877140397,55.89434885762603 26.953783999895677,55.99803291877106 27.15773946561967,56.20540047850591 27.943345703941304,56.90814051897178 28.094423826696584,57.0694239029217 28.35881054154015,57.27678758699403 29.076431624620454,57.933434304533876 29.522112086764537,58.313594755712984 29.650528491125442,58.45183429474491 29.914915205939906,58.670712883089436 30.08865504708956,58.78591180442163 30.156640202359995,58.79743168384448 30.25484098214656,58.970229597045545 30.262394888268318,59.016308952610416 30.25484098214656,59.039348616508505 29.998008173453854,59.33886340445679 29.552327711309772,59.719014535545284 29.1972941228305,60.06460428535502 28.766721472988138,60.41019195183253 28.094423826696584,61.05528335519921 27.98866914078826,61.170477484840376 27.98866914078826,61.239593851471 28.01133085921174,61.32022950724786 28.094423826696584,61.51605848476174 28.13974726354354,61.67732890518528 28.147301169665297,61.8616374015437 28.185070700361393,62.04594530535178 28.200178512663115,62.28784852987155 28.268163667875342,62.65646100450249 28.260609761753585,62.84076635301608 28.328594916994916,63.34760300627386 28.36636444766191,63.531906132866425 28.37391835381277,64.01569902116898 28.396580072207144,64.15392481083472 28.426795696810586,64.20000000000073 28.67607459932333,64.03873667593143 29.151970686012646,63.79684083930624 29.476788649946684,63.56646290313074 30.043331610271707,63.23241325128765 30.48901207241579,63.013552079126384 30.844045660895063,62.77165191677341 31.44835815191618,62.42607848561602 31.727852679003263,62.25329098887232 32.415258137567434,61.88467592192683 32.634321415564045,61.757963945248775 32.88360031810589,61.63125168850456 33.0120167224668,61.64277099613173 33.38215812318958,61.91923368515563 33.63143702573143,62.149618240880955 34.001578426512424,62.529750733679975 34.69653779116925,63.12874227386783" stroke="#4dd2ff" stroke-linecap="round" stroke-linejoin="round" stroke-width="0.5"><title>2023-02-12 10.4km</title></polyline><polyline fill="none" points="70.05714274241473,62.65481204540265 69.15726760341204,61.766886712059204 68.91528437274974,61.60544426637716 68.5069376710162,61.236431256507785 67.69024426754913,60.57912095513893 67.46338498880505,60.34848397741371 67.28945954176015,60.21010134586686 67.07016223896062,60.06018645178847 66.90379876791849,59.898739204814774 66.60888170552789,59.66809949266462 66.20053500379436,59.31060610699569 66.10979129228508,59.20681728756972 66.10222931634053,59.13762463699095 66.14003919615061,59.06843190298969 66.245906859549,58.987706941217766 66.26103081146721,58.941578340673004 65.99636165294214,58.82625667701723 65.59557692715316,58.537951504018565 64.97549489859375,57.94980445986221 64.49152843729826,57.54617064753984 64.29491706236149,57.407781258309114 63.93194221635349,57.050273791475774 63.65971108188387,56.83115521091895 62.83545570244314,56.04693448798207 62.38929912092863,55.67788573348298 62.215373673912836,55.51642615707533 61.54235781362513,54.96284701762488 61.33818446274381,54.76678645841821 61.15669703975436,54.54765915835742 60.68029255440342,54.19013387243467 60.392937467986485,53.92487173693007 60.37025154012372,53.87873906648019 60.37025154012372,53.8441395392656 60.44587129971478,53.57887580437091 60.61223477075691,53.15214461433061 60.793722193775466,52.783077242147556 61.035705424437765,52.3563401340507 61.23987877528998,51.929599852290266 61.413804222334875,51.502856396953575 61.549919789569685,51.27218293752594 61.6860353568336,50.97230605394725 61.76165511642466,50.82236702446971 61.890208707685815,50.49942009174265 62.15487786621088,50.06113206153168 62.40442307284684,49.55363647567356 62.64640630350914,49.173011840659456 62.85057965439046,48.65397417845088 63.19843054845114,47.91577919387055 63.47066168292076,47.38519568253105 63.77314072125591,46.86614184771315 63.894132336601615,46.589311215881025 64.01512395191821,46.35861800240673 64.12855359129026,46.08178492192383 64.27979311044328,45.8856940151054 64.4310326295963,45.620393486253306 64.68813981217681,44.95136931416346 64.9679329226201,44.34001281834571 65.11161046582856,44.06316999822229 65.2779739369289,43.79786104211962 65.54264309545397,43.198027575544984 65.68632063866244,42.955785359496076 65.76950237419805,42.71354212067308 65.89049398951465,42.52897515693985 66.0039236288867,42.29826561738082 66.17028709998704,41.90605727102593 66.54838589788415,41.1908469135451 66.66181553722708,40.92552467500718 66.78280715257279,40.71788032810582 67.38020325326943,39.50660665967371 67.50119486858603,39.195132154334715 67.72805414733011,38.82597499527765 67.82635983478394,38.58371431878186 67.98516132988152,38.26069849212945 68.09102899333811,38.01843542860661 68.27251641632756,37.70695284376416 68.49181371909799,37.24549405392827 68.61280533441459,37.014763267154194 68.74135892570484,36.830177969590295 68.83210263721412,36.553298909711884 68.93040832466795,36.34563873782827 69.32363107448327,35.54960111566834 69.92858915112447,34.39590379793299 70.03445681455196,34.10747584329147 70.336935852858,33.56522736276747 70.48061339606647,33.18449664349828 70.61672896330128,32.953749523268925 70.86627416993724,32.43456510927717 71.14606728038052,31.973063907731557 71.19900111207971,31.85768802725579 71.20656308802427,31.811537610083178 71.19900111207971,31.799999999999272 71.17631518421695,31.823075217842415 71.16875320827239,31.92691358341108 71.04776159292669,32.30765264898582 70.86627416993724,32.75761374135618 70.53354722779477,33.403705548025755 70.42011758839362,33.66906257495066 70.10251459816936,34.22284719915115 69.87565531942528,34.684330302457965 69.45218466577353,35.56113797167927 69.33875502640149,35.82648501967196 69.21776341108489,36.08029409104711 68.99846610828536,36.48407893593321 68.8699125169951,36.80710476563763 68.5069376710162,37.568515596562065 68.17421072887373,38.19148057836719 68.06078108947258,38.36452520617968 67.93222749818233,38.67600422090982 67.74317809924833,39.033626189535426 67.43313708496862,39.714255390441394 67.31970744559658,39.9219033697118 67.07772421496338,40.31412528003784 66.9869805034541,40.5102352296708 66.93404667172581,40.694808687618206 66.76012122471002,41.04088232077993 66.69962541703717,41.21391835452596 66.47276613829308,41.60613143235969 66.35933649892104,41.89452169084689 66.15516314803972,42.263659106436535 65.75437842225074,43.1634216073071 65.5199571675621,43.56715660480404 65.42921345608192,43.76325543564235 65.23260208117426,44.120845695899334 65.00574280243018,44.63992436612898 64.87718921113992,44.882159471791965 64.75619759579422,45.1820681857389 64.52177634110558,45.57425413862438 64.30247903830605,46.08178492192383 64.1890493989631,46.28940985749068 64.12855359129026,46.439360732623754 64.0680577836174,46.5547072929985 63.969752096163575,46.670053621455736 63.90169431254617,46.889211006746336 63.73533084147493,47.281385291174956 63.47822365889442,47.75429777500176 63.357232043577824,48.031122786236665 63.26648833206855,48.16953479101721 62.99425719756982,48.73471367875027 62.88082755819778,48.91926068130124 62.73715001498931,49.27681880972159 62.396861096902285,49.88812270693961 62.32124133731122,50.06113206153168 62.230497625801945,50.211073080190545 61.996076371113304,50.70702904285645 61.814588948123856,51.01844106112185 61.648225477023516,51.34138507273019 61.18694494359079,52.37940708586393 60.967647640791256,52.80614402247738 60.597110818867804,53.6134754914965 60.4761192035221,53.809539991219935 60.40049944396014,54.005603821002296 60.20388806902338,54.409262537727045 59.9240949585801,54.870583308475034 59.70479765580967,55.44722905668095 59.53087220879388,55.758615351347544 59.04690574746928,56.77349228754247 58.857856348506175,57.14253399611698 58.797360540833324,57.234794052466896 58.60831114187022,57.66149488357405 58.44950964677264,57.92673974706122 58.31339407953783,58.12278951035114 57.88992342585698,59.11456040158737 57.54963450776995,59.7372915036176 57.322775229025865,60.244697035068384 56.959800383017864,60.982733435834234 56.91442852729233,61.10958248636598 56.8161228398385,61.24796294897533 56.80099888789118,61.24796294897533 56.79343691194663,61.17877275935825 56.838808767701266,60.93660643887415 56.93711445512599,60.67137548671235 57.20178361368016,60.16397372786378 57.34546115688863,59.97946288507592 57.61769229135825,59.29907402520257 58.10165875268285,58.39956450654063 58.237774319946766,58.05359555272662 58.41169976699166,57.75375410558263 58.56293928614468,57.39624879415351 58.97884796382277,56.55437265011642 59.11496353105758,56.30065412993645 59.28888897810248,55.90854148316794 59.42500454536639,55.666352921671205 59.538434184738435,55.44722905668095 59.90140903071733,54.616857343524316 60.26438387672533,53.94793805826703 60.332441660313634,53.890272237560566 60.37025154012372,53.890272237560566 60.80128416972002,54.14400141520673 61.33818446274381,54.54765915835742 62.290993433474796,55.45876191258867 62.54810061605531,55.666352921671205 62.7220260631002,55.793213724227826 63.25892635612399,56.30065412993645 63.56140539443004,56.55437265011642 63.833636528928764,56.83115521091895 64.37809879789711,57.29245651235033 64.55958622088656,57.46544354436628 64.99061885051196,57.83448080315429 65.30822184076533,58.13432182849647 65.5199571675621,58.29577403937583 65.89049398951465,58.641741533174354 66.07954338847776,58.76859575827257 66.16272512401338,58.78012794666938 66.245906859549,58.96464264555834 66.25346883549355,59.02230336732464 66.09466734039597,59.24141358155248 64.42347065365175,60.74056628804465 64.06049580767285,61.08651904347789 63.992438024055446,61.17877275935825 63.992438024055446,61.25949463913639 64.09074371150928,61.60544426637716 64.18148742298945,62.05517566402341 64.23442125468864,62.72400045544782 64.2419832306623,62.89697111570422 64.3100410142797,63.16219178220126 64.30247903830605,63.415879968495574 64.34785089406068,63.72722302810871 64.35541287003434,64.08468890255244 64.40078472578898,64.18846890066561 64.4310326295963,64.20000000000073 64.46884250940639,64.18846890066561 64.62764400453307,64.0731577800725 64.87718921113992,63.95784642775834 65.18723022541963,63.761816597150755 65.41408950416371,63.634973408738006 65.61826285501593,63.49659870168398 65.83756015781546,63.39281745244807 65.9509897971875,63.31209857329304 66.49545206618495,62.989221921343415 66.69206344106351,62.862377025368914 67.38776522921398,62.48184065529131 67.81879785883939,62.19355384660594 68.1439628250373,62.032112601180415 68.33301222397131,61.89373402932324 68.77916880551493,61.68616554599066 68.9379703006125,61.64003911436521 69.02115203614812,61.64003911436521 69.07408586784732,61.67463394155493 69.33119305042783,61.87067090158598 70.11007657411392,62.63174922350663 70.69234872289235,63.15066047440632" stroke="#4dd2ff" stroke-linecap="round" stroke-linejoin="round" stroke-width="0.5"><title>2023-02-11 10.3km</title></polyline><polyline fill="none" points="106.17400070338044,62.84843921077845 105.83310495901969,62.524984053674416 105.21191715818713,61.889620411242504 104.9846533286036,61.704786033202254 104.17407900313265,61.0000995152659 103.59076850724523,60.538005306247214 102.90140155752306,59.90261970413485 102.37869474949548,59.52138497215492 102.19688368585776,59.34809562190276 102.11355361502501,59.20946376554275 102.13627999796881,59.11704234232093 102.21203460782999,59.02462077046221 102.15900638094172,58.94375177322945 101.99992170021869,58.88598813412682 101.63629957291414,58.63182743250945 101.44691304824664,58.458535400841356 101.31813021149719,58.308348550835944 99.5985005677503,56.841117914889765 99.04549191577826,56.28656430107367 98.34097404411295,55.72045196903491 97.38646595989121,54.83083561213425 97.18950397428125,54.69219286202133 96.69709901019814,54.27626260542456 96.56831617341959,54.126064828731614 96.38650510978187,53.975866659602616 96.34862780486583,53.906544295332424 96.34862780486583,53.87188308185796 96.45468425867148,53.52526979759932 96.70467447119881,52.99379203587523 96.81073092497536,52.78582113932134 96.99254198864219,52.508525440222 97.16677759130835,52.06947118094831 97.3182868110307,51.80372618439651 97.50009787469753,51.433991971582145 97.5531261015858,51.29534102868274 97.65918255539145,51.133581172602135 97.7879653921409,50.798505736929656 97.9773519168084,50.45187392053049 98.06068198764115,50.23233935566532 98.1894648243906,50.0359129816934 98.34097404411295,49.72394030223222 98.41672865394503,49.64305822003371 98.55308695169515,49.31952875326897 98.6818697884737,49.0768804582076 98.74247347636265,48.880450135769934 98.84095446916763,48.62624519266319 99.13639744758257,48.09472213340996 99.22730297944508,47.828958760717796 99.3409348942223,47.632524173714046 99.47729319197242,47.4591989806795 99.71213248252752,46.88144456248119 99.89394354616525,46.592565175684285 100.31059390041628,45.72591830413148 100.35604666630388,45.58725359208256 100.41665035419283,45.494810264852276 100.60603687883122,45.101924465518096 100.67421602772083,44.99792483381316 100.84845163038699,44.66281362940936 101.03783815502538,44.223699438654876 101.13631914783036,43.9463624318596 101.23480014066445,43.749914575695584 101.29540382852429,43.66902408683745 101.5756958849961,43.17212287201255 102.0681008491083,42.155195366212865 102.32566652260721,41.6929496429002 102.40142113246839,41.47338162199958 102.64383588402416,41.02268674071456 102.76504325977294,40.75689066684572 102.82564694769098,40.58354473902364 102.95442978444044,40.37552893559041 103.06048623821698,40.109729868916475 103.1513917700795,40.00572120383731 103.18169361399487,39.93638198925328 103.27259914582828,39.70525066979826 103.43925928752287,39.40477856487996 103.56804212427232,39.05807803032803 103.75742864891072,38.757602542013046 104.325588222855,37.62502696641968 104.48467290354893,37.27831569562477 104.65133304524352,36.97783090242956 104.71951219410403,36.81603074768282 104.78011588199297,36.71201612198638 104.85587049185415,36.46931459650659 105.10586070438148,36.03013780234323 105.28009630704764,35.625629891233984 105.51493559763185,35.23267662276703 105.58311474646325,35.05931403256909 105.72704850521404,34.758817637353786 105.76492581013008,34.64324168239182 105.8785577249364,34.46987731410991 106.00734056168585,34.19249323710028 106.12854793746374,33.972896559997025 106.18915162532357,33.83420348947038 106.3482363060175,33.533700688483805 106.41641545490711,33.36033297315225 106.50732098674052,33.198522633658285 106.69670751137892,32.782436811528896 106.85579219207284,32.51660262580117 107.030027794739,32.20453483871461 107.18911247546203,31.80000000000291 107.13608424857375,32.088953746777406 107.08305602165638,32.20453483871461 107.030027794739,32.2738833823023 106.9845750288514,32.389464102285274 106.96942410687916,32.45881242268297 106.47701914282516,33.5799319909238 106.25733077421319,33.94978107148199 106.15884978140821,34.15782013334319 105.8558313419635,34.65479928833156 105.81795403704746,34.77037522005412 105.71189758324181,34.97841131149835 105.59826566846459,35.290464036657795 105.30282268999144,35.86833497952466 105.14373800929752,36.23816933368289 104.93162510171533,36.665787338970404 104.87859687482705,36.804473576350574 104.5831538963539,37.324543985916534 104.52255020849407,37.45167159246921 104.43164467666065,37.60191294673132 104.22710723005002,38.13353304683187 104.07559801032767,38.37622754460972 103.98469247846515,38.59580739764715 103.68167403904954,39.15053171067848 103.56046666330076,39.40477856487996 103.49986297538271,39.497231687531894 103.22714637994068,40.08661684850449 103.18169361399487,40.16751237927383 103.03775985527318,40.502649793805176 102.54535489121918,41.46182538714493 102.31051560063497,41.94718525076678 102.2802137566905,42.06274651894273 102.0908272320521,42.42098497377083 101.855987941497,42.813889098801155 101.78023333163583,43.05656383427413 101.69690326077398,43.18367876299453 101.62872411194257,43.40324025047448 101.56812042402453,43.51879859120527 101.47721489222022,43.76147035050235 101.35600751644233,43.9579181671761 101.28025290658115,44.10814251512056 101.22722467969288,44.24681079549919 101.12116822588723,44.397034388395696 100.97723446713644,44.70903598066434 100.83330070841475,44.951702714872226 100.67421602772083,45.390811344052054 100.58331049588742,45.494810264852276 100.47725404208177,45.691252157484996 100.37877304924768,45.922359406922624 100.33332028336008,46.049467998047476 100.12120737574878,46.41923684670837 99.98484907802776,46.765892981988145 99.71213248252752,47.22809791026884 99.5985005677503,47.470754009787925 99.3182085112785,47.99072791656363 99.03034099380602,48.63779998718019 98.97731276688864,48.77645734037287 98.78792624227935,49.088435162131645 98.66671886650147,49.38885664945337 98.49248326380621,49.74704944766927 98.4015777320019,49.89725866653316 98.2349175903073,50.186121445683966 97.9546255338355,50.76384264935041 97.79554085314157,51.00648382345389 97.75766354819643,51.08736398721885 97.66675801639212,51.20290688092791 97.59100340653094,51.46865465505107 97.51524879666977,51.64196775891833 97.43949418680859,51.792172026256594 97.30313588905847,52.15034984909653 97.21223035722505,52.33521494902743 97.0607211375318,52.600957488564745 96.98496652767062,52.79737509780534 96.8486082298914,53.05156159582839 96.72740085414262,53.375070058704296 96.55316525147646,53.675469144029194 96.31075049992069,54.23004794669396 96.12893943625386,54.518888954156864 95.9547038335877,54.842389159530285 95.79561915289378,55.23520839012053 95.7198645430326,55.37384983061929 95.52290255739354,55.72045196903491 95.45472340853303,55.85909223930503 95.30321418881067,56.09015861336593 95.14412950811675,56.54073537142904 94.96989390542149,56.841117914889765 94.78808284178376,57.19926428080362 94.67445092700655,57.51119639440003 94.5456680902571,57.68449128174689 94.4017343315063,57.97331493310776 94.24264965081238,58.23903141079791 93.83357475759112,59.1748057492332 93.76539560870151,59.37120089875316 93.30329248859198,60.29540435961462 93.23511333970237,60.46869085454455 93.06087773703621,60.79215758082864 92.97754766620346,60.976994893018855 92.91694397828542,61.16183161097433 92.84118936842424,61.26580200363969 92.8260384464811,61.25424974707494 92.81088752450887,61.17338388610733 92.89421759537072,60.79215758082864 92.98512312717503,60.52645290338842 93.40177348139696,59.75243662664798 93.75782014772994,59.00151535428813 94.07598950911779,58.435429757148086 94.11386681406293,58.34300708952287 94.18962142392411,58.06573819510595 94.39415887053474,57.77691500804576 94.43961163642234,57.62672637735159 94.52294170728419,57.453431315876514 94.75778099783929,57.02596793075645 95.060799437284,56.33277730654663 95.12140312514384,56.13637177670171 95.19715773500502,55.974625542417925 95.38654425967252,55.6280249364645 95.45472340853303,55.53559775526446 95.58350624531158,55.30452915214846 95.66683631614433,55.15433406205557 95.87894922372652,54.58821058000103 96.20469404611504,53.998974095782614 96.25772227303241,53.94120548790306 96.32590142189292,53.91809802852731 96.37135418780963,53.9296517593757 96.44710879767081,53.952759214142134 96.78042908105999,54.126064828731614 97.09102298144717,54.38024545170629 97.56070156255737,54.78462139923431 97.71221078227973,54.95792450600493 97.96977645577863,55.142780577349185 98.49248326380621,55.65113170854602 98.93186000097194,56.00928548810043 99.48486865294399,56.52918216535909 100.43937673716573,57.33790098469399 100.83330070841475,57.71915019654625 101.01511177205248,57.86933858580596 101.21964921866311,58.077291092387895 101.49236581416335,58.308348550835944 101.61357318994123,58.446982580138865 101.81811063655186,58.62027464665516 101.94689347333042,58.701144098929944 102.00749716119026,58.75890792375867 102.12112907599658,58.816671690579824 102.22718552980223,58.96685721262111 102.24233645177446,59.03617347508771 102.2347609907738,59.0592788773065 102.17415730288485,59.128595028341806 102.09840269302367,59.24412176097758 101.3635829774139,59.89106717365212 101.04541361602605,60.202984682124224 100.59846141785965,60.56111010489258 100.40907489322126,60.7690528750536 100.0227263829438,61.12717477161641 99.9772736170271,61.20804069758378 99.9772736170271,61.2426974882037 100.03030184394447,61.35821997262974 100.09848099277588,61.60081643437297 100.13635829772102,61.85496401065393 100.1893865246384,62.05135000461087 100.20453744661063,62.55964005043643 100.22726382955443,62.74447168016195 100.2348392905551,62.859991147033725 100.28029205647181,63.03326991210997 100.31059390041628,63.19499628828271 100.31816936138785,63.39137770493835 100.36362212730455,63.78413852589438 100.36362212730455,64.0729315354074 100.37119758827612,64.15379331810982 100.40149943222059,64.20000000000073 100.45452765910886,64.20000000000073 100.84845163038699,64.00362134540774 101.50751673616469,63.587758450808906 101.80295971457963,63.437584999614046 102.34081744457944,63.10258127188354 102.49990212527337,63.06792560244503 102.63626042302349,62.987062292479095 102.81807148666121,62.84843921077845 103.10593900416279,62.652055939572165 103.46198567046667,62.46722401270381 103.9013624076324,62.17842293736976 104.15135262018885,62.05135000461087 104.42406921565998,61.889620411242504 104.81041772593744,61.69323386482938 104.89374779677019,61.67012952114601 105.02253063351964,61.67012952114601 105.30282268999144,61.85496401065393 105.60584112943616,62.120662548182736 106.07551971057546,62.5827440366229 106.82549034812837,63.26430745311518" stroke="#4dd2ff" stroke-linecap="round" stroke-linejoin="round" stroke-width="0.5"><title>2023-02-05 10.3km</title></polyline><polyline fill="none" points="142.19704054336762,62.793188782012294 141.8567515568866,62.470309210599225 141.58452036764356,62.18202234396449 141.2517933586205,61.8476077643827 141.03249601175776,61.68616554576147 140.69220702521852,61.38634307768007 140.4199758360046,61.19030446316174 140.03431498463033,60.83282055980817 138.80171265569516,59.771887477490964 138.29506016464438,59.39133061418033 138.15894457002287,59.24141358117049 138.1211346826458,59.172220972304785 138.1211346826458,59.103028280002036 138.2043164349161,58.96464264512906 138.189192479942,58.93004618431223 138.15894457002287,58.89544970257339 137.99258106554043,58.826256676573394 137.72791185378446,58.64174153271597 137.56154834927293,58.49182254147672 137.44055670962553,58.3534354327312 137.2363833177078,58.157386457405664 136.699482916767,57.73068931350281 136.48018556987518,57.53463821067635 136.22307833563536,57.32705395995072 135.2475832409109,56.43904618849774 134.7106828399701,55.97773802668962 134.2947740786767,55.574090343056014 133.83349345249007,55.19350564076376 133.45539457860286,54.84751735737882 132.4798994839075,53.99407067240827 132.40427970912424,53.913338572103385 132.39671773166629,53.8672058923803 132.43452761901426,53.636541937317816 132.47233750642044,53.49814311921364 132.56308123614872,53.221344481629785 132.7067588082573,52.89841105024607 132.94118011006503,52.50627515455926 133.0167998848483,52.33327317217481 133.26634514163015,51.84886484667368 133.45539457860286,51.39905345423176 133.72762576778769,50.926171008915844 134.01498091200483,50.257208698629256 134.2947740786767,49.76124884798992 134.85436041207868,48.630905728135986 135.01316193910316,48.342549326698645 135.28539312831708,47.7542977742487 135.52737640761188,47.32752326526679 135.6786159571784,46.98148754935028 135.91303725901525,46.57777657644692 135.98865703379852,46.38168736472653 136.10208669595886,46.17406276304246 136.27601217795745,45.72420688197599 136.60873918700963,45.08978874766035 136.88097037622356,44.489968787420366 137.02464794830303,44.23619691662316 137.13807761049247,43.993959083702066 137.2363833177078,43.832466626940004 137.37249891230022,43.54408610933024 137.68253998889122,42.94424998964678 137.9623331555922,42.30980111573081 138.16650654753903,41.95219956791334 138.46142366915592,41.35234680516078 138.65803508358658,41.029346565992455 138.88489440793637,40.533306943751086 138.96051418271963,40.40641239805336 139.1722495520953,39.875759438687965 139.37642294401303,39.460462394617934 139.48985260620248,39.16052377098822 139.68646402063314,38.81443879524522 139.87551345757674,38.422206632261805 140.06456289452035,38.1107262395999 140.2460503540351,37.73002568533775 140.3670419936534,37.45315096822378 140.4880336333299,37.24549405353173 140.5939013180032,37.00322670302921 140.80563668740797,36.62251879955875 140.96443821446155,36.2187349290798 141.15348765140516,35.895705786515464 141.6147682775918,34.97275535665176 141.90212342175073,34.45358921461957 142.09117285869434,34.04979007814836 142.29534625061206,33.565227362600126 142.41633789025946,33.33448177379614 142.60538732723217,32.91913737508003 142.8927424713911,32.37687766209274 142.96836224617437,32.192277441357874 143.1876595930371,31.799999999999272 143.17253563809209,31.926913583385613 143.12716377319884,32.12305220543203 142.79443676417577,32.99989902145171 142.56757743982598,33.426780120695184 142.4238998677174,33.72674872256539 142.17435461096466,34.14208727421283 141.91724737669574,34.74201542911396 141.75844584964216,35.00736626572689 141.41815686316113,35.63035905870129 140.94175228200038,36.72634847833979 140.76026482254383,37.060909498315596 140.56365340811317,37.51083331116752 140.38972792608547,37.81078055948092 140.2460503540351,38.21455322505426 140.02675300714327,38.5837143182398 139.86038950263173,38.94133686212081 139.78476972784847,39.04516234438415 139.73183588549728,39.13745150425166 139.5730343584728,39.48353453152231 139.49741458368953,39.71425538989206 139.07394384487998,40.59098618993448 138.78658870072104,41.1216325341411 138.70340694847982,41.29466832438629 138.49167157907505,41.640738339283416 138.31774609707645,42.067555149435066 138.15138259256491,42.40208502430687 138.0833247952396,42.57511695282301 137.80353162856773,43.08267426619204 137.60692021410796,43.48640983183941 137.48592857448966,43.82093143408201 137.31200309249107,44.07470514165834 137.22882134019164,44.293872440346604 137.14563958795043,44.466898663751635 137.03977190324804,44.73220452620808 136.8053506014403,45.18206818496765 136.70704489422496,45.34355684314869 136.46506161490106,45.885694014305045 136.36675590768573,46.03564594452109 136.06427680858178,46.67005362070995 135.74667375450372,47.26985079086444 135.5954342049372,47.6274191977318 135.42907070039655,47.90424482108938 135.32320301569416,48.11186316215026 135.28539312831708,48.23874066740609 134.85436041207868,49.046136400462274 134.71824481742806,49.33448926611527 134.55944329040358,49.61130665388191 134.46113758318825,49.85352077267453 134.39307978589204,49.9457925489769 134.3325839660538,50.095733869042306 134.2115923264064,50.31487817048401 133.9847330020566,50.78776565353837 133.8486174074642,51.0069073120394 133.6746919254656,51.35291875309122 133.59151017319527,51.49132274524891 133.50832842095406,51.66432726609855 133.3268409614684,52.12567010484054 133.16803943441482,52.44860788503138 133.13022954703774,52.56394236609776 132.85043638033676,53.10601132191732 132.7748166055535,53.30207755551601 132.51014739379752,53.844139538567106 132.44208959653042,54.02867010922273 132.38159377669217,54.12093517199537 132.20010631720652,54.24779939110158 132.14717247485532,54.351597179938835 132.08667665504618,54.52459307742538 131.9959329252888,54.69758845338583 131.9278751279926,54.95131406145447 131.81444546583225,55.25117015183787 131.69345382618485,55.470294765476865 131.58758614148246,55.71248415446462 131.3909747270518,56.093065414843295 131.05068574054167,56.90035064198673 130.89944619097514,57.15406651077501 130.80870246121776,57.361651387200254 130.6120910467871,57.719156914216 130.46085149722057,57.972869162887946 130.29448799270904,58.330370882158604 130.23399217287078,58.503354785494594 129.86345527644153,59.16068886272478 129.77271154671325,59.42592679692825 129.68952979444293,59.61043941941534 129.50804233498638,59.933335081339465 129.37192674036487,60.26776081588832 129.14506741604418,60.60218460165561 129.06944764126092,60.798225225156784 128.96357995652943,60.99426517901884 128.84258831691113,61.28255801227351 128.82746436193702,61.259494638878095 128.8123404069629,61.21336786437314 128.83502633939497,61.005796920166176 128.88796018174617,60.8443523333699 129.2433731232304,60.06018645145741 129.38705069530988,59.8180154106667 129.51560431244434,59.48358705516148 129.63659595209174,59.252945674496004 129.7802735242003,59.01077122719289 129.91638911879272,58.72246698114759 130.09031460079132,58.422629028806114 130.32473590262816,57.91520738669715 130.49866138462676,57.61536521649032 130.60452906930004,57.303988996878616 130.94481805583928,56.600503169061994 131.0809336504317,56.35831752787999 131.2548591324594,55.92007424574331 131.34560286215856,55.75861535076183 131.5800241640245,55.41263047462053 131.66320591626572,55.25117015183787 131.82956942077726,54.7667864577561 132.1169245649653,54.17860076093348 132.26060213701567,53.947938057586725 132.28328806947684,53.92487173623158 132.358907844231,53.90180540565416 132.79750253801467,54.08633579081288 133.2587831641722,54.45539478102364 133.46295655608992,54.628390365614905 133.73518774530385,54.92824814340929 133.97717102459865,55.1127752279026 134.30989803362172,55.44722905610615 134.70312086251215,55.75861535076183 135.01316193910316,56.04693448737453 135.1946493985597,56.18532715843685 135.42907070039655,56.427513529662974 135.64836804725928,56.58897054263798 135.87522737160907,56.80809004796174 136.05671483109472,56.93494832651413 136.3743178851728,57.22326155300834 136.57092929963255,57.43084617916611 136.9263422411168,57.719156914216 137.5313004393247,58.26117717481975 137.69766394386534,58.44569354230043 137.879151403351,58.61867709801663 138.0152669979434,58.710934781200194 138.07576281778165,58.7685957578542 138.15894457002287,58.79166013230497 138.2572502772382,58.860853200021666 138.28749818715733,58.91851402604516 138.28749818715733,59.01077122719289 138.0833247952396,59.252945674496004 137.5842342816759,59.69116350524564 137.12295365551836,60.163973727543635 136.8734083987365,60.34848397710812 136.63898709689965,60.579120954847895 136.5255574347393,60.659843678080506 136.36675590768573,60.83282055980817 136.08696274098475,61.08651904323051 136.01134296620148,61.178772759121784 136.01890494371764,61.24796294873158 136.06427680858178,61.36327974602318 136.1474585608521,61.64003911416876 136.18526844822918,61.91679714763086 136.2003924031742,62.228148339952895 136.24576426806743,62.53949784312135 136.2533262455254,62.793188782012294 136.3213840428507,63.12759785164599 136.3365079977666,63.36975492707279 136.39700381763396,63.842534843759495 136.4045657950919,64.08468890253789 136.43481370501104,64.18846890069472 136.4574996374431,64.20000000000073 136.53311941222637,64.16540669507958 136.88097037622356,63.94631527977617 136.9944000383839,63.842534843759495 137.21369738527574,63.73875422007768 138.15894457002287,63.19678569174721 138.40092784934677,63.0814725785749 139.32348910166183,62.516434974877484 139.6259682007949,62.37805757085516 139.8301415927126,62.228148339952895 140.88125646219123,61.64003911416876 140.94931425948744,61.61697588446259 141.0778678766219,61.64003911416876 141.5769583901856,62.04364413356234 141.90968539920868,62.34346316768642 142.00042912896606,62.45877776375346 142.12898274610052,62.59715497317666 142.48439568758477,62.88543975446373 142.7036930344184,63.11606653686613" stroke="#4dd2ff" stroke-linecap="round" stroke-linejoin="round" stroke-width="0.5"><title>2023-02-04 10.3km</title></polyline><polyline fill="none" points="179.3479162552685,63.70380724951974 179.77168897443335,63.92305573764315 179.97600796402548,64.07306737886393 179.9306037441129,64.15384271567382 179.89276689419057,64.1884606823769 179.80952582435566,64.20000000000073 179.49926365495776,64.07306737886393 179.2646751854336,64.0615280357415 178.87117194625898,63.93459510858884 178.75009402647265,63.865358848230244 178.59117925682222,63.715346664492245 178.27334971743403,63.50763684012054 177.81174014837597,63.138373075234995 177.60742115878384,62.95374030248786 177.43337164912373,62.780646538925794 177.01716629997827,62.42291777438368 176.6917693906289,62.088266267655854 176.41934407115332,61.82285161713298 176.15448612169712,61.60359511105344 175.73828077252256,61.22277918996406 175.42045123316348,60.99198043305296 175.1934301336296,60.77272075482688 173.57401295687305,59.43406456231969 173.36212659729063,59.145556985331496 173.3772613372421,59.064774604041304 173.43023292714497,58.960911375372234 173.43023292714497,58.92629025743008 173.21834656759165,58.845507567701134 173.13510549775674,58.7416439425142 172.98375809806748,58.63778012946932 172.1816168796504,57.94534990854663 171.80324838039814,57.64529421996849 171.35677355129155,57.20674847035116 170.75138395253452,56.67587281886517 170.1459943537484,56.11036944404623 169.89627114424366,55.90263211185447 169.44979631513706,55.49869625911015 168.8141372363898,54.979345987623674 168.61738561678794,54.80622818671691 168.39793188724434,54.575403640297736 168.12550656779786,54.356119461786875 167.61092540883692,53.859841650002636 167.58822329886607,53.836758856719825 167.58822329886607,53.80213464934786 167.81524439839995,53.19043687703379 167.95145705813775,52.890356342231826 168.42820136717637,51.978563557564485 168.49630769705982,51.805436709761125 168.62495298677823,51.574600100782845 168.79143512644805,51.193717667229066 169.01088885602076,50.76666466163442 169.05629307593335,50.628160302065226 169.37412261526333,50.08568167703925 169.91140588419512,48.98916667951198 170.07032065390376,48.71214905119996 170.23680279354448,48.331247630081634 170.3578807133017,48.111939605030784 170.6303060327773,47.523266553951544 170.77408606244717,47.25778457595516 170.97083768207813,46.830702296512754 171.21299352159258,46.40361684042364 171.3794756612624,45.96498522744878 171.71243994057295,45.330117747653276 171.8637873402622,44.99536661360253 172.06810632985434,44.61444053539162 172.1816168796504,44.41820490273676 172.30269479940762,44.14116522072436 172.36323375927168,43.956471356770635 172.59025485883467,43.48319061856819 172.7945738484268,43.13688516773618 172.9232191381452,42.84829569646536 173.08970127784414,42.525073766544665 173.30915500738774,42.08641252266534 173.4226655571547,41.797817771304835 173.79346668641665,41.15136026422988 173.9977856760379,40.71268852473804 174.11886359576602,40.48180731560569 174.23994151552324,40.19320449856241 174.40642365519307,39.84687920313445 174.6637142346881,39.373564587524015 174.73182056451333,39.154222344961454 174.90587007417344,38.79634636074843 175.322075423348,38.034409415355185 175.47342282306636,37.69961574167246 175.60206811278476,37.46872241539313 175.7231460325711,37.191649198080995 175.8063871023769,37.04156731380135 175.980436612037,36.67213331158564 176.0788124218525,36.510505188089155 176.13178401172627,36.37196643435891 176.45718092110474,35.72544782990008 176.63879780072602,35.33291512503274 177.25932213946362,34.1553009069321 177.38796742921113,33.843575452821824 177.72093170852168,33.139300602335425 178.03876124790986,32.527382652024244 178.16740653765737,32.30801425137906 178.39442763719126,31.80000000000291 178.30361919736606,32.18101111001306 178.21281075756997,32.446562812485354 178.03119387794868,32.80447838094915 177.9252506981138,33.04693604661952 177.81930751833715,33.231665009385324 177.64525800867705,33.647303002217086 177.43337164912373,34.02830185217317 177.36526531924028,34.12066482893351 177.03230103992973,34.79029196659394 176.93392523011426,34.95192493311333 176.75230835049297,35.32137000486546 176.67663465061923,35.54072689136592 176.5177198809688,35.87553315480909 176.40420933117275,36.141067768548965 176.1998903415806,36.52205006913209 176.09394716180395,36.77603686497605 175.91989765214385,37.133925442878535 175.82152184232837,37.37636482486414 175.56423126286245,37.838151291714894 175.48099019302754,37.95359732804354 175.32964279333828,38.23066686817765 175.06478484388208,38.8194352012506 174.93613955413457,39.03877872281009 174.73938793453272,39.47746325203843 174.62587738473667,39.76606966694453 173.93724671611562,41.05900859762551 173.75562983649434,41.47458992759857 173.48320451704785,42.00560613851121 173.1956444576208,42.64051037894751 173.0215949479607,42.975275242537464 172.98375809806748,43.07916738953281 172.5751201188541,43.852580797210976 172.52214852895122,43.99110150150591 172.41620534917456,44.21042526655947 172.37080112926196,44.36048841255615 172.1816168796504,44.68370001030053 172.06810632985434,44.92610751464963 172.0000000000291,45.099255105458724 171.87892208027188,45.34166085538527 171.79568101043697,45.48017796731074 171.68217046064092,45.757211188618385 171.56865991087398,45.96498522744878 171.46271673109732,46.12658673785336 171.40217777120415,46.265101956214494 171.19029141165083,46.64601708371629 171.05407875188394,46.93458746763645 170.91029872221407,47.28087001404856 170.5849018128647,47.915715925257246 170.3124764933891,48.48130000668243 170.25950490351534,48.550554817506054 170.1005901338358,48.8737428301647 169.97194484408828,49.208471354173525 169.8281648143602,49.4854865881025 169.76005848450586,49.58936695627199 169.55573949491372,50.039513046744105 169.26817943548667,50.55890799699773 169.08656255586538,50.98596254770382 168.9049456762441,51.286053034640645 168.64765509674908,51.84006212108579 168.56441402688506,52.00164709780438 168.29198870746768,52.636440818754636 168.16334341769107,52.84418996693785 167.65632962874952,53.91754859268258 167.36120219933218,54.48307356191799 167.27039375947788,54.6215686238138 166.9979684400605,55.23325115165062 166.5968978308665,56.02958279305312 166.31690514142974,56.62970948680231 166.1125861518376,56.99901510424752 165.8477282023523,57.63375358526537 165.59043762285728,58.0261338645214 165.4542249631486,58.33772805879198 165.16666490372154,58.891669118620484 164.95477854413912,59.39944372960963 164.14506995576085,61.02660030573679 164.0391267759842,61.18815943557638 164.02399203600362,61.11891986414412 164.06182888592593,60.94582057035586 164.13750258579967,60.74964074002128 164.2510131355375,60.49575996477142 164.4780342351005,60.04569583210832 164.63694900478004,59.6879500311079 164.89423958427506,59.180177971091325 165.03045224398375,58.868588347795594 165.28774282347877,58.453132886901585 165.47692707311944,57.99151218302359 165.87799768228433,57.1605855650414 166.16555774171138,56.6066278068829 166.25636618153658,56.38735138467746 166.3774441012938,56.191155981388874 166.52879150098306,55.81030416745489 166.76337997050723,55.406367665204016 166.87689052030328,55.094757564991596 167.03580528998282,54.84085178866371 167.11147898982745,54.6215686238138 167.33093271940015,54.14837578344668 167.52011696898262,53.87138304318796 167.55795381893404,53.836758856719825 167.60335803881753,53.84830025451811 168.00442864801153,54.10221041951445 168.2390171175357,54.2868716524863 168.62495298677823,54.65619233707184 168.78386775645777,54.77160456390993 169.23034258559346,55.16400440006328 169.86600166431163,55.775681150007586 170.02491643399117,55.891091126930405 170.17626383368042,56.052664704933704 170.48652600304922,56.306565123330074 170.60760392280645,56.44505578748067 171.0692134918936,56.80282179069036 171.2886672214372,57.033637384101894 171.77297890046611,57.41448108498298 172.09837580981548,57.74915982807579 172.37080112926196,57.94534990854663 172.58268748884439,58.16462038180907 172.72646751854336,58.26848505061207 172.84754543830059,58.395430501823284 173.26375078750425,58.7531843546094 173.31672237737803,58.787805576906976 173.38482870723237,58.787805576906976 173.49077188703814,58.960911375372234 173.49077188703814,58.99553247247968 173.3772613372421,59.13401665211495 173.11997075777617,59.38790344735753 172.90808439819375,59.57254768443454 172.5372832689318,59.93029420428866 172.1816168796504,60.2303379542318 171.9091915602039,60.507300024350116 171.65946835069917,60.691940662367415 171.26596511149546,61.072760103481414 171.19029141165083,61.17661951278933 171.197858781612,61.22277918996406 171.2432630015246,61.303558535757475 171.3416388113401,61.6266747826885 171.40974514122354,62.00748802560702 171.45514936110703,62.515235088219924 171.45514936110703,62.81526533340002 171.49298621102935,62.91912159150161 171.53082306095166,63.1268335443383 171.58379465082544,63.865358848230244 171.61406413081568,64.04998869033807 171.62919887076714,64.11922472809965 171.67460309067974,64.17692136246842 171.70487257061177,64.1884606823769 171.75784416048555,64.16538204024619 172.00756736999028,63.95767384348801 172.46917693907744,63.70380724951974 172.7567369985045,63.496097383413144 172.98375809806748,63.40378164622234 173.2788855274557,63.20761021200815 173.80860142639722,62.94220073447286 174.2172394055524,62.64217115243446 174.42155839514453,62.52677474200391 174.60317527479492,62.44599711673072 174.97397640405688,62.203663559230336 175.33721016329946,61.99594826748216 175.46585545304697,61.91516989555748 175.63990496270708,61.83439141004055 176.19232297161943,61.61513494805331 176.26799667146406,61.6266747826885 176.41934407115332,61.73053319030441 176.72203887056094,61.99594826748216 177.28959161939565,62.561393689473334 178.0614633578807,63.26530776223444 178.34902341727866,63.496097383413144 178.65171821668628,63.70380724951974 178.78036350640468,63.83074068674614 178.87117194625898,63.8768982307447 179.19656885560835,64.00383128544854 179.51439839493833,64.04998869033807 179.68088053463725,64.14230338878406 179.7943910843751,64.1884606823769 179.90033426415175,64.1884606823769 179.93817111410317,64.15384271567382 179.9306037441129,64.11922472809965 179.90790163417114,64.09614605812021 179.76412160444306,64.03844934260269 179.68088053463725,63.98075256908851" stroke="#4dd2ff" stroke-linecap="round" stroke-linejoin="round" stroke-width="0.5"><title>2022-12-09 10.3km</title></polyline><polyline fill="none" points="35.388384491496254,104.49208683602046 35.5852062094782,104.6652395555102 35.89557891865843,104.81530482355811 35.978849645500304,104.8730221299702 35.978849645500304,104.90765248601383 35.91828911690391,104.96536969965382 35.80473812573473,105.0 35.4943654165545,104.88456558431426 35.26726343424525,104.86147867334512 34.85090979997767,104.73450049714666 34.72978874275577,104.6652395555102 34.419416033575544,104.42282560214153 34.19988411734812,104.28430288385061 33.52614823644399,103.71866498442978 33.25362585767289,103.41852832732911 32.36035806054133,102.55274072363682 31.285408677562373,101.67539597536961 30.316440219670767,100.83267064095708 29.945506981865037,100.48634157703054 29.771395462099463,100.37089809177269 29.567003678006586,100.20927682265392 29.415602356457384,100.05919952273689 29.36261189391371,99.96684406638451 29.355041827860987,99.9206662825527 29.370181960024638,99.87448846161351 29.43831255470286,99.74749926253571 29.408032290404662,99.77058822869367 29.218780638446333,99.65514330510996 28.97653852397343,99.42425276194263 28.545044757571304,99.06637058609704 28.2422421144729,98.77775430418114 27.47009537462145,98.1427933798659 27.182432863657596,97.85417245787175 26.538977247080766,97.2884712442683 26.236174603982363,97.0575711888232 25.797110771527514,96.63040363960317 25.433747599774506,96.35332028762059 25.108234758488834,96.05314514813654 24.850852511823177,95.84533067117809 24.358798216824653,95.40660875096 23.897024186095223,94.94479258354113 23.60936167516047,94.71388310758266 23.5866514769441,94.66770110099606 23.57908141083317,94.62151905728751 23.69263240203145,94.32133486820749 24.0105751772644,93.64014185126871 24.1316962344863,93.43231864471818 24.275527489982778,93.08594496291698 24.623750529513927,92.42782921348407 24.707021256384905,92.22000162085897 24.97197356907418,91.73506764726335 25.138515022787033,91.3655913957482 25.52458839272731,90.63817808037129 25.73655024287291,90.16477716506415 26.024212753836764,89.62209326723314 26.10748348067864,89.43734864286307 26.24374467006419,89.17177720433028 26.57682757746079,88.46742961633936 26.720658832928166,88.22494730066319 26.88720028664102,87.89008908656979 26.97804107956472,87.64760433362244 27.31869405307225,87.01252036725054 27.424674978130497,86.74693771728926 27.86373881061445,85.86935153220475 28.41635363426758,84.67996990722895 28.545044757571304,84.44901916338131 28.80999707026058,83.9062812599368 29.097659581224434,83.38663378059937 29.19607044022996,83.17877347240574 29.355041827860987,82.78614639346779 29.635134272713913,82.2780367776104 29.900086585403187,81.71218214239707 30.02120764265419,81.51586392553145 30.51326193768182,80.46497264867503 30.71008365569287,80.10697232825623 30.778214250400197,79.9337455656605 31.04316656308947,79.43715928375968 31.391389602649724,78.6980461689127 31.6866221796663,78.17835156469664 32.51932944817236,76.38825637593982 32.70101103401976,76.11107535810879 32.829702157352585,75.78769581311644 32.965963346738135,75.57980800122823 33.04923407358001,75.40656758316618 33.700259756238665,74.00907576638565 33.94250187071157,73.55863727272299 34.07119299401529,73.35074139176868 34.192314051266294,73.0619958640491 34.328575240651844,72.83099839661008 34.44212623179192,72.59999999999854 34.419416033575544,72.71549931443224 34.33614530673367,72.90029773441347 34.328575240651844,72.95804711868914 34.23773444769904,73.22369353840986 34.01063246538979,73.65103520046614 33.601848897204036,74.52880809980707 33.367176848842064,74.92149163230715 33.25362585767289,75.18712897004298 32.859982421650784,75.93783654256549 32.77671169480891,76.12262459387784 32.69344096793793,76.36515800887355 32.57231991071603,76.5845921208711 32.140826144313905,77.48541811050382 32.10297581390478,77.60090760008097 31.928864294139203,77.88963030813466 31.376249470515177,78.97521470163338 31.15671755425865,79.48335353763105 30.922045505867573,79.85290623093533 30.778214250400197,80.23400495543319 30.64952312706737,80.51116607586664 30.566252400225494,80.7190360384775 30.44513134297449,80.92690524872887 30.38457081434899,81.08858078100457 30.089338237361517,81.64289343659766 29.71083493347396,82.46280443075375 29.453452686866513,82.97091241199087 29.37775202607736,83.1556778361919 29.22635070452816,83.42127709214037 29.006818788300734,83.88318591626376 28.832707268506056,84.12568656187796 28.651025682658656,84.54139957239386 28.537474691518582,84.73770744811918 28.431493766402127,85.01484683634044 28.295232577016577,85.28043749527933 28.23467204842018,85.43055341142099 28.037850330409128,85.80006784123907 27.7577578855271,86.42361805117616 27.583646365761524,86.72384351577784 27.432245044212323,87.0587085288862 27.242993392283097,87.4166655219451 27.08402200465207,87.7861671749306 26.96290094743017,88.00555765677927 26.879630220559193,88.25958769413774 26.76607922941912,88.45588286261773 26.690378568629967,88.64063064366565 26.523837114917114,88.9062045379469 26.251314736146014,89.46044175340649 26.001502555591287,89.91075555331554 25.88795156442211,90.07240579986683 25.55486865702551,90.83446512056616 25.29748641041806,91.2732219615209 25.062814362026984,91.82743633882274 24.65403079384123,92.67029378786538 24.1316962344863,93.66323327225473 23.90459425217705,94.22897018677395 23.74562286454602,94.5291548585119 23.632071873376844,94.81779248662133 23.480670551827643,95.048701544918 23.314129098143894,95.39506339199943 23.132447512296494,95.64906075264298 22.928055728203617,96.22632330466877 22.564692556479713,96.88439553820353 22.314880375924986,97.42701083207066 22.09534845969756,97.85417245787175 21.815256014844636,98.44295760057867 21.54273363604443,98.8701116721677 21.338341851951554,99.35498541802735 21.17937046434963,99.66668780790133 20.96740861417493,100.12846601755518 20.884137887333054,100.27854313650096 20.747876697947504,100.60178483034542 20.3239529975981,101.50223424449723 20.021150354499696,102.04480592345135 20.051430618797895,101.97554173910612 20.11956121350522,101.7100282589272 20.225542138592573,101.42142525814415 20.3239529975981,101.2136301998762 20.596475376398303,100.70568355992873 20.84628755695303,100.10537719526474 21.14909020002233,99.51660909055136 21.277781323355157,99.23953965926557 21.35348198414431,99.11254905665555 21.580583966424456,98.68539678771413 21.709275089757284,98.48913657225421 21.807685948733706,98.25824134267896 21.90609680773923,97.98116584218951 22.08020832753391,97.65790940259467 22.655533349432517,96.44568155342495 22.822074803116266,96.15705210469241 23.245998503436567,95.2218827295219 23.495810683991294,94.77161056357363 23.571511344780447,94.65615559355865 23.60936167516047,94.62151905728751 23.647212005540496,94.62151905728751 24.184686697029974,95.02561068084106 24.487489340128377,95.31424581447573 24.737301520683104,95.51051687698418 25.032534097670577,95.82224012732331 25.32776667471626,96.03005468780975 25.67598971427651,96.37641061799513 25.93337196088396,96.58422317374789 26.39514599161339,97.02293610046763 26.62224797392264,97.20765633042902 26.894770352722844,97.47319062042516 27.34897431737045,97.83108272143363 27.788038149825297,98.2466965568492 27.901589141023578,98.32751000899589 28.211961850174703,98.58149440421766 28.484484228974907,98.8701116721677 28.855417466751533,99.2164504796674 29.052239184762584,99.38961910040962 29.271771101019112,99.55124267552674 29.400462224322837,99.59742075632676 29.48373295116471,99.67823230839349 29.521583281544736,99.75904374679521 29.51401321546291,99.80522166056107 29.31719149745186,100.02456624404294 28.764576673827833,100.46325289853849 28.476914162863977,100.77494927529187 28.174111519765574,101.06355552371315 27.659347026521573,101.50223424449723 27.250563458364923,101.8947334185068 27.212713127955794,101.9524536591016 27.212713127955794,101.99862980986654 27.273273656581296,102.14870204337421 27.34140425125952,102.40266954553954 27.424674978130497,103.06067103306123 27.47009537462145,103.58014056831234 27.523085837136023,103.78792706724562 27.53822596927057,103.92645098238427 27.560936167516047,104.21504139944591 27.583646365761524,104.35356428472733 27.606356563977897,104.82684828949641 27.62149669614155,104.8961090363373 27.65177696046885,104.9538262615497 27.704767422983423,104.9538262615497 27.810748348070774,104.90765248601383 27.977289801783627,104.79221788474388 28.469344096811255,104.5267174216824 28.88569773104973,104.26121573163255 29.70326486742124,103.81101440960265 29.922796783648664,103.66094651830281 30.240739558910718,103.49933450463504 30.717653721774695,103.17610911348311 30.99774616662762,103.02603956371968 31.959144558466505,102.4950210861316 32.140826144313905,102.41421349621669 32.20895673899213,102.39112559253044 32.29979753191583,102.42575744461283 32.648020571505185,102.69126761704683 32.89783275205991,102.92214503042851 33.193065329047386,103.23382806673544 33.90465154030244,103.90336368636054 34.35885550495004,104.27275930890028 34.63137788375025,104.44591268937802 34.881190064304974,104.63060905334714 35.27483350029797,104.79221788474388 35.539785813045455,104.82684828949641 35.80473812573473,104.96536969965382 35.89557891865843,104.97691313544055 35.940999315091176,104.94228282114636 35.95613944728393,104.9191959333657 35.95613944728393,104.88456558431426 35.92585918295663,104.84993521438446 35.68361706848373,104.73450049714666" stroke="#4dd2ff" stroke-linecap="round" stroke-linejoin="round" stroke-width="0.5"><title>2022-12-07 10.4km</title></polyline><polyline fill="none" points="71.29589606530499,104.46994453786465 71.90798056169297,104.89629388202593 71.82485797576373,105.0 71.23544327550917,104.8271563658418 69.98104788782075,103.99749967067328 65.51509804360103,100.16018132064346 65.3564094704634,99.96427529673383 65.45464525383431,99.7337967647436 59.65873403468868,94.58235984652129 70.41933061362943,72.59999999999854 70.23797224432928,73.33787714989376 66.35388050164329,81.29251207254129 56.2582646101946,101.75045251312258 56.084462839586195,102.02701691461698 56.06179304342368,101.86568784251358 59.197781512717484,95.3199541453323 59.65117743599694,94.67455965271802 65.46220185255515,99.6761769870136 65.32618307558005,99.99884699665563 63.23300522979116,101.88873488057288 63.65617475818726,104.95390841515109 68.1447943985695,102.4188142003004 70.81983034586301,104.60822034813464 71.88531076553045,104.96543131484941 71.93820695657632,104.8732480525614 71.22788667678833,104.46994453786465" stroke="#4dd2ff" stroke-linecap="round" stroke-linejoin="round" stroke-width="0.5"><title>2022-11-10 10.4km</title></polyline><polyline fill="none" points="107.35896751264227,104.55044549561717 107.98638847161783,104.90778397858594 107.89567700764746,105.0 106.88273232692154,104.71182444095393 105.62033112035715,103.78965292452995 101.50807808811078,100.14693051110225 101.34933302621357,99.92789869010812 101.4476037788263,99.70886603290273 100.77482708788011,99.28232635295353 95.61183293163776,94.64782593756172 96.02003451940254,93.5410241830723 106.39893785252934,72.60000000000218 105.7412797389261,74.3184667199821 96.73816694229026,92.37655345027088 92.01361152841127,102.0605413770827 92.47472813681816,100.75790959172446 95.6269515089516,94.64782593756172 101.50051879946841,99.73192214143637 99.25541006677668,101.89915497352558 99.65605236586998,104.95389200781938 104.17650698588113,102.39484034014822 106.8676137496077,104.61960795635605 107.92591416233336,104.93083799783199 107.31361178067164,104.58502673642215 107.19266316207359,104.25074053562275" stroke="#4dd2ff" stroke-linecap="round" stroke-linejoin="round" stroke-width="0.5"><title>2022-11-08 10.4km</title></polyline><polyline fill="none" points="143.2330329118704,104.38884854339267 143.95142091671005,104.85009552814881 143.83042925273185,105.0 142.8851818779367,104.74631527978272 142.16679387312615,104.23894247516 137.5161767891259,100.16826648029746 137.3573752301745,99.96068886230569 137.4632429361518,99.7185140256297 135.88278932552203,98.54222170993671 131.6253951494582,94.64413953789335 131.8673784773855,93.87141132807665 142.42390115905437,72.59999999999854 142.21972772610025,73.31532743775097 133.17560084411525,91.50702904128775 128.04857908326085,102.02489956119825 142.35584334805026,72.74998875019082 142.0533641881193,73.60376339723734 139.32348976974026,79.02608954466996 131.72370087643503,94.62107317483606 137.50105283115408,99.73004618387495 135.209773194656,101.97877275884093 135.65592995556653,104.93081336934483 140.19311735455994,102.39391264527512 142.84737198293442,104.63100367259176 143.92117300073733,104.95387558881703 143.15741312189493,104.4234421958281" stroke="#4dd2ff" stroke-linecap="round" stroke-linejoin="round" stroke-width="0.5"><title>2022-11-04 15.1km</title></polyline><polyline fill="none" points="179.33862718901946,104.41253856417461 179.97315594236716,104.90784958462973 179.8220776677772,105.0 179.27064196544234,104.8617743214163 177.94870706263464,104.0324132508249 173.3936970832583,100.02366559220172 173.45412839308847,99.70111049210755 171.05198382685194,97.754221529387 167.63006090701674,94.62062824629174 178.44726536882808,72.59999999999854 172.86492312213522,84.23937674467015 164.02684405766195,102.01655507052419 167.26747304797755,95.13906543148914 167.6376148207346,94.65519087117718 173.49189796176506,99.72415020227345 171.22572384265368,101.92439985938836 171.63363518408732,104.94240600777994 176.20375299092848,102.37365511441749 178.84006888282602,104.6313974497607 179.89006289132521,104.90784958462973 179.27064196544234,104.50468977573837" stroke="#4dd2ff" stroke-linecap="round" stroke-linejoin="round" stroke-width="0.5"><title>2022-11-01 10.4km</title></polyline><polyline fill="none" points="35.33945809750003,145.26843128712062 35.99118075767183,145.69599781235593 35.801726495992625,145.79999999999927 34.85445518759661,145.53421625768533 34.036012777127326,144.97953318682994 29.534579519619,141.00414795215693 29.329968917008955,140.76145565131446 29.451219644455705,140.5187623263846 26.814016321877716,138.39226272492306 23.57813753237133,135.41040802399948 34.399764959554886,113.40000000000146 34.08905997039983,114.3365387740414 30.004426088562468,122.46412963006514 28.625199063535547,125.41197608794391 20.00881924229907,142.87631127801797 20.402884106588317,141.69754888258103 23.593293873302173,135.42196589885862 29.46637598538655,140.50720547585297 27.192924845207017,142.7260781984587 27.640036902797874,145.75377682869293 32.164204671717016,143.1883325739218 34.846877017145744,145.4417694506992 35.90024271205766,145.74222103007196 35.22578554050415,145.33776661525917" stroke="#4dd2ff" stroke-linecap="round" stroke-linejoin="round" stroke-width="0.5"><title>2022-10-28 10.4km</title></polyline><polyline fill="none" points="71.57114910395467,145.707685394289 70.76144100388046,145.52305573773265 69.83822242246242,144.80761021229773 65.47941993988934,140.9532825880633 65.41888101649238,140.549371006382 59.59200964216143,135.5060072108863 70.42090955990716,113.40000000000146 69.61120145986206,115.38584833169443 59.137967716902494,136.49855774746902 56.156425740919076,142.74199973139184 56.07318472128827,142.88047873503456 56.088319452130236,142.53428059978614 56.45155299236649,141.5995352099053 59.2212087365333,135.9561194638336 59.59200964216143,135.55217273253947 60.749816551600816,136.3138984814832 65.48698730528122,140.52629025876377 63.2319124097703,142.788159436368 63.66325223876629,145.76538204023018 68.15826729897526,143.23821461573243 70.77657573472243,145.40766190095383 71.80573743200512,145.79999999999927 71.92681527874083,145.69614605812603 71.63168802729342,145.56921320752372" stroke="#4dd2ff" stroke-linecap="round" stroke-linejoin="round" stroke-width="0.5"><title>2022-10-23 10.2km</title></polyline><polyline fill="none" points="107.5835754162108,145.7190516512601 106.77971642208286,145.56871870150644 105.64218010962941,144.65514848631938 101.48638078160002,140.98915759635202 101.37262715032557,140.8156822093879 101.47121363074984,140.57281578924812 100.72802323996439,140.09864506263693 95.60910983404028,135.5186486431594 106.42328837752575,113.39999999999782 105.65734726047958,115.34382036453098 97.72492737518041,131.26216357097292 92.03724581302959,142.9204815872181 92.90935698588146,140.7231617892612 95.2375146386621,135.9697250780846 95.60910983404028,135.5186486431594 96.5115553085925,136.15478105422153 101.47121363074984,140.57281578924812 101.34987642409396,140.8503773286211 99.23405888298294,142.8163999106182 99.62082122921129,145.79999999999927 104.19371720514027,143.2442900439528 106.82521787457517,145.4877700274701 107.96275418697041,145.75374381467554 107.30298312581726,145.46464181397823 107.09822658952908,145.02520399169953" stroke="#4dd2ff" stroke-linecap="round" stroke-linejoin="round" stroke-width="0.5"><title>2022-10-21 10.3km</title></polyline><polyline fill="none" points="143.31621468090452,145.2580358274099 143.96654487474007,145.67315778004922 143.95142091676826,145.79999999999927 142.9229917729681,145.55784642774233 141.85675273422385,144.77372308757913 137.5691106421582,141.00286267695992 137.3800611672341,140.77222097184858 137.46324293621,140.53004618387422 135.65592995559564,139.11157333045412 131.6253951495164,135.45567271595792 132.34378315432696,133.70260305026022 142.42390115911257,113.4346128233301 141.70551315424382,115.25752533809646 140.83588556945324,116.8496420443953 134.63506279082503,129.5965197312653 128.03345512528904,142.87102632649476 128.25275251621497,142.08686627463976 131.51952744351001,135.58253752148812 142.43146313808393,113.39999999999782 142.12142199918162,114.3806885738777 131.73882483446505,135.40953998981786 137.48592887318227,140.5069818650445 137.3271273142018,140.81834938705651 135.24002111068694,142.75570934376447 135.65592995559564,145.74234448023344 140.20824131258996,143.1939126452744 142.83981000399217,145.43100367259103 143.93629695873824,145.7538755888163 143.2330329119286,145.23497340868926" stroke="#4dd2ff" stroke-linecap="round" stroke-linejoin="round" stroke-width="0.5"><title>2022-10-16 15.1km</title></polyline><polyline fill="none" points="179.30771587995696,145.3611915602196 179.94382793581462,145.79999999999927 179.18655167883844,145.69607198807353 177.89918204196147,144.85309339165906 173.49940698887804,140.9960199083689 173.34037897488452,140.788146321167 173.45397041345132,140.56872338568428 169.53127940223203,137.3119265808309 167.59265218436485,135.4871157765483 168.2211914776708,133.87014638855544 178.35354779617046,113.40000000000146 177.66442640230525,115.23706609204964 166.13868177097174,138.45529116418402 164.05617206421448,142.86684835785854 164.30607322903234,141.9083450936123 164.38937361733406,141.79286169353873 164.38937361733406,142.0353765656473 167.22158681842848,135.9029005508637 167.5699338966515,135.5448638417838 168.7967214329692,136.3764295464207 173.47668870116468,140.56872338568428 171.18971440507448,142.76291504172696 171.62893463412183,145.76535735022844 176.16501941348542,143.2017433202709 178.80034078776953,145.4535725627902 179.83780925982865,145.788452452387 179.92110964813037,145.719167118099 179.71664505871013,145.59214378826437" stroke="#4dd2ff" stroke-linecap="round" stroke-linejoin="round" stroke-width="0.5"><title>2022-10-14 10.3km</title></polyline><polyline fill="none" points="35.312937440990936,185.98753996517553 35.98739488370484,186.46133037462278 35.820675066439435,186.59999999999854 34.90371607124689,186.2995487224107 33.93370986144873,185.58308164957634 29.432274794147816,181.63079641236254 29.485322008724324,181.2956486220828 27.492262374580605,179.72389499593555 23.642550229473272,176.19885014542888 24.00630255814758,175.08928312113494 34.411134792811936,154.1999999999971 32.04674465645803,159.31031002559394 20.01260511626606,183.58386019801765 20.444561006559525,182.40509590751026 23.31668876839103,176.5571432575489 23.642550229473272,176.25663950805028 29.4929001822602,181.2378643228767 29.26555497685331,181.6423531978944 27.234604475088418,183.5029653815909 27.636247671354795,186.56533262499943 32.23619899433106,183.9883325734154 34.83551250959863,186.19554599142793 35.83583141345298,186.4844420020745 35.9722385367204,186.40355126537543" stroke="#4dd2ff" stroke-linecap="round" stroke-linejoin="round" stroke-width="0.5"><title>2022-10-10 10.3km</title></polyline><polyline fill="none" points="71.4262333290244,186.11517389548317 71.96370791245135,186.59999999999854 71.22941165056545,186.44993521436118 69.96521086979192,185.67651818022568 65.46102245923248,181.75155483101844 65.33990142634138,181.56684406683416 65.4685925237718,181.3359547764303 63.66691715954221,179.95059954636963 59.594222428655485,176.24461008447906 70.43455487224855,154.1999999999971 69.70025861033355,156.0248620095772 65.33233136177296,164.6517473589047 62.60710812176694,170.41383114957353 56.03629208751954,183.65634994630454 56.11199273305829,183.17149899977812 56.79329854308162,181.71692160798557 59.14758861987502,176.9950633926819 59.63964281597873,176.33697409763408 65.48373265290866,181.34749926296718 63.205143221654,183.55245365940573 63.613926707650535,186.56536969963054 68.16353550556232,184.01421349645534 70.82062816456892,186.2421525564023 71.91828752512811,186.56536969963054 71.13857087591896,185.96510784347265" stroke="#4dd2ff" stroke-linecap="round" stroke-linejoin="round" stroke-width="0.5"><title>2022-10-08 10.4km</title></polyline><polyline fill="none" points="107.46030911724665,186.11517389513756 107.96750415617134,186.40376135517 107.92208370490698,186.59999999999854 106.91526370227803,186.26523955526864 105.43152896154788,185.15705313232684 104.59882068869774,184.25663592366618 101.442099327076,181.63611067007878 101.48751977828215,181.27823230570357 100.58668082859367,180.65482595974026 95.62828156747855,176.16379144621897 106.39292851294158,154.1999999999971 105.72676189464983,155.8747173234915 104.22788700350793,158.77359532608898 102.30508790074964,162.86180405674895 96.68052202137187,174.06246706785532 92.03249584379955,183.598629808228 92.63810186041519,182.0286198610229 95.13622667896561,176.90270043290002 95.59800126665505,176.24461007957507 96.10519630555063,176.48706529742412 101.47994970309082,181.2435987973331 99.2089271407749,183.48318936172655 99.64042142761173,186.51919593330604 104.16732640186092,183.94494975578345 106.81685272455798,186.17289150310535 107.8993734793039,186.49610903623397 107.91451362971566,186.38067441173916 107.16507618414471,185.95356428434752" stroke="#4dd2ff" stroke-linecap="round" stroke-linejoin="round" stroke-width="0.5"><title>2022-10-03 10.3km</title></polyline><polyline fill="none" points="143.55265595691162,186.20625879480212 143.94756607228192,186.56525823715492 143.3476064739225,186.47261343386344 142.22363153009792,185.84725711635838 140.54526353970869,184.24909347813082 137.64419307661592,181.86334646333853 137.40876589241088,181.5738073387547 137.54546554776607,181.3190117058184 136.61135123635177,180.69359946741315 131.68256921923603,176.2344451426543 132.2141789899615,174.79817652169731 142.4742475648527,154.1999999999971 142.18565940362168,155.11537340774885 141.04649560921825,157.29367189349068 138.72260146864573,162.19454239457264 132.6926277836028,174.19585967253806 128.04483950242866,183.7047812527344 142.3907088866108,154.37380619599935 142.06414859887445,155.33552433630757 141.21357296573115,156.86497072205384 131.74332462160964,176.2460278086255 137.5530599730555,181.34217499175065 135.25954353366978,183.57738828742367 135.6620480743586,186.58841941471474 140.25667537841946,184.01747188286754 142.89194095614948,186.2641620819304 143.95516049757134,186.59999999999854 143.35520089921192,186.24100077406547" stroke="#4dd2ff" stroke-linecap="round" stroke-linejoin="round" stroke-width="0.5"><title>2022-09-30 15.0km</title></polyline><polyline fill="none" points="175.08161006408045,183.83400563044052 175.20767593034543,184.09032003992252 174.48629902896937,183.98352251950928 173.35170623267186,183.23593386833454 169.19853630536818,179.5832781253448 169.27557655697456,179.2948998755237 168.44914476704434,178.72881950158626 163.82672967092367,174.56313698252052 173.8139477422519,154.20000000000073 173.49878307661857,155.1403376702001 163.93178455944872,174.54177366655495 169.17752532765735,179.1346890606692 169.24756192002678,179.54055552041245 171.81790485983947,181.6766437017759 173.57582332822494,183.34273289082194 174.2481746149424,183.82332583653624 175.7189430545841,184.30391443701228 178.67448725242866,185.88448629979757 180.17327032907633,186.41845265956 180.17327032907633,186.59999999999854 180.13124837362557,186.41845265956 178.24026037976728,185.7242953458881 175.99908942406182,184.50682831921222 174.27618925189017,183.9408034512744 171.86693047449808,181.826166659539 174.20615265952074,183.791286442025 175.24269422653015,184.06896055300967 174.6193685544713,183.75924702818884 174.50030634747236,183.53497059053188 174.57734659904963,183.25729368998145 174.64037953218212,183.34273289082194" stroke="#4dd2ff" stroke-linecap="round" stroke-linejoin="round" stroke-width="0.5"><title>2022-09-23 10.1km</title></polyline><polyline fill="none" points="35.30393537163036,226.7995244481608 35.97033901361283,227.29607198805752 35.84917471505469,227.40000000000146 35.228207685024245,227.2498817002015 33.910545938357245,226.40690242595883 29.571349496749463,222.59601990673764 29.382030280248728,222.3996948719032 29.46533073548926,222.1225289749891 23.641871636733413,217.01781801891775 24.05837391296518,215.78199402318205 34.387630363868084,195.0 23.301097047078656,217.61839578491708 20.468881568609504,223.635376564358 20.03723375502159,224.47839649146044 20.02966098638717,224.27052971287412 23.29352427838603,217.47980147297494 23.664589942694874,217.08711577378563 29.46533073548926,222.09943175660737 28.897373086074367,222.7923442708925 27.21621844379115,224.27052971287412 27.625147951359395,227.3191671180648 32.16880914676585,224.79019524964315 34.819278177426895,226.99583445345343 35.88703855834319,227.33071467958143 35.33422644625534,227.01892970408153 35.167625535745174,226.73023840383394" stroke="#4dd2ff" stroke-linecap="round" stroke-linejoin="round" stroke-width="0.5"><title>2022-09-19 10.4km</title></polyline><polyline fill="none" points="71.29116391175194,226.7076368400194 71.91168849996757,227.22690999253973 71.88898638088722,227.40000000000146 70.86739102221327,227.0538194633591 70.14092321158387,226.5345447458276 65.68374049855629,222.6456048344553 65.41131506956299,222.35709731541647 65.47942142683314,222.09166911777356 63.90540783715551,220.8568348513727 59.66767894188524,216.9905932408692 60.15199081564788,215.68639929837082 70.42848338664044,195.00000000000364 69.75498718718882,196.7664847389242 68.8998740351235,198.32510260594427 65.21456337085692,206.00212124502286 56.0580420079059,224.42277918943728 70.26956855304888,195.42719410295467 70.02741261618212,196.16611693830782 59.75092004518956,216.96751041971947 65.52482566496474,222.1147498792816 63.27731587589369,224.353539659769 63.670819273305824,227.2961460581355 68.23394520871807,224.79205527133672 70.85982364919619,227.00766190079958 71.941957992065,227.33076405962856 71.170085943304,226.71917629440577" stroke="#4dd2ff" stroke-linecap="round" stroke-linejoin="round" stroke-width="0.5"><title>2022-09-17 15.0km</title></polyline><polyline fill="none" points="107.34965907549486,226.7295211122364 107.97887176583754,227.2728408113544 107.8651586289925,227.40000000000146 106.87964477669448,227.12256140788668 106.0154249369516,226.47519949017442 101.54270822263788,222.53307058142673 101.38350983112468,222.33653509176293 101.45173771321424,222.12843795907975 95.63720598455984,217.01826105992586 96.38013181168935,215.1914360987539 106.4096304778941,195.0 106.10639544643345,195.96000539077795 92.38501027194434,223.79319394461345 92.02112823416246,224.49838855233975 92.23339275619946,223.66602678395066 95.43252233832027,217.18012882817857 95.61446335719666,217.07607102944166 101.4668994647509,222.1053160090196 101.23189231537981,222.49838789675414 99.23054110759404,224.3249808436958 99.64748927589972,227.36532024916232 104.15811036914238,224.7295980175295 106.79625514303916,227.07632151247526 107.87273950481904,227.37688016844913 107.94096738687949,227.2728408113544 107.24352681447635,226.94916160845605" stroke="#4dd2ff" stroke-linecap="round" stroke-linejoin="round" stroke-width="0.5"><title>2022-09-11 10.4km</title></polyline><polyline fill="none" points="143.1976617288019,226.7201453671587 143.93820855231024,227.27324805258104 143.81730294847512,227.40000000000146 142.7896053158329,227.0773581282192 141.81480388483033,226.3168379627823 137.43197574550868,222.46799033357456 137.47731534697232,222.11074886019196 135.94332549819956,220.9583418419861 131.64361996154184,217.03998474209948 132.14235557737993,215.6684964990054 142.41177530380082,195.0 141.71656808169791,196.78702986951976 140.90801185602322,198.28578616255254 138.3765507755743,203.58876306819002 136.45717431453522,207.36971661880307 128.06179144768976,224.47311085162073 128.27337625442306,223.66646160079472 131.62095016081003,217.0860846173855 132.2330347802781,217.47793206117785 137.4924285474699,222.1222728134053 135.24811827609665,224.3348289286987 135.67128788956325,227.3308626088401 140.16746503245668,224.7727205406918 142.81983171676984,227.00822034810335 143.91553875160753,227.28477096845745 143.1220957264013,226.7547144412638" stroke="#4dd2ff" stroke-linecap="round" stroke-linejoin="round" stroke-width="0.5"><title>2022-09-09 10.4km</title></polyline><polyline fill="none" points="179.41566814039834,226.8582287514255 179.92970018275082,227.19251374333908 179.81631076164194,227.40000000000146 178.89407680329168,227.10029738838057 178.19862168718828,226.616159093046 173.5269775375491,222.51234659329202 173.38335093751084,222.31637067465635 173.48918106386554,222.07428185089157 171.97732211576658,220.90993561594587 167.66096481896238,217.02476778266282 168.38665711402427,215.21467392257182 178.4102819399268,195.0 177.71482682379428,196.7530661915407 176.24832364413305,199.63628219418752 172.92223395832116,206.50928451588334 164.07029981722008,224.3913758300405 164.57677256481838,223.04263101644756 167.26032219768967,217.57816087421452 167.64584622945404,217.0593550072772 173.48162176911137,222.08580991326744 171.26674841015483,224.2991549723847 171.6749503261235,227.3077839785583 176.19540858097025,224.70262013011597 178.84116174012888,226.98502673623807 179.91458159327158,227.3193109893582 179.9070222985174,227.1809867070515 179.2947194245644,226.9619725780467 179.16621141397627,226.69684909265197" stroke="#4dd2ff" stroke-linecap="round" stroke-linejoin="round" stroke-width="0.5"><title>2022-09-07 10.4km</title></polyline><polyline fill="none" points="35.21942302692332,267.4260331789592 35.97697003922076,268.06137984277666 35.7875832861464,268.2000000000007 34.80277217019466,267.89965590356223 34.007347807317274,267.2874111556339 29.38631103246007,263.2441217584819 29.40146197268041,262.89754086393805 23.591076388547663,257.8372218432705 23.810765022120904,257.04000768413607 34.355819432938006,235.79999999999927 34.03007421770599,236.84022668858233 28.181811282935087,248.76681386282144 25.144047763751587,254.71762516204763 20.144237482745666,265.057861028552 20.02302996077924,265.2542497454815 20.060907311359188,264.8268146203227 23.2501802330371,258.19538692413335 23.583500918437494,257.86032933518436 24.51528374355985,258.4957817229151 29.439339323318563,262.885988131482 27.181849226733902,265.1387270520536 27.643952904239995,268.1422416417736 32.1362066869915,265.5546076620085 34.79519670008449,267.77258677507416 35.84818704711506,268.1537933180807 35.90879080814193,268.0382764507449 35.32547960866941,267.85344898024414 35.17397020623321,267.63396558729437" stroke="#4dd2ff" stroke-linecap="round" stroke-linejoin="round" stroke-width="0.5"><title>2022-09-02 10.4km</title></polyline></svg>