<?xml version="1.0" encoding="utf-8" ?>
<svg baseProfile="full" height="300mm" version="1.1" viewBox="0,0,200,300" width="200mm" xmlns="http://www.w3.org/2000/svg" xmlns:ev="http://www.w3.org/2001/xml-events" xmlns:xlink="http://www.w3.org/1999/xlink"><defs /><rect fill="#222222" height="300" width="200" x="0" y="0" /><text fill="#FFFFFF" style="font-size:12px; font-family:Arial; font-weight:bold;" x="10" y="20">Over 10km Runs</text><text fill="#FFFFFF" style="font-size:4px; font-family:Arial" x="10" y="280">ATHLETE</text><text fill="#FFFFFF" style="font-size:9px; font-family:Arial" x="10" y="290">Sinnelf</text><text fill="#FFFFFF" style="font-size:4px; font-family:Arial" x="120" y="280">STATISTICS</text><text fill="#FFFFFF" style="font-size:3px; font-family:Arial" x="120" y="285">Number: 27</text><text fill="#FFFFFF" style="font-size:3px; font-family:Arial" x="120" y="290">Weekly: 1.8</text><text fill="#FFFFFF" style="font-size:3px; font-family:Arial" x="141" y="285">Total: 297.6 km</text><text fill="#FFFFFF" style="font-size:3px; font-family:Arial" x="141" y="290">Avg: 11.0 km</text><text fill="#FFFFFF" style="font-size:3px; font-family:Arial" x="167" y="285">Min: 10.1 km</text><text fill="#FFFFFF" style="font-size:3px; font-family:Arial" x="167" y="290">Max: 15.1 km</text><polyline fill="none" points="34.094391968188575,62.805713170735544 33.93570352264214,62.67895814170697 33.799684855068335,62.529156382548535 33.61077003891114,62.28716809889738 33.13470470227185,61.81471184026668 32.05411195405759,60.950452514320205 31.887866915843915,60.77759908612643 31.691395507077686,60.62779236026472 31.049085132253822,60.02856154344772 30.3387654236285,59.46389600517068 30.16496379277669,59.29103809618391 30.127180829585996,59.24494256579055 30.119624236918753,59.17579920071876 30.20274675602559,58.99141648632576 30.059171495755436,58.91074886236311 29.98360556931584,58.887700948984275 29.87781327229459,58.80703317912776 29.484870454733027,58.46131288012475 29.06925785925705,58.13863872062939 28.751880968164187,57.82748691868255 28.608305707923137,57.723769276231906 28.351381557964487,57.481760714228585 28.02644807426259,57.25127541994516 27.78463710960932,56.99774052624707 27.62594866406289,56.85944829360233 27.4748168111837,56.686582533777255 27.301015180331888,56.5252406877953 27.210336068586912,56.46761848991082 26.197752654145006,55.545655449386686 25.865262577775866,55.29211301455871 25.434536796994507,54.86569820960722 24.84512257069582,54.370131073992525 24.671320939873112,54.18573290695713 24.452179753163364,54.00133414697848 24.406840197305428,53.93218445912498 24.399283604638185,53.87455965551635 24.429509975248948,53.69015989487525 24.5353022722702,53.34440874537904 24.641094569291454,53.10238170027151 24.746886866312707,52.894929134297854 24.837565978057683,52.69900102169777 25.011367608909495,52.41087022817737 25.20028242500848,52.03053536387233 25.464763167576166,51.46579106290301 25.6612345763715,51.073924401607655 25.880375763081247,50.60137574821056 25.97861146746436,50.42849112150361 26.084403764485614,50.197977475043444 26.326214729138883,49.73694740200881 26.477346582018072,49.39117241459462 26.590695471706567,49.195232329468126 26.772053695167415,48.90708392911256 27.225449253892293,47.90431620778327 27.331241550913546,47.71989724642117 27.520156367041636,47.31647870041343 27.678844812588068,46.99374181992971 27.799750294914702,46.79779354193306 27.950882147822995,46.498106644983636 28.260702446248615,45.78346233870616 28.5629661520652,45.23018320983465 29.11459741514409,44.031393447752635 29.265729268052382,43.777800093859696 29.530210010620067,43.24755582022408 29.704011641442776,42.855632987884746 30.20274675602559,41.8988689381913 30.39921816479182,41.48388197629538 30.73170824116096,40.87292348270057 30.829943945544073,40.64237141576814 31.041528539615683,40.21584764778527 31.147320836636936,39.96223741658105 31.502480690949596,39.28209534881171 31.72162187768845,38.92472933388126 31.918093286425574,38.42902439937461 32.19768721429864,37.87567429356932 32.295922918681754,37.61052547512372 32.82488440384623,36.596031717308506 32.89289373764768,36.423104854107805 33.14226129493909,35.97349256861344 33.26316677723662,35.70833495241095 34.117061746132094,34.0136029583191 34.29841996959294,33.598558914425666 34.510004563693656,33.20657011380172 34.842494640062796,32.52634789270451 35.21276767965173,31.799999999999272 35.190097901708214,31.82305880467902 35.190097901708214,31.938352689106978 35.0918621973542,32.23811570335238 35.03140945616178,32.30729156098096 34.91050397383515,32.64164036271541 34.68380619448726,33.12586620449292 34.50244797102641,33.58702987030483 34.37398589606164,33.84066830520533 34.12461833877023,34.27876841321995 33.99615626380546,34.59004803439166 33.754345299181296,34.97049860941479 33.61077003891114,35.33941796792715 33.240496999322204,36.08877810620834 33.14226129493909,36.330876980457106 32.976016256725416,36.61908859299729 32.46216795689543,37.714279506657476 32.16746084371698,38.244574957570876 31.940763064369094,38.76333750020058 31.683838914439548,39.22445581966895 31.638499358552508,39.36279059228036 31.49492409834056,39.685570430356165 31.34379224543227,39.98529293849788 31.200216985162115,40.22737535892884 30.89039668670739,40.93056135453662 30.61080275886343,41.46082705700246 30.459670905955136,41.72595806912068 30.36899179421016,41.96803313981218 30.225416533940006,42.22163449856089 30.074284681031713,42.56745272545231 29.9382660134288,42.79799705129335 29.840030309045687,43.02854045006461 29.64355890027946,43.35129965095621 29.356408379768254,43.98528564867593 29.22794630480348,44.25040498713497 29.137267193058506,44.48094254582247 28.89545622843434,44.98812191205798 28.593192522617755,45.48377013997015 28.40427770651877,45.96788752854263 28.275815631553996,46.232997699633415 27.996221703651827,46.72863516626967 27.754410739027662,47.293426126328995 27.542826144985156,47.708371041633654 27.45970362587832,47.84668534607772 27.361467921495205,48.065682312455465 27.02897784509696,48.66503815373653 26.779610287805554,49.20675823535203 26.18263946886873,50.382388466368866 25.94082850421546,50.92409232341015 25.774583466059994,51.258332575798704 25.714130724867573,51.43121470049664 25.63100820578984,51.569520024939266 25.49498953818693,51.86918041684112 25.351414277916774,52.0651113648637 25.20028242500848,52.44544599985602 24.950914867717074,52.88340396972126 24.792226422199747,53.27525826532292 24.67887753251125,53.48270945534023 24.56552864285186,53.74778488379161 24.459736345801502,53.943709412884346 24.429509975248948,54.035908959660446 24.285934714978794,54.35860620593303 23.983671009162208,54.911797260312596 23.64362434015493,55.62632780720378 23.500049079884775,55.879868764357525 23.303577671118546,56.31780050450834 23.09954966971418,56.6289604980484 22.819955741841113,57.27432399106692 22.631040925713023,57.66614828265301 22.55547499927343,57.76986602935358 22.36656018314534,57.88510775013856 22.29855084931478,58.04644577012732 22.275881071400363,58.05796989702867 22.275881071400363,58.20778333621274 22.253211293485947,58.33454824830551 21.9962871435564,58.91074886236311 21.860268475924386,59.256466451875895 21.58823114068946,59.74046757575343 21.55044817746966,59.79808648508697 21.46732565839193,60.040085272037686 21.316193805483636,60.374272394223226 21.104609211412026,60.743028337954456 20.87791143206414,61.2500638889469 20.80234550559544,61.36529861623421 20.787232320348267,61.36529861623421 20.81745869090082,61.111781910549325 20.86279824678786,60.93892896863326 21.520221806917107,59.556086676893756 21.694023437739816,59.152751393874496 21.920721217087703,58.78398522400312 21.9962871435564,58.59960124981808 22.139862403768348,58.33454824830551 22.31366403462016,57.94272852367067 22.53280522132991,57.55090612185086 22.69149366687634,57.18212965103521 23.114662854990456,56.37542285290692 23.273351300536888,56.006638822535024 23.46982270933222,55.67242624646315 23.658737525431206,55.22296488320353 23.817425970977638,54.923322017188184 23.97611441652407,54.54300381699068 24.278378122340655,54.00133414697848 24.33883086347487,53.966759313483635 24.414396789943567,53.966759313483635 24.69399071778753,54.08200867742562 24.996254423604114,54.30098183084556 25.306074722029734,54.566053476690286 25.60078183520818,54.83112389726739 25.887932355719386,55.13076724506027 26.53024273054325,55.66090164011257 26.908072362770326,56.01816335942567 27.187666290672496,56.23712911943585 28.366494743269868,57.32042110547627 28.75943756083143,57.643099869052094 29.144823785725748,58.011873375467985 29.2883990459668,58.11559049690186 29.484870454733027,58.299976027301454 29.772020975273335,58.58807723175414 30.044058310450055,58.80703317912776 30.142294014862273,58.8185571531867 30.172520385414828,58.84160509437788 30.270756089827046,59.002940423364635 30.293425867741462,59.03751222054052 30.240529719245387,59.1412274869399 30.127180829585996,59.26799033565112 29.175050156307407,60.109227595043194 28.835003487271024,60.32817773452916 28.396721113851527,60.8006462399826 28.034004666900728,61.134828930076765 27.996221703651827,61.20396993319082 27.988665111013688,61.2500638889469 28.00377829631907,61.31920475312654 28.09445740803494,61.584243960202 28.14735355656012,61.860805305139365 28.19269311244716,62.02213214042422 28.253145853610476,62.63286533443534 28.253145853610476,62.86332900043999 28.374051335908007,63.497099306485325 28.389164521213388,64.00411050871116 28.411834299156908,64.14238551319795 28.442060669738567,64.18847710725458 28.479843632958364,64.20000000000073 28.5251831888163,64.18847710725458 28.955908969568554,63.9119269871444 29.2883990459668,63.72755949950806 30.0138319398975,63.27816126532343 30.27831268249429,63.12836107137264 30.550350017671008,62.9900836219349 30.807274167600553,62.82875950955713 32.37148884512135,61.895375379466714 32.85511077439878,61.66490782357505 32.93823329353472,61.64186101704399 32.998686034668935,61.64186101704399 33.044025590555975,61.66490782357505 33.30850633312366,61.87232866555496 33.799684855068335,62.32173791623791 34.18507107993355,62.71352772287719 34.75937212095596,63.18597657686405" stroke="#4dd2ff" stroke-linecap="round" stroke-linejoin="round" stroke-width="0.5"><title>2023-02-20 10.3km</title></polyline><polyline fill="none" points="70.1526565492677,62.82924728607759 69.64654483803315,62.32240605006882 69.40481984161306,62.10354140376876 69.11777140837512,61.792521784838755 68.89115422425675,61.63125168850456 68.70986047692713,61.46998113848895 68.40770423141657,61.239593851471 68.23396439023782,61.078322199671675 67.41814252737095,60.37563327894895 67.2595104984648,60.21435919661235 66.84404566089506,59.845731019056984 66.23973316984484,59.38494246368646 66.16419410848175,59.30430408569373 66.1188706716348,59.200626004432706 66.17930192075437,59.00478911717801 66.17930192075437,58.98174943939739 66.14908629620913,58.94718990540787 66.09620895324042,58.90111049425104 65.99800817345385,58.86655091164357 65.9149152059399,58.808951560917194 65.76383708315552,58.71679247941938 65.00844646940823,58.07167476028917 64.84226053435123,57.89887413847464 64.67607459932333,57.7721533514341 64.13219335742178,57.26526740198824 63.731836332095554,56.93118103017332 63.30881758837495,56.539491080180596 62.07753088793834,55.479610737562325 61.67717386261211,55.15703456960546 60.93689106110833,54.44275230923449 60.408117631450295,54.004962008337316 60.3703481007542,53.94735777244205 60.3703481007542,53.901274342082615 60.55919575423468,53.290665391916264 60.740489501535194,52.88742950035885 60.96710668565356,52.4841907720911 61.110630902287085,52.161597747093765 61.1635082452558,52.10399165873969 61.24660121276975,51.9542155580566 61.35990980479983,51.712268722465524 61.48832620916073,51.458799513740814 61.57897308282554,51.25141478193473 61.699835581035586,51.03250786216449 61.82825198536739,50.709906667070754 62.37213322726893,49.67296195686504 62.523211350053316,49.292744196220156 62.65162775438512,49.08535162731641 62.9688918121974,48.40555961280916 63.2634941515571,47.87554668602752 63.671405083005084,47.02290691114831 64.0188847653335,46.37765756912631 64.41168788450886,45.51347296410677 64.65341288092895,45.041046538197406 64.75161366068642,44.822115898452466 65.12930896758917,44.06161349406466 65.20484802898136,43.877247755168355 65.39369568243274,43.5085144981349 65.61275896040024,43.139778868793655 65.73362145861029,42.828656336292624 65.786498801579,42.678855996051425 65.93757692433428,42.44839316963407 66.17174801463261,41.90680187974431 66.36814957420575,41.58414931687366 66.6703058197163,40.996456052842404 66.85915347316768,40.558563036178384 67.39548080894747,39.48686338123662 67.50878940100665,39.24486391136816 67.77317611585022,38.73781408957075 67.87137689563679,38.484287496412435 68.15087142275297,38.02332718086109 68.31705735775176,37.5969355880261 68.48324329280877,37.320355561234464 68.62676750941318,36.98615291463648 68.8458307874098,36.5828022973983 68.92136984880199,36.38688811612883 69.13287922064774,35.97200881551544 69.20086437588907,35.79914155381266 69.63899093188229,34.94632209769043 69.91093155284761,34.46228378770684 70.12244092472247,34.001291120031965 70.16021045538946,33.86299259657244 70.23574951678165,33.70164389741694 70.43970498250565,33.27522014848 70.59833701138268,32.998619263376895 70.68142997892573,32.825743032157334 70.82495419553015,32.58371543240355 70.9835862244363,32.249485161726625 71.074233098072,32.1111824105501 71.21020340852556,31.80000000000291 71.14977215943509,31.94982877896473 71.08934091034462,32.29558600459495 70.84761591392453,32.860318320133956 70.75696904028882,33.02166938813025 70.63610654207878,33.27522014848 70.46992060705088,33.59791949376813 70.26596514132689,33.932141900018905 70.11488701857161,34.27788716561918 69.73719171166886,35.00394543373113 69.5256823398231,35.48797916870171 69.40481984161306,35.70694546770392 69.12532531449688,36.30621737623733 68.86849250583327,36.79024011223373 68.77784563216846,37.032249947260425 68.33971907617524,37.87351428000329 68.19619485954172,38.20771175202026 67.78828392809373,39.0259111295818 67.71274486673065,39.210292475159804 67.50878940100665,39.57905338665296 67.38792690282571,39.890193560182524 66.95735425298335,40.719892431596236 66.85159956701682,40.97340913536391 66.57210503992974,41.46891581848831 66.0811011409678,42.54057841141548 65.80160661388072,43.02454849813512 65.40880349470535,43.85420199610235 65.13686287374003,44.3381609905191 65.08398553080042,44.49947974720635 64.74405975456466,45.19084070461031 64.60053553793114,45.51347296410677 64.3134871047223,46.06655261234846 64.13974726354354,46.49288119868288 63.93579179781955,46.896162077970075 63.7242824259738,47.24182914468838 63.58831211546203,47.58749412669931 63.41457227434148,47.898590828212036 62.99155353059177,48.762739473084366 62.88579884468345,48.93556763868037 62.74227462804993,49.258178820164176 62.538319162325934,49.69600537645965 62.35702541502542,50.01861227794143 62.22105510451365,50.318174203541275 61.97933010812267,50.79055713606067 61.66961995649035,51.4818422153694 61.322140274132835,52.15007653407156 61.24660121276975,52.2883309377321 61.110630902287085,52.645486603803874 60.793366844474804,53.244581433584244 60.57430356647819,53.73998204400414 60.46099497441901,53.94735777244205 60.40056372532854,54.12017030644711 60.1135152920906,54.61556334968918 59.85668248339789,55.133993345312774 59.70560436064261,55.3989668657523 59.50164889491862,55.802185090247804 59.426109833526425,55.91738977629211 59.335462959861616,56.14779845381054 59.222154367831536,56.37820620522325 59.161723118741065,56.56253173958976 59.07863015119801,56.68925520061384 58.86712077935226,57.15006542473202 58.55741062769084,57.749113178258995 58.2703621944529,58.2559948494345 57.779358295490965,59.3734227023524 57.5149715806765,59.92636863543885 57.439432519313414,60.06460428535502 57.30346220880165,60.398672396531765 56.797350497567095,61.343268245203944 56.78979659144534,61.25111323780584 56.812458309868816,61.11288044895991 56.85022784053581,60.96312788487921 57.01641377559281,60.55994596032906 57.114614555379376,60.398672396531765 57.250584865832934,60.06460428535502 57.348785645648604,59.857250685494364 57.650941891159164,59.30430408569373 57.72648095252225,59.11998736720125 57.82468173233792,58.970229597045545 57.92288251212449,58.71679247941938 58.11173016554676,58.39423452734627 58.24770047602942,58.07167476028917 58.42899422335904,57.749113178258995 58.54985672153998,57.48415052092969 58.61784187678131,57.26526740198824 58.91999812229187,56.70077550138012 59.161723118741065,56.15931886339604 59.25992389849853,55.98651247680027 59.509202801040374,55.44504909210809 59.607403580856044,55.29528172101709 59.894452014093986,54.707729024928994 60.00776060615317,54.37362774715075 60.12106919821235,54.16625356082659 60.27214732096763,53.98192032092993 60.30991685166373,53.94735777244205 60.40056372532854,53.93583691833555 60.71027387698996,54.074087014952966 61.37501761710155,54.604042629882315 61.571419176703785,54.79989455199029 62.153069949301425,55.29528172101709 62.8027058771404,55.89434885762603 62.95378399989568,55.99803291877106 63.15773946561967,56.20540047850591 63.943345703941304,56.90814051897178 64.09442382669658,57.0694239029217 64.35881054154015,57.27678758699403 65.07643162462045,57.933434304533876 65.52211208676454,58.313594755712984 65.65052849112544,58.45183429474491 65.9149152059399,58.670712883089436 66.08865504708956,58.78591180442163 66.15664020236,58.79743168384448 66.25484098214656,58.970229597045545 66.26239488826832,59.016308952610416 66.25484098214656,59.039348616508505 65.99800817345385,59.33886340445679 65.55232771130977,59.719014535545284 65.1972941228305,60.06460428535502 64.76672147298814,60.41019195183253 64.09442382669658,61.05528335519921 63.98866914078826,61.170477484840376 63.98866914078826,61.239593851471 64.01133085921174,61.32022950724786 64.09442382669658,61.51605848476174 64.13974726354354,61.67732890518528 64.1473011696653,61.8616374015437 64.1850707003614,62.04594530535178 64.20017851266311,62.28784852987155 64.26816366787534,62.65646100450249 64.26060976175359,62.84076635301608 64.32859491699492,63.34760300627386 64.36636444766191,63.531906132866425 64.37391835381277,64.01569902116898 64.39658007220714,64.15392481083472 64.42679569681059,64.20000000000073 64.67607459932333,64.03873667593143 65.15197068601265,63.79684083930624 65.47678864994668,63.56646290313074 66.04333161027171,63.23241325128765 66.48901207241579,63.013552079126384 66.84404566089506,62.77165191677341 67.44835815191618,62.42607848561602 67.72785267900326,62.25329098887232 68.41525813756743,61.88467592192683 68.63432141556405,61.757963945248775 68.88360031810589,61.63125168850456 69.0120167224668,61.64277099613173 69.38215812318958,61.91923368515563 69.63143702573143,62.149618240880955 70.00157842651242,62.529750733679975 70.69653779116925,63.12874227386783" stroke="#4dd2ff" stroke-linecap="round" stroke-linejoin="round" stroke-width="0.5"><title>2023-02-12 10.4km</title></polyline><polyline fill="none" points="106.05714274241473,62.65481204540265 105.15726760341204,61.766886712059204 104.91528437274974,61.60544426637716 104.5069376710162,61.236431256507785 103.69024426754913,60.57912095513893 103.46338498880505,60.34848397741371 103.28945954176015,60.21010134586686 103.07016223896062,60.06018645178847 102.90379876791849,59.898739204814774 102.60888170552789,59.66809949266462 102.20053500379436,59.31060610699569 102.10979129228508,59.20681728756972 102.10222931634053,59.13762463699095 102.14003919615061,59.06843190298969 102.245906859549,58.987706941217766 102.26103081146721,58.941578340673004 101.99636165294214,58.82625667701723 101.59557692715316,58.537951504018565 100.97549489859375,57.94980445986221 100.49152843729826,57.54617064753984 100.29491706236149,57.407781258309114 99.93194221635349,57.050273791475774 99.65971108188387,56.83115521091895 98.83545570244314,56.04693448798207 98.38929912092863,55.67788573348298 98.21537367391284,55.51642615707533 97.54235781362513,54.96284701762488 97.33818446274381,54.76678645841821 97.15669703975436,54.54765915835742 96.68029255440342,54.19013387243467 96.39293746798648,53.92487173693007 96.37025154012372,53.87873906648019 96.37025154012372,53.8441395392656 96.44587129971478,53.57887580437091 96.61223477075691,53.15214461433061 96.79372219377547,52.783077242147556 97.03570542443777,52.3563401340507 97.23987877528998,51.929599852290266 97.41380422233487,51.502856396953575 97.54991978956969,51.27218293752594 97.6860353568336,50.97230605394725 97.76165511642466,50.82236702446971 97.89020870768582,50.49942009174265 98.15487786621088,50.06113206153168 98.40442307284684,49.55363647567356 98.64640630350914,49.173011840659456 98.85057965439046,48.65397417845088 99.19843054845114,47.91577919387055 99.47066168292076,47.38519568253105 99.77314072125591,46.86614184771315 99.89413233660161,46.589311215881025 100.01512395191821,46.35861800240673 100.12855359129026,46.08178492192383 100.27979311044328,45.8856940151054 100.4310326295963,45.620393486253306 100.68813981217681,44.95136931416346 100.9679329226201,44.34001281834571 101.11161046582856,44.06316999822229 101.2779739369289,43.79786104211962 101.54264309545397,43.198027575544984 101.68632063866244,42.955785359496076 101.76950237419805,42.71354212067308 101.89049398951465,42.52897515693985 102.0039236288867,42.29826561738082 102.17028709998704,41.90605727102593 102.54838589788415,41.1908469135451 102.66181553722708,40.92552467500718 102.78280715257279,40.71788032810582 103.38020325326943,39.50660665967371 103.50119486858603,39.195132154334715 103.72805414733011,38.82597499527765 103.82635983478394,38.58371431878186 103.98516132988152,38.26069849212945 104.09102899333811,38.01843542860661 104.27251641632756,37.70695284376416 104.49181371909799,37.24549405392827 104.61280533441459,37.014763267154194 104.74135892570484,36.830177969590295 104.83210263721412,36.553298909711884 104.93040832466795,36.34563873782827 105.32363107448327,35.54960111566834 105.92858915112447,34.39590379793299 106.03445681455196,34.10747584329147 106.336935852858,33.56522736276747 106.48061339606647,33.18449664349828 106.61672896330128,32.953749523268925 106.86627416993724,32.43456510927717 107.14606728038052,31.973063907731557 107.19900111207971,31.85768802725579 107.20656308802427,31.811537610083178 107.19900111207971,31.799999999999272 107.17631518421695,31.823075217842415 107.16875320827239,31.92691358341108 107.04776159292669,32.30765264898582 106.86627416993724,32.75761374135618 106.53354722779477,33.403705548025755 106.42011758839362,33.66906257495066 106.10251459816936,34.22284719915115 105.87565531942528,34.684330302457965 105.45218466577353,35.56113797167927 105.33875502640149,35.82648501967196 105.21776341108489,36.08029409104711 104.99846610828536,36.48407893593321 104.8699125169951,36.80710476563763 104.5069376710162,37.568515596562065 104.17421072887373,38.19148057836719 104.06078108947258,38.36452520617968 103.93222749818233,38.67600422090982 103.74317809924833,39.033626189535426 103.43313708496862,39.714255390441394 103.31970744559658,39.9219033697118 103.07772421496338,40.31412528003784 102.9869805034541,40.5102352296708 102.93404667172581,40.694808687618206 102.76012122471002,41.04088232077993 102.69962541703717,41.21391835452596 102.47276613829308,41.60613143235969 102.35933649892104,41.89452169084689 102.15516314803972,42.263659106436535 101.75437842225074,43.1634216073071 101.5199571675621,43.56715660480404 101.42921345608192,43.76325543564235 101.23260208117426,44.120845695899334 101.00574280243018,44.63992436612898 100.87718921113992,44.882159471791965 100.75619759579422,45.1820681857389 100.52177634110558,45.57425413862438 100.30247903830605,46.08178492192383 100.1890493989631,46.28940985749068 100.12855359129026,46.439360732623754 100.0680577836174,46.5547072929985 99.96975209616357,46.670053621455736 99.90169431254617,46.889211006746336 99.73533084147493,47.281385291174956 99.47822365889442,47.75429777500176 99.35723204357782,48.031122786236665 99.26648833206855,48.16953479101721 98.99425719756982,48.73471367875027 98.88082755819778,48.91926068130124 98.73715001498931,49.27681880972159 98.39686109690228,49.88812270693961 98.32124133731122,50.06113206153168 98.23049762580195,50.211073080190545 97.9960763711133,50.70702904285645 97.81458894812386,51.01844106112185 97.64822547702352,51.34138507273019 97.18694494359079,52.37940708586393 96.96764764079126,52.80614402247738 96.5971108188678,53.6134754914965 96.4761192035221,53.809539991219935 96.40049944396014,54.005603821002296 96.20388806902338,54.409262537727045 95.9240949585801,54.870583308475034 95.70479765580967,55.44722905668095 95.53087220879388,55.758615351347544 95.04690574746928,56.77349228754247 94.85785634850617,57.14253399611698 94.79736054083332,57.234794052466896 94.60831114187022,57.66149488357405 94.44950964677264,57.92673974706122 94.31339407953783,58.12278951035114 93.88992342585698,59.11456040158737 93.54963450776995,59.7372915036176 93.32277522902586,60.244697035068384 92.95980038301786,60.982733435834234 92.91442852729233,61.10958248636598 92.8161228398385,61.24796294897533 92.80099888789118,61.24796294897533 92.79343691194663,61.17877275935825 92.83880876770127,60.93660643887415 92.937114455126,60.67137548671235 93.20178361368016,60.16397372786378 93.34546115688863,59.97946288507592 93.61769229135825,59.29907402520257 94.10165875268285,58.39956450654063 94.23777431994677,58.05359555272662 94.41169976699166,57.75375410558263 94.56293928614468,57.39624879415351 94.97884796382277,56.55437265011642 95.11496353105758,56.30065412993645 95.28888897810248,55.90854148316794 95.42500454536639,55.666352921671205 95.53843418473843,55.44722905668095 95.90140903071733,54.616857343524316 96.26438387672533,53.94793805826703 96.33244166031363,53.890272237560566 96.37025154012372,53.890272237560566 96.80128416972002,54.14400141520673 97.33818446274381,54.54765915835742 98.2909934334748,55.45876191258867 98.54810061605531,55.666352921671205 98.7220260631002,55.793213724227826 99.258926356124,56.30065412993645 99.56140539443004,56.55437265011642 99.83363652892876,56.83115521091895 100.37809879789711,57.29245651235033 100.55958622088656,57.46544354436628 100.99061885051196,57.83448080315429 101.30822184076533,58.13432182849647 101.5199571675621,58.29577403937583 101.89049398951465,58.641741533174354 102.07954338847776,58.76859575827257 102.16272512401338,58.78012794666938 102.245906859549,58.96464264555834 102.25346883549355,59.02230336732464 102.09466734039597,59.24141358155248 100.42347065365175,60.74056628804465 100.06049580767285,61.08651904347789 99.99243802405545,61.17877275935825 99.99243802405545,61.25949463913639 100.09074371150928,61.60544426637716 100.18148742298945,62.05517566402341 100.23442125468864,62.72400045544782 100.2419832306623,62.89697111570422 100.3100410142797,63.16219178220126 100.30247903830605,63.415879968495574 100.34785089406068,63.72722302810871 100.35541287003434,64.08468890255244 100.40078472578898,64.18846890066561 100.4310326295963,64.20000000000073 100.46884250940639,64.18846890066561 100.62764400453307,64.0731577800725 100.87718921113992,63.95784642775834 101.18723022541963,63.761816597150755 101.41408950416371,63.634973408738006 101.61826285501593,63.49659870168398 101.83756015781546,63.39281745244807 101.9509897971875,63.31209857329304 102.49545206618495,62.989221921343415 102.69206344106351,62.862377025368914 103.38776522921398,62.48184065529131 103.81879785883939,62.19355384660594 104.1439628250373,62.032112601180415 104.33301222397131,61.89373402932324 104.77916880551493,61.68616554599066 104.9379703006125,61.64003911436521 105.02115203614812,61.64003911436521 105.07408586784732,61.67463394155493 105.33119305042783,61.87067090158598 106.11007657411392,62.63174922350663 106.69234872289235,63.15066047440632" stroke="#4dd2ff" stroke-linecap="round" stroke-linejoin="round" stroke-width="0.5"><title>2023-02-11 10.3km</title></polyline><polyline fill="none" points="142.17400070338044,62.84843921077845 141.8331049590197,62.524984053674416 141.21191715818713,61.889620411242504 140.9846533286036,61.704786033202254 140.17407900313265,61.0000995152659 139.59076850724523,60.538005306247214 138.90140155752306,59.90261970413485 138.37869474949548,59.52138497215492 138.19688368585776,59.34809562190276 138.113553615025,59.20946376554275 138.1362799979688,59.11704234232093 138.21203460783,59.02462077046221 138.15900638094172,58.94375177322945 137.9999217002187,58.88598813412682 137.63629957291414,58.63182743250945 137.44691304824664,58.458535400841356 137.3181302114972,58.308348550835944 135.5985005677503,56.841117914889765 135.04549191577826,56.28656430107367 134.34097404411295,55.72045196903491 133.3864659598912,54.83083561213425 133.18950397428125,54.69219286202133 132.69709901019814,54.27626260542456 132.5683161734196,54.126064828731614 132.38650510978187,53.975866659602616 132.34862780486583,53.906544295332424 132.34862780486583,53.87188308185796 132.45468425867148,53.52526979759932 132.7046744711988,52.99379203587523 132.81073092497536,52.78582113932134 132.9925419886422,52.508525440222 133.16677759130835,52.06947118094831 133.3182868110307,51.80372618439651 133.50009787469753,51.433991971582145 133.5531261015858,51.29534102868274 133.65918255539145,51.133581172602135 133.7879653921409,50.798505736929656 133.9773519168084,50.45187392053049 134.06068198764115,50.23233935566532 134.1894648243906,50.0359129816934 134.34097404411295,49.72394030223222 134.41672865394503,49.64305822003371 134.55308695169515,49.31952875326897 134.6818697884737,49.0768804582076 134.74247347636265,48.880450135769934 134.84095446916763,48.62624519266319 135.13639744758257,48.09472213340996 135.22730297944508,47.828958760717796 135.3409348942223,47.632524173714046 135.47729319197242,47.4591989806795 135.71213248252752,46.88144456248119 135.89394354616525,46.592565175684285 136.31059390041628,45.72591830413148 136.35604666630388,45.58725359208256 136.41665035419283,45.494810264852276 136.60603687883122,45.101924465518096 136.67421602772083,44.99792483381316 136.848451630387,44.66281362940936 137.03783815502538,44.223699438654876 137.13631914783036,43.9463624318596 137.23480014066445,43.749914575695584 137.2954038285243,43.66902408683745 137.5756958849961,43.17212287201255 138.0681008491083,42.155195366212865 138.3256665226072,41.6929496429002 138.40142113246839,41.47338162199958 138.64383588402416,41.02268674071456 138.76504325977294,40.75689066684572 138.82564694769098,40.58354473902364 138.95442978444044,40.37552893559041 139.06048623821698,40.109729868916475 139.1513917700795,40.00572120383731 139.18169361399487,39.93638198925328 139.27259914582828,39.70525066979826 139.43925928752287,39.40477856487996 139.56804212427232,39.05807803032803 139.75742864891072,38.757602542013046 140.325588222855,37.62502696641968 140.48467290354893,37.27831569562477 140.65133304524352,36.97783090242956 140.71951219410403,36.81603074768282 140.78011588199297,36.71201612198638 140.85587049185415,36.46931459650659 141.10586070438148,36.03013780234323 141.28009630704764,35.625629891233984 141.51493559763185,35.23267662276703 141.58311474646325,35.05931403256909 141.72704850521404,34.758817637353786 141.76492581013008,34.64324168239182 141.8785577249364,34.46987731410991 142.00734056168585,34.19249323710028 142.12854793746374,33.972896559997025 142.18915162532357,33.83420348947038 142.3482363060175,33.533700688483805 142.4164154549071,33.36033297315225 142.50732098674052,33.198522633658285 142.69670751137892,32.782436811528896 142.85579219207284,32.51660262580117 143.030027794739,32.20453483871461 143.18911247546203,31.80000000000291 143.13608424857375,32.088953746777406 143.08305602165638,32.20453483871461 143.030027794739,32.2738833823023 142.9845750288514,32.389464102285274 142.96942410687916,32.45881242268297 142.47701914282516,33.5799319909238 142.2573307742132,33.94978107148199 142.1588497814082,34.15782013334319 141.8558313419635,34.65479928833156 141.81795403704746,34.77037522005412 141.7118975832418,34.97841131149835 141.5982656684646,35.290464036657795 141.30282268999144,35.86833497952466 141.14373800929752,36.23816933368289 140.93162510171533,36.665787338970404 140.87859687482705,36.804473576350574 140.5831538963539,37.324543985916534 140.52255020849407,37.45167159246921 140.43164467666065,37.60191294673132 140.22710723005002,38.13353304683187 140.07559801032767,38.37622754460972 139.98469247846515,38.59580739764715 139.68167403904954,39.15053171067848 139.56046666330076,39.40477856487996 139.4998629753827,39.497231687531894 139.22714637994068,40.08661684850449 139.18169361399487,40.16751237927383 139.03775985527318,40.502649793805176 138.54535489121918,41.46182538714493 138.31051560063497,41.94718525076678 138.2802137566905,42.06274651894273 138.0908272320521,42.42098497377083 137.855987941497,42.813889098801155 137.78023333163583,43.05656383427413 137.69690326077398,43.18367876299453 137.62872411194257,43.40324025047448 137.56812042402453,43.51879859120527 137.47721489222022,43.76147035050235 137.35600751644233,43.9579181671761 137.28025290658115,44.10814251512056 137.22722467969288,44.24681079549919 137.12116822588723,44.397034388395696 136.97723446713644,44.70903598066434 136.83330070841475,44.951702714872226 136.67421602772083,45.390811344052054 136.58331049588742,45.494810264852276 136.47725404208177,45.691252157484996 136.37877304924768,45.922359406922624 136.33332028336008,46.049467998047476 136.12120737574878,46.41923684670837 135.98484907802776,46.765892981988145 135.71213248252752,47.22809791026884 135.5985005677503,47.470754009787925 135.3182085112785,47.99072791656363 135.03034099380602,48.63779998718019 134.97731276688864,48.77645734037287 134.78792624227935,49.088435162131645 134.66671886650147,49.38885664945337 134.4924832638062,49.74704944766927 134.4015777320019,49.89725866653316 134.2349175903073,50.186121445683966 133.9546255338355,50.76384264935041 133.79554085314157,51.00648382345389 133.75766354819643,51.08736398721885 133.66675801639212,51.20290688092791 133.59100340653094,51.46865465505107 133.51524879666977,51.64196775891833 133.4394941868086,51.792172026256594 133.30313588905847,52.15034984909653 133.21223035722505,52.33521494902743 133.0607211375318,52.600957488564745 132.98496652767062,52.79737509780534 132.8486082298914,53.05156159582839 132.72740085414262,53.375070058704296 132.55316525147646,53.675469144029194 132.3107504999207,54.23004794669396 132.12893943625386,54.518888954156864 131.9547038335877,54.842389159530285 131.79561915289378,55.23520839012053 131.7198645430326,55.37384983061929 131.52290255739354,55.72045196903491 131.45472340853303,55.85909223930503 131.30321418881067,56.09015861336593 131.14412950811675,56.54073537142904 130.9698939054215,56.841117914889765 130.78808284178376,57.19926428080362 130.67445092700655,57.51119639440003 130.5456680902571,57.68449128174689 130.4017343315063,57.97331493310776 130.24264965081238,58.23903141079791 129.83357475759112,59.1748057492332 129.7653956087015,59.37120089875316 129.30329248859198,60.29540435961462 129.23511333970237,60.46869085454455 129.0608777370362,60.79215758082864 128.97754766620346,60.976994893018855 128.91694397828542,61.16183161097433 128.84118936842424,61.26580200363969 128.8260384464811,61.25424974707494 128.81088752450887,61.17338388610733 128.89421759537072,60.79215758082864 128.98512312717503,60.52645290338842 129.40177348139696,59.75243662664798 129.75782014772994,59.00151535428813 130.0759895091178,58.435429757148086 130.11386681406293,58.34300708952287 130.1896214239241,58.06573819510595 130.39415887053474,57.77691500804576 130.43961163642234,57.62672637735159 130.5229417072842,57.453431315876514 130.7577809978393,57.02596793075645 131.060799437284,56.33277730654663 131.12140312514384,56.13637177670171 131.19715773500502,55.974625542417925 131.38654425967252,55.6280249364645 131.45472340853303,55.53559775526446 131.58350624531158,55.30452915214846 131.66683631614433,55.15433406205557 131.87894922372652,54.58821058000103 132.20469404611504,53.998974095782614 132.2577222730324,53.94120548790306 132.32590142189292,53.91809802852731 132.37135418780963,53.9296517593757 132.4471087976708,53.952759214142134 132.78042908106,54.126064828731614 133.09102298144717,54.38024545170629 133.56070156255737,54.78462139923431 133.71221078227973,54.95792450600493 133.96977645577863,55.142780577349185 134.4924832638062,55.65113170854602 134.93186000097194,56.00928548810043 135.484868652944,56.52918216535909 136.43937673716573,57.33790098469399 136.83330070841475,57.71915019654625 137.01511177205248,57.86933858580596 137.2196492186631,58.077291092387895 137.49236581416335,58.308348550835944 137.61357318994123,58.446982580138865 137.81811063655186,58.62027464665516 137.94689347333042,58.701144098929944 138.00749716119026,58.75890792375867 138.12112907599658,58.816671690579824 138.22718552980223,58.96685721262111 138.24233645177446,59.03617347508771 138.2347609907738,59.0592788773065 138.17415730288485,59.128595028341806 138.09840269302367,59.24412176097758 137.3635829774139,59.89106717365212 137.04541361602605,60.202984682124224 136.59846141785965,60.56111010489258 136.40907489322126,60.7690528750536 136.0227263829438,61.12717477161641 135.9772736170271,61.20804069758378 135.9772736170271,61.2426974882037 136.03030184394447,61.35821997262974 136.09848099277588,61.60081643437297 136.13635829772102,61.85496401065393 136.1893865246384,62.05135000461087 136.20453744661063,62.55964005043643 136.22726382955443,62.74447168016195 136.2348392905551,62.859991147033725 136.2802920564718,63.03326991210997 136.31059390041628,63.19499628828271 136.31816936138785,63.39137770493835 136.36362212730455,63.78413852589438 136.36362212730455,64.0729315354074 136.37119758827612,64.15379331810982 136.4014994322206,64.20000000000073 136.45452765910886,64.20000000000073 136.848451630387,64.00362134540774 137.5075167361647,63.587758450808906 137.80295971457963,63.437584999614046 138.34081744457944,63.10258127188354 138.49990212527337,63.06792560244503 138.6362604230235,62.987062292479095 138.8180714866612,62.84843921077845 139.1059390041628,62.652055939572165 139.46198567046667,62.46722401270381 139.9013624076324,62.17842293736976 140.15135262018885,62.05135000461087 140.42406921565998,61.889620411242504 140.81041772593744,61.69323386482938 140.89374779677019,61.67012952114601 141.02253063351964,61.67012952114601 141.30282268999144,61.85496401065393 141.60584112943616,62.120662548182736 142.07551971057546,62.5827440366229 142.82549034812837,63.26430745311518" stroke="#4dd2ff" stroke-linecap="round" stroke-linejoin="round" stroke-width="0.5"><title>2023-02-05 10.3km</title></polyline><polyline fill="none" points="178.19704054336762,62.793188782012294 177.8567515568866,62.470309210599225 177.58452036764356,62.18202234396449 177.2517933586205,61.8476077643827 177.03249601175776,61.68616554576147 176.69220702521852,61.38634307768007 176.4199758360046,61.19030446316174 176.03431498463033,60.83282055980817 174.80171265569516,59.771887477490964 174.29506016464438,59.39133061418033 174.15894457002287,59.24141358117049 174.1211346826458,59.172220972304785 174.1211346826458,59.103028280002036 174.2043164349161,58.96464264512906 174.189192479942,58.93004618431223 174.15894457002287,58.89544970257339 173.99258106554043,58.826256676573394 173.72791185378446,58.64174153271597 173.56154834927293,58.49182254147672 173.44055670962553,58.3534354327312 173.2363833177078,58.157386457405664 172.699482916767,57.73068931350281 172.48018556987518,57.53463821067635 172.22307833563536,57.32705395995072 171.2475832409109,56.43904618849774 170.7106828399701,55.97773802668962 170.2947740786767,55.574090343056014 169.83349345249007,55.19350564076376 169.45539457860286,54.84751735737882 168.4798994839075,53.99407067240827 168.40427970912424,53.913338572103385 168.39671773166629,53.8672058923803 168.43452761901426,53.636541937317816 168.47233750642044,53.49814311921364 168.56308123614872,53.221344481629785 168.7067588082573,52.89841105024607 168.94118011006503,52.50627515455926 169.0167998848483,52.33327317217481 169.26634514163015,51.84886484667368 169.45539457860286,51.39905345423176 169.72762576778769,50.926171008915844 170.01498091200483,50.257208698629256 170.2947740786767,49.76124884798992 170.85436041207868,48.630905728135986 171.01316193910316,48.342549326698645 171.28539312831708,47.7542977742487 171.52737640761188,47.32752326526679 171.6786159571784,46.98148754935028 171.91303725901525,46.57777657644692 171.98865703379852,46.38168736472653 172.10208669595886,46.17406276304246 172.27601217795745,45.72420688197599 172.60873918700963,45.08978874766035 172.88097037622356,44.489968787420366 173.02464794830303,44.23619691662316 173.13807761049247,43.993959083702066 173.2363833177078,43.832466626940004 173.37249891230022,43.54408610933024 173.68253998889122,42.94424998964678 173.9623331555922,42.30980111573081 174.16650654753903,41.95219956791334 174.46142366915592,41.35234680516078 174.65803508358658,41.029346565992455 174.88489440793637,40.533306943751086 174.96051418271963,40.40641239805336 175.1722495520953,39.875759438687965 175.37642294401303,39.460462394617934 175.48985260620248,39.16052377098822 175.68646402063314,38.81443879524522 175.87551345757674,38.422206632261805 176.06456289452035,38.1107262395999 176.2460503540351,37.73002568533775 176.3670419936534,37.45315096822378 176.4880336333299,37.24549405353173 176.5939013180032,37.00322670302921 176.80563668740797,36.62251879955875 176.96443821446155,36.2187349290798 177.15348765140516,35.895705786515464 177.6147682775918,34.97275535665176 177.90212342175073,34.45358921461957 178.09117285869434,34.04979007814836 178.29534625061206,33.565227362600126 178.41633789025946,33.33448177379614 178.60538732723217,32.91913737508003 178.8927424713911,32.37687766209274 178.96836224617437,32.192277441357874 179.1876595930371,31.799999999999272 179.17253563809209,31.926913583385613 179.12716377319884,32.12305220543203 178.79443676417577,32.99989902145171 178.56757743982598,33.426780120695184 178.4238998677174,33.72674872256539 178.17435461096466,34.14208727421283 177.91724737669574,34.74201542911396 177.75844584964216,35.00736626572689 177.41815686316113,35.63035905870129 176.94175228200038,36.72634847833979 176.76026482254383,37.060909498315596 176.56365340811317,37.51083331116752 176.38972792608547,37.81078055948092 176.2460503540351,38.21455322505426 176.02675300714327,38.5837143182398 175.86038950263173,38.94133686212081 175.78476972784847,39.04516234438415 175.73183588549728,39.13745150425166 175.5730343584728,39.48353453152231 175.49741458368953,39.71425538989206 175.07394384487998,40.59098618993448 174.78658870072104,41.1216325341411 174.70340694847982,41.29466832438629 174.49167157907505,41.640738339283416 174.31774609707645,42.067555149435066 174.15138259256491,42.40208502430687 174.0833247952396,42.57511695282301 173.80353162856773,43.08267426619204 173.60692021410796,43.48640983183941 173.48592857448966,43.82093143408201 173.31200309249107,44.07470514165834 173.22882134019164,44.293872440346604 173.14563958795043,44.466898663751635 173.03977190324804,44.73220452620808 172.8053506014403,45.18206818496765 172.70704489422496,45.34355684314869 172.46506161490106,45.885694014305045 172.36675590768573,46.03564594452109 172.06427680858178,46.67005362070995 171.74667375450372,47.26985079086444 171.5954342049372,47.6274191977318 171.42907070039655,47.90424482108938 171.32320301569416,48.11186316215026 171.28539312831708,48.23874066740609 170.85436041207868,49.046136400462274 170.71824481742806,49.33448926611527 170.55944329040358,49.61130665388191 170.46113758318825,49.85352077267453 170.39307978589204,49.9457925489769 170.3325839660538,50.095733869042306 170.2115923264064,50.31487817048401 169.9847330020566,50.78776565353837 169.8486174074642,51.0069073120394 169.6746919254656,51.35291875309122 169.59151017319527,51.49132274524891 169.50832842095406,51.66432726609855 169.3268409614684,52.12567010484054 169.16803943441482,52.44860788503138 169.13022954703774,52.56394236609776 168.85043638033676,53.10601132191732 168.7748166055535,53.30207755551601 168.51014739379752,53.844139538567106 168.44208959653042,54.02867010922273 168.38159377669217,54.12093517199537 168.20010631720652,54.24779939110158 168.14717247485532,54.351597179938835 168.08667665504618,54.52459307742538 167.9959329252888,54.69758845338583 167.9278751279926,54.95131406145447 167.81444546583225,55.25117015183787 167.69345382618485,55.470294765476865 167.58758614148246,55.71248415446462 167.3909747270518,56.093065414843295 167.05068574054167,56.90035064198673 166.89944619097514,57.15406651077501 166.80870246121776,57.361651387200254 166.6120910467871,57.719156914216 166.46085149722057,57.972869162887946 166.29448799270904,58.330370882158604 166.23399217287078,58.503354785494594 165.86345527644153,59.16068886272478 165.77271154671325,59.42592679692825 165.68952979444293,59.61043941941534 165.50804233498638,59.933335081339465 165.37192674036487,60.26776081588832 165.14506741604418,60.60218460165561 165.06944764126092,60.798225225156784 164.96357995652943,60.99426517901884 164.84258831691113,61.28255801227351 164.82746436193702,61.259494638878095 164.8123404069629,61.21336786437314 164.83502633939497,61.005796920166176 164.88796018174617,60.8443523333699 165.2433731232304,60.06018645145741 165.38705069530988,59.8180154106667 165.51560431244434,59.48358705516148 165.63659595209174,59.252945674496004 165.7802735242003,59.01077122719289 165.91638911879272,58.72246698114759 166.09031460079132,58.422629028806114 166.32473590262816,57.91520738669715 166.49866138462676,57.61536521649032 166.60452906930004,57.303988996878616 166.94481805583928,56.600503169061994 167.0809336504317,56.35831752787999 167.2548591324594,55.92007424574331 167.34560286215856,55.75861535076183 167.5800241640245,55.41263047462053 167.66320591626572,55.25117015183787 167.82956942077726,54.7667864577561 168.1169245649653,54.17860076093348 168.26060213701567,53.947938057586725 168.28328806947684,53.92487173623158 168.358907844231,53.90180540565416 168.79750253801467,54.08633579081288 169.2587831641722,54.45539478102364 169.46295655608992,54.628390365614905 169.73518774530385,54.92824814340929 169.97717102459865,55.1127752279026 170.30989803362172,55.44722905610615 170.70312086251215,55.75861535076183 171.01316193910316,56.04693448737453 171.1946493985597,56.18532715843685 171.42907070039655,56.427513529662974 171.64836804725928,56.58897054263798 171.87522737160907,56.80809004796174 172.05671483109472,56.93494832651413 172.3743178851728,57.22326155300834 172.57092929963255,57.43084617916611 172.9263422411168,57.719156914216 173.5313004393247,58.26117717481975 173.69766394386534,58.44569354230043 173.879151403351,58.61867709801663 174.0152669979434,58.710934781200194 174.07576281778165,58.7685957578542 174.15894457002287,58.79166013230497 174.2572502772382,58.860853200021666 174.28749818715733,58.91851402604516 174.28749818715733,59.01077122719289 174.0833247952396,59.252945674496004 173.5842342816759,59.69116350524564 173.12295365551836,60.163973727543635 172.8734083987365,60.34848397710812 172.63898709689965,60.579120954847895 172.5255574347393,60.659843678080506 172.36675590768573,60.83282055980817 172.08696274098475,61.08651904323051 172.01134296620148,61.178772759121784 172.01890494371764,61.24796294873158 172.06427680858178,61.36327974602318 172.1474585608521,61.64003911416876 172.18526844822918,61.91679714763086 172.2003924031742,62.228148339952895 172.24576426806743,62.53949784312135 172.2533262455254,62.793188782012294 172.3213840428507,63.12759785164599 172.3365079977666,63.36975492707279 172.39700381763396,63.842534843759495 172.4045657950919,64.08468890253789 172.43481370501104,64.18846890069472 172.4574996374431,64.20000000000073 172.53311941222637,64.16540669507958 172.88097037622356,63.94631527977617 172.9944000383839,63.842534843759495 173.21369738527574,63.73875422007768 174.15894457002287,63.19678569174721 174.40092784934677,63.0814725785749 175.32348910166183,62.516434974877484 175.6259682007949,62.37805757085516 175.8301415927126,62.228148339952895 176.88125646219123,61.64003911416876 176.94931425948744,61.61697588446259 177.0778678766219,61.64003911416876 177.5769583901856,62.04364413356234 177.90968539920868,62.34346316768642 178.00042912896606,62.45877776375346 178.12898274610052,62.59715497317666 178.48439568758477,62.88543975446373 178.7036930344184,63.11606653686613" stroke="#4dd2ff" stroke-linecap="round" stroke-linejoin="round" stroke-width="0.5"><title>2023-02-04 10.3km</title></polyline><polyline fill="none" points="35.3479162552685,104.50380724951901 35.771688974433346,104.72305573764243 35.976007964025484,104.8730673788632 35.93060374411289,104.95384271567309 35.89276689419057,104.98846068237617 35.80952582435566,105.0 35.49926365495776,104.8730673788632 35.26467518543359,104.86152803574078 34.87117194625898,104.73459510858811 34.75009402647265,104.66535884822952 34.591179256822215,104.51534666449152 34.27334971743403,104.30763684011981 33.811740148375975,103.93837307523427 33.607421158783836,103.75374030248713 33.43337164912373,103.58064653892507 33.01716629997827,103.22291777438295 32.691769390628906,102.88826626765513 32.41934407115332,102.62285161713226 32.15448612169712,102.40359511105271 31.738280772522558,102.02277918996333 31.420451233163476,101.79198043305223 31.19343013362959,101.57272075482615 29.574012956873048,100.23406456231896 29.362126597290626,99.94555698533077 29.37726133724209,99.86477460404058 29.43023292714497,99.7609113753715 29.43023292714497,99.72629025742935 29.218346567591652,99.6455075677004 29.13510549775674,99.54164394251347 28.983758098067483,99.43778012946859 28.18161687965039,98.7453499085459 27.803248380398145,98.44529421996776 27.356773551291553,98.00674847035043 26.751383952534525,97.47587281886445 26.145994353748392,96.9103694440455 25.896271144243656,96.70263211185375 25.449796315137064,96.29869625910942 24.814137236389797,95.77934598762295 24.617385616787942,95.60622818671618 24.39793188724434,95.37540364029701 24.125506567797856,95.15611946178615 23.61092540883692,94.65984165000191 23.58822329886607,94.6367588567191 23.58822329886607,94.60213464934714 23.815244398399955,93.99043687703306 23.95145705813775,93.6903563422311 24.42820136717637,92.77856355756376 24.49630769705982,92.6054367097604 24.624952986778226,92.37460010078212 24.79143512644805,91.99371766722834 25.010888856020756,91.5666646616337 25.056293075933354,91.4281603020645 25.37412261526333,90.88568167703852 25.91140588419512,89.78916667951125 26.070320653903764,89.51214905119923 26.236802793544484,89.1312476300809 26.35788071330171,88.91193960503006 26.6303060327773,88.32326655395082 26.774086062447168,88.05778457595443 26.970837682078127,87.63070229651203 27.21299352159258,87.20361684042291 27.379475661262404,86.76498522744805 27.71243994057295,86.13011774765255 27.863787340262206,85.7953666136018 28.068106329854345,85.4144405353909 28.18161687965039,85.21820490273603 28.302694799407618,84.94116522072363 28.36323375927168,84.75647135676991 28.59025485883467,84.28319061856746 28.794573848426808,83.93688516773545 28.923219138145214,83.64829569646463 29.089701277844142,83.32507376654394 29.309155007387744,82.88641252266461 29.422665557154687,82.59781777130411 29.79346668641665,81.95136026422915 29.997785676037893,81.51268852473731 30.118863595766015,81.28180731560496 30.239941515523242,80.99320449856168 30.406423655193066,80.64687920313372 30.663714234688086,80.17356458752329 30.731820564513328,79.95422234496073 30.905870074173436,79.5963463607477 31.322075423347997,78.83440941535446 31.473422823066358,78.49961574167173 31.602068112784764,78.2687224153924 31.723146032571094,77.99164919808027 31.806387102376902,77.84156731380062 31.98043661203701,77.47213331158491 32.07881242185249,77.31050518808843 32.13178401172627,77.17196643435818 32.45718092110474,76.52544782989935 32.638797800726024,76.13291512503201 33.25932213946362,74.95530090693137 33.38796742921113,74.6435754528211 33.720931708521675,73.9393006023347 34.03876124790986,73.32738265202352 34.16740653765737,73.10801425137834 34.39442763719126,72.60000000000218 34.30361919736606,72.98101111001233 34.21281075756997,73.24656281248463 34.03119387794868,73.60447838094842 33.925250698113814,73.8469360466188 33.819307518337155,74.0316650093846 33.64525800867705,74.44730300221636 33.43337164912373,74.82830185217244 33.36526531924028,74.92066482893279 33.032301039929735,75.59029196659321 32.933925230114255,75.7519249331126 32.75230835049297,76.12137000486473 32.676634650619235,76.3407268913652 32.5177198809688,76.67553315480836 32.40420933117275,76.94106776854824 32.19989034158061,77.32205006913136 32.09394716180395,77.57603686497532 31.919897652143845,77.93392544287781 31.821521842328366,78.17636482486341 31.56423126286245,78.63815129171417 31.480990193027537,78.75359732804282 31.32964279333828,79.03066686817692 31.06478484388208,79.61943520124987 30.93613955413457,79.83877872280937 30.739387934532715,80.2774632520377 30.62587738473667,80.5660696669438 29.937246716115624,81.85900859762478 29.755629836494336,82.27458992759784 29.483204517047852,82.80560613851048 29.1956444576208,83.44051037894678 29.021594947960693,83.77527524253674 28.983758098067483,83.87916738953209 28.5751201188541,84.65258079721025 28.52214852895122,84.79110150150518 28.41620534917456,85.01042526655874 28.370801129261963,85.16048841255542 28.18161687965039,85.4837000102998 28.068106329854345,85.7261075146489 28.000000000029104,85.899255105458 27.878922080271877,86.14166085538454 27.795681010436965,86.28017796731001 27.68217046064092,86.55721118861766 27.568659910873976,86.76498522744805 27.462716731097316,86.92658673785263 27.40217777120415,87.06510195621377 27.190291411650833,87.44601708371556 27.054078751883935,87.73458746763572 26.910298722214065,88.08087001404783 26.5849018128647,88.71571592525652 26.312476493389113,89.2813000066817 26.259504903515335,89.35055481750533 26.100590133835794,89.67374283016397 25.971944844088284,90.0084713541728 25.828164814360207,90.28548658810178 25.760058484505862,90.38936695627126 25.555739494913723,90.83951304674338 25.268179435486672,91.358907996997 25.086562555865385,91.7859625477031 24.904945676244097,92.08605303463992 24.647655096749077,92.64006212108507 24.56441402688506,92.80164709780365 24.29198870746768,93.43644081875391 24.163343417691067,93.64418996693712 23.656329628749518,94.71754859268185 23.361202199332183,95.28307356191726 23.270393759477884,95.42156862381307 22.997968440060504,96.03325115164989 22.59689783086651,96.8295827930524 22.316905141429743,97.42970948680158 22.112586151837604,97.79901510424679 21.8477282023523,98.43375358526464 21.59043762285728,98.82613386452067 21.45422496314859,99.13772805879125 21.16666490372154,99.69166911861976 20.954778544139117,100.1994437296089 20.145069955760846,101.82660030573606 20.039126775984187,101.98815943557565 20.02399203600362,101.91891986414339 20.061828885925934,101.74582057035514 20.137502585799666,101.54964074002055 20.251013135537505,101.2957599647707 20.478034235100495,100.8456958321076 20.636949004780035,100.48795003110718 20.894239584275056,99.9801779710906 21.030452243983746,99.66858834779487 21.287742823478766,99.25313288690086 21.47692707311944,98.79151218302286 21.87799768228433,97.96058556504067 22.165557741711382,97.40662780688217 22.256366181536578,97.18735138467673 22.377444101293804,96.99115598138815 22.52879150098306,96.61030416745416 22.76337997050723,96.20636766520329 22.876890520303277,95.89475756499087 23.035805289982818,95.64085178866299 23.111478989827447,95.42156862381307 23.330932719400153,94.94837578344595 23.52011696898262,94.67138304318723 23.55795381893404,94.6367588567191 23.603358038817532,94.64830025451738 24.004428648011526,94.90221041951372 24.239017117535695,95.08687165248557 24.624952986778226,95.45619233707112 24.783867756457767,95.5716045639092 25.230342585593462,95.96400440006255 25.866001664311625,96.57568115000686 26.024916433991166,96.69109112692968 26.176263833680423,96.85266470493298 26.48652600304922,97.10656512332935 26.607603922806447,97.24505578747994 27.069213491893606,97.60282179068963 27.28866722143721,97.83363738410117 27.772978900466114,98.21448108498225 28.09837580981548,98.54915982807506 28.370801129261963,98.7453499085459 28.582687488844385,98.96462038180834 28.72646751854336,99.06848505061134 28.847545438300585,99.19543050182256 29.26375078750425,99.55318435460867 29.316722377378028,99.58780557690625 29.384828707232373,99.58780557690625 29.490771887038136,99.7609113753715 29.490771887038136,99.79553247247895 29.37726133724209,99.93401665211422 29.119970757776173,100.1879034473568 28.90808439819375,100.37254768443381 28.537283268931787,100.73029420428793 28.18161687965039,101.03033795423107 27.909191560203908,101.30730002434939 27.65946835069917,101.49194066236669 27.26596511149546,101.87276010348069 27.190291411650833,101.9766195127886 27.197858781612013,102.02277918996333 27.24326300152461,102.10355853575675 27.34163881134009,102.42667478268777 27.40974514122354,102.80748802560629 27.455149361107033,103.3152350882192 27.455149361107033,103.6152653333993 27.492986211029347,103.71912159150088 27.53082306095166,103.92683354433757 27.58379465082544,104.66535884822952 27.614064130815677,104.84998869033734 27.62919887076714,104.91922472809892 27.67460309067974,104.97692136246769 27.70487257061177,104.98846068237617 27.757844160485547,104.96538204024546 28.007567369990284,104.75767384348728 28.469176939077443,104.50380724951901 28.756736998504493,104.29609738341242 28.983758098067483,104.20378164622161 29.278885527455714,104.00761021200742 29.808601426397217,103.74220073447214 30.21723940555239,103.44217115243373 30.42155839514453,103.32677474200318 30.60317527479492,103.24599711673 30.973976404056884,103.00366355922961 31.33721016329946,102.79594826748144 31.46585545304697,102.71516989555676 31.639904962707078,102.63439141003983 32.19232297161943,102.41513494805258 32.26799667146406,102.42667478268777 32.41934407115332,102.53053319030369 32.72203887056094,102.79594826748144 33.28959161939565,103.3613936894726 34.06146335788071,104.06530776223372 34.34902341727866,104.29609738341242 34.65171821668628,104.50380724951901 34.78036350640468,104.63074068674541 34.87117194625898,104.67689823074397 35.19656885560835,104.80383128544781 35.514398394938326,104.84998869033734 35.680880534637254,104.94230338878333 35.79439108437509,104.98846068237617 35.90033426415175,104.98846068237617 35.93817111410317,104.95384271567309 35.93060374411289,104.91922472809892 35.90790163417114,104.89614605811948 35.76412160444306,104.83844934260196 35.680880534637254,104.78075256908778" stroke="#4dd2ff" stroke-linecap="round" stroke-linejoin="round" stroke-width="0.5"><title>2022-12-09 10.3km</title></polyline><polyline fill="none" points="71.38838449149625,104.49208683602046 71.5852062094782,104.6652395555102 71.89557891865843,104.81530482355811 71.9788496455003,104.8730221299702 71.9788496455003,104.90765248601383 71.9182891169039,104.96536969965382 71.80473812573473,105.0 71.4943654165545,104.88456558431426 71.26726343424525,104.86147867334512 70.85090979997767,104.73450049714666 70.72978874275577,104.6652395555102 70.41941603357554,104.42282560214153 70.19988411734812,104.28430288385061 69.52614823644399,103.71866498442978 69.25362585767289,103.41852832732911 68.36035806054133,102.55274072363682 67.28540867756237,101.67539597536961 66.31644021967077,100.83267064095708 65.94550698186504,100.48634157703054 65.77139546209946,100.37089809177269 65.56700367800659,100.20927682265392 65.41560235645738,100.05919952273689 65.36261189391371,99.96684406638451 65.35504182786099,99.9206662825527 65.37018196002464,99.87448846161351 65.43831255470286,99.74749926253571 65.40803229040466,99.77058822869367 65.21878063844633,99.65514330510996 64.97653852397343,99.42425276194263 64.5450447575713,99.06637058609704 64.2422421144729,98.77775430418114 63.47009537462145,98.1427933798659 63.182432863657596,97.85417245787175 62.538977247080766,97.2884712442683 62.23617460398236,97.0575711888232 61.797110771527514,96.63040363960317 61.433747599774506,96.35332028762059 61.108234758488834,96.05314514813654 60.85085251182318,95.84533067117809 60.35879821682465,95.40660875096 59.89702418609522,94.94479258354113 59.60936167516047,94.71388310758266 59.5866514769441,94.66770110099606 59.57908141083317,94.62151905728751 59.69263240203145,94.32133486820749 60.0105751772644,93.64014185126871 60.1316962344863,93.43231864471818 60.27552748998278,93.08594496291698 60.62375052951393,92.42782921348407 60.707021256384905,92.22000162085897 60.97197356907418,91.73506764726335 61.13851502278703,91.3655913957482 61.52458839272731,90.63817808037129 61.73655024287291,90.16477716506415 62.024212753836764,89.62209326723314 62.10748348067864,89.43734864286307 62.24374467006419,89.17177720433028 62.57682757746079,88.46742961633936 62.720658832928166,88.22494730066319 62.88720028664102,87.89008908656979 62.97804107956472,87.64760433362244 63.31869405307225,87.01252036725054 63.4246749781305,86.74693771728926 63.86373881061445,85.86935153220475 64.41635363426758,84.67996990722895 64.5450447575713,84.44901916338131 64.80999707026058,83.9062812599368 65.09765958122443,83.38663378059937 65.19607044022996,83.17877347240574 65.35504182786099,82.78614639346779 65.63513427271391,82.2780367776104 65.90008658540319,81.71218214239707 66.02120764265419,81.51586392553145 66.51326193768182,80.46497264867503 66.71008365569287,80.10697232825623 66.7782142504002,79.9337455656605 67.04316656308947,79.43715928375968 67.39138960264972,78.6980461689127 67.6866221796663,78.17835156469664 68.51932944817236,76.38825637593982 68.70101103401976,76.11107535810879 68.82970215735259,75.78769581311644 68.96596334673814,75.57980800122823 69.04923407358001,75.40656758316618 69.70025975623867,74.00907576638565 69.94250187071157,73.55863727272299 70.07119299401529,73.35074139176868 70.1923140512663,73.0619958640491 70.32857524065184,72.83099839661008 70.44212623179192,72.59999999999854 70.41941603357554,72.71549931443224 70.33614530673367,72.90029773441347 70.32857524065184,72.95804711868914 70.23773444769904,73.22369353840986 70.01063246538979,73.65103520046614 69.60184889720404,74.52880809980707 69.36717684884206,74.92149163230715 69.25362585767289,75.18712897004298 68.85998242165078,75.93783654256549 68.77671169480891,76.12262459387784 68.69344096793793,76.36515800887355 68.57231991071603,76.5845921208711 68.1408261443139,77.48541811050382 68.10297581390478,77.60090760008097 67.9288642941392,77.88963030813466 67.37624947051518,78.97521470163338 67.15671755425865,79.48335353763105 66.92204550586757,79.85290623093533 66.7782142504002,80.23400495543319 66.64952312706737,80.51116607586664 66.5662524002255,80.7190360384775 66.44513134297449,80.92690524872887 66.38457081434899,81.08858078100457 66.08933823736152,81.64289343659766 65.71083493347396,82.46280443075375 65.45345268686651,82.97091241199087 65.37775202607736,83.1556778361919 65.22635070452816,83.42127709214037 65.00681878830073,83.88318591626376 64.83270726850606,84.12568656187796 64.65102568265866,84.54139957239386 64.53747469151858,84.73770744811918 64.43149376640213,85.01484683634044 64.29523257701658,85.28043749527933 64.23467204842018,85.43055341142099 64.03785033040913,85.80006784123907 63.7577578855271,86.42361805117616 63.583646365761524,86.72384351577784 63.43224504421232,87.0587085288862 63.2429933922831,87.4166655219451 63.08402200465207,87.7861671749306 62.96290094743017,88.00555765677927 62.87963022055919,88.25958769413774 62.76607922941912,88.45588286261773 62.69037856862997,88.64063064366565 62.523837114917114,88.9062045379469 62.251314736146014,89.46044175340649 62.00150255559129,89.91075555331554 61.88795156442211,90.07240579986683 61.55486865702551,90.83446512056616 61.29748641041806,91.2732219615209 61.062814362026984,91.82743633882274 60.65403079384123,92.67029378786538 60.1316962344863,93.66323327225473 59.90459425217705,94.22897018677395 59.74562286454602,94.5291548585119 59.632071873376844,94.81779248662133 59.48067055182764,95.048701544918 59.314129098143894,95.39506339199943 59.132447512296494,95.64906075264298 58.92805572820362,96.22632330466877 58.56469255647971,96.88439553820353 58.314880375924986,97.42701083207066 58.09534845969756,97.85417245787175 57.815256014844636,98.44295760057867 57.54273363604443,98.8701116721677 57.338341851951554,99.35498541802735 57.17937046434963,99.66668780790133 56.96740861417493,100.12846601755518 56.884137887333054,100.27854313650096 56.747876697947504,100.60178483034542 56.3239529975981,101.50223424449723 56.021150354499696,102.04480592345135 56.051430618797895,101.97554173910612 56.11956121350522,101.7100282589272 56.22554213859257,101.42142525814415 56.3239529975981,101.2136301998762 56.5964753763983,100.70568355992873 56.84628755695303,100.10537719526474 57.14909020002233,99.51660909055136 57.27778132335516,99.23953965926557 57.35348198414431,99.11254905665555 57.580583966424456,98.68539678771413 57.709275089757284,98.48913657225421 57.807685948733706,98.25824134267896 57.90609680773923,97.98116584218951 58.08020832753391,97.65790940259467 58.65553334943252,96.44568155342495 58.822074803116266,96.15705210469241 59.24599850343657,95.2218827295219 59.495810683991294,94.77161056357363 59.57151134478045,94.65615559355865 59.60936167516047,94.62151905728751 59.647212005540496,94.62151905728751 60.184686697029974,95.02561068084106 60.48748934012838,95.31424581447573 60.737301520683104,95.51051687698418 61.03253409767058,95.82224012732331 61.32776667471626,96.03005468780975 61.67598971427651,96.37641061799513 61.93337196088396,96.58422317374789 62.39514599161339,97.02293610046763 62.62224797392264,97.20765633042902 62.894770352722844,97.47319062042516 63.34897431737045,97.83108272143363 63.7880381498253,98.2466965568492 63.90158914102358,98.32751000899589 64.2119618501747,98.58149440421766 64.4844842289749,98.8701116721677 64.85541746675153,99.2164504796674 65.05223918476258,99.38961910040962 65.27177110101911,99.55124267552674 65.40046222432284,99.59742075632676 65.48373295116471,99.67823230839349 65.52158328154474,99.75904374679521 65.51401321546291,99.80522166056107 65.31719149745186,100.02456624404294 64.76457667382783,100.46325289853849 64.47691416286398,100.77494927529187 64.17411151976557,101.06355552371315 63.65934702652157,101.50223424449723 63.25056345836492,101.8947334185068 63.212713127955794,101.9524536591016 63.212713127955794,101.99862980986654 63.273273656581296,102.14870204337421 63.34140425125952,102.40266954553954 63.4246749781305,103.06067103306123 63.47009537462145,103.58014056831234 63.52308583713602,103.78792706724562 63.53822596927057,103.92645098238427 63.56093616751605,104.21504139944591 63.583646365761524,104.35356428472733 63.6063565639779,104.82684828949641 63.62149669614155,104.8961090363373 63.65177696046885,104.9538262615497 63.70476742298342,104.9538262615497 63.810748348070774,104.90765248601383 63.97728980178363,104.79221788474388 64.46934409681126,104.5267174216824 64.88569773104973,104.26121573163255 65.70326486742124,103.81101440960265 65.92279678364866,103.66094651830281 66.24073955891072,103.49933450463504 66.7176537217747,103.17610911348311 66.99774616662762,103.02603956371968 67.9591445584665,102.4950210861316 68.1408261443139,102.41421349621669 68.20895673899213,102.39112559253044 68.29979753191583,102.42575744461283 68.64802057150519,102.69126761704683 68.89783275205991,102.92214503042851 69.19306532904739,103.23382806673544 69.90465154030244,103.90336368636054 70.35885550495004,104.27275930890028 70.63137788375025,104.44591268937802 70.88119006430497,104.63060905334714 71.27483350029797,104.79221788474388 71.53978581304546,104.82684828949641 71.80473812573473,104.96536969965382 71.89557891865843,104.97691313544055 71.94099931509118,104.94228282114636 71.95613944728393,104.9191959333657 71.95613944728393,104.88456558431426 71.92585918295663,104.84993521438446 71.68361706848373,104.73450049714666" stroke="#4dd2ff" stroke-linecap="round" stroke-linejoin="round" stroke-width="0.5"><title>2022-12-07 10.4km</title></polyline><polyline fill="none" points="107.29589606530499,104.46994453786465 107.90798056169297,104.89629388202593 107.82485797576373,105.0 107.23544327550917,104.8271563658418 105.98104788782075,103.99749967067328 101.51509804360103,100.16018132064346 101.3564094704634,99.96427529673383 101.45464525383431,99.7337967647436 95.65873403468868,94.58235984652129 106.41933061362943,72.59999999999854 106.23797224432928,73.33787714989376 102.35388050164329,81.29251207254129 92.2582646101946,101.75045251312258 92.0844628395862,102.02701691461698 92.06179304342368,101.86568784251358 95.19778151271748,95.3199541453323 95.65117743599694,94.67455965271802 101.46220185255515,99.6761769870136 101.32618307558005,99.99884699665563 99.23300522979116,101.88873488057288 99.65617475818726,104.95390841515109 104.1447943985695,102.4188142003004 106.81983034586301,104.60822034813464 107.88531076553045,104.96543131484941 107.93820695657632,104.8732480525614 107.22788667678833,104.46994453786465" stroke="#4dd2ff" stroke-linecap="round" stroke-linejoin="round" stroke-width="0.5"><title>2022-11-10 10.4km</title></polyline><polyline fill="none" points="143.35896751264227,104.55044549561717 143.98638847161783,104.90778397858594 143.89567700764746,105.0 142.88273232692154,104.71182444095393 141.62033112035715,103.78965292452995 137.50807808811078,100.14693051110225 137.34933302621357,99.92789869010812 137.4476037788263,99.70886603290273 136.7748270878801,99.28232635295353 131.61183293163776,94.64782593756172 132.02003451940254,93.5410241830723 142.39893785252934,72.60000000000218 141.7412797389261,74.3184667199821 132.73816694229026,92.37655345027088 128.01361152841127,102.0605413770827 128.47472813681816,100.75790959172446 131.6269515089516,94.64782593756172 137.5005187994684,99.73192214143637 135.25541006677668,101.89915497352558 135.65605236586998,104.95389200781938 140.17650698588113,102.39484034014822 142.8676137496077,104.61960795635605 143.92591416233336,104.93083799783199 143.31361178067164,104.58502673642215 143.1926631620736,104.25074053562275" stroke="#4dd2ff" stroke-linecap="round" stroke-linejoin="round" stroke-width="0.5"><title>2022-11-08 10.4km</title></polyline><polyline fill="none" points="179.2330329118704,104.38884854339267 179.95142091671005,104.85009552814881 179.83042925273185,105.0 178.8851818779367,104.74631527978272 178.16679387312615,104.23894247516 173.5161767891259,100.16826648029746 173.3573752301745,99.96068886230569 173.4632429361518,99.7185140256297 171.88278932552203,98.54222170993671 167.6253951494582,94.64413953789335 167.8673784773855,93.87141132807665 178.42390115905437,72.59999999999854 178.21972772610025,73.31532743775097 169.17560084411525,91.50702904128775 164.04857908326085,102.02489956119825 178.35584334805026,72.74998875019082 178.0533641881193,73.60376339723734 175.32348976974026,79.02608954466996 167.72370087643503,94.62107317483606 173.50105283115408,99.73004618387495 171.209773194656,101.97877275884093 171.65592995556653,104.93081336934483 176.19311735455994,102.39391264527512 178.84737198293442,104.63100367259176 179.92117300073733,104.95387558881703 179.15741312189493,104.4234421958281" stroke="#4dd2ff" stroke-linecap="round" stroke-linejoin="round" stroke-width="0.5"><title>2022-11-04 15.1km</title></polyline><polyline fill="none" points="35.33862718901946,145.21253856417388 35.97315594236716,145.707849584629 35.822077667777194,145.79999999999927 35.27064196544234,145.66177432141558 33.94870706263464,144.83241325082417 29.393697083258303,140.823665592201 29.454128393088467,140.50111049210682 27.051983826851938,138.55422152938627 23.63006090701674,135.42062824629102 34.447265368828084,113.39999999999782 28.864923122135224,125.03937674466943 20.026844057661947,142.81655507052346 23.267473047977546,135.93906543148842 23.637614820734598,135.45519087117646 29.491897961765062,140.52415020227272 27.22572384265368,142.72439985938763 27.633635184087325,145.7424060077792 32.20375299092848,143.17365511441676 34.84006888282602,145.43139744975997 35.890062891325215,145.707849584629 35.27064196544234,145.30468977573764" stroke="#4dd2ff" stroke-linecap="round" stroke-linejoin="round" stroke-width="0.5"><title>2022-11-01 10.4km</title></polyline><polyline fill="none" points="71.33945809750003,145.26843128712062 71.99118075767183,145.69599781235593 71.80172649599263,145.79999999999927 70.85445518759661,145.53421625768533 70.03601277712733,144.97953318682994 65.534579519619,141.00414795215693 65.32996891700896,140.76145565131446 65.4512196444557,140.5187623263846 62.814016321877716,138.39226272492306 59.57813753237133,135.41040802399948 70.39976495955489,113.40000000000146 70.08905997039983,114.3365387740414 66.00442608856247,122.46412963006514 64.62519906353555,125.41197608794391 56.00881924229907,142.87631127801797 56.40288410658832,141.69754888258103 59.59329387330217,135.42196589885862 65.46637598538655,140.50720547585297 63.19292484520702,142.7260781984587 63.640036902797874,145.75377682869293 68.16420467171702,143.1883325739218 70.84687701714574,145.4417694506992 71.90024271205766,145.74222103007196 71.22578554050415,145.33776661525917" stroke="#4dd2ff" stroke-linecap="round" stroke-linejoin="round" stroke-width="0.5"><title>2022-10-28 10.4km</title></polyline><polyline fill="none" points="107.57114910395467,145.707685394289 106.76144100388046,145.52305573773265 105.83822242246242,144.80761021229773 101.47941993988934,140.9532825880633 101.41888101649238,140.549371006382 95.59200964216143,135.5060072108863 106.42090955990716,113.40000000000146 105.61120145986206,115.38584833169443 95.1379677169025,136.49855774746902 92.15642574091908,142.74199973139184 92.07318472128827,142.88047873503456 92.08831945213024,142.53428059978614 92.45155299236649,141.5995352099053 95.2212087365333,135.9561194638336 95.59200964216143,135.55217273253947 96.74981655160082,136.3138984814832 101.48698730528122,140.52629025876377 99.2319124097703,142.788159436368 99.66325223876629,145.76538204023018 104.15826729897526,143.23821461573243 106.77657573472243,145.40766190095383 107.80573743200512,145.79999999999927 107.92681527874083,145.69614605812603 107.63168802729342,145.56921320752372" stroke="#4dd2ff" stroke-linecap="round" stroke-linejoin="round" stroke-width="0.5"><title>2022-10-23 10.2km</title></polyline><polyline fill="none" points="143.5835754162108,145.7190516512601 142.77971642208286,145.56871870150644 141.6421801096294,144.65514848631938 137.48638078160002,140.98915759635202 137.37262715032557,140.8156822093879 137.47121363074984,140.57281578924812 136.7280232399644,140.09864506263693 131.60910983404028,135.5186486431594 142.42328837752575,113.39999999999782 141.65734726047958,115.34382036453098 133.7249273751804,131.26216357097292 128.03724581302959,142.9204815872181 128.90935698588146,140.7231617892612 131.2375146386621,135.9697250780846 131.60910983404028,135.5186486431594 132.5115553085925,136.15478105422153 137.47121363074984,140.57281578924812 137.34987642409396,140.8503773286211 135.23405888298294,142.8163999106182 135.6208212292113,145.79999999999927 140.19371720514027,143.2442900439528 142.82521787457517,145.4877700274701 143.96275418697041,145.75374381467554 143.30298312581726,145.46464181397823 143.09822658952908,145.02520399169953" stroke="#4dd2ff" stroke-linecap="round" stroke-linejoin="round" stroke-width="0.5"><title>2022-10-21 10.3km</title></polyline><polyline fill="none" points="179.31621468090452,145.2580358274099 179.96654487474007,145.67315778004922 179.95142091676826,145.79999999999927 178.9229917729681,145.55784642774233 177.85675273422385,144.77372308757913 173.5691106421582,141.00286267695992 173.3800611672341,140.77222097184858 173.46324293621,140.53004618387422 171.65592995559564,139.11157333045412 167.6253951495164,135.45567271595792 168.34378315432696,133.70260305026022 178.42390115911257,113.4346128233301 177.70551315424382,115.25752533809646 176.83588556945324,116.8496420443953 170.63506279082503,129.5965197312653 164.03345512528904,142.87102632649476 164.25275251621497,142.08686627463976 167.51952744351001,135.58253752148812 178.43146313808393,113.39999999999782 178.12142199918162,114.3806885738777 167.73882483446505,135.40953998981786 173.48592887318227,140.5069818650445 173.3271273142018,140.81834938705651 171.24002111068694,142.75570934376447 171.65592995559564,145.74234448023344 176.20824131258996,143.1939126452744 178.83981000399217,145.43100367259103 179.93629695873824,145.7538755888163 179.2330329119286,145.23497340868926" stroke="#4dd2ff" stroke-linecap="round" stroke-linejoin="round" stroke-width="0.5"><title>2022-10-16 15.1km</title></polyline><polyline fill="none" points="35.30771587995696,186.16119156021887 35.943827935814625,186.59999999999854 35.18655167883844,186.4960719880728 33.89918204196147,185.65309339165833 29.499406988878036,181.79601990836818 29.340378974884516,181.58814632116628 29.453970413451316,181.36872338568355 25.53127940223203,178.1119265808302 23.59265218436485,176.28711577654758 24.2211914776708,174.6701463885547 34.35354779617046,154.20000000000073 33.66442640230525,156.03706609204892 22.138681770971743,179.2552911641833 20.05617206421448,183.66684835785782 20.306073229032336,182.70834509361157 20.38937361733406,182.592861693538 20.38937361733406,182.83537656564658 23.221586818428477,176.70290055086298 23.56993389665149,176.34486384178308 24.796721432969207,177.17642954641997 29.476688701164676,181.36872338568355 27.189714405074483,183.56291504172623 27.628934634121833,186.5653573502277 32.165019413485425,184.00174332027018 34.80034078776953,186.2535725627895 35.837809259828646,186.58845245238626 35.92110964813037,186.51916711809827 35.71664505871013,186.39214378826364" stroke="#4dd2ff" stroke-linecap="round" stroke-linejoin="round" stroke-width="0.5"><title>2022-10-14 10.3km</title></polyline><polyline fill="none" points="71.31293744099094,185.98753996517553 71.98739488370484,186.46133037462278 71.82067506643943,186.59999999999854 70.90371607124689,186.2995487224107 69.93370986144873,185.58308164957634 65.43227479414782,181.63079641236254 65.48532200872432,181.2956486220828 63.492262374580605,179.72389499593555 59.64255022947327,176.19885014542888 60.00630255814758,175.08928312113494 70.41113479281194,154.1999999999971 68.04674465645803,159.31031002559394 56.01260511626606,183.58386019801765 56.444561006559525,182.40509590751026 59.31668876839103,176.5571432575489 59.64255022947327,176.25663950805028 65.4929001822602,181.2378643228767 65.26555497685331,181.6423531978944 63.23460447508842,183.5029653815909 63.636247671354795,186.56533262499943 68.23619899433106,183.9883325734154 70.83551250959863,186.19554599142793 71.83583141345298,186.4844420020745 71.9722385367204,186.40355126537543" stroke="#4dd2ff" stroke-linecap="round" stroke-linejoin="round" stroke-width="0.5"><title>2022-10-10 10.3km</title></polyline><polyline fill="none" points="107.4262333290244,186.11517389548317 107.96370791245135,186.59999999999854 107.22941165056545,186.44993521436118 105.96521086979192,185.67651818022568 101.46102245923248,181.75155483101844 101.33990142634138,181.56684406683416 101.4685925237718,181.3359547764303 99.66691715954221,179.95059954636963 95.59422242865548,176.24461008447906 106.43455487224855,154.1999999999971 105.70025861033355,156.0248620095772 101.33233136177296,164.6517473589047 98.60710812176694,170.41383114957353 92.03629208751954,183.65634994630454 92.11199273305829,183.17149899977812 92.79329854308162,181.71692160798557 95.14758861987502,176.9950633926819 95.63964281597873,176.33697409763408 101.48373265290866,181.34749926296718 99.205143221654,183.55245365940573 99.61392670765053,186.56536969963054 104.16353550556232,184.01421349645534 106.82062816456892,186.2421525564023 107.91828752512811,186.56536969963054 107.13857087591896,185.96510784347265" stroke="#4dd2ff" stroke-linecap="round" stroke-linejoin="round" stroke-width="0.5"><title>2022-10-08 10.4km</title></polyline><polyline fill="none" points="143.46030911724665,186.11517389513756 143.96750415617134,186.40376135517 143.92208370490698,186.59999999999854 142.91526370227803,186.26523955526864 141.43152896154788,185.15705313232684 140.59882068869774,184.25663592366618 137.442099327076,181.63611067007878 137.48751977828215,181.27823230570357 136.58668082859367,180.65482595974026 131.62828156747855,176.16379144621897 142.39292851294158,154.1999999999971 141.72676189464983,155.8747173234915 140.22788700350793,158.77359532608898 138.30508790074964,162.86180405674895 132.68052202137187,174.06246706785532 128.03249584379955,183.598629808228 128.6381018604152,182.0286198610229 131.1362266789656,176.90270043290002 131.59800126665505,176.24461007957507 132.10519630555063,176.48706529742412 137.47994970309082,181.2435987973331 135.2089271407749,183.48318936172655 135.64042142761173,186.51919593330604 140.16732640186092,183.94494975578345 142.81685272455798,186.17289150310535 143.8993734793039,186.49610903623397 143.91451362971566,186.38067441173916 143.1650761841447,185.95356428434752" stroke="#4dd2ff" stroke-linecap="round" stroke-linejoin="round" stroke-width="0.5"><title>2022-10-03 10.3km</title></polyline><polyline fill="none" points="179.55265595691162,186.20625879480212 179.94756607228192,186.56525823715492 179.3476064739225,186.47261343386344 178.22363153009792,185.84725711635838 176.54526353970869,184.24909347813082 173.64419307661592,181.86334646333853 173.40876589241088,181.5738073387547 173.54546554776607,181.3190117058184 172.61135123635177,180.69359946741315 167.68256921923603,176.2344451426543 168.2141789899615,174.79817652169731 178.4742475648527,154.1999999999971 178.18565940362168,155.11537340774885 177.04649560921825,157.29367189349068 174.72260146864573,162.19454239457264 168.6926277836028,174.19585967253806 164.04483950242866,183.7047812527344 178.3907088866108,154.37380619599935 178.06414859887445,155.33552433630757 177.21357296573115,156.86497072205384 167.74332462160964,176.2460278086255 173.5530599730555,181.34217499175065 171.25954353366978,183.57738828742367 171.6620480743586,186.58841941471474 176.25667537841946,184.01747188286754 178.89194095614948,186.2641620819304 179.95516049757134,186.59999999999854 179.35520089921192,186.24100077406547" stroke="#4dd2ff" stroke-linecap="round" stroke-linejoin="round" stroke-width="0.5"><title>2022-09-30 15.0km</title></polyline><polyline fill="none" points="31.08161006408045,224.63400563044343 31.20767593034543,224.89032003992543 30.48629902896937,224.7835225195122 29.35170623267186,224.03593386833745 25.19853630536818,220.38327812534772 25.275576556974556,220.0948998755266 24.449144767044345,219.52881950158917 19.82672967092367,215.36313698252343 29.813947742251912,195.00000000000364 29.498783076618565,195.940337670203 19.931784559448715,215.34177366655786 25.17752532765735,219.9346890606721 25.247561920026783,220.34055552041536 27.817904859839473,222.4766437017788 29.575823328224942,224.14273289082485 30.2481746149424,224.62332583653915 31.718943054584088,225.1039144370152 34.67448725242866,226.68448629980048 36.17327032907633,227.2184526595629 36.17327032907633,227.40000000000146 36.13124837362557,227.2184526595629 34.24026037976728,226.524295345891 31.99908942406182,225.30682831921513 30.276189251890173,224.74080345127732 27.866930474498076,222.62616665954192 30.20615265952074,224.59128644202792 31.242694226530148,224.86896055301258 30.619368554471293,224.55924702819175 30.50030634747236,224.3349705905348 30.577346599049633,224.05729368998436 30.640379532182124,224.14273289082485" stroke="#4dd2ff" stroke-linecap="round" stroke-linejoin="round" stroke-width="0.5"><title>2022-09-23 10.1km</title></polyline><polyline fill="none" points="71.30393537163036,226.7995244481608 71.97033901361283,227.29607198805752 71.84917471505469,227.40000000000146 71.22820768502424,227.2498817002015 69.91054593835725,226.40690242595883 65.57134949674946,222.59601990673764 65.38203028024873,222.3996948719032 65.46533073548926,222.1225289749891 59.64187163673341,217.01781801891775 60.05837391296518,215.78199402318205 70.38763036386808,195.0 59.301097047078656,217.61839578491708 56.468881568609504,223.635376564358 56.03723375502159,224.47839649146044 56.02966098638717,224.27052971287412 59.29352427838603,217.47980147297494 59.664589942694874,217.08711577378563 65.46533073548926,222.09943175660737 64.89737308607437,222.7923442708925 63.21621844379115,224.27052971287412 63.625147951359395,227.3191671180648 68.16880914676585,224.79019524964315 70.8192781774269,226.99583445345343 71.88703855834319,227.33071467958143 71.33422644625534,227.01892970408153 71.16762553574517,226.73023840383394" stroke="#4dd2ff" stroke-linecap="round" stroke-linejoin="round" stroke-width="0.5"><title>2022-09-19 10.4km</title></polyline><polyline fill="none" points="107.29116391175194,226.7076368400194 107.91168849996757,227.22690999253973 107.88898638088722,227.40000000000146 106.86739102221327,227.0538194633591 106.14092321158387,226.5345447458276 101.68374049855629,222.6456048344553 101.41131506956299,222.35709731541647 101.47942142683314,222.09166911777356 99.90540783715551,220.8568348513727 95.66767894188524,216.9905932408692 96.15199081564788,215.68639929837082 106.42848338664044,195.00000000000364 105.75498718718882,196.7664847389242 104.8998740351235,198.32510260594427 101.21456337085692,206.00212124502286 92.0580420079059,224.42277918943728 106.26956855304888,195.42719410295467 106.02741261618212,196.16611693830782 95.75092004518956,216.96751041971947 101.52482566496474,222.1147498792816 99.27731587589369,224.353539659769 99.67081927330582,227.2961460581355 104.23394520871807,224.79205527133672 106.85982364919619,227.00766190079958 107.941957992065,227.33076405962856 107.170085943304,226.71917629440577" stroke="#4dd2ff" stroke-linecap="round" stroke-linejoin="round" stroke-width="0.5"><title>2022-09-17 15.0km</title></polyline><polyline fill="none" points="143.34965907549486,226.7295211122364 143.97887176583754,227.2728408113544 143.8651586289925,227.40000000000146 142.87964477669448,227.12256140788668 142.0154249369516,226.47519949017442 137.54270822263788,222.53307058142673 137.38350983112468,222.33653509176293 137.45173771321424,222.12843795907975 131.63720598455984,217.01826105992586 132.38013181168935,215.1914360987539 142.4096304778941,195.0 142.10639544643345,195.96000539077795 128.38501027194434,223.79319394461345 128.02112823416246,224.49838855233975 128.23339275619946,223.66602678395066 131.43252233832027,217.18012882817857 131.61446335719666,217.07607102944166 137.4668994647509,222.1053160090196 137.2318923153798,222.49838789675414 135.23054110759404,224.3249808436958 135.64748927589972,227.36532024916232 140.15811036914238,224.7295980175295 142.79625514303916,227.07632151247526 143.87273950481904,227.37688016844913 143.9409673868795,227.2728408113544 143.24352681447635,226.94916160845605" stroke="#4dd2ff" stroke-linecap="round" stroke-linejoin="round" stroke-width="0.5"><title>2022-09-11 10.4km</title></polyline><polyline fill="none" points="179.1976617288019,226.7201453671587 179.93820855231024,227.27324805258104 179.81730294847512,227.40000000000146 178.7896053158329,227.0773581282192 177.81480388483033,226.3168379627823 173.43197574550868,222.46799033357456 173.47731534697232,222.11074886019196 171.94332549819956,220.9583418419861 167.64361996154184,217.03998474209948 168.14235557737993,215.6684964990054 178.41177530380082,195.0 177.71656808169791,196.78702986951976 176.90801185602322,198.28578616255254 174.3765507755743,203.58876306819002 172.45717431453522,207.36971661880307 164.06179144768976,224.47311085162073 164.27337625442306,223.66646160079472 167.62095016081003,217.0860846173855 168.2330347802781,217.47793206117785 173.4924285474699,222.1222728134053 171.24811827609665,224.3348289286987 171.67128788956325,227.3308626088401 176.16746503245668,224.7727205406918 178.81983171676984,227.00822034810335 179.91553875160753,227.28477096845745 179.1220957264013,226.7547144412638" stroke="#4dd2ff" stroke-linecap="round" stroke-linejoin="round" stroke-width="0.5"><title>2022-09-09 10.4km</title></polyline><polyline fill="none" points="35.41566814039834,267.65822875142476 35.92970018275082,267.99251374333835 35.816310761641944,268.2000000000007 34.89407680329168,267.90029738837984 34.19862168718828,267.4161590930453 29.5269775375491,263.3123465932913 29.38335093751084,263.1163706746556 29.489181063865544,262.87428185089084 27.977322115766583,261.70993561594514 23.660964818962384,257.8247677826621 24.386657114024274,256.0146739225711 34.41028193992679,235.79999999999927 33.71482682379428,237.55306619153998 32.24832364413305,240.4362821941868 28.922233958321158,247.3092845158826 20.070299817220075,265.19137583003976 20.576772564818384,263.84263101644683 23.260322197689675,258.3781608742138 23.645846229454037,257.85935500727646 29.48162176911137,262.8858099132667 27.266748410154833,265.099154972384 27.674950326123508,268.10778397855756 32.19540858097025,265.50262013011525 34.84116174012888,267.78502673623734 35.91458159327158,268.1193109893575 35.907022298517404,267.98098670705076 35.29471942456439,267.76197257804597 35.16621141397627,267.49684909265125" stroke="#4dd2ff" stroke-linecap="round" stroke-linejoin="round" stroke-width="0.5"><title>2022-09-07 10.4km</title></polyline><polyline fill="none" points="71.21942302692332,267.4260331789592 71.97697003922076,268.06137984277666 71.7875832861464,268.2000000000007 70.80277217019466,267.89965590356223 70.00734780731727,267.2874111556339 65.38631103246007,263.2441217584819 65.40146197268041,262.89754086393805 59.59107638854766,257.8372218432705 59.810765022120904,257.04000768413607 70.355819432938,235.79999999999927 70.03007421770599,236.84022668858233 64.18181128293509,248.76681386282144 61.14404776375159,254.71762516204763 56.144237482745666,265.057861028552 56.02302996077924,265.2542497454815 56.06090731135919,264.8268146203227 59.2501802330371,258.19538692413335 59.583500918437494,257.86032933518436 60.51528374355985,258.4957817229151 65.43933932331856,262.885988131482 63.1818492267339,265.1387270520536 63.643952904239995,268.1422416417736 68.1362066869915,265.5546076620085 70.79519670008449,267.77258677507416 71.84818704711506,268.1537933180807 71.90879080814193,268.0382764507449 71.32547960866941,267.85344898024414 71.17397020623321,267.63396558729437" stroke="#4dd2ff" stroke-linecap="round" stroke-linejoin="round" stroke-width="0.5"><title>2022-09-02 10.4km</title></polyline></svg>