<?xml version="1.0" encoding="utf-8" ?>
<svg baseProfile="full" height="200mm" version="1.1" viewBox="0,0,200,200" width="200mm" xmlns="http://www.w3.org/2000/svg" xmlns:ev="http://www.w3.org/2001/xml-events" xmlns:xlink="http://www.w3.org/1999/xlink"><defs /><rect fill="#1a1a1a" height="200" width="200" x="0" y="0" /><text alignment-baseline="middle" fill="#e1ed5e" style="dominant-baseline: central; font-size:9.0px; font-family:Arial;" text-anchor="middle" x="100.0" y="100.0">2023</text><line stroke="#e1ed5e" stroke-width="0.3" x1="100.0" x2="100.0" y1="15.0" y2="10.0" /><path d="M 100.0 14.0 a86.0,86.0 0 0,1 42.46469731375804,11.215312516191453" fill="none" id="id13" stroke="none" /><text fill="#e1ed5e" style="font-size:6.75px; font-family:Arial;" text-anchor="middle"><textPath startOffset="22.20632615414155" xlink:href="#id13">January</textPath></text><path d="M 108.43124777332544 80.76684994638697 l 3.623145336032285 -8.265027880502242 a30.024293212850072,30.024293212850072 0 0,0 0.4715499419997352,0.21157071362439558 l -3.7648773964988007 8.201436836361314" fill="#ff0000" stroke="none" /><path d="M 109.41281617654863 81.2277094730956 l 15.239812510019508 -30.393261978960364 a55.00003322148766,55.00003322148766 0 0,0 0.8426516129182707,0.4316388849029503 l -15.760724610526534 30.12643056874491" fill="#90ff24" stroke="none" /><path d="M 109.73455568895987 81.39251694778311 l 19.956550634495418 -38.146700227235485 a64.0515348327298,64.0515348327298 0 0,0 0.9725309123276342,0.5194923324870379 l -20.610226593351364 37.79752916824669" fill="#31ff3b" stroke="none" /><path d="M 110.36928655335952 81.73862282372117 l 21.975525888735447 -38.70115507332187 a65.50509119298363,65.50509119298363 0 0,0 0.9757241221581868,0.5652023901883007 l -22.638446743358962 38.31714852574352" fill="#33ff4f" stroke="none" /><line stroke="#e1ed5e" stroke-width="0.3" x1="143.23703022742887" x2="145.7803849466894" y1="26.81831364943548" y2="22.513508569990506" /><path d="M 143.74570117128098 25.957352633546492 a86.0,86.0 0 0,1 28.547481713284135,27.462654790039103" fill="none" id="id14" stroke="none" /><text fill="#e1ed5e" style="font-size:6.75px; font-family:Arial;" text-anchor="middle"><textPath startOffset="19.985693538727396" xlink:href="#id14">February</textPath></text><path d="M 110.99172775467656 82.1063720568725 l 23.883482333695188 -38.88034314565097 a66.63005381881001,66.63005381881001 0 0,0 0.9721034460232729,0.608731088718832 l -24.549204932090724 38.46346771560919" fill="#34ff5e" stroke="none" /><path d="M 111.60114157652 82.49532879139004 l 29.90827176292189 -45.1278402366283 a75.1389571775024,75.1389571775024 0 0,0 1.0719656589317905,0.7237959980623371 l -30.680642116260223 44.60633232626729" fill="#40ffc9" stroke="none" /><path d="M 111.90073688211348 82.69761687909136 l 30.615704206128097 -44.51191963474179 a75.0243679611973,75.0243679611973 0 0,0 1.0577323393204063,0.741009098914671 l -31.37736768503215 43.978325693063184" fill="#40ffc8" stroke="none" /><path d="M 113.6212207817346 84.01681056812373 l 35.0126147152969 -41.083927972909954 a74.97936945616425,74.97936945616425 0 0,0 0.9751109891444693,0.8456066408828362 l -35.71461950308813 40.47515633860745" fill="#40ffc7" stroke="none" /><path d="M 113.89432698308785 84.25364557470407 l 35.92475844727772 -40.71330549817411 a75.29697518354872,75.29697518354872 0 0,0 0.9644789996015247,0.8659187687381252 l -36.620248434475236 40.08888772066668" fill="#41ffcb" stroke="none" /><path d="M 114.42810811169701 84.74124197986012 l 25.453860208515664 -26.919280795056746 a58.04789707983124,58.04789707983124 0 0,0 0.7201166601122768,0.6927516564803282 l -25.91346011224036 26.477146051814113" fill="#6bff28" stroke="none" /><path d="M 115.19652480421416 85.50635884689758 l 19.905397797805954 -18.98471501926216 a48.50716753596227,48.50716753596227 0 0,0 0.5710741396925415,0.6091820752311057 l -20.229239259468958 18.639263527153002" fill="#e5ff1a" stroke="none" /><path d="M 115.9244219780498 86.31012108654704 l 40.732101377594695 -35.01650085123221 a74.71461081027208,74.71461081027208 0 0,0 0.8300059866417702,0.9824652908190972 l -41.32881797772359 34.310176610784005" fill="#40ffc4" stroke="none" /><path d="M 116.15771136456269 86.58626213691792 l 48.47313409368808 -40.241213589246215 a84.0,84.0 0 0,0 0.9140060316943646,1.1204633215675965 l -49.158638617458855 39.400866098070516" fill="#4dd2ff" stroke="none" /><path d="M 116.38621287248628 86.86637796730983 l 30.476526844945635 -24.427070950770506 a60.05765589183084,60.05765589183084 0 0,0 0.6396023652047543,0.8122300511729085 l -30.89248329074435 23.89884850564456" fill="#53ff2b" stroke="none" /><line stroke="#e1ed5e" stroke-width="0.3" x1="172.23445277983987" x2="176.4835382374775" y1="55.19839476539836" y2="52.563006222186495" /><path d="M 173.08426987136738 54.67131705675599 a86.0,86.0 0 0,1 12.851231095245387,41.99856678651699" fill="none" id="id15" stroke="none" /><text fill="#e1ed5e" style="font-size:6.75px; font-family:Arial;" text-anchor="middle"><textPath startOffset="22.20632615414155" xlink:href="#id15">March</textPath></text><path d="M 119.47837535516314 92.15188598940014 l 44.1000681056512 -17.768543631470138 a68.54510647486796,68.54510647486796 0 0,0 0.4315288190487221,1.0981937753806543 l -44.399390474581615 17.006800851193702" fill="#37ff77" stroke="none" /><line stroke="#e1ed5e" stroke-width="0.3" x1="184.98032266829074" x2="189.97916517819016" y1="98.17113171792111" y2="98.06355123074" /><path d="M 185.9800911702706 98.14961562048488 a86.0,86.0 0 0,1 -9.607161424134198,41.387399972396054" fill="none" id="id16" stroke="none" /><text fill="#e1ed5e" style="font-size:6.75px; font-family:Arial;" text-anchor="middle"><textPath startOffset="21.466115282336823" xlink:href="#id16">April</textPath></text><line stroke="#e1ed5e" stroke-width="0.3" x1="174.80103733775053" x2="179.2010983576182" y1="140.37084112569926" y2="142.7455964860345" /><path d="M 175.68104954172406 140.8457921977663 a86.0,86.0 0 0,1 -30.038265399797805,32.042727171017184" fill="none" id="id17" stroke="none" /><text fill="#e1ed5e" style="font-size:6.75px; font-family:Arial;" text-anchor="middle"><textPath startOffset="22.206326154141568" xlink:href="#id17">May</textPath></text><line stroke="#e1ed5e" stroke-width="0.3" x1="143.8653032363475" x2="146.44561519142675" y1="172.8068346515853" y2="177.08958963109032" /><path d="M 144.38136562736335 173.6633856474863 a86.0,86.0 0 0,1 -40.68145358897372,12.25698825130547" fill="none" id="id18" stroke="none" /><text fill="#e1ed5e" style="font-size:6.75px; font-family:Arial;" text-anchor="middle"><textPath startOffset="21.466115282336833" xlink:href="#id18">June</textPath></text><line stroke="#e1ed5e" stroke-width="0.3" x1="102.19456741930631" x2="102.32365962044197" y1="184.97166512339345" y2="189.96999836594603" /><path d="M 102.22038585953345 185.97133177190398 a86.0,86.0 0 0,1 -42.740103519485714,-10.115201625700543" fill="none" id="id19" stroke="none" /><text fill="#e1ed5e" style="font-size:6.75px; font-family:Arial;" text-anchor="middle"><textPath startOffset="22.20632615414155" xlink:href="#id19">July</textPath></text><line stroke="#e1ed5e" stroke-width="0.3" x1="58.666819895761336" x2="56.23545636021788" y1="174.27360380694188" y2="178.64263932499728" /><path d="M 58.180547188652646 175.14741091055294 a86.0,86.0 0 0,1 -31.652253787137756,-30.449443065178592" fill="none" id="id20" stroke="none" /><text fill="#e1ed5e" style="font-size:6.75px; font-family:Arial;" text-anchor="middle"><textPath startOffset="22.20632615414155" xlink:href="#id20">August</textPath></text><line stroke="#e1ed5e" stroke-width="0.3" x1="26.63291911575756" x2="22.317208475507996" y1="142.92168965132927" y2="145.44649492493687" /><path d="M 25.769776987707644 143.4266507060508 a86.0,86.0 0 0,1 -11.730757126820373,-40.83630448921669" fill="none" id="id21" stroke="none" /><text fill="#e1ed5e" style="font-size:6.75px; font-family:Arial;" text-anchor="middle"><textPath startOffset="21.46611528233685" xlink:href="#id21">September</textPath></text><line stroke="#e1ed5e" stroke-width="0.3" x1="15.007084014347285" x2="10.007500721073583" y1="101.09737516637583" y2="101.16192664675087" /><path d="M 14.007167355692545 101.11028546245083 a86.0,86.0 0 0,1 10.666146001902534,-42.60595125391555" fill="none" id="id22" stroke="none" /><text fill="#e1ed5e" style="font-size:6.75px; font-family:Arial;" text-anchor="middle"><textPath startOffset="22.20632615414155" xlink:href="#id22">October</textPath></text><line stroke="#e1ed5e" stroke-width="0.3" x1="26.266209847984243" x2="21.928928074336255" y1="57.711370442889674" y2="55.22380399835377" /><path d="M 25.398753493254645 57.213857153982495 a86.0,86.0 0 0,1 29.58750427330803,-30.492523968695096" fill="none" id="id23" stroke="none" /><text fill="#e1ed5e" style="font-size:6.75px; font-family:Arial;" text-anchor="middle"><textPath startOffset="21.46611528233685" xlink:href="#id23">November</textPath></text><line stroke="#e1ed5e" stroke-width="0.3" x1="56.762969772571076" x2="54.21961505331055" y1="26.818313649435495" y2="22.513508569990535" /><path d="M 56.25429882871897 25.957352633546506 a86.0,86.0 0 0,1 42.265352541879196,-11.944610805530505" fill="none" id="id24" stroke="none" /><text fill="#e1ed5e" style="font-size:6.75px; font-family:Arial;" text-anchor="middle"><textPath startOffset="22.20632615414155" xlink:href="#id24">December</textPath></text></svg>