<?xml version="1.0" encoding="utf-8" ?>
<svg baseProfile="full" height="200mm" version="1.1" viewBox="0,0,200,200" width="200mm" xmlns="http://www.w3.org/2000/svg" xmlns:ev="http://www.w3.org/2001/xml-events" xmlns:xlink="http://www.w3.org/1999/xlink"><defs /><rect fill="#1a1a1a" height="200" width="200" x="0" y="0" /><text alignment-baseline="middle" fill="#e1ed5e" style="dominant-baseline: central; font-size:9.0px; font-family:Arial;" text-anchor="middle" x="100.0" y="100.0">2023</text><line stroke="#e1ed5e" stroke-width="0.3" x1="100.0" x2="100.0" y1="15.0" y2="10.0" /><path d="M 100.0 14.0 a86.0,86.0 0 0,1 42.46469731375804,11.215312516191453" fill="none" id="id13" stroke="none" /><text fill="#e1ed5e" style="font-size:6.75px; font-family:Arial;" text-anchor="middle"><textPath startOffset="22.20632615414155" xlink:href="#id13">January</textPath></text><path d="M 108.43124777332544 80.76684994638697 l 2.747231874450582 -6.266916154515576 a27.842625304641892,27.842625304641892 0 0,0 0.4372855092523908,0.19619726143490335 l -2.8546995021697525 6.218698562564141" fill="#ff0000" stroke="none" /><path d="M 109.41281617654863 81.2277094730956 l 11.555511801253132 -23.04553925749084 a46.78035555723489,46.78035555723489 0 0,0 0.716718513686162,0.36713106020815306 l -11.95049080252805 22.84321567197019" fill="#e9ff1a" stroke="none" /><path d="M 109.73455568895987 81.39251694778311 l 15.1319549513882 -28.924545125793088 a53.64361149420944,53.64361149420944 0 0,0 0.814501487954262,0.4350784868923282 l -15.627601485870773 28.659787912399004" fill="#92ff23" stroke="none" /><path d="M 110.36928655335952 81.73862282372117 l 16.662832864844816 -29.34495774655209 a54.74576335228883,54.74576335228883 0 0,0 0.8154596981083728,0.4723668914258534 l -17.165489295418517 29.05378669773619" fill="#85ff25" stroke="none" /><line stroke="#e1ed5e" stroke-width="0.3" x1="143.23703022742887" x2="145.7803849466894" y1="26.81831364943548" y2="22.513508569990506" /><path d="M 143.74570117128098 25.957352633546492 a86.0,86.0 0 0,1 28.547481713284135,27.462654790039103" fill="none" id="id14" stroke="none" /><text fill="#e1ed5e" style="font-size:6.75px; font-family:Arial;" text-anchor="middle"><textPath startOffset="19.985693538727396" xlink:href="#id14">February</textPath></text><path d="M 110.99172775467656 82.1063720568725 l 18.109531320059673 -29.480826208390543 a55.59876065065841,55.59876065065841 0 0,0 0.8111616864381134,0.5079493736314304 l -18.61431215887005 29.16473249343617" fill="#7bff26" stroke="none" /><path d="M 111.60114157652 82.49532879139004 l 22.67779784589275 -34.21795970761302 a62.05059416976819,62.05059416976819 0 0,0 0.8852412725022549,0.5977188588254141 l -23.263443812801547 33.822528936488936" fill="#33ff2f" stroke="none" /><path d="M 111.90073688211348 82.69761687909136 l 23.21420496643207 -33.7509409841835 a61.963707468213336,61.963707468213336 0 0,0 0.8735963932040923,0.6120101013070937 l -23.791732499219812 33.34634604011247" fill="#34ff2f" stroke="none" /><path d="M 113.6212207817346 84.01681056812373 l 26.548140422944382 -31.15168340953474 a61.92958757627855,61.92958757627855 0 0,0 0.8053978292538087,0.6984330610069036 l -27.080432050844955 30.690085355108163" fill="#34ff2f" stroke="none" /><path d="M 113.89432698308785 84.25364557470407 l 27.239768856851544 -30.870660767175856 a62.17041053446941,62.17041053446941 0 0,0 0.7963408252580374,0.7149626556806703 l -27.76712066970557 30.39719910272589" fill="#31ff2f" stroke="none" /><path d="M 114.42810811169701 84.74124197986012 l 19.300262508713352 -20.411410357182067 a49.091383121422226,49.091383121422226 0 0,0 0.6090060903510951,0.5858633764028605 l -19.648751842676866 20.076163894016904" fill="#cbff1d" stroke="none" /><path d="M 115.19652480421416 85.50635884689758 l 15.093168568180138 -14.39506544481962 a41.85717254538929,41.85717254538929 0 0,0 0.49278385062576235,0.5256674534872091 l -15.338719740776362 14.133128574454355" fill="#ffd313" stroke="none" /><path d="M 115.9244219780498 86.31012108654704 l 30.884912648970122 -26.551087066128627 a61.728835653964595,61.728835653964595 0 0,0 0.685746771422284,0.8117078816980019 l -31.337370033879523 26.015520234801517" fill="#36ff2e" stroke="none" /><path d="M 116.15771136456269 86.58626213691792 l 36.75451208438923 -30.512699432592118 a68.76943568041412,68.76943568041412 0 0,0 0.7482818929537637,0.9173051229143571 l -37.27429246941941 29.87551014006966" fill="#38ff82" stroke="none" /><path d="M 116.38621287248628 86.86637796730983 l 23.108674426699128 -18.521704676884827 a50.61527271353272,50.61527271353272 0 0,0 0.539042819143108,0.684529639656406 l -23.4240713264362 18.121182643275382" fill="#b8ff1f" stroke="none" /><line stroke="#e1ed5e" stroke-width="0.3" x1="172.23445277983987" x2="176.4835382374775" y1="55.19839476539836" y2="52.563006222186495" /><path d="M 173.08426987136738 54.67131705675599 a86.0,86.0 0 0,1 12.851231095245387,41.99856678651699" fill="none" id="id15" stroke="none" /><text fill="#e1ed5e" style="font-size:6.75px; font-family:Arial;" text-anchor="middle"><textPath startOffset="22.20632615414155" xlink:href="#id15">March</textPath></text><path d="M 119.47837535516314 92.15188598940014 l 33.438656617060104 -13.472909557748327 a57.05083977253406,57.05083977253406 0 0,0 0.35916614298069643,0.9140386577619165 l -33.665616309922505 12.895321895090627" fill="#6aff28" stroke="none" /><path d="M 120.18372546131832 94.20196356495316 l 60.551176383954946 -17.394109305140535 a84.0,84.0 0 0,0 0.3872529177345476,1.3931547863241924 l -60.84161607225586 16.349243215397394" fill="#4dd2ff" stroke="none" /><path d="M 120.28053869075195 94.5502522615342 l 31.59765477223049 -8.490861621654558 a53.71859590788007,53.71859590788007 0 0,0 0.23227835977202183,0.8950632725078159 l -31.739129463872814 7.945701923597891" fill="#91ff23" stroke="none" /><path d="M 120.45610955862082 95.25157060432595 l 39.64344641918282 -9.202341519692595 a61.69749296253613,61.69749296253613 0 0,0 0.23123519066923232,1.0365820191057247 l -39.7959759968541 8.518581331036907" fill="#37ff2e" stroke="none" /><path d="M 120.6074358757038 95.95851677861258 l 39.74360727172112 -7.794425415897923 a61.500708469516915,61.500708469516915 0 0,0 0.19479405251812873,1.040597617657295 l -39.871887048149105 7.109149720778065" fill="#39ff2e" stroke="none" /><line stroke="#e1ed5e" stroke-width="0.3" x1="184.98032266829074" x2="189.97916517819016" y1="98.17113171792111" y2="98.06355123074" /><path d="M 185.9800911702706 98.14961562048488 a86.0,86.0 0 0,1 -9.607161424134198,41.387399972396054" fill="none" id="id16" stroke="none" /><text fill="#e1ed5e" style="font-size:6.75px; font-family:Arial;" text-anchor="middle"><textPath startOffset="21.466115282336823" xlink:href="#id16">April</textPath></text><line stroke="#e1ed5e" stroke-width="0.3" x1="174.80103733775053" x2="179.2010983576182" y1="140.37084112569926" y2="142.7455964860345" /><path d="M 175.68104954172406 140.8457921977663 a86.0,86.0 0 0,1 -30.038265399797805,32.042727171017184" fill="none" id="id17" stroke="none" /><text fill="#e1ed5e" style="font-size:6.75px; font-family:Arial;" text-anchor="middle"><textPath startOffset="22.206326154141568" xlink:href="#id17">May</textPath></text><line stroke="#e1ed5e" stroke-width="0.3" x1="143.8653032363475" x2="146.44561519142675" y1="172.8068346515853" y2="177.08958963109032" /><path d="M 144.38136562736335 173.6633856474863 a86.0,86.0 0 0,1 -40.68145358897372,12.25698825130547" fill="none" id="id18" stroke="none" /><text fill="#e1ed5e" style="font-size:6.75px; font-family:Arial;" text-anchor="middle"><textPath startOffset="21.466115282336833" xlink:href="#id18">June</textPath></text><line stroke="#e1ed5e" stroke-width="0.3" x1="102.19456741930631" x2="102.32365962044197" y1="184.97166512339345" y2="189.96999836594603" /><path d="M 102.22038585953345 185.97133177190398 a86.0,86.0 0 0,1 -42.740103519485714,-10.115201625700543" fill="none" id="id19" stroke="none" /><text fill="#e1ed5e" style="font-size:6.75px; font-family:Arial;" text-anchor="middle"><textPath startOffset="22.20632615414155" xlink:href="#id19">July</textPath></text><line stroke="#e1ed5e" stroke-width="0.3" x1="58.666819895761336" x2="56.23545636021788" y1="174.27360380694188" y2="178.64263932499728" /><path d="M 58.180547188652646 175.14741091055294 a86.0,86.0 0 0,1 -31.652253787137756,-30.449443065178592" fill="none" id="id20" stroke="none" /><text fill="#e1ed5e" style="font-size:6.75px; font-family:Arial;" text-anchor="middle"><textPath startOffset="22.20632615414155" xlink:href="#id20">August</textPath></text><line stroke="#e1ed5e" stroke-width="0.3" x1="26.63291911575756" x2="22.317208475507996" y1="142.92168965132927" y2="145.44649492493687" /><path d="M 25.769776987707644 143.4266507060508 a86.0,86.0 0 0,1 -11.730757126820373,-40.83630448921669" fill="none" id="id21" stroke="none" /><text fill="#e1ed5e" style="font-size:6.75px; font-family:Arial;" text-anchor="middle"><textPath startOffset="21.46611528233685" xlink:href="#id21">September</textPath></text><line stroke="#e1ed5e" stroke-width="0.3" x1="15.007084014347285" x2="10.007500721073583" y1="101.09737516637583" y2="101.16192664675087" /><path d="M 14.007167355692545 101.11028546245083 a86.0,86.0 0 0,1 10.666146001902534,-42.60595125391555" fill="none" id="id22" stroke="none" /><text fill="#e1ed5e" style="font-size:6.75px; font-family:Arial;" text-anchor="middle"><textPath startOffset="22.20632615414155" xlink:href="#id22">October</textPath></text><line stroke="#e1ed5e" stroke-width="0.3" x1="26.266209847984243" x2="21.928928074336255" y1="57.711370442889674" y2="55.22380399835377" /><path d="M 25.398753493254645 57.213857153982495 a86.0,86.0 0 0,1 29.58750427330803,-30.492523968695096" fill="none" id="id23" stroke="none" /><text fill="#e1ed5e" style="font-size:6.75px; font-family:Arial;" text-anchor="middle"><textPath startOffset="21.46611528233685" xlink:href="#id23">November</textPath></text><line stroke="#e1ed5e" stroke-width="0.3" x1="56.762969772571076" x2="54.21961505331055" y1="26.818313649435495" y2="22.513508569990535" /><path d="M 56.25429882871897 25.957352633546506 a86.0,86.0 0 0,1 42.265352541879196,-11.944610805530505" fill="none" id="id24" stroke="none" /><text fill="#e1ed5e" style="font-size:6.75px; font-family:Arial;" text-anchor="middle"><textPath startOffset="22.20632615414155" xlink:href="#id24">December</textPath></text></svg>